%TF.GenerationSoftware,KiCad,Pcbnew,10.0.5*%
%TF.CreationDate,2026-09-10T12:24:19+07:00*%
%TF.ProjectId,main_controller_hat,6d61696e-5f63-46f6-9e74-726f6c6c6572,rev?*%
%TF.SameCoordinates,Original*%
%TF.FileFunction,Soldermask,Top*%
%TF.FilePolarity,Negative*%
%FSLAX46Y46*%
G04 Gerber Fmt 4.6, Leading zero omitted, Abs format (unit mm)*
G04 Created by KiCad (PCBNEW 10.0.5) date 2026-09-10 12:24:19*
%MOMM*%
%LPD*%
G01*
G04 APERTURE LIST*
G04 Aperture macros list*
%AMRoundRect*
0 Rectangle with rounded corners*
0 $1 Rounding radius*
0 $2 $3 $4 $5 $6 $7 $8 $9 X,Y pos of 4 corners*
0 Add a 4 corners polygon primitive as box body*
4,1,4,$2,$3,$4,$5,$6,$7,$8,$9,$2,$3,0*
0 Add four circle primitives for the rounded corners*
1,1,$1+$1,$2,$3*
1,1,$1+$1,$4,$5*
1,1,$1+$1,$6,$7*
1,1,$1+$1,$8,$9*
0 Add four rect primitives between the rounded corners*
20,1,$1+$1,$2,$3,$4,$5,0*
20,1,$1+$1,$4,$5,$6,$7,0*
20,1,$1+$1,$6,$7,$8,$9,0*
20,1,$1+$1,$8,$9,$2,$3,0*%
G04 Aperture macros list end*
%ADD10RoundRect,0.300000X0.450000X-0.262500X0.450000X0.262500X-0.450000X0.262500X-0.450000X-0.262500X0*%
%ADD11RoundRect,0.293750X-0.456250X0.243750X-0.456250X-0.243750X0.456250X-0.243750X0.456250X0.243750X0*%
%ADD12RoundRect,0.300000X-1.000000X1.950000X-1.000000X-1.950000X1.000000X-1.950000X1.000000X1.950000X0*%
%ADD13RoundRect,0.300000X-0.450000X0.262500X-0.450000X-0.262500X0.450000X-0.262500X0.450000X0.262500X0*%
%ADD14RoundRect,0.050000X-1.030000X-0.770000X1.030000X-0.770000X1.030000X0.770000X-1.030000X0.770000X0*%
%ADD15C,1.400000*%
%ADD16C,3.700000*%
%ADD17C,5.700000*%
%ADD18RoundRect,0.299999X0.790001X1.550001X-0.790001X1.550001X-0.790001X-1.550001X0.790001X-1.550001X0*%
%ADD19O,2.180000X3.700000*%
%ADD20RoundRect,0.300000X0.475000X-0.250000X0.475000X0.250000X-0.475000X0.250000X-0.475000X-0.250000X0*%
%ADD21RoundRect,0.102000X1.905000X0.400000X-1.905000X0.400000X-1.905000X-0.400000X1.905000X-0.400000X0*%
%ADD22RoundRect,0.102000X4.145000X5.035000X-4.145000X5.035000X-4.145000X-5.035000X4.145000X-5.035000X0*%
%ADD23RoundRect,0.300000X-0.262500X-0.450000X0.262500X-0.450000X0.262500X0.450000X-0.262500X0.450000X0*%
%ADD24RoundRect,0.050000X0.850000X0.850000X-0.850000X0.850000X-0.850000X-0.850000X0.850000X-0.850000X0*%
%ADD25C,1.800000*%
%ADD26RoundRect,0.102000X-1.752600X1.130300X-1.752600X-1.130300X1.752600X-1.130300X1.752600X1.130300X0*%
%ADD27RoundRect,0.287000X0.890000X0.555000X-0.890000X0.555000X-0.890000X-0.555000X0.890000X-0.555000X0*%
%ADD28RoundRect,0.300000X1.000000X0.650000X-1.000000X0.650000X-1.000000X-0.650000X1.000000X-0.650000X0*%
%ADD29RoundRect,0.300000X1.000000X-1.950000X1.000000X1.950000X-1.000000X1.950000X-1.000000X-1.950000X0*%
%ADD30RoundRect,0.300000X-2.050000X-0.300000X2.050000X-0.300000X2.050000X0.300000X-2.050000X0.300000X0*%
%ADD31RoundRect,0.300002X-4.449998X-5.149998X4.449998X-5.149998X4.449998X5.149998X-4.449998X5.149998X0*%
%ADD32RoundRect,0.050000X-0.600000X1.500000X-0.600000X-1.500000X0.600000X-1.500000X0.600000X1.500000X0*%
%ADD33RoundRect,0.050000X-3.000000X3.250000X-3.000000X-3.250000X3.000000X-3.250000X3.000000X3.250000X0*%
%ADD34RoundRect,0.300000X-0.250000X-0.475000X0.250000X-0.475000X0.250000X0.475000X-0.250000X0.475000X0*%
%ADD35RoundRect,0.200000X0.150000X-0.825000X0.150000X0.825000X-0.150000X0.825000X-0.150000X-0.825000X0*%
%ADD36RoundRect,0.050000X-1.500000X1.900000X-1.500000X-1.900000X1.500000X-1.900000X1.500000X1.900000X0*%
%ADD37RoundRect,0.300000X-0.600000X-0.725000X0.600000X-0.725000X0.600000X0.725000X-0.600000X0.725000X0*%
%ADD38O,1.800000X2.050000*%
%ADD39RoundRect,0.293750X-0.243750X-0.456250X0.243750X-0.456250X0.243750X0.456250X-0.243750X0.456250X0*%
%ADD40RoundRect,0.300000X-1.050000X1.050000X-1.050000X-1.050000X1.050000X-1.050000X1.050000X1.050000X0*%
%ADD41C,2.700000*%
%ADD42RoundRect,0.300000X0.600000X-0.400000X0.600000X0.400000X-0.600000X0.400000X-0.600000X-0.400000X0*%
%ADD43RoundRect,0.050000X1.500000X-1.900000X1.500000X1.900000X-1.500000X1.900000X-1.500000X-1.900000X0*%
%ADD44RoundRect,0.300000X-0.300000X2.050000X-0.300000X-2.050000X0.300000X-2.050000X0.300000X2.050000X0*%
%ADD45RoundRect,0.300002X-5.149998X4.449998X-5.149998X-4.449998X5.149998X-4.449998X5.149998X4.449998X0*%
%ADD46RoundRect,0.299999X-0.790001X-1.550001X0.790001X-1.550001X0.790001X1.550001X-0.790001X1.550001X0*%
%ADD47RoundRect,0.050000X1.030000X0.770000X-1.030000X0.770000X-1.030000X-0.770000X1.030000X-0.770000X0*%
%ADD48RoundRect,0.300000X-0.650000X0.325000X-0.650000X-0.325000X0.650000X-0.325000X0.650000X0.325000X0*%
%ADD49RoundRect,0.300000X0.262500X0.450000X-0.262500X0.450000X-0.262500X-0.450000X0.262500X-0.450000X0*%
%ADD50RoundRect,0.050000X-0.650000X-0.650000X0.650000X-0.650000X0.650000X0.650000X-0.650000X0.650000X0*%
%ADD51RoundRect,0.050000X-0.850000X-0.850000X0.850000X-0.850000X0.850000X0.850000X-0.850000X0.850000X0*%
%ADD52RoundRect,0.300000X0.250000X0.475000X-0.250000X0.475000X-0.250000X-0.475000X0.250000X-0.475000X0*%
%ADD53RoundRect,0.050000X1.500000X0.600000X-1.500000X0.600000X-1.500000X-0.600000X1.500000X-0.600000X0*%
%ADD54RoundRect,0.050000X3.250000X3.000000X-3.250000X3.000000X-3.250000X-3.000000X3.250000X-3.000000X0*%
%ADD55RoundRect,0.102000X1.752600X-1.130300X1.752600X1.130300X-1.752600X1.130300X-1.752600X-1.130300X0*%
%ADD56RoundRect,0.050000X-0.500000X-0.400000X0.500000X-0.400000X0.500000X0.400000X-0.500000X0.400000X0*%
%ADD57RoundRect,0.300000X0.650000X-1.000000X0.650000X1.000000X-0.650000X1.000000X-0.650000X-1.000000X0*%
%ADD58C,3.350000*%
%ADD59RoundRect,0.300500X0.499500X0.499500X-0.499500X0.499500X-0.499500X-0.499500X0.499500X-0.499500X0*%
%ADD60C,1.600000*%
%ADD61C,2.600000*%
%ADD62RoundRect,0.050000X-0.800000X0.800000X-0.800000X-0.800000X0.800000X-0.800000X0.800000X0.800000X0*%
%ADD63C,1.700000*%
%ADD64RoundRect,0.050000X-0.650000X0.650000X-0.650000X-0.650000X0.650000X-0.650000X0.650000X0.650000X0*%
%ADD65RoundRect,0.300000X-1.000000X-0.650000X1.000000X-0.650000X1.000000X0.650000X-1.000000X0.650000X0*%
%ADD66RoundRect,0.300000X-1.000000X1.750000X-1.000000X-1.750000X1.000000X-1.750000X1.000000X1.750000X0*%
%ADD67RoundRect,0.300000X-1.050000X-1.050000X1.050000X-1.050000X1.050000X1.050000X-1.050000X1.050000X0*%
%ADD68RoundRect,0.425000X-0.375000X0.625000X-0.375000X-0.625000X0.375000X-0.625000X0.375000X0.625000X0*%
%ADD69RoundRect,0.550000X-1.400000X0.500000X-1.400000X-0.500000X1.400000X-0.500000X1.400000X0.500000X0*%
G04 APERTURE END LIST*
D10*
%TO.C,R22*%
X144000000Y-34650000D03*
X144000000Y-36475000D03*
%TD*%
D11*
%TO.C,D10*%
X144000000Y-32250000D03*
X144000000Y-30375000D03*
%TD*%
D12*
%TO.C,C7*%
X181275000Y-88725000D03*
X181275000Y-96125000D03*
%TD*%
D10*
%TO.C,R24*%
X187115000Y-41137500D03*
X187115000Y-39312500D03*
%TD*%
D13*
%TO.C,R18*%
X121790000Y-74087500D03*
X121790000Y-75912500D03*
%TD*%
D14*
%TO.C,D8*%
X117000000Y-115000000D03*
X112000000Y-115000000D03*
%TD*%
D13*
%TO.C,R6*%
X145000000Y-82087500D03*
X145000000Y-83912500D03*
%TD*%
D15*
%TO.C,*%
X220400000Y-41500000D03*
%TD*%
D16*
%TO.C,H2*%
X104000000Y-24000000D03*
D17*
X104000000Y-24000000D03*
%TD*%
D18*
%TO.C,J8*%
X173085000Y-30777500D03*
D19*
X168005000Y-30777500D03*
X162925000Y-30777500D03*
%TD*%
D13*
%TO.C,R5*%
X161000000Y-61087500D03*
X161000000Y-62912500D03*
%TD*%
D20*
%TO.C,C2*%
X175950000Y-68300000D03*
X175950000Y-66400000D03*
%TD*%
D21*
%TO.C,U7*%
X138450000Y-50310000D03*
X138450000Y-49040000D03*
X138450000Y-47770000D03*
X138450000Y-46500000D03*
X138450000Y-45230000D03*
X138450000Y-43960000D03*
X138450000Y-42690000D03*
D22*
X128790000Y-46500000D03*
%TD*%
D23*
%TO.C,R2*%
X255087500Y-31000000D03*
X256912500Y-31000000D03*
%TD*%
D24*
%TO.C,J2*%
X253000000Y-79790000D03*
D25*
X253000000Y-77250000D03*
X253000000Y-74710000D03*
X253000000Y-72170000D03*
X253000000Y-69630000D03*
X253000000Y-67090000D03*
X253000000Y-64550000D03*
X253000000Y-62010000D03*
X253000000Y-59470000D03*
X253000000Y-56930000D03*
%TD*%
D26*
%TO.C,L1*%
X181275000Y-76605600D03*
X181275000Y-82244400D03*
%TD*%
D27*
%TO.C,U9*%
X157280000Y-70270000D03*
X157280000Y-67730000D03*
X148720000Y-67730000D03*
X148720000Y-70270000D03*
%TD*%
D13*
%TO.C,R3*%
X161000000Y-82087500D03*
X161000000Y-83912500D03*
%TD*%
D28*
%TO.C,D1*%
X240500000Y-92700000D03*
X236500000Y-92700000D03*
%TD*%
D27*
%TO.C,U4*%
X157280000Y-84270000D03*
X157280000Y-81730000D03*
X148720000Y-81730000D03*
X148720000Y-84270000D03*
%TD*%
D12*
%TO.C,C5*%
X208100000Y-88650000D03*
X208100000Y-96050000D03*
%TD*%
D29*
%TO.C,C9*%
X107500000Y-99200000D03*
X107500000Y-91800000D03*
%TD*%
D30*
%TO.C,U13*%
X124500000Y-107700000D03*
X124500000Y-109400000D03*
X124500000Y-111100000D03*
D31*
X133650000Y-111100000D03*
D30*
X124500000Y-112800000D03*
X124500000Y-114500000D03*
%TD*%
D32*
%TO.C,Q2*%
X119720000Y-31840000D03*
D33*
X122000000Y-25160000D03*
D32*
X124280000Y-31840000D03*
%TD*%
D34*
%TO.C,C6*%
X209375000Y-82350000D03*
X211275000Y-82350000D03*
%TD*%
D35*
%TO.C,U14*%
X185710000Y-50200000D03*
X186980000Y-50200000D03*
X188250000Y-50200000D03*
X189520000Y-50200000D03*
X189520000Y-45250000D03*
X188250000Y-45250000D03*
X186980000Y-45250000D03*
X185710000Y-45250000D03*
%TD*%
D36*
%TO.C,FH2*%
X114000000Y-23600000D03*
X114000000Y-30400000D03*
%TD*%
D37*
%TO.C,J6*%
X208500000Y-53000000D03*
D38*
X211000000Y-53000000D03*
X213500000Y-53000000D03*
X216000000Y-53000000D03*
%TD*%
D13*
%TO.C,R12*%
X118790000Y-42087500D03*
X118790000Y-43912500D03*
%TD*%
D39*
%TO.C,D5*%
X255062500Y-34000000D03*
X256937500Y-34000000D03*
%TD*%
D15*
%TO.C,*%
X220400000Y-39500000D03*
%TD*%
D40*
%TO.C,J4*%
X105500000Y-57260000D03*
D41*
X105500000Y-62340000D03*
X105500000Y-67420000D03*
X105500000Y-72500000D03*
X105500000Y-77580000D03*
X105500000Y-82660000D03*
%TD*%
D15*
%TO.C,*%
X222400000Y-39500000D03*
%TD*%
D16*
%TO.C,H3*%
X104000000Y-116000000D03*
D17*
X104000000Y-116000000D03*
%TD*%
D13*
%TO.C,R21*%
X118790000Y-90087500D03*
X118790000Y-91912500D03*
%TD*%
D10*
%TO.C,R16*%
X145000000Y-69912500D03*
X145000000Y-68087500D03*
%TD*%
D42*
%TO.C,D7*%
X134000000Y-26250000D03*
X134000000Y-22750000D03*
%TD*%
D13*
%TO.C,R10*%
X121790000Y-58087500D03*
X121790000Y-59912500D03*
%TD*%
D43*
%TO.C,FH1*%
X248500000Y-100500000D03*
X248500000Y-93700000D03*
%TD*%
D44*
%TO.C,U2*%
X197900000Y-83350000D03*
X196200000Y-83350000D03*
X194500000Y-83350000D03*
D45*
X194500000Y-92500000D03*
D44*
X192800000Y-83350000D03*
X191100000Y-83350000D03*
%TD*%
D10*
%TO.C,R23*%
X184615000Y-41137500D03*
X184615000Y-39312500D03*
%TD*%
D13*
%TO.C,R19*%
X121790000Y-90087500D03*
X121790000Y-91912500D03*
%TD*%
D46*
%TO.C,J11*%
X176380000Y-109222500D03*
D19*
X181460000Y-109222500D03*
X186540000Y-109222500D03*
X191620000Y-109222500D03*
%TD*%
D47*
%TO.C,D3*%
X205600000Y-78350000D03*
X210600000Y-78350000D03*
%TD*%
D48*
%TO.C,C3*%
X191450000Y-60875000D03*
X191450000Y-63825000D03*
%TD*%
D49*
%TO.C,R1*%
X231325000Y-92700000D03*
X229500000Y-92700000D03*
%TD*%
D21*
%TO.C,U11*%
X138450000Y-82310000D03*
X138450000Y-81040000D03*
X138450000Y-79770000D03*
X138450000Y-78500000D03*
X138450000Y-77230000D03*
X138450000Y-75960000D03*
X138450000Y-74690000D03*
D22*
X128790000Y-78500000D03*
%TD*%
D50*
%TO.C,*%
X220400000Y-37500000D03*
%TD*%
D51*
%TO.C,J9*%
X253000000Y-39300000D03*
D25*
X253000000Y-41840000D03*
X253000000Y-44380000D03*
X253000000Y-46920000D03*
X253000000Y-49460000D03*
X253000000Y-52000000D03*
%TD*%
D18*
%TO.C,J5*%
X193085000Y-30777500D03*
D19*
X188005000Y-30777500D03*
X182925000Y-30777500D03*
%TD*%
D52*
%TO.C,C10*%
X113450000Y-111000000D03*
X111550000Y-111000000D03*
%TD*%
D13*
%TO.C,R13*%
X118877500Y-58087500D03*
X118877500Y-59912500D03*
%TD*%
D27*
%TO.C,U10*%
X157280000Y-77270000D03*
X157280000Y-74730000D03*
X148720000Y-74730000D03*
X148720000Y-77270000D03*
%TD*%
D53*
%TO.C,Q1*%
X232500000Y-97200000D03*
D54*
X239180000Y-99480000D03*
D53*
X232500000Y-101760000D03*
%TD*%
D27*
%TO.C,U5*%
X157280000Y-56270000D03*
X157280000Y-53730000D03*
X148720000Y-53730000D03*
X148720000Y-56270000D03*
%TD*%
D10*
%TO.C,R8*%
X145000000Y-62912500D03*
X145000000Y-61087500D03*
%TD*%
D55*
%TO.C,L2*%
X157000000Y-116250000D03*
X157000000Y-110611200D03*
%TD*%
D56*
%TO.C,D11*%
X189715000Y-39275000D03*
X189715000Y-41175000D03*
X192015000Y-40225000D03*
%TD*%
D27*
%TO.C,U6*%
X157280000Y-63270000D03*
X157280000Y-60730000D03*
X148720000Y-60730000D03*
X148720000Y-63270000D03*
%TD*%
D29*
%TO.C,C11*%
X146000000Y-115400000D03*
X146000000Y-108000000D03*
%TD*%
D15*
%TO.C,*%
X222400000Y-41500000D03*
%TD*%
%TO.C,*%
X222400000Y-37500000D03*
%TD*%
D13*
%TO.C,R11*%
X138000000Y-22587500D03*
X138000000Y-24412500D03*
%TD*%
D16*
%TO.C,H1*%
X256000000Y-24000000D03*
D17*
X256000000Y-24000000D03*
%TD*%
D57*
%TO.C,D6*%
X129000000Y-27500000D03*
X129000000Y-23500000D03*
%TD*%
D58*
%TO.C,J7*%
X215130000Y-31780000D03*
X203700000Y-31780000D03*
D59*
X213855000Y-38140000D03*
D60*
X212595000Y-40680000D03*
X211315000Y-38140000D03*
X210055000Y-40680000D03*
X208775000Y-38140000D03*
X207515000Y-40680000D03*
X206235000Y-38140000D03*
X204975000Y-40680000D03*
X216040000Y-26880000D03*
X213500000Y-26880000D03*
X205330000Y-26880000D03*
X202790000Y-26880000D03*
D61*
X217160000Y-34830000D03*
X201670000Y-34830000D03*
%TD*%
D62*
%TO.C,U3*%
X229760000Y-21900000D03*
D63*
X229760000Y-24440000D03*
X229760000Y-26980000D03*
X229760000Y-29520000D03*
X229760000Y-32060000D03*
X229760000Y-34600000D03*
X229760000Y-37140000D03*
X229760000Y-39680000D03*
X229760000Y-42220000D03*
X229760000Y-44760000D03*
X229760000Y-47300000D03*
X229760000Y-49840000D03*
X229760000Y-52380000D03*
X229760000Y-54920000D03*
X229760000Y-57460000D03*
X229760000Y-60000000D03*
X229760000Y-62540000D03*
X229760000Y-65080000D03*
X229760000Y-67620000D03*
X229760000Y-70160000D03*
X229760000Y-72700000D03*
X229760000Y-75240000D03*
X229760000Y-77780000D03*
X229760000Y-80320000D03*
X245000000Y-80320000D03*
X245000000Y-77780000D03*
X245000000Y-75240000D03*
X245000000Y-72700000D03*
X245000000Y-70160000D03*
X245000000Y-67620000D03*
X245000000Y-65080000D03*
X245000000Y-62540000D03*
X245000000Y-60000000D03*
X245000000Y-57460000D03*
X245000000Y-54920000D03*
X245000000Y-52380000D03*
X245000000Y-49840000D03*
X245000000Y-47300000D03*
X245000000Y-44760000D03*
X245000000Y-42220000D03*
X245000000Y-39680000D03*
X245000000Y-37140000D03*
X245000000Y-34600000D03*
X245000000Y-32060000D03*
X245000000Y-29520000D03*
X245000000Y-26980000D03*
X245000000Y-24440000D03*
X245000000Y-21900000D03*
D64*
X242561600Y-34870000D03*
D15*
X240561600Y-34870000D03*
X238561600Y-34870000D03*
X238561600Y-36870000D03*
X240561600Y-36870000D03*
X242561600Y-36870000D03*
%TD*%
D10*
%TO.C,R17*%
X145000000Y-76912500D03*
X145000000Y-75087500D03*
%TD*%
D20*
%TO.C,C4*%
X191450000Y-68300000D03*
X191450000Y-66400000D03*
%TD*%
D42*
%TO.C,D2*%
X227000000Y-100750000D03*
X227000000Y-97250000D03*
%TD*%
D65*
%TO.C,D9*%
X155000000Y-105750000D03*
X159000000Y-105750000D03*
%TD*%
D66*
%TO.C,C8*%
X107500000Y-40000000D03*
X107500000Y-48000000D03*
%TD*%
D67*
%TO.C,J1*%
X241920000Y-114000000D03*
D41*
X247000000Y-114000000D03*
%TD*%
D21*
%TO.C,U8*%
X138450000Y-66310000D03*
X138450000Y-65040000D03*
X138450000Y-63770000D03*
X138450000Y-62500000D03*
X138450000Y-61230000D03*
X138450000Y-59960000D03*
X138450000Y-58690000D03*
D22*
X128790000Y-62500000D03*
%TD*%
D16*
%TO.C,H4*%
X256000000Y-116000000D03*
D17*
X256000000Y-116000000D03*
%TD*%
D13*
%TO.C,R4*%
X161000000Y-54087500D03*
X161000000Y-55912500D03*
%TD*%
D21*
%TO.C,U12*%
X138450000Y-98310000D03*
X138450000Y-97040000D03*
X138450000Y-95770000D03*
X138450000Y-94500000D03*
X138450000Y-93230000D03*
X138450000Y-91960000D03*
X138450000Y-90690000D03*
D22*
X128790000Y-94500000D03*
%TD*%
D46*
%TO.C,J10*%
X200880000Y-109222500D03*
D19*
X205960000Y-109222500D03*
X211040000Y-109222500D03*
X216120000Y-109222500D03*
%TD*%
D13*
%TO.C,R15*%
X161000000Y-75087500D03*
X161000000Y-76912500D03*
%TD*%
%TO.C,R14*%
X161087500Y-68087500D03*
X161087500Y-69912500D03*
%TD*%
D48*
%TO.C,C1*%
X175950000Y-60875000D03*
X175950000Y-63825000D03*
%TD*%
D57*
%TO.C,D4*%
X250500000Y-34000000D03*
X250500000Y-30000000D03*
%TD*%
D68*
%TO.C,U1*%
X186050000Y-60850000D03*
X183750000Y-60850000D03*
D69*
X183750000Y-67150000D03*
D68*
X181450000Y-60850000D03*
%TD*%
D10*
%TO.C,R7*%
X145000000Y-55912500D03*
X145000000Y-54087500D03*
%TD*%
D13*
%TO.C,R20*%
X118790000Y-74087500D03*
X118790000Y-75912500D03*
%TD*%
%TO.C,R9*%
X121790000Y-42087500D03*
X121790000Y-43912500D03*
%TD*%
D51*
%TO.C,J3*%
X148600000Y-94200000D03*
D25*
X148600000Y-96740000D03*
%TD*%
M02*
