M48
; DRILL file KiCad 10.0.5 date 2026-09-10T12:23:57
; FORMAT={-:-/ absolute / metric / decimal}
; #@! TF.CreationDate,2026-09-10T12:23:57+07:00
; #@! TF.GenerationSoftware,Kicad,Pcbnew,10.0.5
; #@! TF.FileFunction,Plated,1,6,PTH
FMAT,2
METRIC
; #@! TA.AperFunction,Plated,PTH,ViaDrill
T1C0.610
; #@! TA.AperFunction,Plated,PTH,ComponentDrill
T2C0.800
; #@! TA.AperFunction,Plated,PTH,ComponentDrill
T3C0.890
; #@! TA.AperFunction,Plated,PTH,ComponentDrill
T4C0.950
; #@! TA.AperFunction,Plated,PTH,ComponentDrill
T5C1.000
; #@! TA.AperFunction,Plated,PTH,ComponentDrill
T6C1.020
; #@! TA.AperFunction,Plated,PTH,ComponentDrill
T7C1.100
; #@! TA.AperFunction,Plated,PTH,ComponentDrill
T8C1.300
; #@! TA.AperFunction,Plated,PTH,ComponentDrill
T9C1.400
; #@! TA.AperFunction,Plated,PTH,ComponentDrill
T10C1.630
; #@! TA.AperFunction,Plated,PTH,ComponentDrill
T11C3.200
%
G90
G05
T1
X101.5Y-90.5
X101.5Y-92.5
X104.8Y-101.3
X105.0Y-109.5
X107.0Y-109.5
X116.5Y-60.0
X116.5Y-76.0
X116.5Y-92.0
X120.5Y-113.0
X129.9Y-31.4
X131.5Y-21.4
X131.5Y-31.4
X134.0Y-52.8
X134.0Y-69.2
X134.0Y-85.2
X134.0Y-100.8
X136.2Y-52.2
X136.2Y-68.4
X136.2Y-84.4
X136.2Y-100.4
X139.0Y-40.7
X139.0Y-57.0
X139.0Y-73.0
X139.0Y-88.8
X141.0Y-105.0
X142.7Y-115.4
X143.0Y-105.0
X144.0Y-26.5
X144.0Y-28.0
X145.0Y-58.0
X145.0Y-65.0
X145.0Y-72.0
X145.0Y-79.59
X153.8Y-51.4
X153.8Y-86.5
X155.4Y-51.4
X155.4Y-86.5
X157.4Y-58.5
X157.4Y-65.5
X157.4Y-72.5
X157.4Y-79.5
X161.0Y-51.6
X161.0Y-58.6
X161.0Y-73.0
X161.0Y-79.9
X161.088Y-65.8
X170.0Y-62.75
X170.0Y-65.75
X170.0Y-69.0
X170.0Y-92.5
X170.0Y-95.0
X170.0Y-97.5
X170.0Y-100.0
X171.75Y-61.25
X172.0Y-64.5
X172.0Y-67.5
X172.5Y-90.0
X172.5Y-92.5
X172.5Y-95.0
X172.5Y-97.5
X178.75Y-94.5
X178.75Y-96.5
X184.5Y-37.0
X186.05Y-58.0
X186.9Y-101.2
X190.5Y-53.0
X191.0Y-37.0
X192.9Y-101.3
X194.0Y-66.5
X195.0Y-53.0
X195.2Y-103.9
X195.5Y-41.8
X198.75Y-64.75
X200.25Y-64.0
X203.4Y-54.2
X207.5Y-100.0
X207.5Y-102.5
X209.5Y-76.0
X210.0Y-100.0
X210.0Y-102.5
X214.5Y-91.0
X219.0Y-80.0
X220.5Y-93.75
X221.1Y-82.1
X222.75Y-92.0
X223.8Y-84.8
X230.5Y-95.1
X250.75Y-86.75
X251.0Y-89.75
X253.25Y-89.75
X256.2Y-28.6
X256.5Y-37.9
X257.741Y-88.75
X257.8Y-28.6
X258.4Y-37.6
X258.6Y-90.9
T2
X220.4Y-37.5
X220.4Y-39.5
X220.4Y-41.5
X222.4Y-37.5
X222.4Y-39.5
X222.4Y-41.5
X238.562Y-34.87
X238.562Y-36.87
X240.562Y-34.87
X240.562Y-36.87
X242.562Y-34.87
X242.562Y-36.87
T3
X204.975Y-40.68
X206.235Y-38.14
X207.515Y-40.68
X208.775Y-38.14
X210.055Y-40.68
X211.315Y-38.14
X212.595Y-40.68
X213.855Y-38.14
T4
X208.5Y-53.0
X211.0Y-53.0
X213.5Y-53.0
X216.0Y-53.0
T5
X148.6Y-94.2
X148.6Y-96.74
X253.0Y-39.3
X253.0Y-41.84
X253.0Y-44.38
X253.0Y-46.92
X253.0Y-49.46
X253.0Y-52.0
X253.0Y-56.93
X253.0Y-59.47
X253.0Y-62.01
X253.0Y-64.55
X253.0Y-67.09
X253.0Y-69.63
X253.0Y-72.17
X253.0Y-74.71
X253.0Y-77.25
X253.0Y-79.79
T6
X202.79Y-26.88
X205.33Y-26.88
X213.5Y-26.88
X216.04Y-26.88
T7
X229.76Y-21.9
X229.76Y-24.44
X229.76Y-26.98
X229.76Y-29.52
X229.76Y-32.06
X229.76Y-34.6
X229.76Y-37.14
X229.76Y-39.68
X229.76Y-42.22
X229.76Y-44.76
X229.76Y-47.3
X229.76Y-49.84
X229.76Y-52.38
X229.76Y-54.92
X229.76Y-57.46
X229.76Y-60.0
X229.76Y-62.54
X229.76Y-65.08
X229.76Y-67.62
X229.76Y-70.16
X229.76Y-72.7
X229.76Y-75.24
X229.76Y-77.78
X229.76Y-80.32
X245.0Y-21.9
X245.0Y-24.44
X245.0Y-26.98
X245.0Y-29.52
X245.0Y-32.06
X245.0Y-34.6
X245.0Y-37.14
X245.0Y-39.68
X245.0Y-42.22
X245.0Y-44.76
X245.0Y-47.3
X245.0Y-49.84
X245.0Y-52.38
X245.0Y-54.92
X245.0Y-57.46
X245.0Y-60.0
X245.0Y-62.54
X245.0Y-65.08
X245.0Y-67.62
X245.0Y-70.16
X245.0Y-72.7
X245.0Y-75.24
X245.0Y-77.78
X245.0Y-80.32
T8
X105.5Y-57.26
X105.5Y-62.34
X105.5Y-67.42
X105.5Y-72.5
X105.5Y-77.58
X105.5Y-82.66
X241.92Y-114.0
X247.0Y-114.0
T9
X162.925Y-30.777
X168.005Y-30.777
X173.085Y-30.777
X176.38Y-109.222
X181.46Y-109.222
X182.925Y-30.777
X186.54Y-109.222
X188.005Y-30.777
X191.62Y-109.222
X193.085Y-30.777
X200.88Y-109.222
X205.96Y-109.222
X211.04Y-109.222
X216.12Y-109.222
T10
X201.67Y-34.83
X217.16Y-34.83
T11
X104.0Y-24.0
X104.0Y-116.0
X256.0Y-24.0
X256.0Y-116.0
M30
