%TF.GenerationSoftware,KiCad,Pcbnew,9.0.5*%
%TF.CreationDate,2026-08-05T17:44:25+07:00*%
%TF.ProjectId,ISR_AWCS,4953525f-4157-4435-932e-6b696361645f,rev?*%
%TF.SameCoordinates,Original*%
%TF.FileFunction,Legend,Top*%
%TF.FilePolarity,Positive*%
%FSLAX46Y46*%
G04 Gerber Fmt 4.6, Leading zero omitted, Abs format (unit mm)*
G04 Created by KiCad (PCBNEW 9.0.5) date 2026-08-05 17:44:25*
%MOMM*%
%LPD*%
G01*
G04 APERTURE LIST*
G04 Aperture macros list*
%AMRoundRect*
0 Rectangle with rounded corners*
0 $1 Rounding radius*
0 $2 $3 $4 $5 $6 $7 $8 $9 X,Y pos of 4 corners*
0 Add a 4 corners polygon primitive as box body*
4,1,4,$2,$3,$4,$5,$6,$7,$8,$9,$2,$3,0*
0 Add four circle primitives for the rounded corners*
1,1,$1+$1,$2,$3*
1,1,$1+$1,$4,$5*
1,1,$1+$1,$6,$7*
1,1,$1+$1,$8,$9*
0 Add four rect primitives between the rounded corners*
20,1,$1+$1,$2,$3,$4,$5,0*
20,1,$1+$1,$4,$5,$6,$7,0*
20,1,$1+$1,$6,$7,$8,$9,0*
20,1,$1+$1,$8,$9,$2,$3,0*%
G04 Aperture macros list end*
%ADD10C,0.150000*%
%ADD11C,0.120000*%
%ADD12C,0.127000*%
%ADD13C,0.200000*%
%ADD14C,0.152400*%
%ADD15C,0.250000*%
%ADD16C,0.400000*%
%ADD17C,0.060000*%
%ADD18C,0.100000*%
%ADD19RoundRect,0.268750X-0.481250X0.268750X-0.481250X-0.268750X0.481250X-0.268750X0.481250X0.268750X0*%
%ADD20RoundRect,0.260000X-1.040000X1.990000X-1.040000X-1.990000X1.040000X-1.990000X1.040000X1.990000X0*%
%ADD21RoundRect,0.262500X0.262500X-0.275000X0.262500X0.275000X-0.262500X0.275000X-0.262500X-0.275000X0*%
%ADD22RoundRect,0.274390X-0.475610X0.288110X-0.475610X-0.288110X0.475610X-0.288110X0.475610X0.288110X0*%
%ADD23RoundRect,0.050000X-1.030000X-0.770000X1.030000X-0.770000X1.030000X0.770000X-1.030000X0.770000X0*%
%ADD24RoundRect,0.265625X0.584375X0.584375X-0.584375X0.584375X-0.584375X-0.584375X0.584375X-0.584375X0*%
%ADD25C,1.700000*%
%ADD26C,3.700000*%
%ADD27C,5.700000*%
%ADD28RoundRect,0.262019X0.827981X1.587981X-0.827981X1.587981X-0.827981X-1.587981X0.827981X-1.587981X0*%
%ADD29O,2.180000X3.700000*%
%ADD30RoundRect,0.262500X0.262500X-0.325000X0.262500X0.325000X-0.262500X0.325000X-0.262500X-0.325000X0*%
%ADD31RoundRect,0.102000X1.905000X0.400000X-1.905000X0.400000X-1.905000X-0.400000X1.905000X-0.400000X0*%
%ADD32RoundRect,0.102000X4.145000X5.035000X-4.145000X5.035000X-4.145000X-5.035000X4.145000X-5.035000X0*%
%ADD33RoundRect,0.274390X-0.288110X-0.475610X0.288110X-0.475610X0.288110X0.475610X-0.288110X0.475610X0*%
%ADD34RoundRect,0.050000X0.850000X0.850000X-0.850000X0.850000X-0.850000X-0.850000X0.850000X-0.850000X0*%
%ADD35C,1.800000*%
%ADD36RoundRect,0.102000X-1.752600X1.130300X-1.752600X-1.130300X1.752600X-1.130300X1.752600X1.130300X0*%
%ADD37RoundRect,0.263889X1.036111X0.686111X-1.036111X0.686111X-1.036111X-0.686111X1.036111X-0.686111X0*%
%ADD38RoundRect,0.260000X1.040000X-1.990000X1.040000X1.990000X-1.040000X1.990000X-1.040000X-1.990000X0*%
%ADD39RoundRect,0.272728X-2.077272X-0.327272X2.077272X-0.327272X2.077272X0.327272X-2.077272X0.327272X0*%
%ADD40RoundRect,0.252662X-4.497338X-5.197338X4.497338X-5.197338X4.497338X5.197338X-4.497338X5.197338X0*%
%ADD41RoundRect,0.050000X-0.600000X1.500000X-0.600000X-1.500000X0.600000X-1.500000X0.600000X1.500000X0*%
%ADD42RoundRect,0.050000X-3.000000X3.250000X-3.000000X-3.250000X3.000000X-3.250000X3.000000X3.250000X0*%
%ADD43RoundRect,0.250000X-0.250000X-0.275000X0.250000X-0.275000X0.250000X0.275000X-0.250000X0.275000X0*%
%ADD44C,3.350000*%
%ADD45RoundRect,0.267200X-0.532800X-0.532800X0.532800X-0.532800X0.532800X0.532800X-0.532800X0.532800X0*%
%ADD46C,1.600000*%
%ADD47C,2.600000*%
%ADD48RoundRect,0.175000X0.175000X-0.850000X0.175000X0.850000X-0.175000X0.850000X-0.175000X-0.850000X0*%
%ADD49RoundRect,0.050000X-1.500000X1.900000X-1.500000X-1.900000X1.500000X-1.900000X1.500000X1.900000X0*%
%ADD50RoundRect,0.264706X-0.635294X-0.760294X0.635294X-0.760294X0.635294X0.760294X-0.635294X0.760294X0*%
%ADD51O,1.800000X2.050000*%
%ADD52RoundRect,0.268750X-0.268750X-0.481250X0.268750X-0.481250X0.268750X0.481250X-0.268750X0.481250X0*%
%ADD53RoundRect,0.259616X-1.090384X1.090384X-1.090384X-1.090384X1.090384X-1.090384X1.090384X1.090384X0*%
%ADD54C,2.700000*%
%ADD55RoundRect,0.269231X0.630769X-0.430769X0.630769X0.430769X-0.630769X0.430769X-0.630769X-0.430769X0*%
%ADD56RoundRect,0.050000X1.500000X-1.900000X1.500000X1.900000X-1.500000X1.900000X-1.500000X-1.900000X0*%
%ADD57RoundRect,0.272728X-0.327272X2.077272X-0.327272X-2.077272X0.327272X-2.077272X0.327272X2.077272X0*%
%ADD58RoundRect,0.252662X-5.197338X4.497338X-5.197338X-4.497338X5.197338X-4.497338X5.197338X4.497338X0*%
%ADD59RoundRect,0.262019X-0.827981X-1.587981X0.827981X-1.587981X0.827981X1.587981X-0.827981X1.587981X0*%
%ADD60RoundRect,0.050000X1.030000X0.770000X-1.030000X0.770000X-1.030000X-0.770000X1.030000X-0.770000X0*%
%ADD61RoundRect,0.268868X-0.681132X0.443632X-0.681132X-0.443632X0.681132X-0.443632X0.681132X0.443632X0*%
%ADD62RoundRect,0.274390X0.288110X0.475610X-0.288110X0.475610X-0.288110X-0.475610X0.288110X-0.475610X0*%
%ADD63RoundRect,0.050000X-0.850000X-0.850000X0.850000X-0.850000X0.850000X0.850000X-0.850000X0.850000X0*%
%ADD64RoundRect,0.250000X0.250000X0.275000X-0.250000X0.275000X-0.250000X-0.275000X0.250000X-0.275000X0*%
%ADD65RoundRect,0.050000X1.500000X0.600000X-1.500000X0.600000X-1.500000X-0.600000X1.500000X-0.600000X0*%
%ADD66RoundRect,0.050000X3.250000X3.000000X-3.250000X3.000000X-3.250000X-3.000000X3.250000X-3.000000X0*%
%ADD67RoundRect,0.102000X1.752600X-1.130300X1.752600X1.130300X-1.752600X1.130300X-1.752600X-1.130300X0*%
%ADD68RoundRect,0.050000X-0.500000X-0.400000X0.500000X-0.400000X0.500000X0.400000X-0.500000X0.400000X0*%
%ADD69RoundRect,0.263889X0.686111X-1.036111X0.686111X1.036111X-0.686111X1.036111X-0.686111X-1.036111X0*%
%ADD70RoundRect,0.050000X-0.800000X0.800000X-0.800000X-0.800000X0.800000X-0.800000X0.800000X0.800000X0*%
%ADD71RoundRect,0.050000X-0.650000X0.650000X-0.650000X-0.650000X0.650000X-0.650000X0.650000X0.650000X0*%
%ADD72C,1.400000*%
%ADD73RoundRect,0.263889X-1.036111X-0.686111X1.036111X-0.686111X1.036111X0.686111X-1.036111X0.686111X0*%
%ADD74RoundRect,0.260000X-1.040000X1.790000X-1.040000X-1.790000X1.040000X-1.790000X1.040000X1.790000X0*%
%ADD75RoundRect,0.259616X-1.090384X-1.090384X1.090384X-1.090384X1.090384X1.090384X-1.090384X1.090384X0*%
%ADD76RoundRect,0.400000X-0.400000X0.650000X-0.400000X-0.650000X0.400000X-0.650000X0.400000X0.650000X0*%
%ADD77RoundRect,0.525000X-1.425000X0.525000X-1.425000X-0.525000X1.425000X-0.525000X1.425000X0.525000X0*%
%ADD78RoundRect,0.274390X0.475610X-0.288110X0.475610X0.288110X-0.475610X0.288110X-0.475610X-0.288110X0*%
G04 APERTURE END LIST*
D10*
X186934580Y-92591666D02*
X186982200Y-92639285D01*
X186982200Y-92639285D02*
X187029819Y-92782142D01*
X187029819Y-92782142D02*
X187029819Y-92877380D01*
X187029819Y-92877380D02*
X186982200Y-93020237D01*
X186982200Y-93020237D02*
X186886961Y-93115475D01*
X186886961Y-93115475D02*
X186791723Y-93163094D01*
X186791723Y-93163094D02*
X186601247Y-93210713D01*
X186601247Y-93210713D02*
X186458390Y-93210713D01*
X186458390Y-93210713D02*
X186267914Y-93163094D01*
X186267914Y-93163094D02*
X186172676Y-93115475D01*
X186172676Y-93115475D02*
X186077438Y-93020237D01*
X186077438Y-93020237D02*
X186029819Y-92877380D01*
X186029819Y-92877380D02*
X186029819Y-92782142D01*
X186029819Y-92782142D02*
X186077438Y-92639285D01*
X186077438Y-92639285D02*
X186125057Y-92591666D01*
X186029819Y-92258332D02*
X186029819Y-91639285D01*
X186029819Y-91639285D02*
X186410771Y-91972618D01*
X186410771Y-91972618D02*
X186410771Y-91829761D01*
X186410771Y-91829761D02*
X186458390Y-91734523D01*
X186458390Y-91734523D02*
X186506009Y-91686904D01*
X186506009Y-91686904D02*
X186601247Y-91639285D01*
X186601247Y-91639285D02*
X186839342Y-91639285D01*
X186839342Y-91639285D02*
X186934580Y-91686904D01*
X186934580Y-91686904D02*
X186982200Y-91734523D01*
X186982200Y-91734523D02*
X187029819Y-91829761D01*
X187029819Y-91829761D02*
X187029819Y-92115475D01*
X187029819Y-92115475D02*
X186982200Y-92210713D01*
X186982200Y-92210713D02*
X186934580Y-92258332D01*
X186139819Y-40867857D02*
X185663628Y-41201190D01*
X186139819Y-41439285D02*
X185139819Y-41439285D01*
X185139819Y-41439285D02*
X185139819Y-41058333D01*
X185139819Y-41058333D02*
X185187438Y-40963095D01*
X185187438Y-40963095D02*
X185235057Y-40915476D01*
X185235057Y-40915476D02*
X185330295Y-40867857D01*
X185330295Y-40867857D02*
X185473152Y-40867857D01*
X185473152Y-40867857D02*
X185568390Y-40915476D01*
X185568390Y-40915476D02*
X185616009Y-40963095D01*
X185616009Y-40963095D02*
X185663628Y-41058333D01*
X185663628Y-41058333D02*
X185663628Y-41439285D01*
X186139819Y-39915476D02*
X186139819Y-40486904D01*
X186139819Y-40201190D02*
X185139819Y-40201190D01*
X185139819Y-40201190D02*
X185282676Y-40296428D01*
X185282676Y-40296428D02*
X185377914Y-40391666D01*
X185377914Y-40391666D02*
X185425533Y-40486904D01*
X185139819Y-39582142D02*
X185139819Y-38915476D01*
X185139819Y-38915476D02*
X186139819Y-39344047D01*
X111261905Y-114454819D02*
X111261905Y-113454819D01*
X111261905Y-113454819D02*
X111500000Y-113454819D01*
X111500000Y-113454819D02*
X111642857Y-113502438D01*
X111642857Y-113502438D02*
X111738095Y-113597676D01*
X111738095Y-113597676D02*
X111785714Y-113692914D01*
X111785714Y-113692914D02*
X111833333Y-113883390D01*
X111833333Y-113883390D02*
X111833333Y-114026247D01*
X111833333Y-114026247D02*
X111785714Y-114216723D01*
X111785714Y-114216723D02*
X111738095Y-114311961D01*
X111738095Y-114311961D02*
X111642857Y-114407200D01*
X111642857Y-114407200D02*
X111500000Y-114454819D01*
X111500000Y-114454819D02*
X111261905Y-114454819D01*
X112404762Y-113883390D02*
X112309524Y-113835771D01*
X112309524Y-113835771D02*
X112261905Y-113788152D01*
X112261905Y-113788152D02*
X112214286Y-113692914D01*
X112214286Y-113692914D02*
X112214286Y-113645295D01*
X112214286Y-113645295D02*
X112261905Y-113550057D01*
X112261905Y-113550057D02*
X112309524Y-113502438D01*
X112309524Y-113502438D02*
X112404762Y-113454819D01*
X112404762Y-113454819D02*
X112595238Y-113454819D01*
X112595238Y-113454819D02*
X112690476Y-113502438D01*
X112690476Y-113502438D02*
X112738095Y-113550057D01*
X112738095Y-113550057D02*
X112785714Y-113645295D01*
X112785714Y-113645295D02*
X112785714Y-113692914D01*
X112785714Y-113692914D02*
X112738095Y-113788152D01*
X112738095Y-113788152D02*
X112690476Y-113835771D01*
X112690476Y-113835771D02*
X112595238Y-113883390D01*
X112595238Y-113883390D02*
X112404762Y-113883390D01*
X112404762Y-113883390D02*
X112309524Y-113931009D01*
X112309524Y-113931009D02*
X112261905Y-113978628D01*
X112261905Y-113978628D02*
X112214286Y-114073866D01*
X112214286Y-114073866D02*
X112214286Y-114264342D01*
X112214286Y-114264342D02*
X112261905Y-114359580D01*
X112261905Y-114359580D02*
X112309524Y-114407200D01*
X112309524Y-114407200D02*
X112404762Y-114454819D01*
X112404762Y-114454819D02*
X112595238Y-114454819D01*
X112595238Y-114454819D02*
X112690476Y-114407200D01*
X112690476Y-114407200D02*
X112738095Y-114359580D01*
X112738095Y-114359580D02*
X112785714Y-114264342D01*
X112785714Y-114264342D02*
X112785714Y-114073866D01*
X112785714Y-114073866D02*
X112738095Y-113978628D01*
X112738095Y-113978628D02*
X112690476Y-113931009D01*
X112690476Y-113931009D02*
X112595238Y-113883390D01*
X148756905Y-100094819D02*
X148756905Y-100904342D01*
X148756905Y-100904342D02*
X148804524Y-100999580D01*
X148804524Y-100999580D02*
X148852143Y-101047200D01*
X148852143Y-101047200D02*
X148947381Y-101094819D01*
X148947381Y-101094819D02*
X149137857Y-101094819D01*
X149137857Y-101094819D02*
X149233095Y-101047200D01*
X149233095Y-101047200D02*
X149280714Y-100999580D01*
X149280714Y-100999580D02*
X149328333Y-100904342D01*
X149328333Y-100904342D02*
X149328333Y-100094819D01*
X150328333Y-101094819D02*
X149756905Y-101094819D01*
X150042619Y-101094819D02*
X150042619Y-100094819D01*
X150042619Y-100094819D02*
X149947381Y-100237676D01*
X149947381Y-100237676D02*
X149852143Y-100332914D01*
X149852143Y-100332914D02*
X149756905Y-100380533D01*
X151280714Y-101094819D02*
X150709286Y-101094819D01*
X150995000Y-101094819D02*
X150995000Y-100094819D01*
X150995000Y-100094819D02*
X150899762Y-100237676D01*
X150899762Y-100237676D02*
X150804524Y-100332914D01*
X150804524Y-100332914D02*
X150709286Y-100380533D01*
X103238095Y-20704819D02*
X103238095Y-19704819D01*
X103238095Y-20181009D02*
X103809523Y-20181009D01*
X103809523Y-20704819D02*
X103809523Y-19704819D01*
X104809523Y-20704819D02*
X104238095Y-20704819D01*
X104523809Y-20704819D02*
X104523809Y-19704819D01*
X104523809Y-19704819D02*
X104428571Y-19847676D01*
X104428571Y-19847676D02*
X104333333Y-19942914D01*
X104333333Y-19942914D02*
X104238095Y-19990533D01*
X167671666Y-33432319D02*
X167671666Y-34146604D01*
X167671666Y-34146604D02*
X167624047Y-34289461D01*
X167624047Y-34289461D02*
X167528809Y-34384700D01*
X167528809Y-34384700D02*
X167385952Y-34432319D01*
X167385952Y-34432319D02*
X167290714Y-34432319D01*
X168576428Y-33432319D02*
X168385952Y-33432319D01*
X168385952Y-33432319D02*
X168290714Y-33479938D01*
X168290714Y-33479938D02*
X168243095Y-33527557D01*
X168243095Y-33527557D02*
X168147857Y-33670414D01*
X168147857Y-33670414D02*
X168100238Y-33860890D01*
X168100238Y-33860890D02*
X168100238Y-34241842D01*
X168100238Y-34241842D02*
X168147857Y-34337080D01*
X168147857Y-34337080D02*
X168195476Y-34384700D01*
X168195476Y-34384700D02*
X168290714Y-34432319D01*
X168290714Y-34432319D02*
X168481190Y-34432319D01*
X168481190Y-34432319D02*
X168576428Y-34384700D01*
X168576428Y-34384700D02*
X168624047Y-34337080D01*
X168624047Y-34337080D02*
X168671666Y-34241842D01*
X168671666Y-34241842D02*
X168671666Y-34003747D01*
X168671666Y-34003747D02*
X168624047Y-33908509D01*
X168624047Y-33908509D02*
X168576428Y-33860890D01*
X168576428Y-33860890D02*
X168481190Y-33813271D01*
X168481190Y-33813271D02*
X168290714Y-33813271D01*
X168290714Y-33813271D02*
X168195476Y-33860890D01*
X168195476Y-33860890D02*
X168147857Y-33908509D01*
X168147857Y-33908509D02*
X168100238Y-34003747D01*
X174879580Y-67516666D02*
X174927200Y-67564285D01*
X174927200Y-67564285D02*
X174974819Y-67707142D01*
X174974819Y-67707142D02*
X174974819Y-67802380D01*
X174974819Y-67802380D02*
X174927200Y-67945237D01*
X174927200Y-67945237D02*
X174831961Y-68040475D01*
X174831961Y-68040475D02*
X174736723Y-68088094D01*
X174736723Y-68088094D02*
X174546247Y-68135713D01*
X174546247Y-68135713D02*
X174403390Y-68135713D01*
X174403390Y-68135713D02*
X174212914Y-68088094D01*
X174212914Y-68088094D02*
X174117676Y-68040475D01*
X174117676Y-68040475D02*
X174022438Y-67945237D01*
X174022438Y-67945237D02*
X173974819Y-67802380D01*
X173974819Y-67802380D02*
X173974819Y-67707142D01*
X173974819Y-67707142D02*
X174022438Y-67564285D01*
X174022438Y-67564285D02*
X174070057Y-67516666D01*
X173974819Y-66611904D02*
X173974819Y-67088094D01*
X173974819Y-67088094D02*
X174451009Y-67135713D01*
X174451009Y-67135713D02*
X174403390Y-67088094D01*
X174403390Y-67088094D02*
X174355771Y-66992856D01*
X174355771Y-66992856D02*
X174355771Y-66754761D01*
X174355771Y-66754761D02*
X174403390Y-66659523D01*
X174403390Y-66659523D02*
X174451009Y-66611904D01*
X174451009Y-66611904D02*
X174546247Y-66564285D01*
X174546247Y-66564285D02*
X174784342Y-66564285D01*
X174784342Y-66564285D02*
X174879580Y-66611904D01*
X174879580Y-66611904D02*
X174927200Y-66659523D01*
X174927200Y-66659523D02*
X174974819Y-66754761D01*
X174974819Y-66754761D02*
X174974819Y-66992856D01*
X174974819Y-66992856D02*
X174927200Y-67088094D01*
X174927200Y-67088094D02*
X174879580Y-67135713D01*
X149071905Y-68364819D02*
X149071905Y-69174342D01*
X149071905Y-69174342D02*
X149119524Y-69269580D01*
X149119524Y-69269580D02*
X149167143Y-69317200D01*
X149167143Y-69317200D02*
X149262381Y-69364819D01*
X149262381Y-69364819D02*
X149452857Y-69364819D01*
X149452857Y-69364819D02*
X149548095Y-69317200D01*
X149548095Y-69317200D02*
X149595714Y-69269580D01*
X149595714Y-69269580D02*
X149643333Y-69174342D01*
X149643333Y-69174342D02*
X149643333Y-68364819D01*
X150643333Y-69364819D02*
X150071905Y-69364819D01*
X150357619Y-69364819D02*
X150357619Y-68364819D01*
X150357619Y-68364819D02*
X150262381Y-68507676D01*
X150262381Y-68507676D02*
X150167143Y-68602914D01*
X150167143Y-68602914D02*
X150071905Y-68650533D01*
X151262381Y-68364819D02*
X151357619Y-68364819D01*
X151357619Y-68364819D02*
X151452857Y-68412438D01*
X151452857Y-68412438D02*
X151500476Y-68460057D01*
X151500476Y-68460057D02*
X151548095Y-68555295D01*
X151548095Y-68555295D02*
X151595714Y-68745771D01*
X151595714Y-68745771D02*
X151595714Y-68983866D01*
X151595714Y-68983866D02*
X151548095Y-69174342D01*
X151548095Y-69174342D02*
X151500476Y-69269580D01*
X151500476Y-69269580D02*
X151452857Y-69317200D01*
X151452857Y-69317200D02*
X151357619Y-69364819D01*
X151357619Y-69364819D02*
X151262381Y-69364819D01*
X151262381Y-69364819D02*
X151167143Y-69317200D01*
X151167143Y-69317200D02*
X151119524Y-69269580D01*
X151119524Y-69269580D02*
X151071905Y-69174342D01*
X151071905Y-69174342D02*
X151024286Y-68983866D01*
X151024286Y-68983866D02*
X151024286Y-68745771D01*
X151024286Y-68745771D02*
X151071905Y-68555295D01*
X151071905Y-68555295D02*
X151119524Y-68460057D01*
X151119524Y-68460057D02*
X151167143Y-68412438D01*
X151167143Y-68412438D02*
X151262381Y-68364819D01*
X130722095Y-52304819D02*
X130722095Y-53114342D01*
X130722095Y-53114342D02*
X130769714Y-53209580D01*
X130769714Y-53209580D02*
X130817333Y-53257200D01*
X130817333Y-53257200D02*
X130912571Y-53304819D01*
X130912571Y-53304819D02*
X131103047Y-53304819D01*
X131103047Y-53304819D02*
X131198285Y-53257200D01*
X131198285Y-53257200D02*
X131245904Y-53209580D01*
X131245904Y-53209580D02*
X131293523Y-53114342D01*
X131293523Y-53114342D02*
X131293523Y-52304819D01*
X131912571Y-52733390D02*
X131817333Y-52685771D01*
X131817333Y-52685771D02*
X131769714Y-52638152D01*
X131769714Y-52638152D02*
X131722095Y-52542914D01*
X131722095Y-52542914D02*
X131722095Y-52495295D01*
X131722095Y-52495295D02*
X131769714Y-52400057D01*
X131769714Y-52400057D02*
X131817333Y-52352438D01*
X131817333Y-52352438D02*
X131912571Y-52304819D01*
X131912571Y-52304819D02*
X132103047Y-52304819D01*
X132103047Y-52304819D02*
X132198285Y-52352438D01*
X132198285Y-52352438D02*
X132245904Y-52400057D01*
X132245904Y-52400057D02*
X132293523Y-52495295D01*
X132293523Y-52495295D02*
X132293523Y-52542914D01*
X132293523Y-52542914D02*
X132245904Y-52638152D01*
X132245904Y-52638152D02*
X132198285Y-52685771D01*
X132198285Y-52685771D02*
X132103047Y-52733390D01*
X132103047Y-52733390D02*
X131912571Y-52733390D01*
X131912571Y-52733390D02*
X131817333Y-52781009D01*
X131817333Y-52781009D02*
X131769714Y-52828628D01*
X131769714Y-52828628D02*
X131722095Y-52923866D01*
X131722095Y-52923866D02*
X131722095Y-53114342D01*
X131722095Y-53114342D02*
X131769714Y-53209580D01*
X131769714Y-53209580D02*
X131817333Y-53257200D01*
X131817333Y-53257200D02*
X131912571Y-53304819D01*
X131912571Y-53304819D02*
X132103047Y-53304819D01*
X132103047Y-53304819D02*
X132198285Y-53257200D01*
X132198285Y-53257200D02*
X132245904Y-53209580D01*
X132245904Y-53209580D02*
X132293523Y-53114342D01*
X132293523Y-53114342D02*
X132293523Y-52923866D01*
X132293523Y-52923866D02*
X132245904Y-52828628D01*
X132245904Y-52828628D02*
X132198285Y-52781009D01*
X132198285Y-52781009D02*
X132103047Y-52733390D01*
X252666666Y-81624819D02*
X252666666Y-82339104D01*
X252666666Y-82339104D02*
X252619047Y-82481961D01*
X252619047Y-82481961D02*
X252523809Y-82577200D01*
X252523809Y-82577200D02*
X252380952Y-82624819D01*
X252380952Y-82624819D02*
X252285714Y-82624819D01*
X253095238Y-81720057D02*
X253142857Y-81672438D01*
X253142857Y-81672438D02*
X253238095Y-81624819D01*
X253238095Y-81624819D02*
X253476190Y-81624819D01*
X253476190Y-81624819D02*
X253571428Y-81672438D01*
X253571428Y-81672438D02*
X253619047Y-81720057D01*
X253619047Y-81720057D02*
X253666666Y-81815295D01*
X253666666Y-81815295D02*
X253666666Y-81910533D01*
X253666666Y-81910533D02*
X253619047Y-82053390D01*
X253619047Y-82053390D02*
X253047619Y-82624819D01*
X253047619Y-82624819D02*
X253666666Y-82624819D01*
X187542805Y-80359506D02*
X187542805Y-81141096D01*
X187542805Y-81141096D02*
X185901466Y-81141096D01*
X187542805Y-78952644D02*
X187542805Y-79890552D01*
X187542805Y-79421598D02*
X185901466Y-79421598D01*
X185901466Y-79421598D02*
X186135943Y-79577916D01*
X186135943Y-79577916D02*
X186292261Y-79734234D01*
X186292261Y-79734234D02*
X186370420Y-79890552D01*
X149548095Y-84364819D02*
X149548095Y-85174342D01*
X149548095Y-85174342D02*
X149595714Y-85269580D01*
X149595714Y-85269580D02*
X149643333Y-85317200D01*
X149643333Y-85317200D02*
X149738571Y-85364819D01*
X149738571Y-85364819D02*
X149929047Y-85364819D01*
X149929047Y-85364819D02*
X150024285Y-85317200D01*
X150024285Y-85317200D02*
X150071904Y-85269580D01*
X150071904Y-85269580D02*
X150119523Y-85174342D01*
X150119523Y-85174342D02*
X150119523Y-84364819D01*
X150500476Y-84364819D02*
X151167142Y-84364819D01*
X151167142Y-84364819D02*
X150738571Y-85364819D01*
X237761905Y-95654819D02*
X237761905Y-94654819D01*
X237761905Y-94654819D02*
X238000000Y-94654819D01*
X238000000Y-94654819D02*
X238142857Y-94702438D01*
X238142857Y-94702438D02*
X238238095Y-94797676D01*
X238238095Y-94797676D02*
X238285714Y-94892914D01*
X238285714Y-94892914D02*
X238333333Y-95083390D01*
X238333333Y-95083390D02*
X238333333Y-95226247D01*
X238333333Y-95226247D02*
X238285714Y-95416723D01*
X238285714Y-95416723D02*
X238238095Y-95511961D01*
X238238095Y-95511961D02*
X238142857Y-95607200D01*
X238142857Y-95607200D02*
X238000000Y-95654819D01*
X238000000Y-95654819D02*
X237761905Y-95654819D01*
X238666667Y-94654819D02*
X239285714Y-94654819D01*
X239285714Y-94654819D02*
X238952381Y-95035771D01*
X238952381Y-95035771D02*
X239095238Y-95035771D01*
X239095238Y-95035771D02*
X239190476Y-95083390D01*
X239190476Y-95083390D02*
X239238095Y-95131009D01*
X239238095Y-95131009D02*
X239285714Y-95226247D01*
X239285714Y-95226247D02*
X239285714Y-95464342D01*
X239285714Y-95464342D02*
X239238095Y-95559580D01*
X239238095Y-95559580D02*
X239190476Y-95607200D01*
X239190476Y-95607200D02*
X239095238Y-95654819D01*
X239095238Y-95654819D02*
X238809524Y-95654819D01*
X238809524Y-95654819D02*
X238714286Y-95607200D01*
X238714286Y-95607200D02*
X238666667Y-95559580D01*
X213759580Y-92516666D02*
X213807200Y-92564285D01*
X213807200Y-92564285D02*
X213854819Y-92707142D01*
X213854819Y-92707142D02*
X213854819Y-92802380D01*
X213854819Y-92802380D02*
X213807200Y-92945237D01*
X213807200Y-92945237D02*
X213711961Y-93040475D01*
X213711961Y-93040475D02*
X213616723Y-93088094D01*
X213616723Y-93088094D02*
X213426247Y-93135713D01*
X213426247Y-93135713D02*
X213283390Y-93135713D01*
X213283390Y-93135713D02*
X213092914Y-93088094D01*
X213092914Y-93088094D02*
X212997676Y-93040475D01*
X212997676Y-93040475D02*
X212902438Y-92945237D01*
X212902438Y-92945237D02*
X212854819Y-92802380D01*
X212854819Y-92802380D02*
X212854819Y-92707142D01*
X212854819Y-92707142D02*
X212902438Y-92564285D01*
X212902438Y-92564285D02*
X212950057Y-92516666D01*
X213854819Y-91564285D02*
X213854819Y-92135713D01*
X213854819Y-91849999D02*
X212854819Y-91849999D01*
X212854819Y-91849999D02*
X212997676Y-91945237D01*
X212997676Y-91945237D02*
X213092914Y-92040475D01*
X213092914Y-92040475D02*
X213140533Y-92135713D01*
X102559580Y-96142857D02*
X102607200Y-96190476D01*
X102607200Y-96190476D02*
X102654819Y-96333333D01*
X102654819Y-96333333D02*
X102654819Y-96428571D01*
X102654819Y-96428571D02*
X102607200Y-96571428D01*
X102607200Y-96571428D02*
X102511961Y-96666666D01*
X102511961Y-96666666D02*
X102416723Y-96714285D01*
X102416723Y-96714285D02*
X102226247Y-96761904D01*
X102226247Y-96761904D02*
X102083390Y-96761904D01*
X102083390Y-96761904D02*
X101892914Y-96714285D01*
X101892914Y-96714285D02*
X101797676Y-96666666D01*
X101797676Y-96666666D02*
X101702438Y-96571428D01*
X101702438Y-96571428D02*
X101654819Y-96428571D01*
X101654819Y-96428571D02*
X101654819Y-96333333D01*
X101654819Y-96333333D02*
X101702438Y-96190476D01*
X101702438Y-96190476D02*
X101750057Y-96142857D01*
X102654819Y-95190476D02*
X102654819Y-95761904D01*
X102654819Y-95476190D02*
X101654819Y-95476190D01*
X101654819Y-95476190D02*
X101797676Y-95571428D01*
X101797676Y-95571428D02*
X101892914Y-95666666D01*
X101892914Y-95666666D02*
X101940533Y-95761904D01*
X101654819Y-94571428D02*
X101654819Y-94476190D01*
X101654819Y-94476190D02*
X101702438Y-94380952D01*
X101702438Y-94380952D02*
X101750057Y-94333333D01*
X101750057Y-94333333D02*
X101845295Y-94285714D01*
X101845295Y-94285714D02*
X102035771Y-94238095D01*
X102035771Y-94238095D02*
X102273866Y-94238095D01*
X102273866Y-94238095D02*
X102464342Y-94285714D01*
X102464342Y-94285714D02*
X102559580Y-94333333D01*
X102559580Y-94333333D02*
X102607200Y-94380952D01*
X102607200Y-94380952D02*
X102654819Y-94476190D01*
X102654819Y-94476190D02*
X102654819Y-94571428D01*
X102654819Y-94571428D02*
X102607200Y-94666666D01*
X102607200Y-94666666D02*
X102559580Y-94714285D01*
X102559580Y-94714285D02*
X102464342Y-94761904D01*
X102464342Y-94761904D02*
X102273866Y-94809523D01*
X102273866Y-94809523D02*
X102035771Y-94809523D01*
X102035771Y-94809523D02*
X101845295Y-94761904D01*
X101845295Y-94761904D02*
X101750057Y-94714285D01*
X101750057Y-94714285D02*
X101702438Y-94666666D01*
X101702438Y-94666666D02*
X101654819Y-94571428D01*
X130911905Y-103904819D02*
X130911905Y-104714342D01*
X130911905Y-104714342D02*
X130959524Y-104809580D01*
X130959524Y-104809580D02*
X131007143Y-104857200D01*
X131007143Y-104857200D02*
X131102381Y-104904819D01*
X131102381Y-104904819D02*
X131292857Y-104904819D01*
X131292857Y-104904819D02*
X131388095Y-104857200D01*
X131388095Y-104857200D02*
X131435714Y-104809580D01*
X131435714Y-104809580D02*
X131483333Y-104714342D01*
X131483333Y-104714342D02*
X131483333Y-103904819D01*
X132483333Y-104904819D02*
X131911905Y-104904819D01*
X132197619Y-104904819D02*
X132197619Y-103904819D01*
X132197619Y-103904819D02*
X132102381Y-104047676D01*
X132102381Y-104047676D02*
X132007143Y-104142914D01*
X132007143Y-104142914D02*
X131911905Y-104190533D01*
X133340476Y-104238152D02*
X133340476Y-104904819D01*
X133102381Y-103857200D02*
X132864286Y-104571485D01*
X132864286Y-104571485D02*
X133483333Y-104571485D01*
X122550057Y-30255238D02*
X122502438Y-30350476D01*
X122502438Y-30350476D02*
X122407200Y-30445714D01*
X122407200Y-30445714D02*
X122264342Y-30588571D01*
X122264342Y-30588571D02*
X122216723Y-30683809D01*
X122216723Y-30683809D02*
X122216723Y-30779047D01*
X122454819Y-30731428D02*
X122407200Y-30826666D01*
X122407200Y-30826666D02*
X122311961Y-30921904D01*
X122311961Y-30921904D02*
X122121485Y-30969523D01*
X122121485Y-30969523D02*
X121788152Y-30969523D01*
X121788152Y-30969523D02*
X121597676Y-30921904D01*
X121597676Y-30921904D02*
X121502438Y-30826666D01*
X121502438Y-30826666D02*
X121454819Y-30731428D01*
X121454819Y-30731428D02*
X121454819Y-30540952D01*
X121454819Y-30540952D02*
X121502438Y-30445714D01*
X121502438Y-30445714D02*
X121597676Y-30350476D01*
X121597676Y-30350476D02*
X121788152Y-30302857D01*
X121788152Y-30302857D02*
X122121485Y-30302857D01*
X122121485Y-30302857D02*
X122311961Y-30350476D01*
X122311961Y-30350476D02*
X122407200Y-30445714D01*
X122407200Y-30445714D02*
X122454819Y-30540952D01*
X122454819Y-30540952D02*
X122454819Y-30731428D01*
X121550057Y-29921904D02*
X121502438Y-29874285D01*
X121502438Y-29874285D02*
X121454819Y-29779047D01*
X121454819Y-29779047D02*
X121454819Y-29540952D01*
X121454819Y-29540952D02*
X121502438Y-29445714D01*
X121502438Y-29445714D02*
X121550057Y-29398095D01*
X121550057Y-29398095D02*
X121645295Y-29350476D01*
X121645295Y-29350476D02*
X121740533Y-29350476D01*
X121740533Y-29350476D02*
X121883390Y-29398095D01*
X121883390Y-29398095D02*
X122454819Y-29969523D01*
X122454819Y-29969523D02*
X122454819Y-29350476D01*
X210158333Y-81279580D02*
X210110714Y-81327200D01*
X210110714Y-81327200D02*
X209967857Y-81374819D01*
X209967857Y-81374819D02*
X209872619Y-81374819D01*
X209872619Y-81374819D02*
X209729762Y-81327200D01*
X209729762Y-81327200D02*
X209634524Y-81231961D01*
X209634524Y-81231961D02*
X209586905Y-81136723D01*
X209586905Y-81136723D02*
X209539286Y-80946247D01*
X209539286Y-80946247D02*
X209539286Y-80803390D01*
X209539286Y-80803390D02*
X209586905Y-80612914D01*
X209586905Y-80612914D02*
X209634524Y-80517676D01*
X209634524Y-80517676D02*
X209729762Y-80422438D01*
X209729762Y-80422438D02*
X209872619Y-80374819D01*
X209872619Y-80374819D02*
X209967857Y-80374819D01*
X209967857Y-80374819D02*
X210110714Y-80422438D01*
X210110714Y-80422438D02*
X210158333Y-80470057D01*
X210539286Y-80470057D02*
X210586905Y-80422438D01*
X210586905Y-80422438D02*
X210682143Y-80374819D01*
X210682143Y-80374819D02*
X210920238Y-80374819D01*
X210920238Y-80374819D02*
X211015476Y-80422438D01*
X211015476Y-80422438D02*
X211063095Y-80470057D01*
X211063095Y-80470057D02*
X211110714Y-80565295D01*
X211110714Y-80565295D02*
X211110714Y-80660533D01*
X211110714Y-80660533D02*
X211063095Y-80803390D01*
X211063095Y-80803390D02*
X210491667Y-81374819D01*
X210491667Y-81374819D02*
X211110714Y-81374819D01*
X211666666Y-18844819D02*
X211666666Y-19559104D01*
X211666666Y-19559104D02*
X211619047Y-19701961D01*
X211619047Y-19701961D02*
X211523809Y-19797200D01*
X211523809Y-19797200D02*
X211380952Y-19844819D01*
X211380952Y-19844819D02*
X211285714Y-19844819D01*
X212047619Y-18844819D02*
X212666666Y-18844819D01*
X212666666Y-18844819D02*
X212333333Y-19225771D01*
X212333333Y-19225771D02*
X212476190Y-19225771D01*
X212476190Y-19225771D02*
X212571428Y-19273390D01*
X212571428Y-19273390D02*
X212619047Y-19321009D01*
X212619047Y-19321009D02*
X212666666Y-19416247D01*
X212666666Y-19416247D02*
X212666666Y-19654342D01*
X212666666Y-19654342D02*
X212619047Y-19749580D01*
X212619047Y-19749580D02*
X212571428Y-19797200D01*
X212571428Y-19797200D02*
X212476190Y-19844819D01*
X212476190Y-19844819D02*
X212190476Y-19844819D01*
X212190476Y-19844819D02*
X212095238Y-19797200D01*
X212095238Y-19797200D02*
X212047619Y-19749580D01*
X183669819Y-48963094D02*
X184479342Y-48963094D01*
X184479342Y-48963094D02*
X184574580Y-48915475D01*
X184574580Y-48915475D02*
X184622200Y-48867856D01*
X184622200Y-48867856D02*
X184669819Y-48772618D01*
X184669819Y-48772618D02*
X184669819Y-48582142D01*
X184669819Y-48582142D02*
X184622200Y-48486904D01*
X184622200Y-48486904D02*
X184574580Y-48439285D01*
X184574580Y-48439285D02*
X184479342Y-48391666D01*
X184479342Y-48391666D02*
X183669819Y-48391666D01*
X184669819Y-47391666D02*
X184669819Y-47963094D01*
X184669819Y-47677380D02*
X183669819Y-47677380D01*
X183669819Y-47677380D02*
X183812676Y-47772618D01*
X183812676Y-47772618D02*
X183907914Y-47867856D01*
X183907914Y-47867856D02*
X183955533Y-47963094D01*
X183669819Y-46486904D02*
X183669819Y-46963094D01*
X183669819Y-46963094D02*
X184146009Y-47010713D01*
X184146009Y-47010713D02*
X184098390Y-46963094D01*
X184098390Y-46963094D02*
X184050771Y-46867856D01*
X184050771Y-46867856D02*
X184050771Y-46629761D01*
X184050771Y-46629761D02*
X184098390Y-46534523D01*
X184098390Y-46534523D02*
X184146009Y-46486904D01*
X184146009Y-46486904D02*
X184241247Y-46439285D01*
X184241247Y-46439285D02*
X184479342Y-46439285D01*
X184479342Y-46439285D02*
X184574580Y-46486904D01*
X184574580Y-46486904D02*
X184622200Y-46534523D01*
X184622200Y-46534523D02*
X184669819Y-46629761D01*
X184669819Y-46629761D02*
X184669819Y-46867856D01*
X184669819Y-46867856D02*
X184622200Y-46963094D01*
X184622200Y-46963094D02*
X184574580Y-47010713D01*
X117931009Y-27857142D02*
X117931009Y-28190475D01*
X118454819Y-28190475D02*
X117454819Y-28190475D01*
X117454819Y-28190475D02*
X117454819Y-27714285D01*
X118454819Y-27333332D02*
X117454819Y-27333332D01*
X117931009Y-27333332D02*
X117931009Y-26761904D01*
X118454819Y-26761904D02*
X117454819Y-26761904D01*
X117550057Y-26333332D02*
X117502438Y-26285713D01*
X117502438Y-26285713D02*
X117454819Y-26190475D01*
X117454819Y-26190475D02*
X117454819Y-25952380D01*
X117454819Y-25952380D02*
X117502438Y-25857142D01*
X117502438Y-25857142D02*
X117550057Y-25809523D01*
X117550057Y-25809523D02*
X117645295Y-25761904D01*
X117645295Y-25761904D02*
X117740533Y-25761904D01*
X117740533Y-25761904D02*
X117883390Y-25809523D01*
X117883390Y-25809523D02*
X118454819Y-26380951D01*
X118454819Y-26380951D02*
X118454819Y-25761904D01*
X211916666Y-48904819D02*
X211916666Y-49619104D01*
X211916666Y-49619104D02*
X211869047Y-49761961D01*
X211869047Y-49761961D02*
X211773809Y-49857200D01*
X211773809Y-49857200D02*
X211630952Y-49904819D01*
X211630952Y-49904819D02*
X211535714Y-49904819D01*
X212869047Y-48904819D02*
X212392857Y-48904819D01*
X212392857Y-48904819D02*
X212345238Y-49381009D01*
X212345238Y-49381009D02*
X212392857Y-49333390D01*
X212392857Y-49333390D02*
X212488095Y-49285771D01*
X212488095Y-49285771D02*
X212726190Y-49285771D01*
X212726190Y-49285771D02*
X212821428Y-49333390D01*
X212821428Y-49333390D02*
X212869047Y-49381009D01*
X212869047Y-49381009D02*
X212916666Y-49476247D01*
X212916666Y-49476247D02*
X212916666Y-49714342D01*
X212916666Y-49714342D02*
X212869047Y-49809580D01*
X212869047Y-49809580D02*
X212821428Y-49857200D01*
X212821428Y-49857200D02*
X212726190Y-49904819D01*
X212726190Y-49904819D02*
X212488095Y-49904819D01*
X212488095Y-49904819D02*
X212392857Y-49857200D01*
X212392857Y-49857200D02*
X212345238Y-49809580D01*
X111274819Y-70769523D02*
X111989104Y-70769523D01*
X111989104Y-70769523D02*
X112131961Y-70817142D01*
X112131961Y-70817142D02*
X112227200Y-70912380D01*
X112227200Y-70912380D02*
X112274819Y-71055237D01*
X112274819Y-71055237D02*
X112274819Y-71150475D01*
X112274819Y-69769523D02*
X112274819Y-70340951D01*
X112274819Y-70055237D02*
X111274819Y-70055237D01*
X111274819Y-70055237D02*
X111417676Y-70150475D01*
X111417676Y-70150475D02*
X111512914Y-70245713D01*
X111512914Y-70245713D02*
X111560533Y-70340951D01*
X111608152Y-68912380D02*
X112274819Y-68912380D01*
X111227200Y-69150475D02*
X111941485Y-69388570D01*
X111941485Y-69388570D02*
X111941485Y-68769523D01*
X103238095Y-112704819D02*
X103238095Y-111704819D01*
X103238095Y-112181009D02*
X103809523Y-112181009D01*
X103809523Y-112704819D02*
X103809523Y-111704819D01*
X104190476Y-111704819D02*
X104809523Y-111704819D01*
X104809523Y-111704819D02*
X104476190Y-112085771D01*
X104476190Y-112085771D02*
X104619047Y-112085771D01*
X104619047Y-112085771D02*
X104714285Y-112133390D01*
X104714285Y-112133390D02*
X104761904Y-112181009D01*
X104761904Y-112181009D02*
X104809523Y-112276247D01*
X104809523Y-112276247D02*
X104809523Y-112514342D01*
X104809523Y-112514342D02*
X104761904Y-112609580D01*
X104761904Y-112609580D02*
X104714285Y-112657200D01*
X104714285Y-112657200D02*
X104619047Y-112704819D01*
X104619047Y-112704819D02*
X104333333Y-112704819D01*
X104333333Y-112704819D02*
X104238095Y-112657200D01*
X104238095Y-112657200D02*
X104190476Y-112609580D01*
X132454819Y-25238094D02*
X131454819Y-25238094D01*
X131454819Y-25238094D02*
X131454819Y-24999999D01*
X131454819Y-24999999D02*
X131502438Y-24857142D01*
X131502438Y-24857142D02*
X131597676Y-24761904D01*
X131597676Y-24761904D02*
X131692914Y-24714285D01*
X131692914Y-24714285D02*
X131883390Y-24666666D01*
X131883390Y-24666666D02*
X132026247Y-24666666D01*
X132026247Y-24666666D02*
X132216723Y-24714285D01*
X132216723Y-24714285D02*
X132311961Y-24761904D01*
X132311961Y-24761904D02*
X132407200Y-24857142D01*
X132407200Y-24857142D02*
X132454819Y-24999999D01*
X132454819Y-24999999D02*
X132454819Y-25238094D01*
X131454819Y-24333332D02*
X131454819Y-23666666D01*
X131454819Y-23666666D02*
X132454819Y-24095237D01*
X244431009Y-97957142D02*
X244431009Y-98290475D01*
X244954819Y-98290475D02*
X243954819Y-98290475D01*
X243954819Y-98290475D02*
X243954819Y-97814285D01*
X244954819Y-97433332D02*
X243954819Y-97433332D01*
X244431009Y-97433332D02*
X244431009Y-96861904D01*
X244954819Y-96861904D02*
X243954819Y-96861904D01*
X244954819Y-95861904D02*
X244954819Y-96433332D01*
X244954819Y-96147618D02*
X243954819Y-96147618D01*
X243954819Y-96147618D02*
X244097676Y-96242856D01*
X244097676Y-96242856D02*
X244192914Y-96338094D01*
X244192914Y-96338094D02*
X244240533Y-96433332D01*
X200604819Y-91761904D02*
X201414342Y-91761904D01*
X201414342Y-91761904D02*
X201509580Y-91714285D01*
X201509580Y-91714285D02*
X201557200Y-91666666D01*
X201557200Y-91666666D02*
X201604819Y-91571428D01*
X201604819Y-91571428D02*
X201604819Y-91380952D01*
X201604819Y-91380952D02*
X201557200Y-91285714D01*
X201557200Y-91285714D02*
X201509580Y-91238095D01*
X201509580Y-91238095D02*
X201414342Y-91190476D01*
X201414342Y-91190476D02*
X200604819Y-91190476D01*
X201604819Y-90190476D02*
X201604819Y-90761904D01*
X201604819Y-90476190D02*
X200604819Y-90476190D01*
X200604819Y-90476190D02*
X200747676Y-90571428D01*
X200747676Y-90571428D02*
X200842914Y-90666666D01*
X200842914Y-90666666D02*
X200890533Y-90761904D01*
X183639819Y-40867857D02*
X183163628Y-41201190D01*
X183639819Y-41439285D02*
X182639819Y-41439285D01*
X182639819Y-41439285D02*
X182639819Y-41058333D01*
X182639819Y-41058333D02*
X182687438Y-40963095D01*
X182687438Y-40963095D02*
X182735057Y-40915476D01*
X182735057Y-40915476D02*
X182830295Y-40867857D01*
X182830295Y-40867857D02*
X182973152Y-40867857D01*
X182973152Y-40867857D02*
X183068390Y-40915476D01*
X183068390Y-40915476D02*
X183116009Y-40963095D01*
X183116009Y-40963095D02*
X183163628Y-41058333D01*
X183163628Y-41058333D02*
X183163628Y-41439285D01*
X183639819Y-39915476D02*
X183639819Y-40486904D01*
X183639819Y-40201190D02*
X182639819Y-40201190D01*
X182639819Y-40201190D02*
X182782676Y-40296428D01*
X182782676Y-40296428D02*
X182877914Y-40391666D01*
X182877914Y-40391666D02*
X182925533Y-40486904D01*
X183639819Y-39439285D02*
X183639819Y-39248809D01*
X183639819Y-39248809D02*
X183592200Y-39153571D01*
X183592200Y-39153571D02*
X183544580Y-39105952D01*
X183544580Y-39105952D02*
X183401723Y-39010714D01*
X183401723Y-39010714D02*
X183211247Y-38963095D01*
X183211247Y-38963095D02*
X182830295Y-38963095D01*
X182830295Y-38963095D02*
X182735057Y-39010714D01*
X182735057Y-39010714D02*
X182687438Y-39058333D01*
X182687438Y-39058333D02*
X182639819Y-39153571D01*
X182639819Y-39153571D02*
X182639819Y-39344047D01*
X182639819Y-39344047D02*
X182687438Y-39439285D01*
X182687438Y-39439285D02*
X182735057Y-39486904D01*
X182735057Y-39486904D02*
X182830295Y-39534523D01*
X182830295Y-39534523D02*
X183068390Y-39534523D01*
X183068390Y-39534523D02*
X183163628Y-39486904D01*
X183163628Y-39486904D02*
X183211247Y-39439285D01*
X183211247Y-39439285D02*
X183258866Y-39344047D01*
X183258866Y-39344047D02*
X183258866Y-39153571D01*
X183258866Y-39153571D02*
X183211247Y-39058333D01*
X183211247Y-39058333D02*
X183163628Y-39010714D01*
X183163628Y-39010714D02*
X183068390Y-38963095D01*
X183666666Y-105477319D02*
X183666666Y-106191604D01*
X183666666Y-106191604D02*
X183619047Y-106334461D01*
X183619047Y-106334461D02*
X183523809Y-106429700D01*
X183523809Y-106429700D02*
X183380952Y-106477319D01*
X183380952Y-106477319D02*
X183285714Y-106477319D01*
X184285714Y-105905890D02*
X184190476Y-105858271D01*
X184190476Y-105858271D02*
X184142857Y-105810652D01*
X184142857Y-105810652D02*
X184095238Y-105715414D01*
X184095238Y-105715414D02*
X184095238Y-105667795D01*
X184095238Y-105667795D02*
X184142857Y-105572557D01*
X184142857Y-105572557D02*
X184190476Y-105524938D01*
X184190476Y-105524938D02*
X184285714Y-105477319D01*
X184285714Y-105477319D02*
X184476190Y-105477319D01*
X184476190Y-105477319D02*
X184571428Y-105524938D01*
X184571428Y-105524938D02*
X184619047Y-105572557D01*
X184619047Y-105572557D02*
X184666666Y-105667795D01*
X184666666Y-105667795D02*
X184666666Y-105715414D01*
X184666666Y-105715414D02*
X184619047Y-105810652D01*
X184619047Y-105810652D02*
X184571428Y-105858271D01*
X184571428Y-105858271D02*
X184476190Y-105905890D01*
X184476190Y-105905890D02*
X184285714Y-105905890D01*
X184285714Y-105905890D02*
X184190476Y-105953509D01*
X184190476Y-105953509D02*
X184142857Y-106001128D01*
X184142857Y-106001128D02*
X184095238Y-106096366D01*
X184095238Y-106096366D02*
X184095238Y-106286842D01*
X184095238Y-106286842D02*
X184142857Y-106382080D01*
X184142857Y-106382080D02*
X184190476Y-106429700D01*
X184190476Y-106429700D02*
X184285714Y-106477319D01*
X184285714Y-106477319D02*
X184476190Y-106477319D01*
X184476190Y-106477319D02*
X184571428Y-106429700D01*
X184571428Y-106429700D02*
X184619047Y-106382080D01*
X184619047Y-106382080D02*
X184666666Y-106286842D01*
X184666666Y-106286842D02*
X184666666Y-106096366D01*
X184666666Y-106096366D02*
X184619047Y-106001128D01*
X184619047Y-106001128D02*
X184571428Y-105953509D01*
X184571428Y-105953509D02*
X184476190Y-105905890D01*
X209586905Y-83804819D02*
X209586905Y-82804819D01*
X209586905Y-82804819D02*
X209825000Y-82804819D01*
X209825000Y-82804819D02*
X209967857Y-82852438D01*
X209967857Y-82852438D02*
X210063095Y-82947676D01*
X210063095Y-82947676D02*
X210110714Y-83042914D01*
X210110714Y-83042914D02*
X210158333Y-83233390D01*
X210158333Y-83233390D02*
X210158333Y-83376247D01*
X210158333Y-83376247D02*
X210110714Y-83566723D01*
X210110714Y-83566723D02*
X210063095Y-83661961D01*
X210063095Y-83661961D02*
X209967857Y-83757200D01*
X209967857Y-83757200D02*
X209825000Y-83804819D01*
X209825000Y-83804819D02*
X209586905Y-83804819D01*
X211015476Y-83138152D02*
X211015476Y-83804819D01*
X210777381Y-82757200D02*
X210539286Y-83471485D01*
X210539286Y-83471485D02*
X211158333Y-83471485D01*
X193659580Y-62516666D02*
X193707200Y-62564285D01*
X193707200Y-62564285D02*
X193754819Y-62707142D01*
X193754819Y-62707142D02*
X193754819Y-62802380D01*
X193754819Y-62802380D02*
X193707200Y-62945237D01*
X193707200Y-62945237D02*
X193611961Y-63040475D01*
X193611961Y-63040475D02*
X193516723Y-63088094D01*
X193516723Y-63088094D02*
X193326247Y-63135713D01*
X193326247Y-63135713D02*
X193183390Y-63135713D01*
X193183390Y-63135713D02*
X192992914Y-63088094D01*
X192992914Y-63088094D02*
X192897676Y-63040475D01*
X192897676Y-63040475D02*
X192802438Y-62945237D01*
X192802438Y-62945237D02*
X192754819Y-62802380D01*
X192754819Y-62802380D02*
X192754819Y-62707142D01*
X192754819Y-62707142D02*
X192802438Y-62564285D01*
X192802438Y-62564285D02*
X192850057Y-62516666D01*
X192754819Y-61659523D02*
X192754819Y-61849999D01*
X192754819Y-61849999D02*
X192802438Y-61945237D01*
X192802438Y-61945237D02*
X192850057Y-61992856D01*
X192850057Y-61992856D02*
X192992914Y-62088094D01*
X192992914Y-62088094D02*
X193183390Y-62135713D01*
X193183390Y-62135713D02*
X193564342Y-62135713D01*
X193564342Y-62135713D02*
X193659580Y-62088094D01*
X193659580Y-62088094D02*
X193707200Y-62040475D01*
X193707200Y-62040475D02*
X193754819Y-61945237D01*
X193754819Y-61945237D02*
X193754819Y-61754761D01*
X193754819Y-61754761D02*
X193707200Y-61659523D01*
X193707200Y-61659523D02*
X193659580Y-61611904D01*
X193659580Y-61611904D02*
X193564342Y-61564285D01*
X193564342Y-61564285D02*
X193326247Y-61564285D01*
X193326247Y-61564285D02*
X193231009Y-61611904D01*
X193231009Y-61611904D02*
X193183390Y-61659523D01*
X193183390Y-61659523D02*
X193135771Y-61754761D01*
X193135771Y-61754761D02*
X193135771Y-61945237D01*
X193135771Y-61945237D02*
X193183390Y-62040475D01*
X193183390Y-62040475D02*
X193231009Y-62088094D01*
X193231009Y-62088094D02*
X193326247Y-62135713D01*
X130722095Y-84304819D02*
X130722095Y-85114342D01*
X130722095Y-85114342D02*
X130769714Y-85209580D01*
X130769714Y-85209580D02*
X130817333Y-85257200D01*
X130817333Y-85257200D02*
X130912571Y-85304819D01*
X130912571Y-85304819D02*
X131103047Y-85304819D01*
X131103047Y-85304819D02*
X131198285Y-85257200D01*
X131198285Y-85257200D02*
X131245904Y-85209580D01*
X131245904Y-85209580D02*
X131293523Y-85114342D01*
X131293523Y-85114342D02*
X131293523Y-84304819D01*
X131817333Y-85304819D02*
X132007809Y-85304819D01*
X132007809Y-85304819D02*
X132103047Y-85257200D01*
X132103047Y-85257200D02*
X132150666Y-85209580D01*
X132150666Y-85209580D02*
X132245904Y-85066723D01*
X132245904Y-85066723D02*
X132293523Y-84876247D01*
X132293523Y-84876247D02*
X132293523Y-84495295D01*
X132293523Y-84495295D02*
X132245904Y-84400057D01*
X132245904Y-84400057D02*
X132198285Y-84352438D01*
X132198285Y-84352438D02*
X132103047Y-84304819D01*
X132103047Y-84304819D02*
X131912571Y-84304819D01*
X131912571Y-84304819D02*
X131817333Y-84352438D01*
X131817333Y-84352438D02*
X131769714Y-84400057D01*
X131769714Y-84400057D02*
X131722095Y-84495295D01*
X131722095Y-84495295D02*
X131722095Y-84733390D01*
X131722095Y-84733390D02*
X131769714Y-84828628D01*
X131769714Y-84828628D02*
X131817333Y-84876247D01*
X131817333Y-84876247D02*
X131912571Y-84923866D01*
X131912571Y-84923866D02*
X132103047Y-84923866D01*
X132103047Y-84923866D02*
X132198285Y-84876247D01*
X132198285Y-84876247D02*
X132245904Y-84828628D01*
X132245904Y-84828628D02*
X132293523Y-84733390D01*
X252666666Y-36374819D02*
X252666666Y-37089104D01*
X252666666Y-37089104D02*
X252619047Y-37231961D01*
X252619047Y-37231961D02*
X252523809Y-37327200D01*
X252523809Y-37327200D02*
X252380952Y-37374819D01*
X252380952Y-37374819D02*
X252285714Y-37374819D01*
X253190476Y-37374819D02*
X253380952Y-37374819D01*
X253380952Y-37374819D02*
X253476190Y-37327200D01*
X253476190Y-37327200D02*
X253523809Y-37279580D01*
X253523809Y-37279580D02*
X253619047Y-37136723D01*
X253619047Y-37136723D02*
X253666666Y-36946247D01*
X253666666Y-36946247D02*
X253666666Y-36565295D01*
X253666666Y-36565295D02*
X253619047Y-36470057D01*
X253619047Y-36470057D02*
X253571428Y-36422438D01*
X253571428Y-36422438D02*
X253476190Y-36374819D01*
X253476190Y-36374819D02*
X253285714Y-36374819D01*
X253285714Y-36374819D02*
X253190476Y-36422438D01*
X253190476Y-36422438D02*
X253142857Y-36470057D01*
X253142857Y-36470057D02*
X253095238Y-36565295D01*
X253095238Y-36565295D02*
X253095238Y-36803390D01*
X253095238Y-36803390D02*
X253142857Y-36898628D01*
X253142857Y-36898628D02*
X253190476Y-36946247D01*
X253190476Y-36946247D02*
X253285714Y-36993866D01*
X253285714Y-36993866D02*
X253476190Y-36993866D01*
X253476190Y-36993866D02*
X253571428Y-36946247D01*
X253571428Y-36946247D02*
X253619047Y-36898628D01*
X253619047Y-36898628D02*
X253666666Y-36803390D01*
X187671666Y-33432319D02*
X187671666Y-34146604D01*
X187671666Y-34146604D02*
X187624047Y-34289461D01*
X187624047Y-34289461D02*
X187528809Y-34384700D01*
X187528809Y-34384700D02*
X187385952Y-34432319D01*
X187385952Y-34432319D02*
X187290714Y-34432319D01*
X188576428Y-33765652D02*
X188576428Y-34432319D01*
X188338333Y-33384700D02*
X188100238Y-34098985D01*
X188100238Y-34098985D02*
X188719285Y-34098985D01*
X111857142Y-112789580D02*
X111809523Y-112837200D01*
X111809523Y-112837200D02*
X111666666Y-112884819D01*
X111666666Y-112884819D02*
X111571428Y-112884819D01*
X111571428Y-112884819D02*
X111428571Y-112837200D01*
X111428571Y-112837200D02*
X111333333Y-112741961D01*
X111333333Y-112741961D02*
X111285714Y-112646723D01*
X111285714Y-112646723D02*
X111238095Y-112456247D01*
X111238095Y-112456247D02*
X111238095Y-112313390D01*
X111238095Y-112313390D02*
X111285714Y-112122914D01*
X111285714Y-112122914D02*
X111333333Y-112027676D01*
X111333333Y-112027676D02*
X111428571Y-111932438D01*
X111428571Y-111932438D02*
X111571428Y-111884819D01*
X111571428Y-111884819D02*
X111666666Y-111884819D01*
X111666666Y-111884819D02*
X111809523Y-111932438D01*
X111809523Y-111932438D02*
X111857142Y-111980057D01*
X112809523Y-112884819D02*
X112238095Y-112884819D01*
X112523809Y-112884819D02*
X112523809Y-111884819D01*
X112523809Y-111884819D02*
X112428571Y-112027676D01*
X112428571Y-112027676D02*
X112333333Y-112122914D01*
X112333333Y-112122914D02*
X112238095Y-112170533D01*
X113761904Y-112884819D02*
X113190476Y-112884819D01*
X113476190Y-112884819D02*
X113476190Y-111884819D01*
X113476190Y-111884819D02*
X113380952Y-112027676D01*
X113380952Y-112027676D02*
X113285714Y-112122914D01*
X113285714Y-112122914D02*
X113190476Y-112170533D01*
X228042557Y-99600238D02*
X227994938Y-99695476D01*
X227994938Y-99695476D02*
X227899700Y-99790714D01*
X227899700Y-99790714D02*
X227756842Y-99933571D01*
X227756842Y-99933571D02*
X227709223Y-100028809D01*
X227709223Y-100028809D02*
X227709223Y-100124047D01*
X227947319Y-100076428D02*
X227899700Y-100171666D01*
X227899700Y-100171666D02*
X227804461Y-100266904D01*
X227804461Y-100266904D02*
X227613985Y-100314523D01*
X227613985Y-100314523D02*
X227280652Y-100314523D01*
X227280652Y-100314523D02*
X227090176Y-100266904D01*
X227090176Y-100266904D02*
X226994938Y-100171666D01*
X226994938Y-100171666D02*
X226947319Y-100076428D01*
X226947319Y-100076428D02*
X226947319Y-99885952D01*
X226947319Y-99885952D02*
X226994938Y-99790714D01*
X226994938Y-99790714D02*
X227090176Y-99695476D01*
X227090176Y-99695476D02*
X227280652Y-99647857D01*
X227280652Y-99647857D02*
X227613985Y-99647857D01*
X227613985Y-99647857D02*
X227804461Y-99695476D01*
X227804461Y-99695476D02*
X227899700Y-99790714D01*
X227899700Y-99790714D02*
X227947319Y-99885952D01*
X227947319Y-99885952D02*
X227947319Y-100076428D01*
X227947319Y-98695476D02*
X227947319Y-99266904D01*
X227947319Y-98981190D02*
X226947319Y-98981190D01*
X226947319Y-98981190D02*
X227090176Y-99076428D01*
X227090176Y-99076428D02*
X227185414Y-99171666D01*
X227185414Y-99171666D02*
X227233033Y-99266904D01*
X152235225Y-113043206D02*
X152235225Y-113824796D01*
X152235225Y-113824796D02*
X150593886Y-113824796D01*
X150750204Y-112574252D02*
X150672045Y-112496093D01*
X150672045Y-112496093D02*
X150593886Y-112339775D01*
X150593886Y-112339775D02*
X150593886Y-111948980D01*
X150593886Y-111948980D02*
X150672045Y-111792662D01*
X150672045Y-111792662D02*
X150750204Y-111714503D01*
X150750204Y-111714503D02*
X150906522Y-111636344D01*
X150906522Y-111636344D02*
X151062840Y-111636344D01*
X151062840Y-111636344D02*
X151297317Y-111714503D01*
X151297317Y-111714503D02*
X152235225Y-112652411D01*
X152235225Y-112652411D02*
X152235225Y-111636344D01*
X189650714Y-45629819D02*
X189650714Y-44629819D01*
X189650714Y-44629819D02*
X189888809Y-44629819D01*
X189888809Y-44629819D02*
X190031666Y-44677438D01*
X190031666Y-44677438D02*
X190126904Y-44772676D01*
X190126904Y-44772676D02*
X190174523Y-44867914D01*
X190174523Y-44867914D02*
X190222142Y-45058390D01*
X190222142Y-45058390D02*
X190222142Y-45201247D01*
X190222142Y-45201247D02*
X190174523Y-45391723D01*
X190174523Y-45391723D02*
X190126904Y-45486961D01*
X190126904Y-45486961D02*
X190031666Y-45582200D01*
X190031666Y-45582200D02*
X189888809Y-45629819D01*
X189888809Y-45629819D02*
X189650714Y-45629819D01*
X191174523Y-45629819D02*
X190603095Y-45629819D01*
X190888809Y-45629819D02*
X190888809Y-44629819D01*
X190888809Y-44629819D02*
X190793571Y-44772676D01*
X190793571Y-44772676D02*
X190698333Y-44867914D01*
X190698333Y-44867914D02*
X190603095Y-44915533D01*
X192126904Y-45629819D02*
X191555476Y-45629819D01*
X191841190Y-45629819D02*
X191841190Y-44629819D01*
X191841190Y-44629819D02*
X191745952Y-44772676D01*
X191745952Y-44772676D02*
X191650714Y-44867914D01*
X191650714Y-44867914D02*
X191555476Y-44915533D01*
X141059580Y-112342857D02*
X141107200Y-112390476D01*
X141107200Y-112390476D02*
X141154819Y-112533333D01*
X141154819Y-112533333D02*
X141154819Y-112628571D01*
X141154819Y-112628571D02*
X141107200Y-112771428D01*
X141107200Y-112771428D02*
X141011961Y-112866666D01*
X141011961Y-112866666D02*
X140916723Y-112914285D01*
X140916723Y-112914285D02*
X140726247Y-112961904D01*
X140726247Y-112961904D02*
X140583390Y-112961904D01*
X140583390Y-112961904D02*
X140392914Y-112914285D01*
X140392914Y-112914285D02*
X140297676Y-112866666D01*
X140297676Y-112866666D02*
X140202438Y-112771428D01*
X140202438Y-112771428D02*
X140154819Y-112628571D01*
X140154819Y-112628571D02*
X140154819Y-112533333D01*
X140154819Y-112533333D02*
X140202438Y-112390476D01*
X140202438Y-112390476D02*
X140250057Y-112342857D01*
X141154819Y-111390476D02*
X141154819Y-111961904D01*
X141154819Y-111676190D02*
X140154819Y-111676190D01*
X140154819Y-111676190D02*
X140297676Y-111771428D01*
X140297676Y-111771428D02*
X140392914Y-111866666D01*
X140392914Y-111866666D02*
X140440533Y-111961904D01*
X140250057Y-111009523D02*
X140202438Y-110961904D01*
X140202438Y-110961904D02*
X140154819Y-110866666D01*
X140154819Y-110866666D02*
X140154819Y-110628571D01*
X140154819Y-110628571D02*
X140202438Y-110533333D01*
X140202438Y-110533333D02*
X140250057Y-110485714D01*
X140250057Y-110485714D02*
X140345295Y-110438095D01*
X140345295Y-110438095D02*
X140440533Y-110438095D01*
X140440533Y-110438095D02*
X140583390Y-110485714D01*
X140583390Y-110485714D02*
X141154819Y-111057142D01*
X141154819Y-111057142D02*
X141154819Y-110438095D01*
X149548095Y-52364819D02*
X149548095Y-53174342D01*
X149548095Y-53174342D02*
X149595714Y-53269580D01*
X149595714Y-53269580D02*
X149643333Y-53317200D01*
X149643333Y-53317200D02*
X149738571Y-53364819D01*
X149738571Y-53364819D02*
X149929047Y-53364819D01*
X149929047Y-53364819D02*
X150024285Y-53317200D01*
X150024285Y-53317200D02*
X150071904Y-53269580D01*
X150071904Y-53269580D02*
X150119523Y-53174342D01*
X150119523Y-53174342D02*
X150119523Y-52364819D01*
X151024285Y-52364819D02*
X150833809Y-52364819D01*
X150833809Y-52364819D02*
X150738571Y-52412438D01*
X150738571Y-52412438D02*
X150690952Y-52460057D01*
X150690952Y-52460057D02*
X150595714Y-52602914D01*
X150595714Y-52602914D02*
X150548095Y-52793390D01*
X150548095Y-52793390D02*
X150548095Y-53174342D01*
X150548095Y-53174342D02*
X150595714Y-53269580D01*
X150595714Y-53269580D02*
X150643333Y-53317200D01*
X150643333Y-53317200D02*
X150738571Y-53364819D01*
X150738571Y-53364819D02*
X150929047Y-53364819D01*
X150929047Y-53364819D02*
X151024285Y-53317200D01*
X151024285Y-53317200D02*
X151071904Y-53269580D01*
X151071904Y-53269580D02*
X151119523Y-53174342D01*
X151119523Y-53174342D02*
X151119523Y-52936247D01*
X151119523Y-52936247D02*
X151071904Y-52841009D01*
X151071904Y-52841009D02*
X151024285Y-52793390D01*
X151024285Y-52793390D02*
X150929047Y-52745771D01*
X150929047Y-52745771D02*
X150738571Y-52745771D01*
X150738571Y-52745771D02*
X150643333Y-52793390D01*
X150643333Y-52793390D02*
X150595714Y-52841009D01*
X150595714Y-52841009D02*
X150548095Y-52936247D01*
X255238095Y-20704819D02*
X255238095Y-19704819D01*
X255238095Y-20181009D02*
X255809523Y-20181009D01*
X255809523Y-20704819D02*
X255809523Y-19704819D01*
X256238095Y-19800057D02*
X256285714Y-19752438D01*
X256285714Y-19752438D02*
X256380952Y-19704819D01*
X256380952Y-19704819D02*
X256619047Y-19704819D01*
X256619047Y-19704819D02*
X256714285Y-19752438D01*
X256714285Y-19752438D02*
X256761904Y-19800057D01*
X256761904Y-19800057D02*
X256809523Y-19895295D01*
X256809523Y-19895295D02*
X256809523Y-19990533D01*
X256809523Y-19990533D02*
X256761904Y-20133390D01*
X256761904Y-20133390D02*
X256190476Y-20704819D01*
X256190476Y-20704819D02*
X256809523Y-20704819D01*
X126954819Y-26714285D02*
X125954819Y-26714285D01*
X125954819Y-26714285D02*
X125954819Y-26476190D01*
X125954819Y-26476190D02*
X126002438Y-26333333D01*
X126002438Y-26333333D02*
X126097676Y-26238095D01*
X126097676Y-26238095D02*
X126192914Y-26190476D01*
X126192914Y-26190476D02*
X126383390Y-26142857D01*
X126383390Y-26142857D02*
X126526247Y-26142857D01*
X126526247Y-26142857D02*
X126716723Y-26190476D01*
X126716723Y-26190476D02*
X126811961Y-26238095D01*
X126811961Y-26238095D02*
X126907200Y-26333333D01*
X126907200Y-26333333D02*
X126954819Y-26476190D01*
X126954819Y-26476190D02*
X126954819Y-26714285D01*
X126954819Y-25190476D02*
X126954819Y-25761904D01*
X126954819Y-25476190D02*
X125954819Y-25476190D01*
X125954819Y-25476190D02*
X126097676Y-25571428D01*
X126097676Y-25571428D02*
X126192914Y-25666666D01*
X126192914Y-25666666D02*
X126240533Y-25761904D01*
X125954819Y-24571428D02*
X125954819Y-24476190D01*
X125954819Y-24476190D02*
X126002438Y-24380952D01*
X126002438Y-24380952D02*
X126050057Y-24333333D01*
X126050057Y-24333333D02*
X126145295Y-24285714D01*
X126145295Y-24285714D02*
X126335771Y-24238095D01*
X126335771Y-24238095D02*
X126573866Y-24238095D01*
X126573866Y-24238095D02*
X126764342Y-24285714D01*
X126764342Y-24285714D02*
X126859580Y-24333333D01*
X126859580Y-24333333D02*
X126907200Y-24380952D01*
X126907200Y-24380952D02*
X126954819Y-24476190D01*
X126954819Y-24476190D02*
X126954819Y-24571428D01*
X126954819Y-24571428D02*
X126907200Y-24666666D01*
X126907200Y-24666666D02*
X126859580Y-24714285D01*
X126859580Y-24714285D02*
X126764342Y-24761904D01*
X126764342Y-24761904D02*
X126573866Y-24809523D01*
X126573866Y-24809523D02*
X126335771Y-24809523D01*
X126335771Y-24809523D02*
X126145295Y-24761904D01*
X126145295Y-24761904D02*
X126050057Y-24714285D01*
X126050057Y-24714285D02*
X126002438Y-24666666D01*
X126002438Y-24666666D02*
X125954819Y-24571428D01*
X246994819Y-51871904D02*
X247804342Y-51871904D01*
X247804342Y-51871904D02*
X247899580Y-51824285D01*
X247899580Y-51824285D02*
X247947200Y-51776666D01*
X247947200Y-51776666D02*
X247994819Y-51681428D01*
X247994819Y-51681428D02*
X247994819Y-51490952D01*
X247994819Y-51490952D02*
X247947200Y-51395714D01*
X247947200Y-51395714D02*
X247899580Y-51348095D01*
X247899580Y-51348095D02*
X247804342Y-51300476D01*
X247804342Y-51300476D02*
X246994819Y-51300476D01*
X246994819Y-50348095D02*
X246994819Y-50824285D01*
X246994819Y-50824285D02*
X247471009Y-50871904D01*
X247471009Y-50871904D02*
X247423390Y-50824285D01*
X247423390Y-50824285D02*
X247375771Y-50729047D01*
X247375771Y-50729047D02*
X247375771Y-50490952D01*
X247375771Y-50490952D02*
X247423390Y-50395714D01*
X247423390Y-50395714D02*
X247471009Y-50348095D01*
X247471009Y-50348095D02*
X247566247Y-50300476D01*
X247566247Y-50300476D02*
X247804342Y-50300476D01*
X247804342Y-50300476D02*
X247899580Y-50348095D01*
X247899580Y-50348095D02*
X247947200Y-50395714D01*
X247947200Y-50395714D02*
X247994819Y-50490952D01*
X247994819Y-50490952D02*
X247994819Y-50729047D01*
X247994819Y-50729047D02*
X247947200Y-50824285D01*
X247947200Y-50824285D02*
X247899580Y-50871904D01*
X234296666Y-50156033D02*
X234296666Y-49456033D01*
X234296666Y-49456033D02*
X234530000Y-49956033D01*
X234530000Y-49956033D02*
X234763333Y-49456033D01*
X234763333Y-49456033D02*
X234763333Y-50156033D01*
X235096666Y-50156033D02*
X235096666Y-49456033D01*
X235429999Y-50156033D02*
X235429999Y-49456033D01*
X235429999Y-49456033D02*
X235663333Y-49956033D01*
X235663333Y-49956033D02*
X235896666Y-49456033D01*
X235896666Y-49456033D02*
X235896666Y-50156033D01*
X236163333Y-49456033D02*
X236629999Y-50156033D01*
X236629999Y-49456033D02*
X236163333Y-50156033D01*
X237296666Y-50156033D02*
X237063333Y-49822700D01*
X236896666Y-50156033D02*
X236896666Y-49456033D01*
X236896666Y-49456033D02*
X237163333Y-49456033D01*
X237163333Y-49456033D02*
X237230000Y-49489366D01*
X237230000Y-49489366D02*
X237263333Y-49522700D01*
X237263333Y-49522700D02*
X237296666Y-49589366D01*
X237296666Y-49589366D02*
X237296666Y-49689366D01*
X237296666Y-49689366D02*
X237263333Y-49756033D01*
X237263333Y-49756033D02*
X237230000Y-49789366D01*
X237230000Y-49789366D02*
X237163333Y-49822700D01*
X237163333Y-49822700D02*
X236896666Y-49822700D01*
X237496666Y-49456033D02*
X237896666Y-49456033D01*
X237696666Y-50156033D02*
X237696666Y-49456033D01*
X238496666Y-50156033D02*
X238096666Y-50156033D01*
X238296666Y-50156033D02*
X238296666Y-49456033D01*
X238296666Y-49456033D02*
X238229999Y-49556033D01*
X238229999Y-49556033D02*
X238163333Y-49622700D01*
X238163333Y-49622700D02*
X238096666Y-49656033D01*
X238930000Y-49456033D02*
X238996666Y-49456033D01*
X238996666Y-49456033D02*
X239063333Y-49489366D01*
X239063333Y-49489366D02*
X239096666Y-49522700D01*
X239096666Y-49522700D02*
X239130000Y-49589366D01*
X239130000Y-49589366D02*
X239163333Y-49722700D01*
X239163333Y-49722700D02*
X239163333Y-49889366D01*
X239163333Y-49889366D02*
X239130000Y-50022700D01*
X239130000Y-50022700D02*
X239096666Y-50089366D01*
X239096666Y-50089366D02*
X239063333Y-50122700D01*
X239063333Y-50122700D02*
X238996666Y-50156033D01*
X238996666Y-50156033D02*
X238930000Y-50156033D01*
X238930000Y-50156033D02*
X238863333Y-50122700D01*
X238863333Y-50122700D02*
X238830000Y-50089366D01*
X238830000Y-50089366D02*
X238796666Y-50022700D01*
X238796666Y-50022700D02*
X238763333Y-49889366D01*
X238763333Y-49889366D02*
X238763333Y-49722700D01*
X238763333Y-49722700D02*
X238796666Y-49589366D01*
X238796666Y-49589366D02*
X238830000Y-49522700D01*
X238830000Y-49522700D02*
X238863333Y-49489366D01*
X238863333Y-49489366D02*
X238930000Y-49456033D01*
X239763333Y-49456033D02*
X239630000Y-49456033D01*
X239630000Y-49456033D02*
X239563333Y-49489366D01*
X239563333Y-49489366D02*
X239530000Y-49522700D01*
X239530000Y-49522700D02*
X239463333Y-49622700D01*
X239463333Y-49622700D02*
X239430000Y-49756033D01*
X239430000Y-49756033D02*
X239430000Y-50022700D01*
X239430000Y-50022700D02*
X239463333Y-50089366D01*
X239463333Y-50089366D02*
X239496667Y-50122700D01*
X239496667Y-50122700D02*
X239563333Y-50156033D01*
X239563333Y-50156033D02*
X239696667Y-50156033D01*
X239696667Y-50156033D02*
X239763333Y-50122700D01*
X239763333Y-50122700D02*
X239796667Y-50089366D01*
X239796667Y-50089366D02*
X239830000Y-50022700D01*
X239830000Y-50022700D02*
X239830000Y-49856033D01*
X239830000Y-49856033D02*
X239796667Y-49789366D01*
X239796667Y-49789366D02*
X239763333Y-49756033D01*
X239763333Y-49756033D02*
X239696667Y-49722700D01*
X239696667Y-49722700D02*
X239563333Y-49722700D01*
X239563333Y-49722700D02*
X239496667Y-49756033D01*
X239496667Y-49756033D02*
X239463333Y-49789366D01*
X239463333Y-49789366D02*
X239430000Y-49856033D01*
X240096667Y-49522700D02*
X240130000Y-49489366D01*
X240130000Y-49489366D02*
X240196667Y-49456033D01*
X240196667Y-49456033D02*
X240363334Y-49456033D01*
X240363334Y-49456033D02*
X240430000Y-49489366D01*
X240430000Y-49489366D02*
X240463334Y-49522700D01*
X240463334Y-49522700D02*
X240496667Y-49589366D01*
X240496667Y-49589366D02*
X240496667Y-49656033D01*
X240496667Y-49656033D02*
X240463334Y-49756033D01*
X240463334Y-49756033D02*
X240063334Y-50156033D01*
X240063334Y-50156033D02*
X240496667Y-50156033D01*
X236176666Y-48886033D02*
X236176666Y-48186033D01*
X236176666Y-48186033D02*
X236343333Y-48186033D01*
X236343333Y-48186033D02*
X236443333Y-48219366D01*
X236443333Y-48219366D02*
X236510000Y-48286033D01*
X236510000Y-48286033D02*
X236543333Y-48352700D01*
X236543333Y-48352700D02*
X236576666Y-48486033D01*
X236576666Y-48486033D02*
X236576666Y-48586033D01*
X236576666Y-48586033D02*
X236543333Y-48719366D01*
X236543333Y-48719366D02*
X236510000Y-48786033D01*
X236510000Y-48786033D02*
X236443333Y-48852700D01*
X236443333Y-48852700D02*
X236343333Y-48886033D01*
X236343333Y-48886033D02*
X236176666Y-48886033D01*
X236776666Y-48186033D02*
X237010000Y-48886033D01*
X237010000Y-48886033D02*
X237243333Y-48186033D01*
X237676666Y-48186033D02*
X237676666Y-48686033D01*
X237676666Y-48686033D02*
X237643333Y-48786033D01*
X237643333Y-48786033D02*
X237576666Y-48852700D01*
X237576666Y-48852700D02*
X237476666Y-48886033D01*
X237476666Y-48886033D02*
X237410000Y-48886033D01*
X238309999Y-48186033D02*
X238176666Y-48186033D01*
X238176666Y-48186033D02*
X238109999Y-48219366D01*
X238109999Y-48219366D02*
X238076666Y-48252700D01*
X238076666Y-48252700D02*
X238009999Y-48352700D01*
X238009999Y-48352700D02*
X237976666Y-48486033D01*
X237976666Y-48486033D02*
X237976666Y-48752700D01*
X237976666Y-48752700D02*
X238009999Y-48819366D01*
X238009999Y-48819366D02*
X238043333Y-48852700D01*
X238043333Y-48852700D02*
X238109999Y-48886033D01*
X238109999Y-48886033D02*
X238243333Y-48886033D01*
X238243333Y-48886033D02*
X238309999Y-48852700D01*
X238309999Y-48852700D02*
X238343333Y-48819366D01*
X238343333Y-48819366D02*
X238376666Y-48752700D01*
X238376666Y-48752700D02*
X238376666Y-48586033D01*
X238376666Y-48586033D02*
X238343333Y-48519366D01*
X238343333Y-48519366D02*
X238309999Y-48486033D01*
X238309999Y-48486033D02*
X238243333Y-48452700D01*
X238243333Y-48452700D02*
X238109999Y-48452700D01*
X238109999Y-48452700D02*
X238043333Y-48486033D01*
X238043333Y-48486033D02*
X238009999Y-48519366D01*
X238009999Y-48519366D02*
X237976666Y-48586033D01*
X238643333Y-48686033D02*
X238976666Y-48686033D01*
X238576666Y-48886033D02*
X238810000Y-48186033D01*
X238810000Y-48186033D02*
X239043333Y-48886033D01*
X237834819Y-78359047D02*
X236834819Y-78359047D01*
X236834819Y-78359047D02*
X237549104Y-78025714D01*
X237549104Y-78025714D02*
X236834819Y-77692381D01*
X236834819Y-77692381D02*
X237834819Y-77692381D01*
X237834819Y-77216190D02*
X237168152Y-77216190D01*
X236834819Y-77216190D02*
X236882438Y-77263809D01*
X236882438Y-77263809D02*
X236930057Y-77216190D01*
X236930057Y-77216190D02*
X236882438Y-77168571D01*
X236882438Y-77168571D02*
X236834819Y-77216190D01*
X236834819Y-77216190D02*
X236930057Y-77216190D01*
X237787200Y-76311429D02*
X237834819Y-76406667D01*
X237834819Y-76406667D02*
X237834819Y-76597143D01*
X237834819Y-76597143D02*
X237787200Y-76692381D01*
X237787200Y-76692381D02*
X237739580Y-76740000D01*
X237739580Y-76740000D02*
X237644342Y-76787619D01*
X237644342Y-76787619D02*
X237358628Y-76787619D01*
X237358628Y-76787619D02*
X237263390Y-76740000D01*
X237263390Y-76740000D02*
X237215771Y-76692381D01*
X237215771Y-76692381D02*
X237168152Y-76597143D01*
X237168152Y-76597143D02*
X237168152Y-76406667D01*
X237168152Y-76406667D02*
X237215771Y-76311429D01*
X237834819Y-75882857D02*
X237168152Y-75882857D01*
X237358628Y-75882857D02*
X237263390Y-75835238D01*
X237263390Y-75835238D02*
X237215771Y-75787619D01*
X237215771Y-75787619D02*
X237168152Y-75692381D01*
X237168152Y-75692381D02*
X237168152Y-75597143D01*
X237834819Y-75120952D02*
X237787200Y-75216190D01*
X237787200Y-75216190D02*
X237739580Y-75263809D01*
X237739580Y-75263809D02*
X237644342Y-75311428D01*
X237644342Y-75311428D02*
X237358628Y-75311428D01*
X237358628Y-75311428D02*
X237263390Y-75263809D01*
X237263390Y-75263809D02*
X237215771Y-75216190D01*
X237215771Y-75216190D02*
X237168152Y-75120952D01*
X237168152Y-75120952D02*
X237168152Y-74978095D01*
X237168152Y-74978095D02*
X237215771Y-74882857D01*
X237215771Y-74882857D02*
X237263390Y-74835238D01*
X237263390Y-74835238D02*
X237358628Y-74787619D01*
X237358628Y-74787619D02*
X237644342Y-74787619D01*
X237644342Y-74787619D02*
X237739580Y-74835238D01*
X237739580Y-74835238D02*
X237787200Y-74882857D01*
X237787200Y-74882857D02*
X237834819Y-74978095D01*
X237834819Y-74978095D02*
X237834819Y-75120952D01*
X237787200Y-73644761D02*
X237834819Y-73501904D01*
X237834819Y-73501904D02*
X237834819Y-73263809D01*
X237834819Y-73263809D02*
X237787200Y-73168571D01*
X237787200Y-73168571D02*
X237739580Y-73120952D01*
X237739580Y-73120952D02*
X237644342Y-73073333D01*
X237644342Y-73073333D02*
X237549104Y-73073333D01*
X237549104Y-73073333D02*
X237453866Y-73120952D01*
X237453866Y-73120952D02*
X237406247Y-73168571D01*
X237406247Y-73168571D02*
X237358628Y-73263809D01*
X237358628Y-73263809D02*
X237311009Y-73454285D01*
X237311009Y-73454285D02*
X237263390Y-73549523D01*
X237263390Y-73549523D02*
X237215771Y-73597142D01*
X237215771Y-73597142D02*
X237120533Y-73644761D01*
X237120533Y-73644761D02*
X237025295Y-73644761D01*
X237025295Y-73644761D02*
X236930057Y-73597142D01*
X236930057Y-73597142D02*
X236882438Y-73549523D01*
X236882438Y-73549523D02*
X236834819Y-73454285D01*
X236834819Y-73454285D02*
X236834819Y-73216190D01*
X236834819Y-73216190D02*
X236882438Y-73073333D01*
X237834819Y-72644761D02*
X236834819Y-72644761D01*
X236834819Y-72644761D02*
X236834819Y-72406666D01*
X236834819Y-72406666D02*
X236882438Y-72263809D01*
X236882438Y-72263809D02*
X236977676Y-72168571D01*
X236977676Y-72168571D02*
X237072914Y-72120952D01*
X237072914Y-72120952D02*
X237263390Y-72073333D01*
X237263390Y-72073333D02*
X237406247Y-72073333D01*
X237406247Y-72073333D02*
X237596723Y-72120952D01*
X237596723Y-72120952D02*
X237691961Y-72168571D01*
X237691961Y-72168571D02*
X237787200Y-72263809D01*
X237787200Y-72263809D02*
X237834819Y-72406666D01*
X237834819Y-72406666D02*
X237834819Y-72644761D01*
X237799456Y-38976009D02*
X238132789Y-38976009D01*
X238275646Y-39499819D02*
X237799456Y-39499819D01*
X237799456Y-39499819D02*
X237799456Y-38499819D01*
X237799456Y-38499819D02*
X238275646Y-38499819D01*
X238561361Y-38833152D02*
X238942313Y-38833152D01*
X238704218Y-38499819D02*
X238704218Y-39356961D01*
X238704218Y-39356961D02*
X238751837Y-39452200D01*
X238751837Y-39452200D02*
X238847075Y-39499819D01*
X238847075Y-39499819D02*
X238942313Y-39499819D01*
X239275647Y-39499819D02*
X239275647Y-38499819D01*
X239704218Y-39499819D02*
X239704218Y-38976009D01*
X239704218Y-38976009D02*
X239656599Y-38880771D01*
X239656599Y-38880771D02*
X239561361Y-38833152D01*
X239561361Y-38833152D02*
X239418504Y-38833152D01*
X239418504Y-38833152D02*
X239323266Y-38880771D01*
X239323266Y-38880771D02*
X239275647Y-38928390D01*
X240561361Y-39452200D02*
X240466123Y-39499819D01*
X240466123Y-39499819D02*
X240275647Y-39499819D01*
X240275647Y-39499819D02*
X240180409Y-39452200D01*
X240180409Y-39452200D02*
X240132790Y-39356961D01*
X240132790Y-39356961D02*
X240132790Y-38976009D01*
X240132790Y-38976009D02*
X240180409Y-38880771D01*
X240180409Y-38880771D02*
X240275647Y-38833152D01*
X240275647Y-38833152D02*
X240466123Y-38833152D01*
X240466123Y-38833152D02*
X240561361Y-38880771D01*
X240561361Y-38880771D02*
X240608980Y-38976009D01*
X240608980Y-38976009D02*
X240608980Y-39071247D01*
X240608980Y-39071247D02*
X240132790Y-39166485D01*
X241037552Y-39499819D02*
X241037552Y-38833152D01*
X241037552Y-39023628D02*
X241085171Y-38928390D01*
X241085171Y-38928390D02*
X241132790Y-38880771D01*
X241132790Y-38880771D02*
X241228028Y-38833152D01*
X241228028Y-38833152D02*
X241323266Y-38833152D01*
X241656600Y-38833152D02*
X241656600Y-39499819D01*
X241656600Y-38928390D02*
X241704219Y-38880771D01*
X241704219Y-38880771D02*
X241799457Y-38833152D01*
X241799457Y-38833152D02*
X241942314Y-38833152D01*
X241942314Y-38833152D02*
X242037552Y-38880771D01*
X242037552Y-38880771D02*
X242085171Y-38976009D01*
X242085171Y-38976009D02*
X242085171Y-39499819D01*
X242942314Y-39452200D02*
X242847076Y-39499819D01*
X242847076Y-39499819D02*
X242656600Y-39499819D01*
X242656600Y-39499819D02*
X242561362Y-39452200D01*
X242561362Y-39452200D02*
X242513743Y-39356961D01*
X242513743Y-39356961D02*
X242513743Y-38976009D01*
X242513743Y-38976009D02*
X242561362Y-38880771D01*
X242561362Y-38880771D02*
X242656600Y-38833152D01*
X242656600Y-38833152D02*
X242847076Y-38833152D01*
X242847076Y-38833152D02*
X242942314Y-38880771D01*
X242942314Y-38880771D02*
X242989933Y-38976009D01*
X242989933Y-38976009D02*
X242989933Y-39071247D01*
X242989933Y-39071247D02*
X242513743Y-39166485D01*
X243275648Y-38833152D02*
X243656600Y-38833152D01*
X243418505Y-38499819D02*
X243418505Y-39356961D01*
X243418505Y-39356961D02*
X243466124Y-39452200D01*
X243466124Y-39452200D02*
X243561362Y-39499819D01*
X243561362Y-39499819D02*
X243656600Y-39499819D01*
X236118095Y-23894819D02*
X236118095Y-24704342D01*
X236118095Y-24704342D02*
X236165714Y-24799580D01*
X236165714Y-24799580D02*
X236213333Y-24847200D01*
X236213333Y-24847200D02*
X236308571Y-24894819D01*
X236308571Y-24894819D02*
X236499047Y-24894819D01*
X236499047Y-24894819D02*
X236594285Y-24847200D01*
X236594285Y-24847200D02*
X236641904Y-24799580D01*
X236641904Y-24799580D02*
X236689523Y-24704342D01*
X236689523Y-24704342D02*
X236689523Y-23894819D01*
X237118095Y-24847200D02*
X237260952Y-24894819D01*
X237260952Y-24894819D02*
X237499047Y-24894819D01*
X237499047Y-24894819D02*
X237594285Y-24847200D01*
X237594285Y-24847200D02*
X237641904Y-24799580D01*
X237641904Y-24799580D02*
X237689523Y-24704342D01*
X237689523Y-24704342D02*
X237689523Y-24609104D01*
X237689523Y-24609104D02*
X237641904Y-24513866D01*
X237641904Y-24513866D02*
X237594285Y-24466247D01*
X237594285Y-24466247D02*
X237499047Y-24418628D01*
X237499047Y-24418628D02*
X237308571Y-24371009D01*
X237308571Y-24371009D02*
X237213333Y-24323390D01*
X237213333Y-24323390D02*
X237165714Y-24275771D01*
X237165714Y-24275771D02*
X237118095Y-24180533D01*
X237118095Y-24180533D02*
X237118095Y-24085295D01*
X237118095Y-24085295D02*
X237165714Y-23990057D01*
X237165714Y-23990057D02*
X237213333Y-23942438D01*
X237213333Y-23942438D02*
X237308571Y-23894819D01*
X237308571Y-23894819D02*
X237546666Y-23894819D01*
X237546666Y-23894819D02*
X237689523Y-23942438D01*
X238451428Y-24371009D02*
X238594285Y-24418628D01*
X238594285Y-24418628D02*
X238641904Y-24466247D01*
X238641904Y-24466247D02*
X238689523Y-24561485D01*
X238689523Y-24561485D02*
X238689523Y-24704342D01*
X238689523Y-24704342D02*
X238641904Y-24799580D01*
X238641904Y-24799580D02*
X238594285Y-24847200D01*
X238594285Y-24847200D02*
X238499047Y-24894819D01*
X238499047Y-24894819D02*
X238118095Y-24894819D01*
X238118095Y-24894819D02*
X238118095Y-23894819D01*
X238118095Y-23894819D02*
X238451428Y-23894819D01*
X238451428Y-23894819D02*
X238546666Y-23942438D01*
X238546666Y-23942438D02*
X238594285Y-23990057D01*
X238594285Y-23990057D02*
X238641904Y-24085295D01*
X238641904Y-24085295D02*
X238641904Y-24180533D01*
X238641904Y-24180533D02*
X238594285Y-24275771D01*
X238594285Y-24275771D02*
X238546666Y-24323390D01*
X238546666Y-24323390D02*
X238451428Y-24371009D01*
X238451428Y-24371009D02*
X238118095Y-24371009D01*
X190379580Y-67516666D02*
X190427200Y-67564285D01*
X190427200Y-67564285D02*
X190474819Y-67707142D01*
X190474819Y-67707142D02*
X190474819Y-67802380D01*
X190474819Y-67802380D02*
X190427200Y-67945237D01*
X190427200Y-67945237D02*
X190331961Y-68040475D01*
X190331961Y-68040475D02*
X190236723Y-68088094D01*
X190236723Y-68088094D02*
X190046247Y-68135713D01*
X190046247Y-68135713D02*
X189903390Y-68135713D01*
X189903390Y-68135713D02*
X189712914Y-68088094D01*
X189712914Y-68088094D02*
X189617676Y-68040475D01*
X189617676Y-68040475D02*
X189522438Y-67945237D01*
X189522438Y-67945237D02*
X189474819Y-67802380D01*
X189474819Y-67802380D02*
X189474819Y-67707142D01*
X189474819Y-67707142D02*
X189522438Y-67564285D01*
X189522438Y-67564285D02*
X189570057Y-67516666D01*
X189474819Y-67183332D02*
X189474819Y-66516666D01*
X189474819Y-66516666D02*
X190474819Y-66945237D01*
X225454819Y-99738094D02*
X224454819Y-99738094D01*
X224454819Y-99738094D02*
X224454819Y-99499999D01*
X224454819Y-99499999D02*
X224502438Y-99357142D01*
X224502438Y-99357142D02*
X224597676Y-99261904D01*
X224597676Y-99261904D02*
X224692914Y-99214285D01*
X224692914Y-99214285D02*
X224883390Y-99166666D01*
X224883390Y-99166666D02*
X225026247Y-99166666D01*
X225026247Y-99166666D02*
X225216723Y-99214285D01*
X225216723Y-99214285D02*
X225311961Y-99261904D01*
X225311961Y-99261904D02*
X225407200Y-99357142D01*
X225407200Y-99357142D02*
X225454819Y-99499999D01*
X225454819Y-99499999D02*
X225454819Y-99738094D01*
X225454819Y-98214285D02*
X225454819Y-98785713D01*
X225454819Y-98499999D02*
X224454819Y-98499999D01*
X224454819Y-98499999D02*
X224597676Y-98595237D01*
X224597676Y-98595237D02*
X224692914Y-98690475D01*
X224692914Y-98690475D02*
X224740533Y-98785713D01*
X156261905Y-103704819D02*
X156261905Y-102704819D01*
X156261905Y-102704819D02*
X156500000Y-102704819D01*
X156500000Y-102704819D02*
X156642857Y-102752438D01*
X156642857Y-102752438D02*
X156738095Y-102847676D01*
X156738095Y-102847676D02*
X156785714Y-102942914D01*
X156785714Y-102942914D02*
X156833333Y-103133390D01*
X156833333Y-103133390D02*
X156833333Y-103276247D01*
X156833333Y-103276247D02*
X156785714Y-103466723D01*
X156785714Y-103466723D02*
X156738095Y-103561961D01*
X156738095Y-103561961D02*
X156642857Y-103657200D01*
X156642857Y-103657200D02*
X156500000Y-103704819D01*
X156500000Y-103704819D02*
X156261905Y-103704819D01*
X157690476Y-102704819D02*
X157500000Y-102704819D01*
X157500000Y-102704819D02*
X157404762Y-102752438D01*
X157404762Y-102752438D02*
X157357143Y-102800057D01*
X157357143Y-102800057D02*
X157261905Y-102942914D01*
X157261905Y-102942914D02*
X157214286Y-103133390D01*
X157214286Y-103133390D02*
X157214286Y-103514342D01*
X157214286Y-103514342D02*
X157261905Y-103609580D01*
X157261905Y-103609580D02*
X157309524Y-103657200D01*
X157309524Y-103657200D02*
X157404762Y-103704819D01*
X157404762Y-103704819D02*
X157595238Y-103704819D01*
X157595238Y-103704819D02*
X157690476Y-103657200D01*
X157690476Y-103657200D02*
X157738095Y-103609580D01*
X157738095Y-103609580D02*
X157785714Y-103514342D01*
X157785714Y-103514342D02*
X157785714Y-103276247D01*
X157785714Y-103276247D02*
X157738095Y-103181009D01*
X157738095Y-103181009D02*
X157690476Y-103133390D01*
X157690476Y-103133390D02*
X157595238Y-103085771D01*
X157595238Y-103085771D02*
X157404762Y-103085771D01*
X157404762Y-103085771D02*
X157309524Y-103133390D01*
X157309524Y-103133390D02*
X157261905Y-103181009D01*
X157261905Y-103181009D02*
X157214286Y-103276247D01*
X114059580Y-44166666D02*
X114107200Y-44214285D01*
X114107200Y-44214285D02*
X114154819Y-44357142D01*
X114154819Y-44357142D02*
X114154819Y-44452380D01*
X114154819Y-44452380D02*
X114107200Y-44595237D01*
X114107200Y-44595237D02*
X114011961Y-44690475D01*
X114011961Y-44690475D02*
X113916723Y-44738094D01*
X113916723Y-44738094D02*
X113726247Y-44785713D01*
X113726247Y-44785713D02*
X113583390Y-44785713D01*
X113583390Y-44785713D02*
X113392914Y-44738094D01*
X113392914Y-44738094D02*
X113297676Y-44690475D01*
X113297676Y-44690475D02*
X113202438Y-44595237D01*
X113202438Y-44595237D02*
X113154819Y-44452380D01*
X113154819Y-44452380D02*
X113154819Y-44357142D01*
X113154819Y-44357142D02*
X113202438Y-44214285D01*
X113202438Y-44214285D02*
X113250057Y-44166666D01*
X113583390Y-43595237D02*
X113535771Y-43690475D01*
X113535771Y-43690475D02*
X113488152Y-43738094D01*
X113488152Y-43738094D02*
X113392914Y-43785713D01*
X113392914Y-43785713D02*
X113345295Y-43785713D01*
X113345295Y-43785713D02*
X113250057Y-43738094D01*
X113250057Y-43738094D02*
X113202438Y-43690475D01*
X113202438Y-43690475D02*
X113154819Y-43595237D01*
X113154819Y-43595237D02*
X113154819Y-43404761D01*
X113154819Y-43404761D02*
X113202438Y-43309523D01*
X113202438Y-43309523D02*
X113250057Y-43261904D01*
X113250057Y-43261904D02*
X113345295Y-43214285D01*
X113345295Y-43214285D02*
X113392914Y-43214285D01*
X113392914Y-43214285D02*
X113488152Y-43261904D01*
X113488152Y-43261904D02*
X113535771Y-43309523D01*
X113535771Y-43309523D02*
X113583390Y-43404761D01*
X113583390Y-43404761D02*
X113583390Y-43595237D01*
X113583390Y-43595237D02*
X113631009Y-43690475D01*
X113631009Y-43690475D02*
X113678628Y-43738094D01*
X113678628Y-43738094D02*
X113773866Y-43785713D01*
X113773866Y-43785713D02*
X113964342Y-43785713D01*
X113964342Y-43785713D02*
X114059580Y-43738094D01*
X114059580Y-43738094D02*
X114107200Y-43690475D01*
X114107200Y-43690475D02*
X114154819Y-43595237D01*
X114154819Y-43595237D02*
X114154819Y-43404761D01*
X114154819Y-43404761D02*
X114107200Y-43309523D01*
X114107200Y-43309523D02*
X114059580Y-43261904D01*
X114059580Y-43261904D02*
X113964342Y-43214285D01*
X113964342Y-43214285D02*
X113773866Y-43214285D01*
X113773866Y-43214285D02*
X113678628Y-43261904D01*
X113678628Y-43261904D02*
X113631009Y-43309523D01*
X113631009Y-43309523D02*
X113583390Y-43404761D01*
X244126666Y-106434819D02*
X244126666Y-107149104D01*
X244126666Y-107149104D02*
X244079047Y-107291961D01*
X244079047Y-107291961D02*
X243983809Y-107387200D01*
X243983809Y-107387200D02*
X243840952Y-107434819D01*
X243840952Y-107434819D02*
X243745714Y-107434819D01*
X245126666Y-107434819D02*
X244555238Y-107434819D01*
X244840952Y-107434819D02*
X244840952Y-106434819D01*
X244840952Y-106434819D02*
X244745714Y-106577676D01*
X244745714Y-106577676D02*
X244650476Y-106672914D01*
X244650476Y-106672914D02*
X244555238Y-106720533D01*
X130245905Y-68304819D02*
X130245905Y-69114342D01*
X130245905Y-69114342D02*
X130293524Y-69209580D01*
X130293524Y-69209580D02*
X130341143Y-69257200D01*
X130341143Y-69257200D02*
X130436381Y-69304819D01*
X130436381Y-69304819D02*
X130626857Y-69304819D01*
X130626857Y-69304819D02*
X130722095Y-69257200D01*
X130722095Y-69257200D02*
X130769714Y-69209580D01*
X130769714Y-69209580D02*
X130817333Y-69114342D01*
X130817333Y-69114342D02*
X130817333Y-68304819D01*
X131817333Y-69304819D02*
X131245905Y-69304819D01*
X131531619Y-69304819D02*
X131531619Y-68304819D01*
X131531619Y-68304819D02*
X131436381Y-68447676D01*
X131436381Y-68447676D02*
X131341143Y-68542914D01*
X131341143Y-68542914D02*
X131245905Y-68590533D01*
X132198286Y-68400057D02*
X132245905Y-68352438D01*
X132245905Y-68352438D02*
X132341143Y-68304819D01*
X132341143Y-68304819D02*
X132579238Y-68304819D01*
X132579238Y-68304819D02*
X132674476Y-68352438D01*
X132674476Y-68352438D02*
X132722095Y-68400057D01*
X132722095Y-68400057D02*
X132769714Y-68495295D01*
X132769714Y-68495295D02*
X132769714Y-68590533D01*
X132769714Y-68590533D02*
X132722095Y-68733390D01*
X132722095Y-68733390D02*
X132150667Y-69304819D01*
X132150667Y-69304819D02*
X132769714Y-69304819D01*
X255238095Y-112704819D02*
X255238095Y-111704819D01*
X255238095Y-112181009D02*
X255809523Y-112181009D01*
X255809523Y-112704819D02*
X255809523Y-111704819D01*
X256714285Y-112038152D02*
X256714285Y-112704819D01*
X256476190Y-111657200D02*
X256238095Y-112371485D01*
X256238095Y-112371485D02*
X256857142Y-112371485D01*
X130245905Y-100304819D02*
X130245905Y-101114342D01*
X130245905Y-101114342D02*
X130293524Y-101209580D01*
X130293524Y-101209580D02*
X130341143Y-101257200D01*
X130341143Y-101257200D02*
X130436381Y-101304819D01*
X130436381Y-101304819D02*
X130626857Y-101304819D01*
X130626857Y-101304819D02*
X130722095Y-101257200D01*
X130722095Y-101257200D02*
X130769714Y-101209580D01*
X130769714Y-101209580D02*
X130817333Y-101114342D01*
X130817333Y-101114342D02*
X130817333Y-100304819D01*
X131817333Y-101304819D02*
X131245905Y-101304819D01*
X131531619Y-101304819D02*
X131531619Y-100304819D01*
X131531619Y-100304819D02*
X131436381Y-100447676D01*
X131436381Y-100447676D02*
X131341143Y-100542914D01*
X131341143Y-100542914D02*
X131245905Y-100590533D01*
X132150667Y-100304819D02*
X132769714Y-100304819D01*
X132769714Y-100304819D02*
X132436381Y-100685771D01*
X132436381Y-100685771D02*
X132579238Y-100685771D01*
X132579238Y-100685771D02*
X132674476Y-100733390D01*
X132674476Y-100733390D02*
X132722095Y-100781009D01*
X132722095Y-100781009D02*
X132769714Y-100876247D01*
X132769714Y-100876247D02*
X132769714Y-101114342D01*
X132769714Y-101114342D02*
X132722095Y-101209580D01*
X132722095Y-101209580D02*
X132674476Y-101257200D01*
X132674476Y-101257200D02*
X132579238Y-101304819D01*
X132579238Y-101304819D02*
X132293524Y-101304819D01*
X132293524Y-101304819D02*
X132198286Y-101257200D01*
X132198286Y-101257200D02*
X132150667Y-101209580D01*
X208166666Y-105477319D02*
X208166666Y-106191604D01*
X208166666Y-106191604D02*
X208119047Y-106334461D01*
X208119047Y-106334461D02*
X208023809Y-106429700D01*
X208023809Y-106429700D02*
X207880952Y-106477319D01*
X207880952Y-106477319D02*
X207785714Y-106477319D01*
X208547619Y-105477319D02*
X209214285Y-105477319D01*
X209214285Y-105477319D02*
X208785714Y-106477319D01*
X178159580Y-62516666D02*
X178207200Y-62564285D01*
X178207200Y-62564285D02*
X178254819Y-62707142D01*
X178254819Y-62707142D02*
X178254819Y-62802380D01*
X178254819Y-62802380D02*
X178207200Y-62945237D01*
X178207200Y-62945237D02*
X178111961Y-63040475D01*
X178111961Y-63040475D02*
X178016723Y-63088094D01*
X178016723Y-63088094D02*
X177826247Y-63135713D01*
X177826247Y-63135713D02*
X177683390Y-63135713D01*
X177683390Y-63135713D02*
X177492914Y-63088094D01*
X177492914Y-63088094D02*
X177397676Y-63040475D01*
X177397676Y-63040475D02*
X177302438Y-62945237D01*
X177302438Y-62945237D02*
X177254819Y-62802380D01*
X177254819Y-62802380D02*
X177254819Y-62707142D01*
X177254819Y-62707142D02*
X177302438Y-62564285D01*
X177302438Y-62564285D02*
X177350057Y-62516666D01*
X177588152Y-61659523D02*
X178254819Y-61659523D01*
X177207200Y-61897618D02*
X177921485Y-62135713D01*
X177921485Y-62135713D02*
X177921485Y-61516666D01*
X248454819Y-32738094D02*
X247454819Y-32738094D01*
X247454819Y-32738094D02*
X247454819Y-32499999D01*
X247454819Y-32499999D02*
X247502438Y-32357142D01*
X247502438Y-32357142D02*
X247597676Y-32261904D01*
X247597676Y-32261904D02*
X247692914Y-32214285D01*
X247692914Y-32214285D02*
X247883390Y-32166666D01*
X247883390Y-32166666D02*
X248026247Y-32166666D01*
X248026247Y-32166666D02*
X248216723Y-32214285D01*
X248216723Y-32214285D02*
X248311961Y-32261904D01*
X248311961Y-32261904D02*
X248407200Y-32357142D01*
X248407200Y-32357142D02*
X248454819Y-32499999D01*
X248454819Y-32499999D02*
X248454819Y-32738094D01*
X247550057Y-31785713D02*
X247502438Y-31738094D01*
X247502438Y-31738094D02*
X247454819Y-31642856D01*
X247454819Y-31642856D02*
X247454819Y-31404761D01*
X247454819Y-31404761D02*
X247502438Y-31309523D01*
X247502438Y-31309523D02*
X247550057Y-31261904D01*
X247550057Y-31261904D02*
X247645295Y-31214285D01*
X247645295Y-31214285D02*
X247740533Y-31214285D01*
X247740533Y-31214285D02*
X247883390Y-31261904D01*
X247883390Y-31261904D02*
X248454819Y-31833332D01*
X248454819Y-31833332D02*
X248454819Y-31214285D01*
X187704819Y-64761904D02*
X188514342Y-64761904D01*
X188514342Y-64761904D02*
X188609580Y-64714285D01*
X188609580Y-64714285D02*
X188657200Y-64666666D01*
X188657200Y-64666666D02*
X188704819Y-64571428D01*
X188704819Y-64571428D02*
X188704819Y-64380952D01*
X188704819Y-64380952D02*
X188657200Y-64285714D01*
X188657200Y-64285714D02*
X188609580Y-64238095D01*
X188609580Y-64238095D02*
X188514342Y-64190476D01*
X188514342Y-64190476D02*
X187704819Y-64190476D01*
X187704819Y-63809523D02*
X187704819Y-63190476D01*
X187704819Y-63190476D02*
X188085771Y-63523809D01*
X188085771Y-63523809D02*
X188085771Y-63380952D01*
X188085771Y-63380952D02*
X188133390Y-63285714D01*
X188133390Y-63285714D02*
X188181009Y-63238095D01*
X188181009Y-63238095D02*
X188276247Y-63190476D01*
X188276247Y-63190476D02*
X188514342Y-63190476D01*
X188514342Y-63190476D02*
X188609580Y-63238095D01*
X188609580Y-63238095D02*
X188657200Y-63285714D01*
X188657200Y-63285714D02*
X188704819Y-63380952D01*
X188704819Y-63380952D02*
X188704819Y-63666666D01*
X188704819Y-63666666D02*
X188657200Y-63761904D01*
X188657200Y-63761904D02*
X188609580Y-63809523D01*
D11*
%TO.C,D9*%
X144750000Y-29662500D02*
X143250000Y-29662500D01*
%TO.C,C3*%
X176915000Y-89129437D02*
X176915000Y-96785000D01*
X176915000Y-96785000D02*
X179765000Y-96785000D01*
X177979437Y-88065000D02*
X176915000Y-89129437D01*
X177979437Y-88065000D02*
X179765000Y-88065000D01*
X183785000Y-86825000D02*
X183785000Y-87825000D01*
X184285000Y-87325000D02*
X183285000Y-87325000D01*
X184570563Y-88065000D02*
X182785000Y-88065000D01*
X184570563Y-88065000D02*
X185635000Y-89129437D01*
X185635000Y-89129437D02*
X185635000Y-96785000D01*
X185635000Y-96785000D02*
X182785000Y-96785000D01*
%TO.C,R17*%
X186592500Y-40479724D02*
X186592500Y-39970276D01*
X187637500Y-40479724D02*
X187637500Y-39970276D01*
%TO.C,R8*%
X121055000Y-74772936D02*
X121055000Y-75227064D01*
X122525000Y-74772936D02*
X122525000Y-75227064D01*
D10*
%TO.C,D8*%
X111850000Y-113640000D02*
X117150000Y-113640000D01*
X111850000Y-116360000D02*
X117150000Y-116360000D01*
X113230000Y-113640000D02*
X113230000Y-116360000D01*
X117150000Y-113640000D02*
X117150000Y-114030000D01*
X117150000Y-116360000D02*
X117150000Y-115970000D01*
D11*
%TO.C,U11*%
X147345000Y-89360000D02*
X147345000Y-99640000D01*
X147345000Y-99640000D02*
X148995000Y-99640000D01*
X150995000Y-99640000D02*
X152645000Y-99640000D01*
X152645000Y-89360000D02*
X147345000Y-89360000D01*
X152645000Y-99640000D02*
X152645000Y-89360000D01*
X148995000Y-99640000D02*
G75*
G02*
X150995000Y-99640000I1000000J0D01*
G01*
%TO.C,J6*%
X159275000Y-20667500D02*
X159275000Y-32887500D01*
X159275000Y-22167500D02*
X176735000Y-22167500D01*
X159275000Y-23967500D02*
X159275000Y-22167500D01*
X159275000Y-32887500D02*
X176735000Y-32887500D01*
X161925000Y-20667500D02*
X162175000Y-22167500D01*
X162175000Y-22167500D02*
X163675000Y-22167500D01*
X163675000Y-22167500D02*
X163925000Y-20667500D01*
X163925000Y-20667500D02*
X161925000Y-20667500D01*
X167005000Y-20667500D02*
X167255000Y-22167500D01*
X167255000Y-22167500D02*
X168755000Y-22167500D01*
X168755000Y-22167500D02*
X169005000Y-20667500D01*
X169005000Y-20667500D02*
X167005000Y-20667500D01*
X172085000Y-20667500D02*
X172335000Y-22167500D01*
X172335000Y-22167500D02*
X173835000Y-22167500D01*
X172785000Y-33687500D02*
X173085000Y-33087500D01*
X173085000Y-33087500D02*
X173385000Y-33687500D01*
X173385000Y-33687500D02*
X172785000Y-33687500D01*
X173835000Y-22167500D02*
X174085000Y-20667500D01*
X174085000Y-20667500D02*
X172085000Y-20667500D01*
X176735000Y-20667500D02*
X159275000Y-20667500D01*
X176735000Y-22167500D02*
X176735000Y-23967500D01*
X176735000Y-23967500D02*
X159275000Y-23967500D01*
X176735000Y-32887500D02*
X176735000Y-20667500D01*
%TO.C,C5*%
X175440000Y-67496267D02*
X175440000Y-67203733D01*
X176460000Y-67496267D02*
X176460000Y-67203733D01*
%TO.C,U10*%
X147660000Y-57630000D02*
X147660000Y-67910000D01*
X147660000Y-67910000D02*
X149310000Y-67910000D01*
X151310000Y-67910000D02*
X152960000Y-67910000D01*
X152960000Y-57630000D02*
X147660000Y-57630000D01*
X152960000Y-67910000D02*
X152960000Y-57630000D01*
X149310000Y-67910000D02*
G75*
G02*
X151310000Y-67910000I1000000J0D01*
G01*
D12*
%TO.C,U8*%
X133249000Y-51450000D02*
X135190000Y-51450000D01*
X135190000Y-41550000D02*
X133249000Y-41550000D01*
X135190000Y-51450000D02*
X135190000Y-41550000D01*
D13*
X141100000Y-50400000D02*
G75*
G02*
X140900000Y-50400000I-100000J0D01*
G01*
X140900000Y-50400000D02*
G75*
G02*
X141100000Y-50400000I100000J0D01*
G01*
D11*
%TO.C,R1*%
X255772936Y-30265000D02*
X256227064Y-30265000D01*
X255772936Y-31735000D02*
X256227064Y-31735000D01*
%TO.C,J2*%
X251620000Y-78520000D02*
X251620000Y-55550000D01*
X254380000Y-55550000D02*
X251620000Y-55550000D01*
X254380000Y-78520000D02*
X251620000Y-78520000D01*
X254380000Y-78520000D02*
X254380000Y-55550000D01*
X254380000Y-79790000D02*
X254380000Y-81170000D01*
X254380000Y-81170000D02*
X253000000Y-81170000D01*
D14*
%TO.C,L1*%
X177465000Y-75615000D02*
X177465000Y-83235000D01*
X177465000Y-83235000D02*
X179192200Y-83235000D01*
X179192200Y-75615000D02*
X177465000Y-75615000D01*
X183357800Y-83235000D02*
X185085000Y-83235000D01*
X185085000Y-75615000D02*
X183357800Y-75615000D01*
X185085000Y-83235000D02*
X185085000Y-75615000D01*
D11*
%TO.C,U7*%
X147660000Y-73630000D02*
X147660000Y-83910000D01*
X147660000Y-83910000D02*
X149310000Y-83910000D01*
X151310000Y-83910000D02*
X152960000Y-83910000D01*
X152960000Y-73630000D02*
X147660000Y-73630000D01*
X152960000Y-83910000D02*
X152960000Y-73630000D01*
X149310000Y-83910000D02*
G75*
G02*
X151310000Y-83910000I1000000J0D01*
G01*
%TO.C,D3*%
X242010000Y-91050000D02*
X236500000Y-91050000D01*
X242010000Y-94350000D02*
X236500000Y-94350000D01*
X242010000Y-94350000D02*
X242010000Y-91050000D01*
%TO.C,C1*%
X203740000Y-89054437D02*
X203740000Y-96710000D01*
X203740000Y-96710000D02*
X206590000Y-96710000D01*
X204804437Y-87990000D02*
X203740000Y-89054437D01*
X204804437Y-87990000D02*
X206590000Y-87990000D01*
X210610000Y-86750000D02*
X210610000Y-87750000D01*
X211110000Y-87250000D02*
X210110000Y-87250000D01*
X211395563Y-87990000D02*
X209610000Y-87990000D01*
X211395563Y-87990000D02*
X212460000Y-89054437D01*
X212460000Y-89054437D02*
X212460000Y-96710000D01*
X212460000Y-96710000D02*
X209610000Y-96710000D01*
%TO.C,C10*%
X103140000Y-91140000D02*
X105990000Y-91140000D01*
X103140000Y-98795563D02*
X103140000Y-91140000D01*
X104204437Y-99860000D02*
X103140000Y-98795563D01*
X104204437Y-99860000D02*
X105990000Y-99860000D01*
X104490000Y-100600000D02*
X105490000Y-100600000D01*
X104990000Y-101100000D02*
X104990000Y-100100000D01*
X110795563Y-99860000D02*
X109010000Y-99860000D01*
X110795563Y-99860000D02*
X111860000Y-98795563D01*
X111860000Y-91140000D02*
X109010000Y-91140000D01*
X111860000Y-98795563D02*
X111860000Y-91140000D01*
%TO.C,U14*%
X127325000Y-105900000D02*
X127325000Y-106850000D01*
X127325000Y-116300000D02*
X127325000Y-115350000D01*
X128690000Y-105900000D02*
X127325000Y-105900000D01*
X128690000Y-116300000D02*
X127325000Y-116300000D01*
X124500000Y-106890000D02*
X124160000Y-106420000D01*
X124840000Y-106420000D01*
X124500000Y-106890000D01*
G36*
X124500000Y-106890000D02*
G01*
X124160000Y-106420000D01*
X124840000Y-106420000D01*
X124500000Y-106890000D01*
G37*
D15*
%TO.C,Q2*%
X118700000Y-29640000D02*
X118700000Y-23670000D01*
X119460000Y-30110000D02*
X119460000Y-29640000D01*
X120060000Y-29640000D02*
X120060000Y-30110000D01*
X120060000Y-30110000D02*
X119460000Y-30110000D01*
X123900000Y-30110000D02*
X123900000Y-29640000D01*
X124710000Y-29640000D02*
X124710000Y-30110000D01*
X124710000Y-30110000D02*
X123900000Y-30110000D01*
X125300000Y-23670000D02*
X125300000Y-29640000D01*
X125300000Y-29640000D02*
X118700000Y-29640000D01*
D16*
X118480000Y-31110000D02*
G75*
G02*
X118479984Y-31107452I-200000J0D01*
G01*
D17*
X118730000Y-32670000D02*
G75*
G02*
X118670000Y-32670000I-30000J0D01*
G01*
X118670000Y-32670000D02*
G75*
G02*
X118730000Y-32670000I30000J0D01*
G01*
D11*
%TO.C,C2*%
X210184420Y-81840000D02*
X210465580Y-81840000D01*
X210184420Y-82860000D02*
X210465580Y-82860000D01*
%TO.C,J3*%
X203640000Y-23490000D02*
X203640000Y-25290000D01*
X203870000Y-20240000D02*
X203870000Y-26040000D01*
X203870000Y-20240000D02*
X220130000Y-20240000D01*
X203870000Y-29320000D02*
X203870000Y-36340000D01*
X220130000Y-20240000D02*
X220130000Y-26040000D01*
X220130000Y-29320000D02*
X220130000Y-36340000D01*
%TO.C,U15*%
X185055000Y-45665000D02*
X185150000Y-45665000D01*
X185055000Y-49785000D02*
X185055000Y-45665000D01*
X185150000Y-49785000D02*
X185055000Y-49785000D01*
X190080000Y-45665000D02*
X190175000Y-45665000D01*
X190175000Y-45665000D02*
X190175000Y-49785000D01*
X190175000Y-49785000D02*
X190080000Y-49785000D01*
X185145000Y-50325000D02*
X184815000Y-50565000D01*
X184815000Y-50085000D01*
X185145000Y-50325000D01*
G36*
X185145000Y-50325000D02*
G01*
X184815000Y-50565000D01*
X184815000Y-50085000D01*
X185145000Y-50325000D01*
G37*
D15*
%TO.C,FH2*%
X111460000Y-21920000D02*
X111650000Y-21920000D01*
X111460000Y-32080000D02*
X111460000Y-21920000D01*
X111650000Y-32080000D02*
X111460000Y-32080000D01*
X116350000Y-21920000D02*
X116540000Y-21920000D01*
X116540000Y-21920000D02*
X116540000Y-32080000D01*
X116540000Y-32080000D02*
X116350000Y-32080000D01*
X113950000Y-27600000D02*
G75*
G02*
X113950000Y-27000000I0J300000D01*
G01*
X114000000Y-26400000D02*
G75*
G02*
X114000000Y-27000000I0J-300000D01*
G01*
D17*
X111540000Y-22150000D02*
G75*
G02*
X111480000Y-22150000I-30000J0D01*
G01*
X111480000Y-22150000D02*
G75*
G02*
X111540000Y-22150000I30000J0D01*
G01*
D11*
%TO.C,J5*%
X205650000Y-50250000D02*
X205650000Y-51500000D01*
X205940000Y-50540000D02*
X205940000Y-56510000D01*
X205940000Y-56510000D02*
X218560000Y-56510000D01*
X205950000Y-50550000D02*
X205950000Y-51300000D01*
X205950000Y-51300000D02*
X207750000Y-51300000D01*
X205950000Y-52800000D02*
X206700000Y-52800000D01*
X206700000Y-52800000D02*
X206700000Y-55750000D01*
X206700000Y-55750000D02*
X212250000Y-55750000D01*
X206900000Y-50250000D02*
X205650000Y-50250000D01*
X207750000Y-50550000D02*
X205950000Y-50550000D01*
X207750000Y-51300000D02*
X207750000Y-50550000D01*
X209250000Y-50550000D02*
X209250000Y-51300000D01*
X209250000Y-51300000D02*
X215250000Y-51300000D01*
X215250000Y-50550000D02*
X209250000Y-50550000D01*
X215250000Y-51300000D02*
X215250000Y-50550000D01*
X216750000Y-50550000D02*
X216750000Y-51300000D01*
X216750000Y-51300000D02*
X218550000Y-51300000D01*
X217800000Y-52800000D02*
X217800000Y-55750000D01*
X217800000Y-55750000D02*
X212250000Y-55750000D01*
X218550000Y-50550000D02*
X216750000Y-50550000D01*
X218550000Y-51300000D02*
X218550000Y-50550000D01*
X218550000Y-52800000D02*
X217800000Y-52800000D01*
X218560000Y-50540000D02*
X205940000Y-50540000D01*
X218560000Y-56510000D02*
X218560000Y-50540000D01*
%TO.C,R5*%
X118055000Y-42772936D02*
X118055000Y-43227064D01*
X119525000Y-42772936D02*
X119525000Y-43227064D01*
%TO.C,D5*%
X254350000Y-33250000D02*
X254350000Y-34750000D01*
%TO.C,J14*%
X100780000Y-54600000D02*
X110820000Y-54600000D01*
X100780000Y-56960000D02*
X100780000Y-54600000D01*
X100780000Y-85320000D02*
X100780000Y-57560000D01*
X101400000Y-54600000D02*
X101400000Y-85320000D01*
X102900000Y-54600000D02*
X102900000Y-85320000D01*
X107800000Y-54600000D02*
X107800000Y-85320000D01*
X110820000Y-54600000D02*
X110820000Y-85320000D01*
X110820000Y-85320000D02*
X100780000Y-85320000D01*
X100780000Y-57260000D02*
X100170000Y-57700000D01*
X100170000Y-56820000D01*
X100780000Y-57260000D01*
G36*
X100780000Y-57260000D02*
G01*
X100170000Y-57700000D01*
X100170000Y-56820000D01*
X100780000Y-57260000D01*
G37*
%TO.C,R12*%
X118055000Y-90772936D02*
X118055000Y-91227064D01*
X119525000Y-90772936D02*
X119525000Y-91227064D01*
%TO.C,D7*%
X132890000Y-22750000D02*
X132890000Y-27160000D01*
X132890000Y-27160000D02*
X135110000Y-27160000D01*
X135110000Y-27160000D02*
X135110000Y-22750000D01*
%TO.C,R13*%
X121055000Y-58772936D02*
X121055000Y-59227064D01*
X122525000Y-58772936D02*
X122525000Y-59227064D01*
D15*
%TO.C,FH1*%
X245960000Y-92020000D02*
X246150000Y-92020000D01*
X245960000Y-102180000D02*
X245960000Y-92020000D01*
X246150000Y-102180000D02*
X245960000Y-102180000D01*
X250850000Y-92020000D02*
X251040000Y-92020000D01*
X251040000Y-92020000D02*
X251040000Y-102180000D01*
X251040000Y-102180000D02*
X250850000Y-102180000D01*
X248500000Y-97700000D02*
G75*
G02*
X248500000Y-97100000I0J300000D01*
G01*
X248550000Y-96500000D02*
G75*
G02*
X248550000Y-97100000I0J-300000D01*
G01*
D17*
X251020000Y-101950000D02*
G75*
G02*
X250960000Y-101950000I-30000J0D01*
G01*
X250960000Y-101950000D02*
G75*
G02*
X251020000Y-101950000I30000J0D01*
G01*
D11*
%TO.C,U1*%
X189300000Y-86175000D02*
X190250000Y-86175000D01*
X189300000Y-87540000D02*
X189300000Y-86175000D01*
X199700000Y-86175000D02*
X198750000Y-86175000D01*
X199700000Y-87540000D02*
X199700000Y-86175000D01*
X199180000Y-83690000D02*
X198710000Y-83350000D01*
X199180000Y-83010000D01*
X199180000Y-83690000D01*
G36*
X199180000Y-83690000D02*
G01*
X198710000Y-83350000D01*
X199180000Y-83010000D01*
X199180000Y-83690000D01*
G37*
%TO.C,R19*%
X184092500Y-40479724D02*
X184092500Y-39970276D01*
X185137500Y-40479724D02*
X185137500Y-39970276D01*
%TO.C,R14*%
X121055000Y-90772936D02*
X121055000Y-91227064D01*
X122525000Y-90772936D02*
X122525000Y-91227064D01*
%TO.C,J8*%
X172730000Y-107112500D02*
X172730000Y-119332500D01*
X172730000Y-116032500D02*
X195270000Y-116032500D01*
X172730000Y-117832500D02*
X172730000Y-116032500D01*
X172730000Y-119332500D02*
X195270000Y-119332500D01*
X175380000Y-119332500D02*
X177380000Y-119332500D01*
X175630000Y-117832500D02*
X175380000Y-119332500D01*
X176080000Y-106312500D02*
X176680000Y-106312500D01*
X176380000Y-106912500D02*
X176080000Y-106312500D01*
X176680000Y-106312500D02*
X176380000Y-106912500D01*
X177130000Y-117832500D02*
X175630000Y-117832500D01*
X177380000Y-119332500D02*
X177130000Y-117832500D01*
X180460000Y-119332500D02*
X182460000Y-119332500D01*
X180710000Y-117832500D02*
X180460000Y-119332500D01*
X182210000Y-117832500D02*
X180710000Y-117832500D01*
X182460000Y-119332500D02*
X182210000Y-117832500D01*
X185540000Y-119332500D02*
X187540000Y-119332500D01*
X185790000Y-117832500D02*
X185540000Y-119332500D01*
X187290000Y-117832500D02*
X185790000Y-117832500D01*
X187540000Y-119332500D02*
X187290000Y-117832500D01*
X190620000Y-119332500D02*
X192620000Y-119332500D01*
X190870000Y-117832500D02*
X190620000Y-119332500D01*
X192370000Y-117832500D02*
X190870000Y-117832500D01*
X192620000Y-119332500D02*
X192370000Y-117832500D01*
X195270000Y-107112500D02*
X172730000Y-107112500D01*
X195270000Y-116032500D02*
X195270000Y-117832500D01*
X195270000Y-117832500D02*
X172730000Y-117832500D01*
X195270000Y-119332500D02*
X195270000Y-107112500D01*
D10*
%TO.C,D4*%
X205450000Y-76990000D02*
X205450000Y-77380000D01*
X205450000Y-79710000D02*
X205450000Y-79320000D01*
X209370000Y-79710000D02*
X209370000Y-76990000D01*
X210750000Y-76990000D02*
X205450000Y-76990000D01*
X210750000Y-79710000D02*
X205450000Y-79710000D01*
D11*
%TO.C,C6*%
X190540000Y-61638748D02*
X190540000Y-63061252D01*
X192360000Y-61638748D02*
X192360000Y-63061252D01*
%TO.C,R2*%
X230639564Y-91965000D02*
X230185436Y-91965000D01*
X230639564Y-93435000D02*
X230185436Y-93435000D01*
D12*
%TO.C,U9*%
X133249000Y-83450000D02*
X135190000Y-83450000D01*
X135190000Y-73550000D02*
X133249000Y-73550000D01*
X135190000Y-83450000D02*
X135190000Y-73550000D01*
D13*
X141100000Y-82400000D02*
G75*
G02*
X140900000Y-82400000I-100000J0D01*
G01*
X140900000Y-82400000D02*
G75*
G02*
X141100000Y-82400000I100000J0D01*
G01*
D11*
%TO.C,J9*%
X251620000Y-37920000D02*
X253000000Y-37920000D01*
X251620000Y-39300000D02*
X251620000Y-37920000D01*
X251620000Y-40570000D02*
X251620000Y-53380000D01*
X251620000Y-40570000D02*
X254380000Y-40570000D01*
X251620000Y-53380000D02*
X254380000Y-53380000D01*
X254380000Y-40570000D02*
X254380000Y-53380000D01*
%TO.C,J4*%
X179275000Y-20667500D02*
X179275000Y-32887500D01*
X179275000Y-22167500D02*
X196735000Y-22167500D01*
X179275000Y-23967500D02*
X179275000Y-22167500D01*
X179275000Y-32887500D02*
X196735000Y-32887500D01*
X181925000Y-20667500D02*
X182175000Y-22167500D01*
X182175000Y-22167500D02*
X183675000Y-22167500D01*
X183675000Y-22167500D02*
X183925000Y-20667500D01*
X183925000Y-20667500D02*
X181925000Y-20667500D01*
X187005000Y-20667500D02*
X187255000Y-22167500D01*
X187255000Y-22167500D02*
X188755000Y-22167500D01*
X188755000Y-22167500D02*
X189005000Y-20667500D01*
X189005000Y-20667500D02*
X187005000Y-20667500D01*
X192085000Y-20667500D02*
X192335000Y-22167500D01*
X192335000Y-22167500D02*
X193835000Y-22167500D01*
X192785000Y-33687500D02*
X193085000Y-33087500D01*
X193085000Y-33087500D02*
X193385000Y-33687500D01*
X193385000Y-33687500D02*
X192785000Y-33687500D01*
X193835000Y-22167500D02*
X194085000Y-20667500D01*
X194085000Y-20667500D02*
X192085000Y-20667500D01*
X196735000Y-20667500D02*
X179275000Y-20667500D01*
X196735000Y-22167500D02*
X196735000Y-23967500D01*
X196735000Y-23967500D02*
X179275000Y-23967500D01*
X196735000Y-32887500D02*
X196735000Y-20667500D01*
%TO.C,C11*%
X112640580Y-110490000D02*
X112359420Y-110490000D01*
X112640580Y-111510000D02*
X112359420Y-111510000D01*
%TO.C,R11*%
X118142500Y-58772936D02*
X118142500Y-59227064D01*
X119612500Y-58772936D02*
X119612500Y-59227064D01*
D15*
%TO.C,Q1*%
X234230000Y-96940000D02*
X234700000Y-96940000D01*
X234230000Y-97540000D02*
X234230000Y-96940000D01*
X234230000Y-101380000D02*
X234700000Y-101380000D01*
X234230000Y-102190000D02*
X234230000Y-101380000D01*
X234700000Y-96180000D02*
X240670000Y-96180000D01*
X234700000Y-97540000D02*
X234230000Y-97540000D01*
X234700000Y-102190000D02*
X234230000Y-102190000D01*
X234700000Y-102780000D02*
X234700000Y-96180000D01*
X240670000Y-102780000D02*
X234700000Y-102780000D01*
D16*
X233230000Y-95960000D02*
G75*
G02*
X233232548Y-95959984I0J200000D01*
G01*
D17*
X231700000Y-96180000D02*
G75*
G02*
X231640000Y-96180000I-30000J0D01*
G01*
X231640000Y-96180000D02*
G75*
G02*
X231700000Y-96180000I30000J0D01*
G01*
D14*
%TO.C,L2*%
X153190000Y-109620600D02*
X153190000Y-117240600D01*
X153190000Y-117240600D02*
X154917200Y-117240600D01*
X154917200Y-109620600D02*
X153190000Y-109620600D01*
X159082800Y-117240600D02*
X160810000Y-117240600D01*
X160810000Y-109620600D02*
X159082800Y-109620600D01*
X160810000Y-117240600D02*
X160810000Y-109620600D01*
D15*
%TO.C,D11*%
X190165000Y-39915000D02*
X190165000Y-40535000D01*
X191565000Y-38725000D02*
X190565000Y-38725000D01*
X191565000Y-38725000D02*
X191565000Y-39585000D01*
X191565000Y-40865000D02*
X191565000Y-41725000D01*
X191565000Y-41725000D02*
X190565000Y-41725000D01*
D17*
X189695000Y-38775000D02*
G75*
G02*
X189635000Y-38775000I-30000J0D01*
G01*
X189635000Y-38775000D02*
G75*
G02*
X189695000Y-38775000I30000J0D01*
G01*
D11*
%TO.C,C12*%
X141640000Y-107340000D02*
X144490000Y-107340000D01*
X141640000Y-114995563D02*
X141640000Y-107340000D01*
X142704437Y-116060000D02*
X141640000Y-114995563D01*
X142704437Y-116060000D02*
X144490000Y-116060000D01*
X142990000Y-116800000D02*
X143990000Y-116800000D01*
X143490000Y-117300000D02*
X143490000Y-116300000D01*
X149295563Y-116060000D02*
X147510000Y-116060000D01*
X149295563Y-116060000D02*
X150360000Y-114995563D01*
X150360000Y-107340000D02*
X147510000Y-107340000D01*
X150360000Y-114995563D02*
X150360000Y-107340000D01*
%TO.C,U6*%
X147660000Y-41630000D02*
X147660000Y-51910000D01*
X147660000Y-51910000D02*
X149310000Y-51910000D01*
X151310000Y-51910000D02*
X152960000Y-51910000D01*
X152960000Y-41630000D02*
X147660000Y-41630000D01*
X152960000Y-51910000D02*
X152960000Y-41630000D01*
X149310000Y-51910000D02*
G75*
G02*
X151310000Y-51910000I1000000J0D01*
G01*
%TO.C,R16*%
X137265000Y-23272936D02*
X137265000Y-23727064D01*
X138735000Y-23272936D02*
X138735000Y-23727064D01*
%TO.C,D10*%
X127350000Y-29010000D02*
X127350000Y-23500000D01*
X127350000Y-29010000D02*
X130650000Y-29010000D01*
X130650000Y-29010000D02*
X130650000Y-23500000D01*
D10*
%TO.C,U5*%
X228490000Y-20630000D02*
X246270000Y-20630000D01*
X228490000Y-81590000D02*
X228490000Y-20630000D01*
X231030000Y-43490000D02*
X231030000Y-56190000D01*
X231030000Y-56190000D02*
X243730000Y-56190000D01*
X231030000Y-68890000D02*
X231030000Y-81590000D01*
X232300000Y-80320000D02*
X232300000Y-81590000D01*
X233570000Y-19360000D02*
X241190000Y-19360000D01*
X233570000Y-20630000D02*
X233570000Y-19360000D01*
X233570000Y-25710000D02*
X233570000Y-20630000D01*
X233570000Y-25710000D02*
X241190000Y-25710000D01*
X236110000Y-61270000D02*
X238650000Y-61270000D01*
X236110000Y-65080000D02*
X236110000Y-61270000D01*
X237481600Y-33860000D02*
X237481600Y-37860000D01*
X237481600Y-37860000D02*
X243731600Y-37860000D01*
X238650000Y-61270000D02*
X238650000Y-65080000D01*
X238650000Y-65080000D02*
X236110000Y-65080000D01*
X241190000Y-19360000D02*
X241190000Y-20630000D01*
X241190000Y-25710000D02*
X241190000Y-20630000D01*
X242460000Y-80320000D02*
X232300000Y-80320000D01*
X242460000Y-81590000D02*
X242460000Y-80320000D01*
X243481600Y-33860000D02*
X237481600Y-33860000D01*
X243730000Y-43490000D02*
X231030000Y-43490000D01*
X243730000Y-56190000D02*
X243730000Y-43490000D01*
X243730000Y-68890000D02*
X231030000Y-68890000D01*
X243730000Y-81590000D02*
X243730000Y-68890000D01*
X243731600Y-33860000D02*
X243481600Y-33860000D01*
X243731600Y-37860000D02*
X243731600Y-33860000D01*
X246270000Y-20630000D02*
X246270000Y-81590000D01*
X246270000Y-81590000D02*
X228490000Y-81590000D01*
X238278026Y-63175000D02*
G75*
G02*
X236481974Y-63175000I-898026J0D01*
G01*
X236481974Y-63175000D02*
G75*
G02*
X238278026Y-63175000I898026J0D01*
G01*
D18*
X237306000Y-53291000D02*
X236925000Y-53545000D01*
X236671000Y-53291000D01*
X237052000Y-53037000D01*
X237306000Y-53291000D01*
G36*
X237306000Y-53291000D02*
G01*
X236925000Y-53545000D01*
X236671000Y-53291000D01*
X237052000Y-53037000D01*
X237306000Y-53291000D01*
G37*
X237433000Y-52529000D02*
X237052000Y-52783000D01*
X236798000Y-52529000D01*
X237179000Y-52275000D01*
X237433000Y-52529000D01*
G36*
X237433000Y-52529000D02*
G01*
X237052000Y-52783000D01*
X236798000Y-52529000D01*
X237179000Y-52275000D01*
X237433000Y-52529000D01*
G37*
X237687000Y-53672000D02*
X237306000Y-53926000D01*
X237052000Y-53672000D01*
X237433000Y-53418000D01*
X237687000Y-53672000D01*
G36*
X237687000Y-53672000D02*
G01*
X237306000Y-53926000D01*
X237052000Y-53672000D01*
X237433000Y-53418000D01*
X237687000Y-53672000D01*
G37*
X237814000Y-52910000D02*
X237433000Y-53164000D01*
X237179000Y-52910000D01*
X237560000Y-52656000D01*
X237814000Y-52910000D01*
G36*
X237814000Y-52910000D02*
G01*
X237433000Y-53164000D01*
X237179000Y-52910000D01*
X237560000Y-52656000D01*
X237814000Y-52910000D01*
G37*
X237941000Y-52148000D02*
X237560000Y-52402000D01*
X237306000Y-52148000D01*
X237687000Y-51894000D01*
X237941000Y-52148000D01*
G36*
X237941000Y-52148000D02*
G01*
X237560000Y-52402000D01*
X237306000Y-52148000D01*
X237687000Y-51894000D01*
X237941000Y-52148000D01*
G37*
X238068000Y-54053000D02*
X237687000Y-54307000D01*
X237433000Y-54053000D01*
X237814000Y-53799000D01*
X238068000Y-54053000D01*
G36*
X238068000Y-54053000D02*
G01*
X237687000Y-54307000D01*
X237433000Y-54053000D01*
X237814000Y-53799000D01*
X238068000Y-54053000D01*
G37*
X238322000Y-52529000D02*
X237941000Y-52783000D01*
X237687000Y-52529000D01*
X238068000Y-52275000D01*
X238322000Y-52529000D01*
G36*
X238322000Y-52529000D02*
G01*
X237941000Y-52783000D01*
X237687000Y-52529000D01*
X238068000Y-52275000D01*
X238322000Y-52529000D01*
G37*
X238449000Y-51767000D02*
X238068000Y-52021000D01*
X237814000Y-51767000D01*
X238195000Y-51513000D01*
X238449000Y-51767000D01*
G36*
X238449000Y-51767000D02*
G01*
X238068000Y-52021000D01*
X237814000Y-51767000D01*
X238195000Y-51513000D01*
X238449000Y-51767000D01*
G37*
D11*
%TO.C,C7*%
X190940000Y-67496267D02*
X190940000Y-67203733D01*
X191960000Y-67496267D02*
X191960000Y-67203733D01*
%TO.C,D1*%
X225890000Y-97250000D02*
X225890000Y-101660000D01*
X225890000Y-101660000D02*
X228110000Y-101660000D01*
X228110000Y-101660000D02*
X228110000Y-97250000D01*
%TO.C,D6*%
X153490000Y-104100000D02*
X153490000Y-107400000D01*
X153490000Y-104100000D02*
X159000000Y-104100000D01*
X153490000Y-107400000D02*
X159000000Y-107400000D01*
%TO.C,C8*%
X102240000Y-39804437D02*
X102240000Y-49260000D01*
X102240000Y-49260000D02*
X105990000Y-49260000D01*
X103304437Y-38740000D02*
X102240000Y-39804437D01*
X103304437Y-38740000D02*
X105990000Y-38740000D01*
X110260000Y-37250000D02*
X110260000Y-38500000D01*
X110885000Y-37875000D02*
X109635000Y-37875000D01*
X111695563Y-38740000D02*
X109010000Y-38740000D01*
X111695563Y-38740000D02*
X112760000Y-39804437D01*
X112760000Y-39804437D02*
X112760000Y-49260000D01*
X112760000Y-49260000D02*
X109010000Y-49260000D01*
%TO.C,J1*%
X239260000Y-107980000D02*
X249660000Y-107980000D01*
X239260000Y-110100000D02*
X249660000Y-110100000D01*
X239260000Y-116300000D02*
X249660000Y-116300000D01*
X239260000Y-118800000D02*
X249660000Y-118800000D01*
X239260000Y-119420000D02*
X239260000Y-107980000D01*
X241620000Y-119420000D02*
X239260000Y-119420000D01*
X249660000Y-107980000D02*
X249660000Y-119420000D01*
X249660000Y-119420000D02*
X242220000Y-119420000D01*
X242360000Y-120030000D02*
X241480000Y-120030000D01*
X241920000Y-119420000D01*
X242360000Y-120030000D01*
G36*
X242360000Y-120030000D02*
G01*
X241480000Y-120030000D01*
X241920000Y-119420000D01*
X242360000Y-120030000D01*
G37*
D12*
%TO.C,U12*%
X133249000Y-67450000D02*
X135190000Y-67450000D01*
X135190000Y-57550000D02*
X133249000Y-57550000D01*
X135190000Y-67450000D02*
X135190000Y-57550000D01*
D13*
X141100000Y-66400000D02*
G75*
G02*
X140900000Y-66400000I-100000J0D01*
G01*
X140900000Y-66400000D02*
G75*
G02*
X141100000Y-66400000I100000J0D01*
G01*
D12*
%TO.C,U13*%
X133249000Y-99450000D02*
X135190000Y-99450000D01*
X135190000Y-89550000D02*
X133249000Y-89550000D01*
X135190000Y-99450000D02*
X135190000Y-89550000D01*
D13*
X141100000Y-98400000D02*
G75*
G02*
X140900000Y-98400000I-100000J0D01*
G01*
X140900000Y-98400000D02*
G75*
G02*
X141100000Y-98400000I100000J0D01*
G01*
D11*
%TO.C,J7*%
X197230000Y-107112500D02*
X197230000Y-119332500D01*
X197230000Y-116032500D02*
X219770000Y-116032500D01*
X197230000Y-117832500D02*
X197230000Y-116032500D01*
X197230000Y-119332500D02*
X219770000Y-119332500D01*
X199880000Y-119332500D02*
X201880000Y-119332500D01*
X200130000Y-117832500D02*
X199880000Y-119332500D01*
X200580000Y-106312500D02*
X201180000Y-106312500D01*
X200880000Y-106912500D02*
X200580000Y-106312500D01*
X201180000Y-106312500D02*
X200880000Y-106912500D01*
X201630000Y-117832500D02*
X200130000Y-117832500D01*
X201880000Y-119332500D02*
X201630000Y-117832500D01*
X204960000Y-119332500D02*
X206960000Y-119332500D01*
X205210000Y-117832500D02*
X204960000Y-119332500D01*
X206710000Y-117832500D02*
X205210000Y-117832500D01*
X206960000Y-119332500D02*
X206710000Y-117832500D01*
X210040000Y-119332500D02*
X212040000Y-119332500D01*
X210290000Y-117832500D02*
X210040000Y-119332500D01*
X211790000Y-117832500D02*
X210290000Y-117832500D01*
X212040000Y-119332500D02*
X211790000Y-117832500D01*
X215120000Y-119332500D02*
X217120000Y-119332500D01*
X215370000Y-117832500D02*
X215120000Y-119332500D01*
X216870000Y-117832500D02*
X215370000Y-117832500D01*
X217120000Y-119332500D02*
X216870000Y-117832500D01*
X219770000Y-107112500D02*
X197230000Y-107112500D01*
X219770000Y-116032500D02*
X219770000Y-117832500D01*
X219770000Y-117832500D02*
X197230000Y-117832500D01*
X219770000Y-119332500D02*
X219770000Y-107112500D01*
%TO.C,C4*%
X175040000Y-61638748D02*
X175040000Y-63061252D01*
X176860000Y-61638748D02*
X176860000Y-63061252D01*
%TO.C,D2*%
X248850000Y-35510000D02*
X248850000Y-30000000D01*
X248850000Y-35510000D02*
X252150000Y-35510000D01*
X252150000Y-35510000D02*
X252150000Y-30000000D01*
%TO.C,U3*%
X180340000Y-62150000D02*
X180340000Y-65910000D01*
X180340000Y-65910000D02*
X181600000Y-65910000D01*
X187160000Y-62150000D02*
X187160000Y-65910000D01*
X187160000Y-65910000D02*
X185900000Y-65910000D01*
X187390000Y-61110000D02*
X187060000Y-60870000D01*
X187390000Y-60630000D01*
X187390000Y-61110000D01*
G36*
X187390000Y-61110000D02*
G01*
X187060000Y-60870000D01*
X187390000Y-60630000D01*
X187390000Y-61110000D01*
G37*
%TO.C,R15*%
X143265000Y-35789564D02*
X143265000Y-35335436D01*
X144735000Y-35789564D02*
X144735000Y-35335436D01*
%TO.C,R6*%
X118055000Y-74772936D02*
X118055000Y-75227064D01*
X119525000Y-74772936D02*
X119525000Y-75227064D01*
%TO.C,R7*%
X121055000Y-42772936D02*
X121055000Y-43227064D01*
X122525000Y-42772936D02*
X122525000Y-43227064D01*
%TD*%
%LPC*%
D19*
%TO.C,D9*%
X144000000Y-30375000D03*
X144000000Y-32250000D03*
%TD*%
D20*
%TO.C,C3*%
X181275000Y-88725000D03*
X181275000Y-96125000D03*
%TD*%
D21*
%TO.C,R17*%
X187115000Y-41137500D03*
X187115000Y-39312500D03*
%TD*%
D22*
%TO.C,R8*%
X121790000Y-74087500D03*
X121790000Y-75912500D03*
%TD*%
D23*
%TO.C,D8*%
X117000000Y-115000000D03*
X112000000Y-115000000D03*
%TD*%
D24*
%TO.C,U11*%
X153805000Y-98310000D03*
D25*
X153805000Y-95770000D03*
X153805000Y-93230000D03*
X153805000Y-90690000D03*
X146185000Y-90690000D03*
X146185000Y-93230000D03*
X146185000Y-95770000D03*
X146185000Y-98310000D03*
%TD*%
D26*
%TO.C,H1*%
X104000000Y-24000000D03*
D27*
X104000000Y-24000000D03*
%TD*%
D28*
%TO.C,J6*%
X173085000Y-30777500D03*
D29*
X168005000Y-30777500D03*
X162925000Y-30777500D03*
%TD*%
D30*
%TO.C,C5*%
X175950000Y-68212500D03*
X175950000Y-66487500D03*
%TD*%
D24*
%TO.C,U10*%
X154120000Y-66580000D03*
D25*
X154120000Y-64040000D03*
X154120000Y-61500000D03*
X154120000Y-58960000D03*
X146500000Y-58960000D03*
X146500000Y-61500000D03*
X146500000Y-64040000D03*
X146500000Y-66580000D03*
%TD*%
D31*
%TO.C,U8*%
X138450000Y-50310000D03*
X138450000Y-49040000D03*
X138450000Y-47770000D03*
X138450000Y-46500000D03*
X138450000Y-45230000D03*
X138450000Y-43960000D03*
X138450000Y-42690000D03*
D32*
X128790000Y-46500000D03*
%TD*%
D33*
%TO.C,R1*%
X255087500Y-31000000D03*
X256912500Y-31000000D03*
%TD*%
D34*
%TO.C,J2*%
X253000000Y-79790000D03*
D35*
X253000000Y-77250000D03*
X253000000Y-74710000D03*
X253000000Y-72170000D03*
X253000000Y-69630000D03*
X253000000Y-67090000D03*
X253000000Y-64550000D03*
X253000000Y-62010000D03*
X253000000Y-59470000D03*
X253000000Y-56930000D03*
%TD*%
D36*
%TO.C,L1*%
X181275000Y-76605600D03*
X181275000Y-82244400D03*
%TD*%
D24*
%TO.C,U7*%
X154120000Y-82580000D03*
D25*
X154120000Y-80040000D03*
X154120000Y-77500000D03*
X154120000Y-74960000D03*
X146500000Y-74960000D03*
X146500000Y-77500000D03*
X146500000Y-80040000D03*
X146500000Y-82580000D03*
%TD*%
D37*
%TO.C,D3*%
X240500000Y-92700000D03*
X236500000Y-92700000D03*
%TD*%
D20*
%TO.C,C1*%
X208100000Y-88650000D03*
X208100000Y-96050000D03*
%TD*%
D38*
%TO.C,C10*%
X107500000Y-99200000D03*
X107500000Y-91800000D03*
%TD*%
D39*
%TO.C,U14*%
X124500000Y-107700000D03*
X124500000Y-109400000D03*
X124500000Y-111100000D03*
D40*
X133650000Y-111100000D03*
D39*
X124500000Y-112800000D03*
X124500000Y-114500000D03*
%TD*%
D41*
%TO.C,Q2*%
X119720000Y-31840000D03*
D42*
X122000000Y-25160000D03*
D41*
X124280000Y-31840000D03*
%TD*%
D43*
%TO.C,C2*%
X209550000Y-82350000D03*
X211100000Y-82350000D03*
%TD*%
D44*
%TO.C,J3*%
X206285000Y-30750000D03*
X217715000Y-30750000D03*
D45*
X207560000Y-24390000D03*
D46*
X208820000Y-21850000D03*
X210100000Y-24390000D03*
X211360000Y-21850000D03*
X212640000Y-24390000D03*
X213900000Y-21850000D03*
X215180000Y-24390000D03*
X216440000Y-21850000D03*
X205375000Y-35650000D03*
X207915000Y-35650000D03*
X216085000Y-35650000D03*
X218625000Y-35650000D03*
D47*
X204255000Y-27700000D03*
X219745000Y-27700000D03*
%TD*%
D48*
%TO.C,U15*%
X185710000Y-50200000D03*
X186980000Y-50200000D03*
X188250000Y-50200000D03*
X189520000Y-50200000D03*
X189520000Y-45250000D03*
X188250000Y-45250000D03*
X186980000Y-45250000D03*
X185710000Y-45250000D03*
%TD*%
D49*
%TO.C,FH2*%
X114000000Y-23600000D03*
X114000000Y-30400000D03*
%TD*%
D50*
%TO.C,J5*%
X208500000Y-53000000D03*
D51*
X211000000Y-53000000D03*
X213500000Y-53000000D03*
X216000000Y-53000000D03*
%TD*%
D22*
%TO.C,R5*%
X118790000Y-42087500D03*
X118790000Y-43912500D03*
%TD*%
D52*
%TO.C,D5*%
X255062500Y-34000000D03*
X256937500Y-34000000D03*
%TD*%
D53*
%TO.C,J14*%
X105500000Y-57260000D03*
D54*
X105500000Y-62340000D03*
X105500000Y-67420000D03*
X105500000Y-72500000D03*
X105500000Y-77580000D03*
X105500000Y-82660000D03*
%TD*%
D26*
%TO.C,H3*%
X104000000Y-116000000D03*
D27*
X104000000Y-116000000D03*
%TD*%
D22*
%TO.C,R12*%
X118790000Y-90087500D03*
X118790000Y-91912500D03*
%TD*%
D55*
%TO.C,D7*%
X134000000Y-26250000D03*
X134000000Y-22750000D03*
%TD*%
D22*
%TO.C,R13*%
X121790000Y-58087500D03*
X121790000Y-59912500D03*
%TD*%
D56*
%TO.C,FH1*%
X248500000Y-100500000D03*
X248500000Y-93700000D03*
%TD*%
D57*
%TO.C,U1*%
X197900000Y-83350000D03*
X196200000Y-83350000D03*
X194500000Y-83350000D03*
D58*
X194500000Y-92500000D03*
D57*
X192800000Y-83350000D03*
X191100000Y-83350000D03*
%TD*%
D21*
%TO.C,R19*%
X184615000Y-41137500D03*
X184615000Y-39312500D03*
%TD*%
D22*
%TO.C,R14*%
X121790000Y-90087500D03*
X121790000Y-91912500D03*
%TD*%
D59*
%TO.C,J8*%
X176380000Y-109222500D03*
D29*
X181460000Y-109222500D03*
X186540000Y-109222500D03*
X191620000Y-109222500D03*
%TD*%
D60*
%TO.C,D4*%
X205600000Y-78350000D03*
X210600000Y-78350000D03*
%TD*%
D61*
%TO.C,C6*%
X191450000Y-60787500D03*
X191450000Y-63912500D03*
%TD*%
D62*
%TO.C,R2*%
X231325000Y-92700000D03*
X229500000Y-92700000D03*
%TD*%
D31*
%TO.C,U9*%
X138450000Y-82310000D03*
X138450000Y-81040000D03*
X138450000Y-79770000D03*
X138450000Y-78500000D03*
X138450000Y-77230000D03*
X138450000Y-75960000D03*
X138450000Y-74690000D03*
D32*
X128790000Y-78500000D03*
%TD*%
D63*
%TO.C,J9*%
X253000000Y-39300000D03*
D35*
X253000000Y-41840000D03*
X253000000Y-44380000D03*
X253000000Y-46920000D03*
X253000000Y-49460000D03*
X253000000Y-52000000D03*
%TD*%
D28*
%TO.C,J4*%
X193085000Y-30777500D03*
D29*
X188005000Y-30777500D03*
X182925000Y-30777500D03*
%TD*%
D64*
%TO.C,C11*%
X113275000Y-111000000D03*
X111725000Y-111000000D03*
%TD*%
D22*
%TO.C,R11*%
X118877500Y-58087500D03*
X118877500Y-59912500D03*
%TD*%
D65*
%TO.C,Q1*%
X232500000Y-97200000D03*
D66*
X239180000Y-99480000D03*
D65*
X232500000Y-101760000D03*
%TD*%
D67*
%TO.C,L2*%
X157000000Y-116250000D03*
X157000000Y-110611200D03*
%TD*%
D68*
%TO.C,D11*%
X189715000Y-39275000D03*
X189715000Y-41175000D03*
X192015000Y-40225000D03*
%TD*%
D38*
%TO.C,C12*%
X146000000Y-115400000D03*
X146000000Y-108000000D03*
%TD*%
D24*
%TO.C,U6*%
X154120000Y-50580000D03*
D25*
X154120000Y-48040000D03*
X154120000Y-45500000D03*
X154120000Y-42960000D03*
X146500000Y-42960000D03*
X146500000Y-45500000D03*
X146500000Y-48040000D03*
X146500000Y-50580000D03*
%TD*%
D22*
%TO.C,R16*%
X138000000Y-22587500D03*
X138000000Y-24412500D03*
%TD*%
D26*
%TO.C,H2*%
X256000000Y-24000000D03*
D27*
X256000000Y-24000000D03*
%TD*%
D69*
%TO.C,D10*%
X129000000Y-27500000D03*
X129000000Y-23500000D03*
%TD*%
D70*
%TO.C,U5*%
X229760000Y-21900000D03*
D25*
X229760000Y-24440000D03*
X229760000Y-26980000D03*
X229760000Y-29520000D03*
X229760000Y-32060000D03*
X229760000Y-34600000D03*
X229760000Y-37140000D03*
X229760000Y-39680000D03*
X229760000Y-42220000D03*
X229760000Y-44760000D03*
X229760000Y-47300000D03*
X229760000Y-49840000D03*
X229760000Y-52380000D03*
X229760000Y-54920000D03*
X229760000Y-57460000D03*
X229760000Y-60000000D03*
X229760000Y-62540000D03*
X229760000Y-65080000D03*
X229760000Y-67620000D03*
X229760000Y-70160000D03*
X229760000Y-72700000D03*
X229760000Y-75240000D03*
X229760000Y-77780000D03*
X229760000Y-80320000D03*
X245000000Y-80320000D03*
X245000000Y-77780000D03*
X245000000Y-75240000D03*
X245000000Y-72700000D03*
X245000000Y-70160000D03*
X245000000Y-67620000D03*
X245000000Y-65080000D03*
X245000000Y-62540000D03*
X245000000Y-60000000D03*
X245000000Y-57460000D03*
X245000000Y-54920000D03*
X245000000Y-52380000D03*
X245000000Y-49840000D03*
X245000000Y-47300000D03*
X245000000Y-44760000D03*
X245000000Y-42220000D03*
X245000000Y-39680000D03*
X245000000Y-37140000D03*
X245000000Y-34600000D03*
X245000000Y-32060000D03*
X245000000Y-29520000D03*
X245000000Y-26980000D03*
X245000000Y-24440000D03*
X245000000Y-21900000D03*
D71*
X242561600Y-34870000D03*
D72*
X240561600Y-34870000D03*
X238561600Y-34870000D03*
X238561600Y-36870000D03*
X240561600Y-36870000D03*
X242561600Y-36870000D03*
%TD*%
D30*
%TO.C,C7*%
X191450000Y-68212500D03*
X191450000Y-66487500D03*
%TD*%
D55*
%TO.C,D1*%
X227000000Y-100750000D03*
X227000000Y-97250000D03*
%TD*%
D73*
%TO.C,D6*%
X155000000Y-105750000D03*
X159000000Y-105750000D03*
%TD*%
D74*
%TO.C,C8*%
X107500000Y-40000000D03*
X107500000Y-48000000D03*
%TD*%
D75*
%TO.C,J1*%
X241920000Y-114000000D03*
D54*
X247000000Y-114000000D03*
%TD*%
D31*
%TO.C,U12*%
X138450000Y-66310000D03*
X138450000Y-65040000D03*
X138450000Y-63770000D03*
X138450000Y-62500000D03*
X138450000Y-61230000D03*
X138450000Y-59960000D03*
X138450000Y-58690000D03*
D32*
X128790000Y-62500000D03*
%TD*%
D26*
%TO.C,H4*%
X256000000Y-116000000D03*
D27*
X256000000Y-116000000D03*
%TD*%
D31*
%TO.C,U13*%
X138450000Y-98310000D03*
X138450000Y-97040000D03*
X138450000Y-95770000D03*
X138450000Y-94500000D03*
X138450000Y-93230000D03*
X138450000Y-91960000D03*
X138450000Y-90690000D03*
D32*
X128790000Y-94500000D03*
%TD*%
D59*
%TO.C,J7*%
X200880000Y-109222500D03*
D29*
X205960000Y-109222500D03*
X211040000Y-109222500D03*
X216120000Y-109222500D03*
%TD*%
D61*
%TO.C,C4*%
X175950000Y-60787500D03*
X175950000Y-63912500D03*
%TD*%
D69*
%TO.C,D2*%
X250500000Y-34000000D03*
X250500000Y-30000000D03*
%TD*%
D76*
%TO.C,U3*%
X186050000Y-60850000D03*
X183750000Y-60850000D03*
D77*
X183750000Y-67150000D03*
D76*
X181450000Y-60850000D03*
%TD*%
D78*
%TO.C,R15*%
X144000000Y-36475000D03*
X144000000Y-34650000D03*
%TD*%
D22*
%TO.C,R6*%
X118790000Y-74087500D03*
X118790000Y-75912500D03*
%TD*%
%TO.C,R7*%
X121790000Y-42087500D03*
X121790000Y-43912500D03*
%TD*%
%LPD*%
M02*
