%TF.GenerationSoftware,KiCad,Pcbnew,10.0.5*%
%TF.CreationDate,2026-09-10T12:24:19+07:00*%
%TF.ProjectId,main_controller_hat,6d61696e-5f63-46f6-9e74-726f6c6c6572,rev?*%
%TF.SameCoordinates,Original*%
%TF.FileFunction,Legend,Bot*%
%TF.FilePolarity,Positive*%
%FSLAX46Y46*%
G04 Gerber Fmt 4.6, Leading zero omitted, Abs format (unit mm)*
G04 Created by KiCad (PCBNEW 10.0.5) date 2026-09-10 12:24:19*
%MOMM*%
%LPD*%
G01*
G04 APERTURE LIST*
G04 Aperture macros list*
%AMRoundRect*
0 Rectangle with rounded corners*
0 $1 Rounding radius*
0 $2 $3 $4 $5 $6 $7 $8 $9 X,Y pos of 4 corners*
0 Add a 4 corners polygon primitive as box body*
4,1,4,$2,$3,$4,$5,$6,$7,$8,$9,$2,$3,0*
0 Add four circle primitives for the rounded corners*
1,1,$1+$1,$2,$3*
1,1,$1+$1,$4,$5*
1,1,$1+$1,$6,$7*
1,1,$1+$1,$8,$9*
0 Add four rect primitives between the rounded corners*
20,1,$1+$1,$2,$3,$4,$5,0*
20,1,$1+$1,$4,$5,$6,$7,0*
20,1,$1+$1,$6,$7,$8,$9,0*
20,1,$1+$1,$8,$9,$2,$3,0*%
G04 Aperture macros list end*
%ADD10C,0.300000*%
%ADD11C,0.187500*%
%ADD12C,0.150000*%
%ADD13C,0.120000*%
%ADD14C,1.400000*%
%ADD15C,3.700000*%
%ADD16C,5.700000*%
%ADD17RoundRect,0.299999X0.790001X1.550001X-0.790001X1.550001X-0.790001X-1.550001X0.790001X-1.550001X0*%
%ADD18O,2.180000X3.700000*%
%ADD19RoundRect,0.050000X0.850000X0.850000X-0.850000X0.850000X-0.850000X-0.850000X0.850000X-0.850000X0*%
%ADD20C,1.800000*%
%ADD21RoundRect,0.300000X-0.600000X-0.725000X0.600000X-0.725000X0.600000X0.725000X-0.600000X0.725000X0*%
%ADD22O,1.800000X2.050000*%
%ADD23RoundRect,0.300000X-1.050000X1.050000X-1.050000X-1.050000X1.050000X-1.050000X1.050000X1.050000X0*%
%ADD24C,2.700000*%
%ADD25RoundRect,0.299999X-0.790001X-1.550001X0.790001X-1.550001X0.790001X1.550001X-0.790001X1.550001X0*%
%ADD26RoundRect,0.050000X-0.650000X-0.650000X0.650000X-0.650000X0.650000X0.650000X-0.650000X0.650000X0*%
%ADD27RoundRect,0.050000X-0.850000X-0.850000X0.850000X-0.850000X0.850000X0.850000X-0.850000X0.850000X0*%
%ADD28C,3.350000*%
%ADD29RoundRect,0.300500X0.499500X0.499500X-0.499500X0.499500X-0.499500X-0.499500X0.499500X-0.499500X0*%
%ADD30C,1.600000*%
%ADD31C,2.600000*%
%ADD32RoundRect,0.050000X-0.800000X0.800000X-0.800000X-0.800000X0.800000X-0.800000X0.800000X0.800000X0*%
%ADD33C,1.700000*%
%ADD34RoundRect,0.050000X-0.650000X0.650000X-0.650000X-0.650000X0.650000X-0.650000X0.650000X0.650000X0*%
%ADD35RoundRect,0.300000X-1.050000X-1.050000X1.050000X-1.050000X1.050000X1.050000X-1.050000X1.050000X0*%
%ADD36RoundRect,0.300000X0.262500X0.450000X-0.262500X0.450000X-0.262500X-0.450000X0.262500X-0.450000X0*%
%ADD37RoundRect,0.200000X-0.150000X0.587500X-0.150000X-0.587500X0.150000X-0.587500X0.150000X0.587500X0*%
%ADD38RoundRect,0.300000X-0.262500X-0.450000X0.262500X-0.450000X0.262500X0.450000X-0.262500X0.450000X0*%
%ADD39RoundRect,0.300000X-0.250000X-0.475000X0.250000X-0.475000X0.250000X0.475000X-0.250000X0.475000X0*%
%ADD40RoundRect,0.300000X-0.450000X0.262500X-0.450000X-0.262500X0.450000X-0.262500X0.450000X0.262500X0*%
G04 APERTURE END LIST*
D10*
X150539638Y-63973558D02*
X148539638Y-63973558D01*
X150444400Y-64830701D02*
X150539638Y-65116415D01*
X150539638Y-65116415D02*
X150539638Y-65592606D01*
X150539638Y-65592606D02*
X150444400Y-65783082D01*
X150444400Y-65783082D02*
X150349161Y-65878320D01*
X150349161Y-65878320D02*
X150158685Y-65973558D01*
X150158685Y-65973558D02*
X149968209Y-65973558D01*
X149968209Y-65973558D02*
X149777733Y-65878320D01*
X149777733Y-65878320D02*
X149682495Y-65783082D01*
X149682495Y-65783082D02*
X149587257Y-65592606D01*
X149587257Y-65592606D02*
X149492019Y-65211653D01*
X149492019Y-65211653D02*
X149396780Y-65021177D01*
X149396780Y-65021177D02*
X149301542Y-64925939D01*
X149301542Y-64925939D02*
X149111066Y-64830701D01*
X149111066Y-64830701D02*
X148920590Y-64830701D01*
X148920590Y-64830701D02*
X148730114Y-64925939D01*
X148730114Y-64925939D02*
X148634876Y-65021177D01*
X148634876Y-65021177D02*
X148539638Y-65211653D01*
X148539638Y-65211653D02*
X148539638Y-65687844D01*
X148539638Y-65687844D02*
X148634876Y-65973558D01*
X148539638Y-67211653D02*
X148539638Y-67592606D01*
X148539638Y-67592606D02*
X148634876Y-67783082D01*
X148634876Y-67783082D02*
X148825352Y-67973558D01*
X148825352Y-67973558D02*
X149206304Y-68068796D01*
X149206304Y-68068796D02*
X149872971Y-68068796D01*
X149872971Y-68068796D02*
X150253923Y-67973558D01*
X150253923Y-67973558D02*
X150444400Y-67783082D01*
X150444400Y-67783082D02*
X150539638Y-67592606D01*
X150539638Y-67592606D02*
X150539638Y-67211653D01*
X150539638Y-67211653D02*
X150444400Y-67021177D01*
X150444400Y-67021177D02*
X150253923Y-66830701D01*
X150253923Y-66830701D02*
X149872971Y-66735463D01*
X149872971Y-66735463D02*
X149206304Y-66735463D01*
X149206304Y-66735463D02*
X148825352Y-66830701D01*
X148825352Y-66830701D02*
X148634876Y-67021177D01*
X148634876Y-67021177D02*
X148539638Y-67211653D01*
X150539638Y-69878320D02*
X150539638Y-68925939D01*
X150539638Y-68925939D02*
X148539638Y-68925939D01*
X149968209Y-70449749D02*
X149968209Y-71402130D01*
X150539638Y-70259273D02*
X148539638Y-70925939D01*
X148539638Y-70925939D02*
X150539638Y-71592606D01*
X148539638Y-71973559D02*
X148539638Y-73116416D01*
X150539638Y-72544987D02*
X148539638Y-72544987D01*
X149492019Y-73783083D02*
X149492019Y-74449750D01*
X150539638Y-74735464D02*
X150539638Y-73783083D01*
X150539638Y-73783083D02*
X148539638Y-73783083D01*
X148539638Y-73783083D02*
X148539638Y-74735464D01*
X150539638Y-75592607D02*
X148539638Y-75592607D01*
X148539638Y-75592607D02*
X148539638Y-76068797D01*
X148539638Y-76068797D02*
X148634876Y-76354512D01*
X148634876Y-76354512D02*
X148825352Y-76544988D01*
X148825352Y-76544988D02*
X149015828Y-76640226D01*
X149015828Y-76640226D02*
X149396780Y-76735464D01*
X149396780Y-76735464D02*
X149682495Y-76735464D01*
X149682495Y-76735464D02*
X150063447Y-76640226D01*
X150063447Y-76640226D02*
X150253923Y-76544988D01*
X150253923Y-76544988D02*
X150444400Y-76354512D01*
X150444400Y-76354512D02*
X150539638Y-76068797D01*
X150539638Y-76068797D02*
X150539638Y-75592607D01*
D11*
X207519502Y-71811930D02*
X207519502Y-70311930D01*
X207519502Y-70311930D02*
X207019502Y-71383359D01*
X207019502Y-71383359D02*
X206519502Y-70311930D01*
X206519502Y-70311930D02*
X206519502Y-71811930D01*
X205162359Y-71811930D02*
X205162359Y-71026216D01*
X205162359Y-71026216D02*
X205233787Y-70883359D01*
X205233787Y-70883359D02*
X205376644Y-70811930D01*
X205376644Y-70811930D02*
X205662359Y-70811930D01*
X205662359Y-70811930D02*
X205805216Y-70883359D01*
X205162359Y-71740502D02*
X205305216Y-71811930D01*
X205305216Y-71811930D02*
X205662359Y-71811930D01*
X205662359Y-71811930D02*
X205805216Y-71740502D01*
X205805216Y-71740502D02*
X205876644Y-71597644D01*
X205876644Y-71597644D02*
X205876644Y-71454787D01*
X205876644Y-71454787D02*
X205805216Y-71311930D01*
X205805216Y-71311930D02*
X205662359Y-71240502D01*
X205662359Y-71240502D02*
X205305216Y-71240502D01*
X205305216Y-71240502D02*
X205162359Y-71169073D01*
X204448073Y-71811930D02*
X204448073Y-70811930D01*
X204448073Y-70311930D02*
X204519501Y-70383359D01*
X204519501Y-70383359D02*
X204448073Y-70454787D01*
X204448073Y-70454787D02*
X204376644Y-70383359D01*
X204376644Y-70383359D02*
X204448073Y-70311930D01*
X204448073Y-70311930D02*
X204448073Y-70454787D01*
X203733787Y-70811930D02*
X203733787Y-71811930D01*
X203733787Y-70954787D02*
X203662358Y-70883359D01*
X203662358Y-70883359D02*
X203519501Y-70811930D01*
X203519501Y-70811930D02*
X203305215Y-70811930D01*
X203305215Y-70811930D02*
X203162358Y-70883359D01*
X203162358Y-70883359D02*
X203090930Y-71026216D01*
X203090930Y-71026216D02*
X203090930Y-71811930D01*
X200590930Y-71740502D02*
X200733787Y-71811930D01*
X200733787Y-71811930D02*
X201019501Y-71811930D01*
X201019501Y-71811930D02*
X201162358Y-71740502D01*
X201162358Y-71740502D02*
X201233787Y-71669073D01*
X201233787Y-71669073D02*
X201305215Y-71526216D01*
X201305215Y-71526216D02*
X201305215Y-71097644D01*
X201305215Y-71097644D02*
X201233787Y-70954787D01*
X201233787Y-70954787D02*
X201162358Y-70883359D01*
X201162358Y-70883359D02*
X201019501Y-70811930D01*
X201019501Y-70811930D02*
X200733787Y-70811930D01*
X200733787Y-70811930D02*
X200590930Y-70883359D01*
X199733787Y-71811930D02*
X199876644Y-71740502D01*
X199876644Y-71740502D02*
X199948073Y-71669073D01*
X199948073Y-71669073D02*
X200019501Y-71526216D01*
X200019501Y-71526216D02*
X200019501Y-71097644D01*
X200019501Y-71097644D02*
X199948073Y-70954787D01*
X199948073Y-70954787D02*
X199876644Y-70883359D01*
X199876644Y-70883359D02*
X199733787Y-70811930D01*
X199733787Y-70811930D02*
X199519501Y-70811930D01*
X199519501Y-70811930D02*
X199376644Y-70883359D01*
X199376644Y-70883359D02*
X199305216Y-70954787D01*
X199305216Y-70954787D02*
X199233787Y-71097644D01*
X199233787Y-71097644D02*
X199233787Y-71526216D01*
X199233787Y-71526216D02*
X199305216Y-71669073D01*
X199305216Y-71669073D02*
X199376644Y-71740502D01*
X199376644Y-71740502D02*
X199519501Y-71811930D01*
X199519501Y-71811930D02*
X199733787Y-71811930D01*
X198590930Y-70811930D02*
X198590930Y-71811930D01*
X198590930Y-70954787D02*
X198519501Y-70883359D01*
X198519501Y-70883359D02*
X198376644Y-70811930D01*
X198376644Y-70811930D02*
X198162358Y-70811930D01*
X198162358Y-70811930D02*
X198019501Y-70883359D01*
X198019501Y-70883359D02*
X197948073Y-71026216D01*
X197948073Y-71026216D02*
X197948073Y-71811930D01*
X197448072Y-70811930D02*
X196876644Y-70811930D01*
X197233787Y-70311930D02*
X197233787Y-71597644D01*
X197233787Y-71597644D02*
X197162358Y-71740502D01*
X197162358Y-71740502D02*
X197019501Y-71811930D01*
X197019501Y-71811930D02*
X196876644Y-71811930D01*
X196376644Y-71811930D02*
X196376644Y-70811930D01*
X196376644Y-71097644D02*
X196305215Y-70954787D01*
X196305215Y-70954787D02*
X196233787Y-70883359D01*
X196233787Y-70883359D02*
X196090929Y-70811930D01*
X196090929Y-70811930D02*
X195948072Y-70811930D01*
X195233787Y-71811930D02*
X195376644Y-71740502D01*
X195376644Y-71740502D02*
X195448073Y-71669073D01*
X195448073Y-71669073D02*
X195519501Y-71526216D01*
X195519501Y-71526216D02*
X195519501Y-71097644D01*
X195519501Y-71097644D02*
X195448073Y-70954787D01*
X195448073Y-70954787D02*
X195376644Y-70883359D01*
X195376644Y-70883359D02*
X195233787Y-70811930D01*
X195233787Y-70811930D02*
X195019501Y-70811930D01*
X195019501Y-70811930D02*
X194876644Y-70883359D01*
X194876644Y-70883359D02*
X194805216Y-70954787D01*
X194805216Y-70954787D02*
X194733787Y-71097644D01*
X194733787Y-71097644D02*
X194733787Y-71526216D01*
X194733787Y-71526216D02*
X194805216Y-71669073D01*
X194805216Y-71669073D02*
X194876644Y-71740502D01*
X194876644Y-71740502D02*
X195019501Y-71811930D01*
X195019501Y-71811930D02*
X195233787Y-71811930D01*
X193876644Y-71811930D02*
X194019501Y-71740502D01*
X194019501Y-71740502D02*
X194090930Y-71597644D01*
X194090930Y-71597644D02*
X194090930Y-70311930D01*
X193090930Y-71811930D02*
X193233787Y-71740502D01*
X193233787Y-71740502D02*
X193305216Y-71597644D01*
X193305216Y-71597644D02*
X193305216Y-70311930D01*
X191948073Y-71740502D02*
X192090930Y-71811930D01*
X192090930Y-71811930D02*
X192376645Y-71811930D01*
X192376645Y-71811930D02*
X192519502Y-71740502D01*
X192519502Y-71740502D02*
X192590930Y-71597644D01*
X192590930Y-71597644D02*
X192590930Y-71026216D01*
X192590930Y-71026216D02*
X192519502Y-70883359D01*
X192519502Y-70883359D02*
X192376645Y-70811930D01*
X192376645Y-70811930D02*
X192090930Y-70811930D01*
X192090930Y-70811930D02*
X191948073Y-70883359D01*
X191948073Y-70883359D02*
X191876645Y-71026216D01*
X191876645Y-71026216D02*
X191876645Y-71169073D01*
X191876645Y-71169073D02*
X192590930Y-71311930D01*
X191233788Y-71811930D02*
X191233788Y-70811930D01*
X191233788Y-71097644D02*
X191162359Y-70954787D01*
X191162359Y-70954787D02*
X191090931Y-70883359D01*
X191090931Y-70883359D02*
X190948073Y-70811930D01*
X190948073Y-70811930D02*
X190805216Y-70811930D01*
X189233788Y-71383359D02*
X188519503Y-71383359D01*
X189376645Y-71811930D02*
X188876645Y-70311930D01*
X188876645Y-70311930D02*
X188376645Y-71811930D01*
X187233789Y-70811930D02*
X187233789Y-71811930D01*
X187876646Y-70811930D02*
X187876646Y-71597644D01*
X187876646Y-71597644D02*
X187805217Y-71740502D01*
X187805217Y-71740502D02*
X187662360Y-71811930D01*
X187662360Y-71811930D02*
X187448074Y-71811930D01*
X187448074Y-71811930D02*
X187305217Y-71740502D01*
X187305217Y-71740502D02*
X187233789Y-71669073D01*
X186733788Y-70811930D02*
X186162360Y-70811930D01*
X186519503Y-70311930D02*
X186519503Y-71597644D01*
X186519503Y-71597644D02*
X186448074Y-71740502D01*
X186448074Y-71740502D02*
X186305217Y-71811930D01*
X186305217Y-71811930D02*
X186162360Y-71811930D01*
X185448074Y-71811930D02*
X185590931Y-71740502D01*
X185590931Y-71740502D02*
X185662360Y-71669073D01*
X185662360Y-71669073D02*
X185733788Y-71526216D01*
X185733788Y-71526216D02*
X185733788Y-71097644D01*
X185733788Y-71097644D02*
X185662360Y-70954787D01*
X185662360Y-70954787D02*
X185590931Y-70883359D01*
X185590931Y-70883359D02*
X185448074Y-70811930D01*
X185448074Y-70811930D02*
X185233788Y-70811930D01*
X185233788Y-70811930D02*
X185090931Y-70883359D01*
X185090931Y-70883359D02*
X185019503Y-70954787D01*
X185019503Y-70954787D02*
X184948074Y-71097644D01*
X184948074Y-71097644D02*
X184948074Y-71526216D01*
X184948074Y-71526216D02*
X185019503Y-71669073D01*
X185019503Y-71669073D02*
X185090931Y-71740502D01*
X185090931Y-71740502D02*
X185233788Y-71811930D01*
X185233788Y-71811930D02*
X185448074Y-71811930D01*
X184305217Y-70811930D02*
X184305217Y-71811930D01*
X184305217Y-70954787D02*
X184233788Y-70883359D01*
X184233788Y-70883359D02*
X184090931Y-70811930D01*
X184090931Y-70811930D02*
X183876645Y-70811930D01*
X183876645Y-70811930D02*
X183733788Y-70883359D01*
X183733788Y-70883359D02*
X183662360Y-71026216D01*
X183662360Y-71026216D02*
X183662360Y-71811930D01*
X182733788Y-71811930D02*
X182876645Y-71740502D01*
X182876645Y-71740502D02*
X182948074Y-71669073D01*
X182948074Y-71669073D02*
X183019502Y-71526216D01*
X183019502Y-71526216D02*
X183019502Y-71097644D01*
X183019502Y-71097644D02*
X182948074Y-70954787D01*
X182948074Y-70954787D02*
X182876645Y-70883359D01*
X182876645Y-70883359D02*
X182733788Y-70811930D01*
X182733788Y-70811930D02*
X182519502Y-70811930D01*
X182519502Y-70811930D02*
X182376645Y-70883359D01*
X182376645Y-70883359D02*
X182305217Y-70954787D01*
X182305217Y-70954787D02*
X182233788Y-71097644D01*
X182233788Y-71097644D02*
X182233788Y-71526216D01*
X182233788Y-71526216D02*
X182305217Y-71669073D01*
X182305217Y-71669073D02*
X182376645Y-71740502D01*
X182376645Y-71740502D02*
X182519502Y-71811930D01*
X182519502Y-71811930D02*
X182733788Y-71811930D01*
X181590931Y-71811930D02*
X181590931Y-70811930D01*
X181590931Y-70954787D02*
X181519502Y-70883359D01*
X181519502Y-70883359D02*
X181376645Y-70811930D01*
X181376645Y-70811930D02*
X181162359Y-70811930D01*
X181162359Y-70811930D02*
X181019502Y-70883359D01*
X181019502Y-70883359D02*
X180948074Y-71026216D01*
X180948074Y-71026216D02*
X180948074Y-71811930D01*
X180948074Y-71026216D02*
X180876645Y-70883359D01*
X180876645Y-70883359D02*
X180733788Y-70811930D01*
X180733788Y-70811930D02*
X180519502Y-70811930D01*
X180519502Y-70811930D02*
X180376645Y-70883359D01*
X180376645Y-70883359D02*
X180305216Y-71026216D01*
X180305216Y-71026216D02*
X180305216Y-71811930D01*
X179376645Y-71811930D02*
X179519502Y-71740502D01*
X179519502Y-71740502D02*
X179590931Y-71669073D01*
X179590931Y-71669073D02*
X179662359Y-71526216D01*
X179662359Y-71526216D02*
X179662359Y-71097644D01*
X179662359Y-71097644D02*
X179590931Y-70954787D01*
X179590931Y-70954787D02*
X179519502Y-70883359D01*
X179519502Y-70883359D02*
X179376645Y-70811930D01*
X179376645Y-70811930D02*
X179162359Y-70811930D01*
X179162359Y-70811930D02*
X179019502Y-70883359D01*
X179019502Y-70883359D02*
X178948074Y-70954787D01*
X178948074Y-70954787D02*
X178876645Y-71097644D01*
X178876645Y-71097644D02*
X178876645Y-71526216D01*
X178876645Y-71526216D02*
X178948074Y-71669073D01*
X178948074Y-71669073D02*
X179019502Y-71740502D01*
X179019502Y-71740502D02*
X179162359Y-71811930D01*
X179162359Y-71811930D02*
X179376645Y-71811930D01*
X177590931Y-70811930D02*
X177590931Y-71811930D01*
X178233788Y-70811930D02*
X178233788Y-71597644D01*
X178233788Y-71597644D02*
X178162359Y-71740502D01*
X178162359Y-71740502D02*
X178019502Y-71811930D01*
X178019502Y-71811930D02*
X177805216Y-71811930D01*
X177805216Y-71811930D02*
X177662359Y-71740502D01*
X177662359Y-71740502D02*
X177590931Y-71669073D01*
X176948073Y-71740502D02*
X176805216Y-71811930D01*
X176805216Y-71811930D02*
X176519502Y-71811930D01*
X176519502Y-71811930D02*
X176376645Y-71740502D01*
X176376645Y-71740502D02*
X176305216Y-71597644D01*
X176305216Y-71597644D02*
X176305216Y-71526216D01*
X176305216Y-71526216D02*
X176376645Y-71383359D01*
X176376645Y-71383359D02*
X176519502Y-71311930D01*
X176519502Y-71311930D02*
X176733788Y-71311930D01*
X176733788Y-71311930D02*
X176876645Y-71240502D01*
X176876645Y-71240502D02*
X176948073Y-71097644D01*
X176948073Y-71097644D02*
X176948073Y-71026216D01*
X176948073Y-71026216D02*
X176876645Y-70883359D01*
X176876645Y-70883359D02*
X176733788Y-70811930D01*
X176733788Y-70811930D02*
X176519502Y-70811930D01*
X176519502Y-70811930D02*
X176376645Y-70883359D01*
X174662359Y-70311930D02*
X174305216Y-71811930D01*
X174305216Y-71811930D02*
X174019502Y-70740502D01*
X174019502Y-70740502D02*
X173733787Y-71811930D01*
X173733787Y-71811930D02*
X173376645Y-70311930D01*
X172805216Y-71811930D02*
X172805216Y-70311930D01*
X172162359Y-71811930D02*
X172162359Y-71026216D01*
X172162359Y-71026216D02*
X172233787Y-70883359D01*
X172233787Y-70883359D02*
X172376644Y-70811930D01*
X172376644Y-70811930D02*
X172590930Y-70811930D01*
X172590930Y-70811930D02*
X172733787Y-70883359D01*
X172733787Y-70883359D02*
X172805216Y-70954787D01*
X170876644Y-71740502D02*
X171019501Y-71811930D01*
X171019501Y-71811930D02*
X171305216Y-71811930D01*
X171305216Y-71811930D02*
X171448073Y-71740502D01*
X171448073Y-71740502D02*
X171519501Y-71597644D01*
X171519501Y-71597644D02*
X171519501Y-71026216D01*
X171519501Y-71026216D02*
X171448073Y-70883359D01*
X171448073Y-70883359D02*
X171305216Y-70811930D01*
X171305216Y-70811930D02*
X171019501Y-70811930D01*
X171019501Y-70811930D02*
X170876644Y-70883359D01*
X170876644Y-70883359D02*
X170805216Y-71026216D01*
X170805216Y-71026216D02*
X170805216Y-71169073D01*
X170805216Y-71169073D02*
X171519501Y-71311930D01*
X169590930Y-71740502D02*
X169733787Y-71811930D01*
X169733787Y-71811930D02*
X170019502Y-71811930D01*
X170019502Y-71811930D02*
X170162359Y-71740502D01*
X170162359Y-71740502D02*
X170233787Y-71597644D01*
X170233787Y-71597644D02*
X170233787Y-71026216D01*
X170233787Y-71026216D02*
X170162359Y-70883359D01*
X170162359Y-70883359D02*
X170019502Y-70811930D01*
X170019502Y-70811930D02*
X169733787Y-70811930D01*
X169733787Y-70811930D02*
X169590930Y-70883359D01*
X169590930Y-70883359D02*
X169519502Y-71026216D01*
X169519502Y-71026216D02*
X169519502Y-71169073D01*
X169519502Y-71169073D02*
X170233787Y-71311930D01*
X168662359Y-71811930D02*
X168805216Y-71740502D01*
X168805216Y-71740502D02*
X168876645Y-71597644D01*
X168876645Y-71597644D02*
X168876645Y-70311930D01*
X167448074Y-71740502D02*
X167590931Y-71811930D01*
X167590931Y-71811930D02*
X167876645Y-71811930D01*
X167876645Y-71811930D02*
X168019502Y-71740502D01*
X168019502Y-71740502D02*
X168090931Y-71669073D01*
X168090931Y-71669073D02*
X168162359Y-71526216D01*
X168162359Y-71526216D02*
X168162359Y-71097644D01*
X168162359Y-71097644D02*
X168090931Y-70954787D01*
X168090931Y-70954787D02*
X168019502Y-70883359D01*
X168019502Y-70883359D02*
X167876645Y-70811930D01*
X167876645Y-70811930D02*
X167590931Y-70811930D01*
X167590931Y-70811930D02*
X167448074Y-70883359D01*
X166805217Y-71811930D02*
X166805217Y-70311930D01*
X166162360Y-71811930D02*
X166162360Y-71026216D01*
X166162360Y-71026216D02*
X166233788Y-70883359D01*
X166233788Y-70883359D02*
X166376645Y-70811930D01*
X166376645Y-70811930D02*
X166590931Y-70811930D01*
X166590931Y-70811930D02*
X166733788Y-70883359D01*
X166733788Y-70883359D02*
X166805217Y-70954787D01*
X164805217Y-71811930D02*
X164805217Y-71026216D01*
X164805217Y-71026216D02*
X164876645Y-70883359D01*
X164876645Y-70883359D02*
X165019502Y-70811930D01*
X165019502Y-70811930D02*
X165305217Y-70811930D01*
X165305217Y-70811930D02*
X165448074Y-70883359D01*
X164805217Y-71740502D02*
X164948074Y-71811930D01*
X164948074Y-71811930D02*
X165305217Y-71811930D01*
X165305217Y-71811930D02*
X165448074Y-71740502D01*
X165448074Y-71740502D02*
X165519502Y-71597644D01*
X165519502Y-71597644D02*
X165519502Y-71454787D01*
X165519502Y-71454787D02*
X165448074Y-71311930D01*
X165448074Y-71311930D02*
X165305217Y-71240502D01*
X165305217Y-71240502D02*
X164948074Y-71240502D01*
X164948074Y-71240502D02*
X164805217Y-71169073D01*
X164090931Y-71811930D02*
X164090931Y-70811930D01*
X164090931Y-70311930D02*
X164162359Y-70383359D01*
X164162359Y-70383359D02*
X164090931Y-70454787D01*
X164090931Y-70454787D02*
X164019502Y-70383359D01*
X164019502Y-70383359D02*
X164090931Y-70311930D01*
X164090931Y-70311930D02*
X164090931Y-70454787D01*
X163376645Y-71811930D02*
X163376645Y-70811930D01*
X163376645Y-71097644D02*
X163305216Y-70954787D01*
X163305216Y-70954787D02*
X163233788Y-70883359D01*
X163233788Y-70883359D02*
X163090930Y-70811930D01*
X163090930Y-70811930D02*
X162948073Y-70811930D01*
X207662359Y-73226846D02*
X207305216Y-74226846D01*
X207305216Y-74226846D02*
X206948073Y-73226846D01*
X205590930Y-74226846D02*
X206448073Y-74226846D01*
X206019502Y-74226846D02*
X206019502Y-72726846D01*
X206019502Y-72726846D02*
X206162359Y-72941132D01*
X206162359Y-72941132D02*
X206305216Y-73083989D01*
X206305216Y-73083989D02*
X206448073Y-73155418D01*
X204948074Y-74083989D02*
X204876645Y-74155418D01*
X204876645Y-74155418D02*
X204948074Y-74226846D01*
X204948074Y-74226846D02*
X205019502Y-74155418D01*
X205019502Y-74155418D02*
X204948074Y-74083989D01*
X204948074Y-74083989D02*
X204948074Y-74226846D01*
X203448073Y-74226846D02*
X204305216Y-74226846D01*
X203876645Y-74226846D02*
X203876645Y-72726846D01*
X203876645Y-72726846D02*
X204019502Y-72941132D01*
X204019502Y-72941132D02*
X204162359Y-73083989D01*
X204162359Y-73083989D02*
X204305216Y-73155418D01*
X207590930Y-75284619D02*
X207519502Y-75213191D01*
X207519502Y-75213191D02*
X207376645Y-75141762D01*
X207376645Y-75141762D02*
X207019502Y-75141762D01*
X207019502Y-75141762D02*
X206876645Y-75213191D01*
X206876645Y-75213191D02*
X206805216Y-75284619D01*
X206805216Y-75284619D02*
X206733787Y-75427476D01*
X206733787Y-75427476D02*
X206733787Y-75570334D01*
X206733787Y-75570334D02*
X206805216Y-75784619D01*
X206805216Y-75784619D02*
X207662359Y-76641762D01*
X207662359Y-76641762D02*
X206733787Y-76641762D01*
X205805216Y-75141762D02*
X205662359Y-75141762D01*
X205662359Y-75141762D02*
X205519502Y-75213191D01*
X205519502Y-75213191D02*
X205448074Y-75284619D01*
X205448074Y-75284619D02*
X205376645Y-75427476D01*
X205376645Y-75427476D02*
X205305216Y-75713191D01*
X205305216Y-75713191D02*
X205305216Y-76070334D01*
X205305216Y-76070334D02*
X205376645Y-76356048D01*
X205376645Y-76356048D02*
X205448074Y-76498905D01*
X205448074Y-76498905D02*
X205519502Y-76570334D01*
X205519502Y-76570334D02*
X205662359Y-76641762D01*
X205662359Y-76641762D02*
X205805216Y-76641762D01*
X205805216Y-76641762D02*
X205948074Y-76570334D01*
X205948074Y-76570334D02*
X206019502Y-76498905D01*
X206019502Y-76498905D02*
X206090931Y-76356048D01*
X206090931Y-76356048D02*
X206162359Y-76070334D01*
X206162359Y-76070334D02*
X206162359Y-75713191D01*
X206162359Y-75713191D02*
X206090931Y-75427476D01*
X206090931Y-75427476D02*
X206019502Y-75284619D01*
X206019502Y-75284619D02*
X205948074Y-75213191D01*
X205948074Y-75213191D02*
X205805216Y-75141762D01*
X204733788Y-75284619D02*
X204662360Y-75213191D01*
X204662360Y-75213191D02*
X204519503Y-75141762D01*
X204519503Y-75141762D02*
X204162360Y-75141762D01*
X204162360Y-75141762D02*
X204019503Y-75213191D01*
X204019503Y-75213191D02*
X203948074Y-75284619D01*
X203948074Y-75284619D02*
X203876645Y-75427476D01*
X203876645Y-75427476D02*
X203876645Y-75570334D01*
X203876645Y-75570334D02*
X203948074Y-75784619D01*
X203948074Y-75784619D02*
X204805217Y-76641762D01*
X204805217Y-76641762D02*
X203876645Y-76641762D01*
X202590932Y-75141762D02*
X202876646Y-75141762D01*
X202876646Y-75141762D02*
X203019503Y-75213191D01*
X203019503Y-75213191D02*
X203090932Y-75284619D01*
X203090932Y-75284619D02*
X203233789Y-75498905D01*
X203233789Y-75498905D02*
X203305217Y-75784619D01*
X203305217Y-75784619D02*
X203305217Y-76356048D01*
X203305217Y-76356048D02*
X203233789Y-76498905D01*
X203233789Y-76498905D02*
X203162360Y-76570334D01*
X203162360Y-76570334D02*
X203019503Y-76641762D01*
X203019503Y-76641762D02*
X202733789Y-76641762D01*
X202733789Y-76641762D02*
X202590932Y-76570334D01*
X202590932Y-76570334D02*
X202519503Y-76498905D01*
X202519503Y-76498905D02*
X202448074Y-76356048D01*
X202448074Y-76356048D02*
X202448074Y-75998905D01*
X202448074Y-75998905D02*
X202519503Y-75856048D01*
X202519503Y-75856048D02*
X202590932Y-75784619D01*
X202590932Y-75784619D02*
X202733789Y-75713191D01*
X202733789Y-75713191D02*
X203019503Y-75713191D01*
X203019503Y-75713191D02*
X203162360Y-75784619D01*
X203162360Y-75784619D02*
X203233789Y-75856048D01*
X203233789Y-75856048D02*
X203305217Y-75998905D01*
X201805218Y-76070334D02*
X200662361Y-76070334D01*
X199662360Y-75141762D02*
X199519503Y-75141762D01*
X199519503Y-75141762D02*
X199376646Y-75213191D01*
X199376646Y-75213191D02*
X199305218Y-75284619D01*
X199305218Y-75284619D02*
X199233789Y-75427476D01*
X199233789Y-75427476D02*
X199162360Y-75713191D01*
X199162360Y-75713191D02*
X199162360Y-76070334D01*
X199162360Y-76070334D02*
X199233789Y-76356048D01*
X199233789Y-76356048D02*
X199305218Y-76498905D01*
X199305218Y-76498905D02*
X199376646Y-76570334D01*
X199376646Y-76570334D02*
X199519503Y-76641762D01*
X199519503Y-76641762D02*
X199662360Y-76641762D01*
X199662360Y-76641762D02*
X199805218Y-76570334D01*
X199805218Y-76570334D02*
X199876646Y-76498905D01*
X199876646Y-76498905D02*
X199948075Y-76356048D01*
X199948075Y-76356048D02*
X200019503Y-76070334D01*
X200019503Y-76070334D02*
X200019503Y-75713191D01*
X200019503Y-75713191D02*
X199948075Y-75427476D01*
X199948075Y-75427476D02*
X199876646Y-75284619D01*
X199876646Y-75284619D02*
X199805218Y-75213191D01*
X199805218Y-75213191D02*
X199662360Y-75141762D01*
X198305218Y-75784619D02*
X198448075Y-75713191D01*
X198448075Y-75713191D02*
X198519504Y-75641762D01*
X198519504Y-75641762D02*
X198590932Y-75498905D01*
X198590932Y-75498905D02*
X198590932Y-75427476D01*
X198590932Y-75427476D02*
X198519504Y-75284619D01*
X198519504Y-75284619D02*
X198448075Y-75213191D01*
X198448075Y-75213191D02*
X198305218Y-75141762D01*
X198305218Y-75141762D02*
X198019504Y-75141762D01*
X198019504Y-75141762D02*
X197876647Y-75213191D01*
X197876647Y-75213191D02*
X197805218Y-75284619D01*
X197805218Y-75284619D02*
X197733789Y-75427476D01*
X197733789Y-75427476D02*
X197733789Y-75498905D01*
X197733789Y-75498905D02*
X197805218Y-75641762D01*
X197805218Y-75641762D02*
X197876647Y-75713191D01*
X197876647Y-75713191D02*
X198019504Y-75784619D01*
X198019504Y-75784619D02*
X198305218Y-75784619D01*
X198305218Y-75784619D02*
X198448075Y-75856048D01*
X198448075Y-75856048D02*
X198519504Y-75927476D01*
X198519504Y-75927476D02*
X198590932Y-76070334D01*
X198590932Y-76070334D02*
X198590932Y-76356048D01*
X198590932Y-76356048D02*
X198519504Y-76498905D01*
X198519504Y-76498905D02*
X198448075Y-76570334D01*
X198448075Y-76570334D02*
X198305218Y-76641762D01*
X198305218Y-76641762D02*
X198019504Y-76641762D01*
X198019504Y-76641762D02*
X197876647Y-76570334D01*
X197876647Y-76570334D02*
X197805218Y-76498905D01*
X197805218Y-76498905D02*
X197733789Y-76356048D01*
X197733789Y-76356048D02*
X197733789Y-76070334D01*
X197733789Y-76070334D02*
X197805218Y-75927476D01*
X197805218Y-75927476D02*
X197876647Y-75856048D01*
X197876647Y-75856048D02*
X198019504Y-75784619D01*
X197090933Y-76070334D02*
X195948076Y-76070334D01*
X194448075Y-76641762D02*
X195305218Y-76641762D01*
X194876647Y-76641762D02*
X194876647Y-75141762D01*
X194876647Y-75141762D02*
X195019504Y-75356048D01*
X195019504Y-75356048D02*
X195162361Y-75498905D01*
X195162361Y-75498905D02*
X195305218Y-75570334D01*
X193519504Y-75141762D02*
X193376647Y-75141762D01*
X193376647Y-75141762D02*
X193233790Y-75213191D01*
X193233790Y-75213191D02*
X193162362Y-75284619D01*
X193162362Y-75284619D02*
X193090933Y-75427476D01*
X193090933Y-75427476D02*
X193019504Y-75713191D01*
X193019504Y-75713191D02*
X193019504Y-76070334D01*
X193019504Y-76070334D02*
X193090933Y-76356048D01*
X193090933Y-76356048D02*
X193162362Y-76498905D01*
X193162362Y-76498905D02*
X193233790Y-76570334D01*
X193233790Y-76570334D02*
X193376647Y-76641762D01*
X193376647Y-76641762D02*
X193519504Y-76641762D01*
X193519504Y-76641762D02*
X193662362Y-76570334D01*
X193662362Y-76570334D02*
X193733790Y-76498905D01*
X193733790Y-76498905D02*
X193805219Y-76356048D01*
X193805219Y-76356048D02*
X193876647Y-76070334D01*
X193876647Y-76070334D02*
X193876647Y-75713191D01*
X193876647Y-75713191D02*
X193805219Y-75427476D01*
X193805219Y-75427476D02*
X193733790Y-75284619D01*
X193733790Y-75284619D02*
X193662362Y-75213191D01*
X193662362Y-75213191D02*
X193519504Y-75141762D01*
X207519502Y-79056678D02*
X207519502Y-77556678D01*
X206805216Y-78056678D02*
X206805216Y-79056678D01*
X206805216Y-78199535D02*
X206733787Y-78128107D01*
X206733787Y-78128107D02*
X206590930Y-78056678D01*
X206590930Y-78056678D02*
X206376644Y-78056678D01*
X206376644Y-78056678D02*
X206233787Y-78128107D01*
X206233787Y-78128107D02*
X206162359Y-78270964D01*
X206162359Y-78270964D02*
X206162359Y-79056678D01*
X205662358Y-78056678D02*
X205090930Y-78056678D01*
X205448073Y-77556678D02*
X205448073Y-78842392D01*
X205448073Y-78842392D02*
X205376644Y-78985250D01*
X205376644Y-78985250D02*
X205233787Y-79056678D01*
X205233787Y-79056678D02*
X205090930Y-79056678D01*
X204019501Y-78985250D02*
X204162358Y-79056678D01*
X204162358Y-79056678D02*
X204448073Y-79056678D01*
X204448073Y-79056678D02*
X204590930Y-78985250D01*
X204590930Y-78985250D02*
X204662358Y-78842392D01*
X204662358Y-78842392D02*
X204662358Y-78270964D01*
X204662358Y-78270964D02*
X204590930Y-78128107D01*
X204590930Y-78128107D02*
X204448073Y-78056678D01*
X204448073Y-78056678D02*
X204162358Y-78056678D01*
X204162358Y-78056678D02*
X204019501Y-78128107D01*
X204019501Y-78128107D02*
X203948073Y-78270964D01*
X203948073Y-78270964D02*
X203948073Y-78413821D01*
X203948073Y-78413821D02*
X204662358Y-78556678D01*
X203090930Y-79056678D02*
X203233787Y-78985250D01*
X203233787Y-78985250D02*
X203305216Y-78842392D01*
X203305216Y-78842392D02*
X203305216Y-77556678D01*
X202305216Y-79056678D02*
X202448073Y-78985250D01*
X202448073Y-78985250D02*
X202519502Y-78842392D01*
X202519502Y-78842392D02*
X202519502Y-77556678D01*
X201733788Y-79056678D02*
X201733788Y-78056678D01*
X201733788Y-77556678D02*
X201805216Y-77628107D01*
X201805216Y-77628107D02*
X201733788Y-77699535D01*
X201733788Y-77699535D02*
X201662359Y-77628107D01*
X201662359Y-77628107D02*
X201733788Y-77556678D01*
X201733788Y-77556678D02*
X201733788Y-77699535D01*
X200376645Y-78056678D02*
X200376645Y-79270964D01*
X200376645Y-79270964D02*
X200448073Y-79413821D01*
X200448073Y-79413821D02*
X200519502Y-79485250D01*
X200519502Y-79485250D02*
X200662359Y-79556678D01*
X200662359Y-79556678D02*
X200876645Y-79556678D01*
X200876645Y-79556678D02*
X201019502Y-79485250D01*
X200376645Y-78985250D02*
X200519502Y-79056678D01*
X200519502Y-79056678D02*
X200805216Y-79056678D01*
X200805216Y-79056678D02*
X200948073Y-78985250D01*
X200948073Y-78985250D02*
X201019502Y-78913821D01*
X201019502Y-78913821D02*
X201090930Y-78770964D01*
X201090930Y-78770964D02*
X201090930Y-78342392D01*
X201090930Y-78342392D02*
X201019502Y-78199535D01*
X201019502Y-78199535D02*
X200948073Y-78128107D01*
X200948073Y-78128107D02*
X200805216Y-78056678D01*
X200805216Y-78056678D02*
X200519502Y-78056678D01*
X200519502Y-78056678D02*
X200376645Y-78128107D01*
X199090930Y-78985250D02*
X199233787Y-79056678D01*
X199233787Y-79056678D02*
X199519502Y-79056678D01*
X199519502Y-79056678D02*
X199662359Y-78985250D01*
X199662359Y-78985250D02*
X199733787Y-78842392D01*
X199733787Y-78842392D02*
X199733787Y-78270964D01*
X199733787Y-78270964D02*
X199662359Y-78128107D01*
X199662359Y-78128107D02*
X199519502Y-78056678D01*
X199519502Y-78056678D02*
X199233787Y-78056678D01*
X199233787Y-78056678D02*
X199090930Y-78128107D01*
X199090930Y-78128107D02*
X199019502Y-78270964D01*
X199019502Y-78270964D02*
X199019502Y-78413821D01*
X199019502Y-78413821D02*
X199733787Y-78556678D01*
X198376645Y-78056678D02*
X198376645Y-79056678D01*
X198376645Y-78199535D02*
X198305216Y-78128107D01*
X198305216Y-78128107D02*
X198162359Y-78056678D01*
X198162359Y-78056678D02*
X197948073Y-78056678D01*
X197948073Y-78056678D02*
X197805216Y-78128107D01*
X197805216Y-78128107D02*
X197733788Y-78270964D01*
X197733788Y-78270964D02*
X197733788Y-79056678D01*
X197233787Y-78056678D02*
X196662359Y-78056678D01*
X197019502Y-77556678D02*
X197019502Y-78842392D01*
X197019502Y-78842392D02*
X196948073Y-78985250D01*
X196948073Y-78985250D02*
X196805216Y-79056678D01*
X196805216Y-79056678D02*
X196662359Y-79056678D01*
X195090930Y-78985250D02*
X194876645Y-79056678D01*
X194876645Y-79056678D02*
X194519502Y-79056678D01*
X194519502Y-79056678D02*
X194376645Y-78985250D01*
X194376645Y-78985250D02*
X194305216Y-78913821D01*
X194305216Y-78913821D02*
X194233787Y-78770964D01*
X194233787Y-78770964D02*
X194233787Y-78628107D01*
X194233787Y-78628107D02*
X194305216Y-78485250D01*
X194305216Y-78485250D02*
X194376645Y-78413821D01*
X194376645Y-78413821D02*
X194519502Y-78342392D01*
X194519502Y-78342392D02*
X194805216Y-78270964D01*
X194805216Y-78270964D02*
X194948073Y-78199535D01*
X194948073Y-78199535D02*
X195019502Y-78128107D01*
X195019502Y-78128107D02*
X195090930Y-77985250D01*
X195090930Y-77985250D02*
X195090930Y-77842392D01*
X195090930Y-77842392D02*
X195019502Y-77699535D01*
X195019502Y-77699535D02*
X194948073Y-77628107D01*
X194948073Y-77628107D02*
X194805216Y-77556678D01*
X194805216Y-77556678D02*
X194448073Y-77556678D01*
X194448073Y-77556678D02*
X194233787Y-77628107D01*
X193733788Y-78056678D02*
X193376645Y-79056678D01*
X193019502Y-78056678D02*
X193376645Y-79056678D01*
X193376645Y-79056678D02*
X193519502Y-79413821D01*
X193519502Y-79413821D02*
X193590931Y-79485250D01*
X193590931Y-79485250D02*
X193733788Y-79556678D01*
X192519502Y-78985250D02*
X192376645Y-79056678D01*
X192376645Y-79056678D02*
X192090931Y-79056678D01*
X192090931Y-79056678D02*
X191948074Y-78985250D01*
X191948074Y-78985250D02*
X191876645Y-78842392D01*
X191876645Y-78842392D02*
X191876645Y-78770964D01*
X191876645Y-78770964D02*
X191948074Y-78628107D01*
X191948074Y-78628107D02*
X192090931Y-78556678D01*
X192090931Y-78556678D02*
X192305217Y-78556678D01*
X192305217Y-78556678D02*
X192448074Y-78485250D01*
X192448074Y-78485250D02*
X192519502Y-78342392D01*
X192519502Y-78342392D02*
X192519502Y-78270964D01*
X192519502Y-78270964D02*
X192448074Y-78128107D01*
X192448074Y-78128107D02*
X192305217Y-78056678D01*
X192305217Y-78056678D02*
X192090931Y-78056678D01*
X192090931Y-78056678D02*
X191948074Y-78128107D01*
X191448073Y-78056678D02*
X190876645Y-78056678D01*
X191233788Y-77556678D02*
X191233788Y-78842392D01*
X191233788Y-78842392D02*
X191162359Y-78985250D01*
X191162359Y-78985250D02*
X191019502Y-79056678D01*
X191019502Y-79056678D02*
X190876645Y-79056678D01*
X189805216Y-78985250D02*
X189948073Y-79056678D01*
X189948073Y-79056678D02*
X190233788Y-79056678D01*
X190233788Y-79056678D02*
X190376645Y-78985250D01*
X190376645Y-78985250D02*
X190448073Y-78842392D01*
X190448073Y-78842392D02*
X190448073Y-78270964D01*
X190448073Y-78270964D02*
X190376645Y-78128107D01*
X190376645Y-78128107D02*
X190233788Y-78056678D01*
X190233788Y-78056678D02*
X189948073Y-78056678D01*
X189948073Y-78056678D02*
X189805216Y-78128107D01*
X189805216Y-78128107D02*
X189733788Y-78270964D01*
X189733788Y-78270964D02*
X189733788Y-78413821D01*
X189733788Y-78413821D02*
X190448073Y-78556678D01*
X189090931Y-79056678D02*
X189090931Y-78056678D01*
X189090931Y-78199535D02*
X189019502Y-78128107D01*
X189019502Y-78128107D02*
X188876645Y-78056678D01*
X188876645Y-78056678D02*
X188662359Y-78056678D01*
X188662359Y-78056678D02*
X188519502Y-78128107D01*
X188519502Y-78128107D02*
X188448074Y-78270964D01*
X188448074Y-78270964D02*
X188448074Y-79056678D01*
X188448074Y-78270964D02*
X188376645Y-78128107D01*
X188376645Y-78128107D02*
X188233788Y-78056678D01*
X188233788Y-78056678D02*
X188019502Y-78056678D01*
X188019502Y-78056678D02*
X187876645Y-78128107D01*
X187876645Y-78128107D02*
X187805216Y-78270964D01*
X187805216Y-78270964D02*
X187805216Y-79056678D01*
X185305217Y-79056678D02*
X185305217Y-78270964D01*
X185305217Y-78270964D02*
X185376645Y-78128107D01*
X185376645Y-78128107D02*
X185519502Y-78056678D01*
X185519502Y-78056678D02*
X185805217Y-78056678D01*
X185805217Y-78056678D02*
X185948074Y-78128107D01*
X185305217Y-78985250D02*
X185448074Y-79056678D01*
X185448074Y-79056678D02*
X185805217Y-79056678D01*
X185805217Y-79056678D02*
X185948074Y-78985250D01*
X185948074Y-78985250D02*
X186019502Y-78842392D01*
X186019502Y-78842392D02*
X186019502Y-78699535D01*
X186019502Y-78699535D02*
X185948074Y-78556678D01*
X185948074Y-78556678D02*
X185805217Y-78485250D01*
X185805217Y-78485250D02*
X185448074Y-78485250D01*
X185448074Y-78485250D02*
X185305217Y-78413821D01*
X184590931Y-78056678D02*
X184590931Y-79056678D01*
X184590931Y-78199535D02*
X184519502Y-78128107D01*
X184519502Y-78128107D02*
X184376645Y-78056678D01*
X184376645Y-78056678D02*
X184162359Y-78056678D01*
X184162359Y-78056678D02*
X184019502Y-78128107D01*
X184019502Y-78128107D02*
X183948074Y-78270964D01*
X183948074Y-78270964D02*
X183948074Y-79056678D01*
X182590931Y-79056678D02*
X182590931Y-77556678D01*
X182590931Y-78985250D02*
X182733788Y-79056678D01*
X182733788Y-79056678D02*
X183019502Y-79056678D01*
X183019502Y-79056678D02*
X183162359Y-78985250D01*
X183162359Y-78985250D02*
X183233788Y-78913821D01*
X183233788Y-78913821D02*
X183305216Y-78770964D01*
X183305216Y-78770964D02*
X183305216Y-78342392D01*
X183305216Y-78342392D02*
X183233788Y-78199535D01*
X183233788Y-78199535D02*
X183162359Y-78128107D01*
X183162359Y-78128107D02*
X183019502Y-78056678D01*
X183019502Y-78056678D02*
X182733788Y-78056678D01*
X182733788Y-78056678D02*
X182590931Y-78128107D01*
X179876645Y-79056678D02*
X180376645Y-78342392D01*
X180733788Y-79056678D02*
X180733788Y-77556678D01*
X180733788Y-77556678D02*
X180162359Y-77556678D01*
X180162359Y-77556678D02*
X180019502Y-77628107D01*
X180019502Y-77628107D02*
X179948073Y-77699535D01*
X179948073Y-77699535D02*
X179876645Y-77842392D01*
X179876645Y-77842392D02*
X179876645Y-78056678D01*
X179876645Y-78056678D02*
X179948073Y-78199535D01*
X179948073Y-78199535D02*
X180019502Y-78270964D01*
X180019502Y-78270964D02*
X180162359Y-78342392D01*
X180162359Y-78342392D02*
X180733788Y-78342392D01*
X179019502Y-79056678D02*
X179162359Y-78985250D01*
X179162359Y-78985250D02*
X179233788Y-78913821D01*
X179233788Y-78913821D02*
X179305216Y-78770964D01*
X179305216Y-78770964D02*
X179305216Y-78342392D01*
X179305216Y-78342392D02*
X179233788Y-78199535D01*
X179233788Y-78199535D02*
X179162359Y-78128107D01*
X179162359Y-78128107D02*
X179019502Y-78056678D01*
X179019502Y-78056678D02*
X178805216Y-78056678D01*
X178805216Y-78056678D02*
X178662359Y-78128107D01*
X178662359Y-78128107D02*
X178590931Y-78199535D01*
X178590931Y-78199535D02*
X178519502Y-78342392D01*
X178519502Y-78342392D02*
X178519502Y-78770964D01*
X178519502Y-78770964D02*
X178590931Y-78913821D01*
X178590931Y-78913821D02*
X178662359Y-78985250D01*
X178662359Y-78985250D02*
X178805216Y-79056678D01*
X178805216Y-79056678D02*
X179019502Y-79056678D01*
X177876645Y-79056678D02*
X177876645Y-77556678D01*
X177876645Y-78128107D02*
X177733788Y-78056678D01*
X177733788Y-78056678D02*
X177448073Y-78056678D01*
X177448073Y-78056678D02*
X177305216Y-78128107D01*
X177305216Y-78128107D02*
X177233788Y-78199535D01*
X177233788Y-78199535D02*
X177162359Y-78342392D01*
X177162359Y-78342392D02*
X177162359Y-78770964D01*
X177162359Y-78770964D02*
X177233788Y-78913821D01*
X177233788Y-78913821D02*
X177305216Y-78985250D01*
X177305216Y-78985250D02*
X177448073Y-79056678D01*
X177448073Y-79056678D02*
X177733788Y-79056678D01*
X177733788Y-79056678D02*
X177876645Y-78985250D01*
X176305216Y-79056678D02*
X176448073Y-78985250D01*
X176448073Y-78985250D02*
X176519502Y-78913821D01*
X176519502Y-78913821D02*
X176590930Y-78770964D01*
X176590930Y-78770964D02*
X176590930Y-78342392D01*
X176590930Y-78342392D02*
X176519502Y-78199535D01*
X176519502Y-78199535D02*
X176448073Y-78128107D01*
X176448073Y-78128107D02*
X176305216Y-78056678D01*
X176305216Y-78056678D02*
X176090930Y-78056678D01*
X176090930Y-78056678D02*
X175948073Y-78128107D01*
X175948073Y-78128107D02*
X175876645Y-78199535D01*
X175876645Y-78199535D02*
X175805216Y-78342392D01*
X175805216Y-78342392D02*
X175805216Y-78770964D01*
X175805216Y-78770964D02*
X175876645Y-78913821D01*
X175876645Y-78913821D02*
X175948073Y-78985250D01*
X175948073Y-78985250D02*
X176090930Y-79056678D01*
X176090930Y-79056678D02*
X176305216Y-79056678D01*
X175376644Y-78056678D02*
X174805216Y-78056678D01*
X175162359Y-77556678D02*
X175162359Y-78842392D01*
X175162359Y-78842392D02*
X175090930Y-78985250D01*
X175090930Y-78985250D02*
X174948073Y-79056678D01*
X174948073Y-79056678D02*
X174805216Y-79056678D01*
X174305216Y-79056678D02*
X174305216Y-78056678D01*
X174305216Y-77556678D02*
X174376644Y-77628107D01*
X174376644Y-77628107D02*
X174305216Y-77699535D01*
X174305216Y-77699535D02*
X174233787Y-77628107D01*
X174233787Y-77628107D02*
X174305216Y-77556678D01*
X174305216Y-77556678D02*
X174305216Y-77699535D01*
X172948073Y-78985250D02*
X173090930Y-79056678D01*
X173090930Y-79056678D02*
X173376644Y-79056678D01*
X173376644Y-79056678D02*
X173519501Y-78985250D01*
X173519501Y-78985250D02*
X173590930Y-78913821D01*
X173590930Y-78913821D02*
X173662358Y-78770964D01*
X173662358Y-78770964D02*
X173662358Y-78342392D01*
X173662358Y-78342392D02*
X173590930Y-78199535D01*
X173590930Y-78199535D02*
X173519501Y-78128107D01*
X173519501Y-78128107D02*
X173376644Y-78056678D01*
X173376644Y-78056678D02*
X173090930Y-78056678D01*
X173090930Y-78056678D02*
X172948073Y-78128107D01*
X172376644Y-78985250D02*
X172233787Y-79056678D01*
X172233787Y-79056678D02*
X171948073Y-79056678D01*
X171948073Y-79056678D02*
X171805216Y-78985250D01*
X171805216Y-78985250D02*
X171733787Y-78842392D01*
X171733787Y-78842392D02*
X171733787Y-78770964D01*
X171733787Y-78770964D02*
X171805216Y-78628107D01*
X171805216Y-78628107D02*
X171948073Y-78556678D01*
X171948073Y-78556678D02*
X172162359Y-78556678D01*
X172162359Y-78556678D02*
X172305216Y-78485250D01*
X172305216Y-78485250D02*
X172376644Y-78342392D01*
X172376644Y-78342392D02*
X172376644Y-78270964D01*
X172376644Y-78270964D02*
X172305216Y-78128107D01*
X172305216Y-78128107D02*
X172162359Y-78056678D01*
X172162359Y-78056678D02*
X171948073Y-78056678D01*
X171948073Y-78056678D02*
X171805216Y-78128107D01*
X169733787Y-79056678D02*
X169876644Y-78985250D01*
X169876644Y-78985250D02*
X169948073Y-78842392D01*
X169948073Y-78842392D02*
X169948073Y-77556678D01*
X168519502Y-79056678D02*
X168519502Y-78270964D01*
X168519502Y-78270964D02*
X168590930Y-78128107D01*
X168590930Y-78128107D02*
X168733787Y-78056678D01*
X168733787Y-78056678D02*
X169019502Y-78056678D01*
X169019502Y-78056678D02*
X169162359Y-78128107D01*
X168519502Y-78985250D02*
X168662359Y-79056678D01*
X168662359Y-79056678D02*
X169019502Y-79056678D01*
X169019502Y-79056678D02*
X169162359Y-78985250D01*
X169162359Y-78985250D02*
X169233787Y-78842392D01*
X169233787Y-78842392D02*
X169233787Y-78699535D01*
X169233787Y-78699535D02*
X169162359Y-78556678D01*
X169162359Y-78556678D02*
X169019502Y-78485250D01*
X169019502Y-78485250D02*
X168662359Y-78485250D01*
X168662359Y-78485250D02*
X168519502Y-78413821D01*
X167805216Y-79056678D02*
X167805216Y-77556678D01*
X167805216Y-78128107D02*
X167662359Y-78056678D01*
X167662359Y-78056678D02*
X167376644Y-78056678D01*
X167376644Y-78056678D02*
X167233787Y-78128107D01*
X167233787Y-78128107D02*
X167162359Y-78199535D01*
X167162359Y-78199535D02*
X167090930Y-78342392D01*
X167090930Y-78342392D02*
X167090930Y-78770964D01*
X167090930Y-78770964D02*
X167162359Y-78913821D01*
X167162359Y-78913821D02*
X167233787Y-78985250D01*
X167233787Y-78985250D02*
X167376644Y-79056678D01*
X167376644Y-79056678D02*
X167662359Y-79056678D01*
X167662359Y-79056678D02*
X167805216Y-78985250D01*
X165305216Y-77556678D02*
X165305216Y-78770964D01*
X165305216Y-78770964D02*
X165233787Y-78913821D01*
X165233787Y-78913821D02*
X165162359Y-78985250D01*
X165162359Y-78985250D02*
X165019501Y-79056678D01*
X165019501Y-79056678D02*
X164733787Y-79056678D01*
X164733787Y-79056678D02*
X164590930Y-78985250D01*
X164590930Y-78985250D02*
X164519501Y-78913821D01*
X164519501Y-78913821D02*
X164448073Y-78770964D01*
X164448073Y-78770964D02*
X164448073Y-77556678D01*
X163733787Y-79056678D02*
X163733787Y-77556678D01*
X163733787Y-77556678D02*
X162876644Y-79056678D01*
X162876644Y-79056678D02*
X162876644Y-77556678D01*
X162162358Y-78270964D02*
X161662358Y-78270964D01*
X161448072Y-79056678D02*
X162162358Y-79056678D01*
X162162358Y-79056678D02*
X162162358Y-77556678D01*
X162162358Y-77556678D02*
X161448072Y-77556678D01*
X160376643Y-77556678D02*
X160376643Y-78628107D01*
X160376643Y-78628107D02*
X160448072Y-78842392D01*
X160448072Y-78842392D02*
X160590929Y-78985250D01*
X160590929Y-78985250D02*
X160805215Y-79056678D01*
X160805215Y-79056678D02*
X160948072Y-79056678D01*
D12*
X189295238Y-93487557D02*
X189390476Y-93439938D01*
X189390476Y-93439938D02*
X189485714Y-93344700D01*
X189485714Y-93344700D02*
X189628571Y-93201842D01*
X189628571Y-93201842D02*
X189723809Y-93154223D01*
X189723809Y-93154223D02*
X189819047Y-93154223D01*
X189771428Y-93392319D02*
X189866666Y-93344700D01*
X189866666Y-93344700D02*
X189961904Y-93249461D01*
X189961904Y-93249461D02*
X190009523Y-93058985D01*
X190009523Y-93058985D02*
X190009523Y-92725652D01*
X190009523Y-92725652D02*
X189961904Y-92535176D01*
X189961904Y-92535176D02*
X189866666Y-92439938D01*
X189866666Y-92439938D02*
X189771428Y-92392319D01*
X189771428Y-92392319D02*
X189580952Y-92392319D01*
X189580952Y-92392319D02*
X189485714Y-92439938D01*
X189485714Y-92439938D02*
X189390476Y-92535176D01*
X189390476Y-92535176D02*
X189342857Y-92725652D01*
X189342857Y-92725652D02*
X189342857Y-93058985D01*
X189342857Y-93058985D02*
X189390476Y-93249461D01*
X189390476Y-93249461D02*
X189485714Y-93344700D01*
X189485714Y-93344700D02*
X189580952Y-93392319D01*
X189580952Y-93392319D02*
X189771428Y-93392319D01*
X188485714Y-92725652D02*
X188485714Y-93392319D01*
X188723809Y-92344700D02*
X188961904Y-93058985D01*
X188961904Y-93058985D02*
X188342857Y-93058985D01*
X182995238Y-93350057D02*
X183090476Y-93302438D01*
X183090476Y-93302438D02*
X183185714Y-93207200D01*
X183185714Y-93207200D02*
X183328571Y-93064342D01*
X183328571Y-93064342D02*
X183423809Y-93016723D01*
X183423809Y-93016723D02*
X183519047Y-93016723D01*
X183471428Y-93254819D02*
X183566666Y-93207200D01*
X183566666Y-93207200D02*
X183661904Y-93111961D01*
X183661904Y-93111961D02*
X183709523Y-92921485D01*
X183709523Y-92921485D02*
X183709523Y-92588152D01*
X183709523Y-92588152D02*
X183661904Y-92397676D01*
X183661904Y-92397676D02*
X183566666Y-92302438D01*
X183566666Y-92302438D02*
X183471428Y-92254819D01*
X183471428Y-92254819D02*
X183280952Y-92254819D01*
X183280952Y-92254819D02*
X183185714Y-92302438D01*
X183185714Y-92302438D02*
X183090476Y-92397676D01*
X183090476Y-92397676D02*
X183042857Y-92588152D01*
X183042857Y-92588152D02*
X183042857Y-92921485D01*
X183042857Y-92921485D02*
X183090476Y-93111961D01*
X183090476Y-93111961D02*
X183185714Y-93207200D01*
X183185714Y-93207200D02*
X183280952Y-93254819D01*
X183280952Y-93254819D02*
X183471428Y-93254819D01*
X182709523Y-92254819D02*
X182090476Y-92254819D01*
X182090476Y-92254819D02*
X182423809Y-92635771D01*
X182423809Y-92635771D02*
X182280952Y-92635771D01*
X182280952Y-92635771D02*
X182185714Y-92683390D01*
X182185714Y-92683390D02*
X182138095Y-92731009D01*
X182138095Y-92731009D02*
X182090476Y-92826247D01*
X182090476Y-92826247D02*
X182090476Y-93064342D01*
X182090476Y-93064342D02*
X182138095Y-93159580D01*
X182138095Y-93159580D02*
X182185714Y-93207200D01*
X182185714Y-93207200D02*
X182280952Y-93254819D01*
X182280952Y-93254819D02*
X182566666Y-93254819D01*
X182566666Y-93254819D02*
X182661904Y-93207200D01*
X182661904Y-93207200D02*
X182709523Y-93159580D01*
X195195238Y-93612557D02*
X195290476Y-93564938D01*
X195290476Y-93564938D02*
X195385714Y-93469700D01*
X195385714Y-93469700D02*
X195528571Y-93326842D01*
X195528571Y-93326842D02*
X195623809Y-93279223D01*
X195623809Y-93279223D02*
X195719047Y-93279223D01*
X195671428Y-93517319D02*
X195766666Y-93469700D01*
X195766666Y-93469700D02*
X195861904Y-93374461D01*
X195861904Y-93374461D02*
X195909523Y-93183985D01*
X195909523Y-93183985D02*
X195909523Y-92850652D01*
X195909523Y-92850652D02*
X195861904Y-92660176D01*
X195861904Y-92660176D02*
X195766666Y-92564938D01*
X195766666Y-92564938D02*
X195671428Y-92517319D01*
X195671428Y-92517319D02*
X195480952Y-92517319D01*
X195480952Y-92517319D02*
X195385714Y-92564938D01*
X195385714Y-92564938D02*
X195290476Y-92660176D01*
X195290476Y-92660176D02*
X195242857Y-92850652D01*
X195242857Y-92850652D02*
X195242857Y-93183985D01*
X195242857Y-93183985D02*
X195290476Y-93374461D01*
X195290476Y-93374461D02*
X195385714Y-93469700D01*
X195385714Y-93469700D02*
X195480952Y-93517319D01*
X195480952Y-93517319D02*
X195671428Y-93517319D01*
X194338095Y-92517319D02*
X194814285Y-92517319D01*
X194814285Y-92517319D02*
X194861904Y-92993509D01*
X194861904Y-92993509D02*
X194814285Y-92945890D01*
X194814285Y-92945890D02*
X194719047Y-92898271D01*
X194719047Y-92898271D02*
X194480952Y-92898271D01*
X194480952Y-92898271D02*
X194385714Y-92945890D01*
X194385714Y-92945890D02*
X194338095Y-92993509D01*
X194338095Y-92993509D02*
X194290476Y-93088747D01*
X194290476Y-93088747D02*
X194290476Y-93326842D01*
X194290476Y-93326842D02*
X194338095Y-93422080D01*
X194338095Y-93422080D02*
X194385714Y-93469700D01*
X194385714Y-93469700D02*
X194480952Y-93517319D01*
X194480952Y-93517319D02*
X194719047Y-93517319D01*
X194719047Y-93517319D02*
X194814285Y-93469700D01*
X194814285Y-93469700D02*
X194861904Y-93422080D01*
X211842857Y-35259580D02*
X211890476Y-35307200D01*
X211890476Y-35307200D02*
X212033333Y-35354819D01*
X212033333Y-35354819D02*
X212128571Y-35354819D01*
X212128571Y-35354819D02*
X212271428Y-35307200D01*
X212271428Y-35307200D02*
X212366666Y-35211961D01*
X212366666Y-35211961D02*
X212414285Y-35116723D01*
X212414285Y-35116723D02*
X212461904Y-34926247D01*
X212461904Y-34926247D02*
X212461904Y-34783390D01*
X212461904Y-34783390D02*
X212414285Y-34592914D01*
X212414285Y-34592914D02*
X212366666Y-34497676D01*
X212366666Y-34497676D02*
X212271428Y-34402438D01*
X212271428Y-34402438D02*
X212128571Y-34354819D01*
X212128571Y-34354819D02*
X212033333Y-34354819D01*
X212033333Y-34354819D02*
X211890476Y-34402438D01*
X211890476Y-34402438D02*
X211842857Y-34450057D01*
X210890476Y-35354819D02*
X211461904Y-35354819D01*
X211176190Y-35354819D02*
X211176190Y-34354819D01*
X211176190Y-34354819D02*
X211271428Y-34497676D01*
X211271428Y-34497676D02*
X211366666Y-34592914D01*
X211366666Y-34592914D02*
X211461904Y-34640533D01*
X210509523Y-34450057D02*
X210461904Y-34402438D01*
X210461904Y-34402438D02*
X210366666Y-34354819D01*
X210366666Y-34354819D02*
X210128571Y-34354819D01*
X210128571Y-34354819D02*
X210033333Y-34402438D01*
X210033333Y-34402438D02*
X209985714Y-34450057D01*
X209985714Y-34450057D02*
X209938095Y-34545295D01*
X209938095Y-34545295D02*
X209938095Y-34640533D01*
X209938095Y-34640533D02*
X209985714Y-34783390D01*
X209985714Y-34783390D02*
X210557142Y-35354819D01*
X210557142Y-35354819D02*
X209938095Y-35354819D01*
X201095238Y-93612557D02*
X201190476Y-93564938D01*
X201190476Y-93564938D02*
X201285714Y-93469700D01*
X201285714Y-93469700D02*
X201428571Y-93326842D01*
X201428571Y-93326842D02*
X201523809Y-93279223D01*
X201523809Y-93279223D02*
X201619047Y-93279223D01*
X201571428Y-93517319D02*
X201666666Y-93469700D01*
X201666666Y-93469700D02*
X201761904Y-93374461D01*
X201761904Y-93374461D02*
X201809523Y-93183985D01*
X201809523Y-93183985D02*
X201809523Y-92850652D01*
X201809523Y-92850652D02*
X201761904Y-92660176D01*
X201761904Y-92660176D02*
X201666666Y-92564938D01*
X201666666Y-92564938D02*
X201571428Y-92517319D01*
X201571428Y-92517319D02*
X201380952Y-92517319D01*
X201380952Y-92517319D02*
X201285714Y-92564938D01*
X201285714Y-92564938D02*
X201190476Y-92660176D01*
X201190476Y-92660176D02*
X201142857Y-92850652D01*
X201142857Y-92850652D02*
X201142857Y-93183985D01*
X201142857Y-93183985D02*
X201190476Y-93374461D01*
X201190476Y-93374461D02*
X201285714Y-93469700D01*
X201285714Y-93469700D02*
X201380952Y-93517319D01*
X201380952Y-93517319D02*
X201571428Y-93517319D01*
X200285714Y-92517319D02*
X200476190Y-92517319D01*
X200476190Y-92517319D02*
X200571428Y-92564938D01*
X200571428Y-92564938D02*
X200619047Y-92612557D01*
X200619047Y-92612557D02*
X200714285Y-92755414D01*
X200714285Y-92755414D02*
X200761904Y-92945890D01*
X200761904Y-92945890D02*
X200761904Y-93326842D01*
X200761904Y-93326842D02*
X200714285Y-93422080D01*
X200714285Y-93422080D02*
X200666666Y-93469700D01*
X200666666Y-93469700D02*
X200571428Y-93517319D01*
X200571428Y-93517319D02*
X200380952Y-93517319D01*
X200380952Y-93517319D02*
X200285714Y-93469700D01*
X200285714Y-93469700D02*
X200238095Y-93422080D01*
X200238095Y-93422080D02*
X200190476Y-93326842D01*
X200190476Y-93326842D02*
X200190476Y-93088747D01*
X200190476Y-93088747D02*
X200238095Y-92993509D01*
X200238095Y-92993509D02*
X200285714Y-92945890D01*
X200285714Y-92945890D02*
X200380952Y-92898271D01*
X200380952Y-92898271D02*
X200571428Y-92898271D01*
X200571428Y-92898271D02*
X200666666Y-92945890D01*
X200666666Y-92945890D02*
X200714285Y-92993509D01*
X200714285Y-92993509D02*
X200761904Y-93088747D01*
%TO.C,R32*%
D13*
X198139564Y-97265000D02*
X197685436Y-97265000D01*
X198139564Y-98735000D02*
X197685436Y-98735000D01*
%TO.C,Q4*%
X190390000Y-92177500D02*
X190390000Y-93697500D01*
X190390000Y-93697500D02*
X191390000Y-93697500D01*
X190440000Y-92177500D02*
X190390000Y-92177500D01*
X192340000Y-92177500D02*
X191560000Y-92177500D01*
X192510000Y-93697500D02*
X193510000Y-93697500D01*
X193510000Y-92177500D02*
X193460000Y-92177500D01*
X193510000Y-93697500D02*
X193510000Y-92177500D01*
X191570000Y-91637500D02*
X191900000Y-91877500D01*
X191900000Y-91397500D01*
X191570000Y-91637500D01*
G36*
X191900000Y-91877500D02*
G01*
X191570000Y-91637500D01*
X191900000Y-91397500D01*
X191900000Y-91877500D01*
G37*
%TO.C,R31*%
X203685436Y-87265000D02*
X204139564Y-87265000D01*
X203685436Y-88735000D02*
X204139564Y-88735000D01*
%TO.C,R28*%
X186227064Y-97265000D02*
X185772936Y-97265000D01*
X186227064Y-98735000D02*
X185772936Y-98735000D01*
%TO.C,R26*%
X185772936Y-87265000D02*
X186227064Y-87265000D01*
X185772936Y-88735000D02*
X186227064Y-88735000D01*
%TO.C,R33*%
X204139564Y-97265000D02*
X203685436Y-97265000D01*
X204139564Y-98735000D02*
X203685436Y-98735000D01*
%TO.C,Q3*%
X184390000Y-92177500D02*
X184390000Y-93697500D01*
X184390000Y-93697500D02*
X185390000Y-93697500D01*
X184440000Y-92177500D02*
X184390000Y-92177500D01*
X186340000Y-92177500D02*
X185560000Y-92177500D01*
X186510000Y-93697500D02*
X187510000Y-93697500D01*
X187510000Y-92177500D02*
X187460000Y-92177500D01*
X187510000Y-93697500D02*
X187510000Y-92177500D01*
X185570000Y-91637500D02*
X185900000Y-91877500D01*
X185900000Y-91397500D01*
X185570000Y-91637500D01*
G36*
X185900000Y-91877500D02*
G01*
X185570000Y-91637500D01*
X185900000Y-91397500D01*
X185900000Y-91877500D01*
G37*
%TO.C,Q5*%
X196352500Y-92302500D02*
X196352500Y-93822500D01*
X196352500Y-93822500D02*
X197352500Y-93822500D01*
X196402500Y-92302500D02*
X196352500Y-92302500D01*
X198302500Y-92302500D02*
X197522500Y-92302500D01*
X198472500Y-93822500D02*
X199472500Y-93822500D01*
X199472500Y-92302500D02*
X199422500Y-92302500D01*
X199472500Y-93822500D02*
X199472500Y-92302500D01*
X197532500Y-91762500D02*
X197862500Y-92002500D01*
X197862500Y-91522500D01*
X197532500Y-91762500D01*
G36*
X197862500Y-92002500D02*
G01*
X197532500Y-91762500D01*
X197862500Y-91522500D01*
X197862500Y-92002500D01*
G37*
%TO.C,C12*%
X207488748Y-34065000D02*
X208011252Y-34065000D01*
X207488748Y-35535000D02*
X208011252Y-35535000D01*
%TO.C,R25*%
X219965000Y-27472936D02*
X219965000Y-27927064D01*
X221435000Y-27472936D02*
X221435000Y-27927064D01*
%TO.C,R27*%
X191772936Y-87265000D02*
X192227064Y-87265000D01*
X191772936Y-88735000D02*
X192227064Y-88735000D01*
%TO.C,R30*%
X197685436Y-87265000D02*
X198139564Y-87265000D01*
X197685436Y-88735000D02*
X198139564Y-88735000D01*
%TO.C,Q6*%
X202352500Y-92302500D02*
X202352500Y-93822500D01*
X202352500Y-93822500D02*
X203352500Y-93822500D01*
X202402500Y-92302500D02*
X202352500Y-92302500D01*
X204302500Y-92302500D02*
X203522500Y-92302500D01*
X204472500Y-93822500D02*
X205472500Y-93822500D01*
X205472500Y-92302500D02*
X205422500Y-92302500D01*
X205472500Y-93822500D02*
X205472500Y-92302500D01*
X203532500Y-91762500D02*
X203862500Y-92002500D01*
X203862500Y-91522500D01*
X203532500Y-91762500D01*
G36*
X203862500Y-92002500D02*
G01*
X203532500Y-91762500D01*
X203862500Y-91522500D01*
X203862500Y-92002500D01*
G37*
%TO.C,R29*%
X192227064Y-97265000D02*
X191772936Y-97265000D01*
X192227064Y-98735000D02*
X191772936Y-98735000D01*
%TD*%
%LPC*%
D14*
%TO.C,*%
X220400000Y-41500000D03*
%TD*%
D15*
%TO.C,H2*%
X104000000Y-24000000D03*
D16*
X104000000Y-24000000D03*
%TD*%
D17*
%TO.C,J8*%
X173085000Y-30777500D03*
D18*
X168005000Y-30777500D03*
X162925000Y-30777500D03*
%TD*%
D19*
%TO.C,J2*%
X253000000Y-79790000D03*
D20*
X253000000Y-77250000D03*
X253000000Y-74710000D03*
X253000000Y-72170000D03*
X253000000Y-69630000D03*
X253000000Y-67090000D03*
X253000000Y-64550000D03*
X253000000Y-62010000D03*
X253000000Y-59470000D03*
X253000000Y-56930000D03*
%TD*%
D21*
%TO.C,J6*%
X208500000Y-53000000D03*
D22*
X211000000Y-53000000D03*
X213500000Y-53000000D03*
X216000000Y-53000000D03*
%TD*%
D14*
%TO.C,*%
X220400000Y-39500000D03*
%TD*%
D23*
%TO.C,J4*%
X105500000Y-57260000D03*
D24*
X105500000Y-62340000D03*
X105500000Y-67420000D03*
X105500000Y-72500000D03*
X105500000Y-77580000D03*
X105500000Y-82660000D03*
%TD*%
D14*
%TO.C,*%
X222400000Y-39500000D03*
%TD*%
D15*
%TO.C,H3*%
X104000000Y-116000000D03*
D16*
X104000000Y-116000000D03*
%TD*%
D25*
%TO.C,J11*%
X176380000Y-109222500D03*
D18*
X181460000Y-109222500D03*
X186540000Y-109222500D03*
X191620000Y-109222500D03*
%TD*%
D26*
%TO.C,*%
X220400000Y-37500000D03*
%TD*%
D27*
%TO.C,J9*%
X253000000Y-39300000D03*
D20*
X253000000Y-41840000D03*
X253000000Y-44380000D03*
X253000000Y-46920000D03*
X253000000Y-49460000D03*
X253000000Y-52000000D03*
%TD*%
D17*
%TO.C,J5*%
X193085000Y-30777500D03*
D18*
X188005000Y-30777500D03*
X182925000Y-30777500D03*
%TD*%
D14*
%TO.C,*%
X222400000Y-41500000D03*
%TD*%
%TO.C,*%
X222400000Y-37500000D03*
%TD*%
D15*
%TO.C,H1*%
X256000000Y-24000000D03*
D16*
X256000000Y-24000000D03*
%TD*%
D28*
%TO.C,J7*%
X215130000Y-31780000D03*
X203700000Y-31780000D03*
D29*
X213855000Y-38140000D03*
D30*
X212595000Y-40680000D03*
X211315000Y-38140000D03*
X210055000Y-40680000D03*
X208775000Y-38140000D03*
X207515000Y-40680000D03*
X206235000Y-38140000D03*
X204975000Y-40680000D03*
X216040000Y-26880000D03*
X213500000Y-26880000D03*
X205330000Y-26880000D03*
X202790000Y-26880000D03*
D31*
X217160000Y-34830000D03*
X201670000Y-34830000D03*
%TD*%
D32*
%TO.C,U3*%
X229760000Y-21900000D03*
D33*
X229760000Y-24440000D03*
X229760000Y-26980000D03*
X229760000Y-29520000D03*
X229760000Y-32060000D03*
X229760000Y-34600000D03*
X229760000Y-37140000D03*
X229760000Y-39680000D03*
X229760000Y-42220000D03*
X229760000Y-44760000D03*
X229760000Y-47300000D03*
X229760000Y-49840000D03*
X229760000Y-52380000D03*
X229760000Y-54920000D03*
X229760000Y-57460000D03*
X229760000Y-60000000D03*
X229760000Y-62540000D03*
X229760000Y-65080000D03*
X229760000Y-67620000D03*
X229760000Y-70160000D03*
X229760000Y-72700000D03*
X229760000Y-75240000D03*
X229760000Y-77780000D03*
X229760000Y-80320000D03*
X245000000Y-80320000D03*
X245000000Y-77780000D03*
X245000000Y-75240000D03*
X245000000Y-72700000D03*
X245000000Y-70160000D03*
X245000000Y-67620000D03*
X245000000Y-65080000D03*
X245000000Y-62540000D03*
X245000000Y-60000000D03*
X245000000Y-57460000D03*
X245000000Y-54920000D03*
X245000000Y-52380000D03*
X245000000Y-49840000D03*
X245000000Y-47300000D03*
X245000000Y-44760000D03*
X245000000Y-42220000D03*
X245000000Y-39680000D03*
X245000000Y-37140000D03*
X245000000Y-34600000D03*
X245000000Y-32060000D03*
X245000000Y-29520000D03*
X245000000Y-26980000D03*
X245000000Y-24440000D03*
X245000000Y-21900000D03*
D34*
X242561600Y-34870000D03*
D14*
X240561600Y-34870000D03*
X238561600Y-34870000D03*
X238561600Y-36870000D03*
X240561600Y-36870000D03*
X242561600Y-36870000D03*
%TD*%
D35*
%TO.C,J1*%
X241920000Y-114000000D03*
D24*
X247000000Y-114000000D03*
%TD*%
D15*
%TO.C,H4*%
X256000000Y-116000000D03*
D16*
X256000000Y-116000000D03*
%TD*%
D25*
%TO.C,J10*%
X200880000Y-109222500D03*
D18*
X205960000Y-109222500D03*
X211040000Y-109222500D03*
X216120000Y-109222500D03*
%TD*%
D27*
%TO.C,J3*%
X148600000Y-94200000D03*
D20*
X148600000Y-96740000D03*
%TD*%
D36*
%TO.C,R32*%
X198825000Y-98000000D03*
X197000000Y-98000000D03*
%TD*%
D37*
%TO.C,Q4*%
X191000000Y-92000000D03*
X192900000Y-92000000D03*
X191950000Y-93875000D03*
%TD*%
D38*
%TO.C,R31*%
X203000000Y-88000000D03*
X204825000Y-88000000D03*
%TD*%
D36*
%TO.C,R28*%
X186912500Y-98000000D03*
X185087500Y-98000000D03*
%TD*%
D38*
%TO.C,R26*%
X185087500Y-88000000D03*
X186912500Y-88000000D03*
%TD*%
D36*
%TO.C,R33*%
X204825000Y-98000000D03*
X203000000Y-98000000D03*
%TD*%
D37*
%TO.C,Q3*%
X185000000Y-92000000D03*
X186900000Y-92000000D03*
X185950000Y-93875000D03*
%TD*%
%TO.C,Q5*%
X196962500Y-92125000D03*
X198862500Y-92125000D03*
X197912500Y-94000000D03*
%TD*%
D39*
%TO.C,C12*%
X206800000Y-34800000D03*
X208700000Y-34800000D03*
%TD*%
D40*
%TO.C,R25*%
X220700000Y-26787500D03*
X220700000Y-28612500D03*
%TD*%
D38*
%TO.C,R27*%
X191087500Y-88000000D03*
X192912500Y-88000000D03*
%TD*%
%TO.C,R30*%
X197000000Y-88000000D03*
X198825000Y-88000000D03*
%TD*%
D37*
%TO.C,Q6*%
X202962500Y-92125000D03*
X204862500Y-92125000D03*
X203912500Y-94000000D03*
%TD*%
D36*
%TO.C,R29*%
X192912500Y-98000000D03*
X191087500Y-98000000D03*
%TD*%
%LPD*%
M02*
