M48
; DRILL file KiCad 10.0.5 date 2026-08-13T14:41:48
; FORMAT={-:-/ absolute / metric / decimal}
; #@! TF.CreationDate,2026-08-13T14:41:48+07:00
; #@! TF.GenerationSoftware,Kicad,Pcbnew,10.0.5
; #@! TF.FileFunction,Plated,1,6,PTH
FMAT,2
METRIC
; #@! TA.AperFunction,Plated,PTH,ViaDrill
T1C0.610
; #@! TA.AperFunction,Plated,PTH,ComponentDrill
T2C0.800
; #@! TA.AperFunction,Plated,PTH,ComponentDrill
T3C0.890
; #@! TA.AperFunction,Plated,PTH,ComponentDrill
T4C0.950
; #@! TA.AperFunction,Plated,PTH,ComponentDrill
T5C1.000
; #@! TA.AperFunction,Plated,PTH,ComponentDrill
T6C1.020
; #@! TA.AperFunction,Plated,PTH,ComponentDrill
T7C1.100
; #@! TA.AperFunction,Plated,PTH,ComponentDrill
T8C1.300
; #@! TA.AperFunction,Plated,PTH,ComponentDrill
T9C1.400
; #@! TA.AperFunction,Plated,PTH,ComponentDrill
T10C1.630
; #@! TA.AperFunction,Plated,PTH,ComponentDrill
T11C3.200
%
G90
G05
T1
X101.5Y-90.5
X101.5Y-92.5
X104.8Y-101.3
X105.0Y-109.5
X107.0Y-109.5
X116.5Y-60.0
X116.5Y-76.0
X116.5Y-92.0
X120.5Y-113.0
X129.9Y-31.4
X131.5Y-31.4
X139.0Y-40.7
X139.0Y-57.0
X139.0Y-73.0
X139.0Y-88.8
X141.0Y-105.0
X142.7Y-115.4
X143.0Y-105.0
X143.5Y-98.31
X143.69Y-82.31
X143.75Y-50.25
X143.81Y-66.31
X170.0Y-62.75
X170.0Y-65.75
X170.0Y-69.0
X170.0Y-92.5
X170.0Y-95.0
X170.0Y-97.5
X170.0Y-100.0
X171.75Y-61.25
X172.0Y-64.5
X172.0Y-67.5
X172.5Y-90.0
X172.5Y-92.5
X172.5Y-95.0
X172.5Y-97.5
X178.75Y-94.5
X178.75Y-96.5
X184.5Y-37.0
X186.05Y-58.0
X186.9Y-101.2
X190.5Y-53.0
X191.0Y-37.0
X192.9Y-101.3
X194.0Y-66.5
X195.0Y-53.0
X195.2Y-103.9
X198.75Y-64.75
X200.25Y-64.0
X202.0Y-37.25
X207.5Y-100.0
X207.5Y-102.5
X209.5Y-76.0
X210.0Y-45.25
X210.0Y-100.0
X210.0Y-102.5
X212.75Y-72.5
X213.6Y-37.1
X214.25Y-74.75
X214.5Y-91.0
X215.715Y-70.5
X217.0Y-61.25
X217.965Y-48.0
X218.5Y-58.75
X219.25Y-46.0
X219.75Y-81.25
X220.25Y-56.75
X220.5Y-93.75
X221.0Y-47.75
X221.625Y-83.125
X222.0Y-55.0
X222.5Y-46.0
X222.75Y-92.0
X223.5Y-85.0
X230.5Y-95.1
X250.75Y-86.75
X251.0Y-89.75
X252.5Y-83.1
X253.25Y-89.75
X256.5Y-37.0
X257.741Y-88.75
X258.5Y-36.5
X259.0Y-90.5
T2
X146.185Y-90.69
X146.185Y-93.23
X146.185Y-95.77
X146.185Y-98.31
X146.5Y-42.96
X146.5Y-45.5
X146.5Y-48.04
X146.5Y-50.58
X146.5Y-58.96
X146.5Y-61.5
X146.5Y-64.04
X146.5Y-66.58
X146.5Y-74.96
X146.5Y-77.5
X146.5Y-80.04
X146.5Y-82.58
X153.805Y-90.69
X153.805Y-93.23
X153.805Y-95.77
X153.805Y-98.31
X154.12Y-42.96
X154.12Y-45.5
X154.12Y-48.04
X154.12Y-50.58
X154.12Y-58.96
X154.12Y-61.5
X154.12Y-64.04
X154.12Y-66.58
X154.12Y-74.96
X154.12Y-77.5
X154.12Y-80.04
X154.12Y-82.58
X238.562Y-34.87
X238.562Y-36.87
X240.562Y-34.87
X240.562Y-36.87
X242.562Y-34.87
X242.562Y-36.87
T3
X207.56Y-24.39
X208.82Y-21.85
X210.1Y-24.39
X211.36Y-21.85
X212.64Y-24.39
X213.9Y-21.85
X215.18Y-24.39
X216.44Y-21.85
T4
X208.5Y-53.0
X211.0Y-53.0
X213.5Y-53.0
X216.0Y-53.0
T5
X253.0Y-39.3
X253.0Y-41.84
X253.0Y-44.38
X253.0Y-46.92
X253.0Y-49.46
X253.0Y-52.0
X253.0Y-56.93
X253.0Y-59.47
X253.0Y-62.01
X253.0Y-64.55
X253.0Y-67.09
X253.0Y-69.63
X253.0Y-72.17
X253.0Y-74.71
X253.0Y-77.25
X253.0Y-79.79
T6
X205.375Y-35.65
X207.915Y-35.65
X216.085Y-35.65
X218.625Y-35.65
T7
X229.76Y-21.9
X229.76Y-24.44
X229.76Y-26.98
X229.76Y-29.52
X229.76Y-32.06
X229.76Y-34.6
X229.76Y-37.14
X229.76Y-39.68
X229.76Y-42.22
X229.76Y-44.76
X229.76Y-47.3
X229.76Y-49.84
X229.76Y-52.38
X229.76Y-54.92
X229.76Y-57.46
X229.76Y-60.0
X229.76Y-62.54
X229.76Y-65.08
X229.76Y-67.62
X229.76Y-70.16
X229.76Y-72.7
X229.76Y-75.24
X229.76Y-77.78
X229.76Y-80.32
X245.0Y-21.9
X245.0Y-24.44
X245.0Y-26.98
X245.0Y-29.52
X245.0Y-32.06
X245.0Y-34.6
X245.0Y-37.14
X245.0Y-39.68
X245.0Y-42.22
X245.0Y-44.76
X245.0Y-47.3
X245.0Y-49.84
X245.0Y-52.38
X245.0Y-54.92
X245.0Y-57.46
X245.0Y-60.0
X245.0Y-62.54
X245.0Y-65.08
X245.0Y-67.62
X245.0Y-70.16
X245.0Y-72.7
X245.0Y-75.24
X245.0Y-77.78
X245.0Y-80.32
T8
X105.5Y-57.26
X105.5Y-62.34
X105.5Y-67.42
X105.5Y-72.5
X105.5Y-77.58
X105.5Y-82.66
X241.92Y-114.0
X247.0Y-114.0
T9
X162.925Y-30.777
X168.005Y-30.777
X173.085Y-30.777
X176.38Y-109.222
X181.46Y-109.222
X182.925Y-30.777
X186.54Y-109.222
X188.005Y-30.777
X191.62Y-109.222
X193.085Y-30.777
X200.88Y-109.222
X205.96Y-109.222
X211.04Y-109.222
X216.12Y-109.222
T10
X204.255Y-27.7
X219.745Y-27.7
T11
X104.0Y-24.0
X104.0Y-116.0
X256.0Y-24.0
X256.0Y-116.0
M30
