%TF.GenerationSoftware,KiCad,Pcbnew,9.0.5*%
%TF.CreationDate,2026-08-05T17:44:25+07:00*%
%TF.ProjectId,ISR_AWCS,4953525f-4157-4435-932e-6b696361645f,rev?*%
%TF.SameCoordinates,Original*%
%TF.FileFunction,Soldermask,Bot*%
%TF.FilePolarity,Negative*%
%FSLAX46Y46*%
G04 Gerber Fmt 4.6, Leading zero omitted, Abs format (unit mm)*
G04 Created by KiCad (PCBNEW 9.0.5) date 2026-08-05 17:44:25*
%MOMM*%
%LPD*%
G01*
G04 APERTURE LIST*
G04 Aperture macros list*
%AMRoundRect*
0 Rectangle with rounded corners*
0 $1 Rounding radius*
0 $2 $3 $4 $5 $6 $7 $8 $9 X,Y pos of 4 corners*
0 Add a 4 corners polygon primitive as box body*
4,1,4,$2,$3,$4,$5,$6,$7,$8,$9,$2,$3,0*
0 Add four circle primitives for the rounded corners*
1,1,$1+$1,$2,$3*
1,1,$1+$1,$4,$5*
1,1,$1+$1,$6,$7*
1,1,$1+$1,$8,$9*
0 Add four rect primitives between the rounded corners*
20,1,$1+$1,$2,$3,$4,$5,0*
20,1,$1+$1,$4,$5,$6,$7,0*
20,1,$1+$1,$6,$7,$8,$9,0*
20,1,$1+$1,$8,$9,$2,$3,0*%
G04 Aperture macros list end*
%ADD10RoundRect,0.265625X0.584375X0.584375X-0.584375X0.584375X-0.584375X-0.584375X0.584375X-0.584375X0*%
%ADD11C,1.700000*%
%ADD12C,3.700000*%
%ADD13C,5.700000*%
%ADD14RoundRect,0.262019X0.827981X1.587981X-0.827981X1.587981X-0.827981X-1.587981X0.827981X-1.587981X0*%
%ADD15O,2.180000X3.700000*%
%ADD16RoundRect,0.050000X0.850000X0.850000X-0.850000X0.850000X-0.850000X-0.850000X0.850000X-0.850000X0*%
%ADD17C,1.800000*%
%ADD18C,3.350000*%
%ADD19RoundRect,0.267200X-0.532800X-0.532800X0.532800X-0.532800X0.532800X0.532800X-0.532800X0.532800X0*%
%ADD20C,1.600000*%
%ADD21C,2.600000*%
%ADD22RoundRect,0.264706X-0.635294X-0.760294X0.635294X-0.760294X0.635294X0.760294X-0.635294X0.760294X0*%
%ADD23O,1.800000X2.050000*%
%ADD24RoundRect,0.259616X-1.090384X1.090384X-1.090384X-1.090384X1.090384X-1.090384X1.090384X1.090384X0*%
%ADD25C,2.700000*%
%ADD26RoundRect,0.262019X-0.827981X-1.587981X0.827981X-1.587981X0.827981X1.587981X-0.827981X1.587981X0*%
%ADD27RoundRect,0.050000X-0.850000X-0.850000X0.850000X-0.850000X0.850000X0.850000X-0.850000X0.850000X0*%
%ADD28RoundRect,0.050000X-0.800000X0.800000X-0.800000X-0.800000X0.800000X-0.800000X0.800000X0.800000X0*%
%ADD29RoundRect,0.050000X-0.650000X0.650000X-0.650000X-0.650000X0.650000X-0.650000X0.650000X0.650000X0*%
%ADD30C,1.400000*%
%ADD31RoundRect,0.259616X-1.090384X-1.090384X1.090384X-1.090384X1.090384X1.090384X-1.090384X1.090384X0*%
%ADD32RoundRect,0.274390X0.288110X0.475610X-0.288110X0.475610X-0.288110X-0.475610X0.288110X-0.475610X0*%
%ADD33RoundRect,0.175000X-0.175000X0.612500X-0.175000X-0.612500X0.175000X-0.612500X0.175000X0.612500X0*%
%ADD34RoundRect,0.274390X-0.288110X-0.475610X0.288110X-0.475610X0.288110X0.475610X-0.288110X0.475610X0*%
%ADD35RoundRect,0.274390X0.475610X-0.288110X0.475610X0.288110X-0.475610X0.288110X-0.475610X-0.288110X0*%
%ADD36RoundRect,0.268868X0.681132X-0.443632X0.681132X0.443632X-0.681132X0.443632X-0.681132X-0.443632X0*%
%ADD37RoundRect,0.262500X0.275000X0.262500X-0.275000X0.262500X-0.275000X-0.262500X0.275000X-0.262500X0*%
G04 APERTURE END LIST*
D10*
%TO.C,U11*%
X153805000Y-98310000D03*
D11*
X153805000Y-95770000D03*
X153805000Y-93230000D03*
X153805000Y-90690000D03*
X146185000Y-90690000D03*
X146185000Y-93230000D03*
X146185000Y-95770000D03*
X146185000Y-98310000D03*
%TD*%
D12*
%TO.C,H1*%
X104000000Y-24000000D03*
D13*
X104000000Y-24000000D03*
%TD*%
D14*
%TO.C,J6*%
X173085000Y-30777500D03*
D15*
X168005000Y-30777500D03*
X162925000Y-30777500D03*
%TD*%
D10*
%TO.C,U10*%
X154120000Y-66580000D03*
D11*
X154120000Y-64040000D03*
X154120000Y-61500000D03*
X154120000Y-58960000D03*
X146500000Y-58960000D03*
X146500000Y-61500000D03*
X146500000Y-64040000D03*
X146500000Y-66580000D03*
%TD*%
D16*
%TO.C,J2*%
X253000000Y-79790000D03*
D17*
X253000000Y-77250000D03*
X253000000Y-74710000D03*
X253000000Y-72170000D03*
X253000000Y-69630000D03*
X253000000Y-67090000D03*
X253000000Y-64550000D03*
X253000000Y-62010000D03*
X253000000Y-59470000D03*
X253000000Y-56930000D03*
%TD*%
D10*
%TO.C,U7*%
X154120000Y-82580000D03*
D11*
X154120000Y-80040000D03*
X154120000Y-77500000D03*
X154120000Y-74960000D03*
X146500000Y-74960000D03*
X146500000Y-77500000D03*
X146500000Y-80040000D03*
X146500000Y-82580000D03*
%TD*%
D18*
%TO.C,J3*%
X206285000Y-30750000D03*
X217715000Y-30750000D03*
D19*
X207560000Y-24390000D03*
D20*
X208820000Y-21850000D03*
X210100000Y-24390000D03*
X211360000Y-21850000D03*
X212640000Y-24390000D03*
X213900000Y-21850000D03*
X215180000Y-24390000D03*
X216440000Y-21850000D03*
X205375000Y-35650000D03*
X207915000Y-35650000D03*
X216085000Y-35650000D03*
X218625000Y-35650000D03*
D21*
X204255000Y-27700000D03*
X219745000Y-27700000D03*
%TD*%
D22*
%TO.C,J5*%
X208500000Y-53000000D03*
D23*
X211000000Y-53000000D03*
X213500000Y-53000000D03*
X216000000Y-53000000D03*
%TD*%
D24*
%TO.C,J14*%
X105500000Y-57260000D03*
D25*
X105500000Y-62340000D03*
X105500000Y-67420000D03*
X105500000Y-72500000D03*
X105500000Y-77580000D03*
X105500000Y-82660000D03*
%TD*%
D12*
%TO.C,H3*%
X104000000Y-116000000D03*
D13*
X104000000Y-116000000D03*
%TD*%
D26*
%TO.C,J8*%
X176380000Y-109222500D03*
D15*
X181460000Y-109222500D03*
X186540000Y-109222500D03*
X191620000Y-109222500D03*
%TD*%
D27*
%TO.C,J9*%
X253000000Y-39300000D03*
D17*
X253000000Y-41840000D03*
X253000000Y-44380000D03*
X253000000Y-46920000D03*
X253000000Y-49460000D03*
X253000000Y-52000000D03*
%TD*%
D14*
%TO.C,J4*%
X193085000Y-30777500D03*
D15*
X188005000Y-30777500D03*
X182925000Y-30777500D03*
%TD*%
D10*
%TO.C,U6*%
X154120000Y-50580000D03*
D11*
X154120000Y-48040000D03*
X154120000Y-45500000D03*
X154120000Y-42960000D03*
X146500000Y-42960000D03*
X146500000Y-45500000D03*
X146500000Y-48040000D03*
X146500000Y-50580000D03*
%TD*%
D12*
%TO.C,H2*%
X256000000Y-24000000D03*
D13*
X256000000Y-24000000D03*
%TD*%
D28*
%TO.C,U5*%
X229760000Y-21900000D03*
D11*
X229760000Y-24440000D03*
X229760000Y-26980000D03*
X229760000Y-29520000D03*
X229760000Y-32060000D03*
X229760000Y-34600000D03*
X229760000Y-37140000D03*
X229760000Y-39680000D03*
X229760000Y-42220000D03*
X229760000Y-44760000D03*
X229760000Y-47300000D03*
X229760000Y-49840000D03*
X229760000Y-52380000D03*
X229760000Y-54920000D03*
X229760000Y-57460000D03*
X229760000Y-60000000D03*
X229760000Y-62540000D03*
X229760000Y-65080000D03*
X229760000Y-67620000D03*
X229760000Y-70160000D03*
X229760000Y-72700000D03*
X229760000Y-75240000D03*
X229760000Y-77780000D03*
X229760000Y-80320000D03*
X245000000Y-80320000D03*
X245000000Y-77780000D03*
X245000000Y-75240000D03*
X245000000Y-72700000D03*
X245000000Y-70160000D03*
X245000000Y-67620000D03*
X245000000Y-65080000D03*
X245000000Y-62540000D03*
X245000000Y-60000000D03*
X245000000Y-57460000D03*
X245000000Y-54920000D03*
X245000000Y-52380000D03*
X245000000Y-49840000D03*
X245000000Y-47300000D03*
X245000000Y-44760000D03*
X245000000Y-42220000D03*
X245000000Y-39680000D03*
X245000000Y-37140000D03*
X245000000Y-34600000D03*
X245000000Y-32060000D03*
X245000000Y-29520000D03*
X245000000Y-26980000D03*
X245000000Y-24440000D03*
X245000000Y-21900000D03*
D29*
X242561600Y-34870000D03*
D30*
X240561600Y-34870000D03*
X238561600Y-34870000D03*
X238561600Y-36870000D03*
X240561600Y-36870000D03*
X242561600Y-36870000D03*
%TD*%
D31*
%TO.C,J1*%
X241920000Y-114000000D03*
D25*
X247000000Y-114000000D03*
%TD*%
D12*
%TO.C,H4*%
X256000000Y-116000000D03*
D13*
X256000000Y-116000000D03*
%TD*%
D26*
%TO.C,J7*%
X200880000Y-109222500D03*
D15*
X205960000Y-109222500D03*
X211040000Y-109222500D03*
X216120000Y-109222500D03*
%TD*%
D32*
%TO.C,R23*%
X198825000Y-98000000D03*
X197000000Y-98000000D03*
%TD*%
D33*
%TO.C,Q5*%
X191000000Y-92000000D03*
X192900000Y-92000000D03*
X191950000Y-93875000D03*
%TD*%
D34*
%TO.C,R26*%
X203000000Y-88000000D03*
X204825000Y-88000000D03*
%TD*%
D32*
%TO.C,R21*%
X186912500Y-98000000D03*
X185087500Y-98000000D03*
%TD*%
D35*
%TO.C,R9*%
X157750000Y-63662500D03*
X157750000Y-61837500D03*
%TD*%
%TO.C,R10*%
X157500000Y-95412500D03*
X157500000Y-93587500D03*
%TD*%
D34*
%TO.C,R20*%
X185087500Y-88000000D03*
X186912500Y-88000000D03*
%TD*%
D32*
%TO.C,R27*%
X204825000Y-98000000D03*
X203000000Y-98000000D03*
%TD*%
D33*
%TO.C,Q3*%
X185000000Y-92000000D03*
X186900000Y-92000000D03*
X185950000Y-93875000D03*
%TD*%
%TO.C,Q4*%
X196962500Y-92125000D03*
X198862500Y-92125000D03*
X197912500Y-94000000D03*
%TD*%
D35*
%TO.C,R3*%
X157750000Y-47662500D03*
X157750000Y-45837500D03*
%TD*%
D36*
%TO.C,C13*%
X213500000Y-33812500D03*
X213500000Y-30687500D03*
%TD*%
D35*
%TO.C,R4*%
X157750000Y-79662500D03*
X157750000Y-77837500D03*
%TD*%
D37*
%TO.C,R18*%
X207500000Y-38750000D03*
X205675000Y-38750000D03*
%TD*%
D34*
%TO.C,R24*%
X191087500Y-88000000D03*
X192912500Y-88000000D03*
%TD*%
%TO.C,R22*%
X197000000Y-88000000D03*
X198825000Y-88000000D03*
%TD*%
D33*
%TO.C,Q6*%
X202962500Y-92125000D03*
X204862500Y-92125000D03*
X203912500Y-94000000D03*
%TD*%
D32*
%TO.C,R25*%
X192912500Y-98000000D03*
X191087500Y-98000000D03*
%TD*%
M02*
