%TF.GenerationSoftware,KiCad,Pcbnew,10.0.5*%
%TF.CreationDate,2026-09-10T12:24:19+07:00*%
%TF.ProjectId,main_controller_hat,6d61696e-5f63-46f6-9e74-726f6c6c6572,rev?*%
%TF.SameCoordinates,Original*%
%TF.FileFunction,Paste,Top*%
%TF.FilePolarity,Positive*%
%FSLAX46Y46*%
G04 Gerber Fmt 4.6, Leading zero omitted, Abs format (unit mm)*
G04 Created by KiCad (PCBNEW 10.0.5) date 2026-09-10 12:24:19*
%MOMM*%
%LPD*%
G01*
G04 APERTURE LIST*
G04 Aperture macros list*
%AMRoundRect*
0 Rectangle with rounded corners*
0 $1 Rounding radius*
0 $2 $3 $4 $5 $6 $7 $8 $9 X,Y pos of 4 corners*
0 Add a 4 corners polygon primitive as box body*
4,1,4,$2,$3,$4,$5,$6,$7,$8,$9,$2,$3,0*
0 Add four circle primitives for the rounded corners*
1,1,$1+$1,$2,$3*
1,1,$1+$1,$4,$5*
1,1,$1+$1,$6,$7*
1,1,$1+$1,$8,$9*
0 Add four rect primitives between the rounded corners*
20,1,$1+$1,$2,$3,$4,$5,0*
20,1,$1+$1,$4,$5,$6,$7,0*
20,1,$1+$1,$6,$7,$8,$9,0*
20,1,$1+$1,$8,$9,$2,$3,0*%
G04 Aperture macros list end*
%ADD10C,0.010000*%
%ADD11RoundRect,0.250000X0.450000X-0.262500X0.450000X0.262500X-0.450000X0.262500X-0.450000X-0.262500X0*%
%ADD12RoundRect,0.243750X-0.456250X0.243750X-0.456250X-0.243750X0.456250X-0.243750X0.456250X0.243750X0*%
%ADD13RoundRect,0.250000X-1.000000X1.950000X-1.000000X-1.950000X1.000000X-1.950000X1.000000X1.950000X0*%
%ADD14RoundRect,0.250000X-0.450000X0.262500X-0.450000X-0.262500X0.450000X-0.262500X0.450000X0.262500X0*%
%ADD15R,2.060000X1.540000*%
%ADD16RoundRect,0.250000X0.475000X-0.250000X0.475000X0.250000X-0.475000X0.250000X-0.475000X-0.250000X0*%
%ADD17R,3.810000X0.800000*%
%ADD18RoundRect,0.250000X-0.262500X-0.450000X0.262500X-0.450000X0.262500X0.450000X-0.262500X0.450000X0*%
%ADD19R,3.505200X2.260600*%
%ADD20RoundRect,0.185000X0.890000X0.555000X-0.890000X0.555000X-0.890000X-0.555000X0.890000X-0.555000X0*%
%ADD21RoundRect,0.250000X1.000000X0.650000X-1.000000X0.650000X-1.000000X-0.650000X1.000000X-0.650000X0*%
%ADD22RoundRect,0.250000X1.000000X-1.950000X1.000000X1.950000X-1.000000X1.950000X-1.000000X-1.950000X0*%
%ADD23RoundRect,0.250000X-2.025000X-2.375000X2.025000X-2.375000X2.025000X2.375000X-2.025000X2.375000X0*%
%ADD24RoundRect,0.250000X-2.050000X-0.300000X2.050000X-0.300000X2.050000X0.300000X-2.050000X0.300000X0*%
%ADD25R,1.200000X3.000000*%
%ADD26R,6.000000X6.500000*%
%ADD27RoundRect,0.250000X-0.250000X-0.475000X0.250000X-0.475000X0.250000X0.475000X-0.250000X0.475000X0*%
%ADD28RoundRect,0.150000X0.150000X-0.825000X0.150000X0.825000X-0.150000X0.825000X-0.150000X-0.825000X0*%
%ADD29R,3.000000X3.800000*%
%ADD30RoundRect,0.243750X-0.243750X-0.456250X0.243750X-0.456250X0.243750X0.456250X-0.243750X0.456250X0*%
%ADD31RoundRect,0.250000X0.600000X-0.400000X0.600000X0.400000X-0.600000X0.400000X-0.600000X-0.400000X0*%
%ADD32RoundRect,0.250000X-2.375000X2.025000X-2.375000X-2.025000X2.375000X-2.025000X2.375000X2.025000X0*%
%ADD33RoundRect,0.250000X-0.300000X2.050000X-0.300000X-2.050000X0.300000X-2.050000X0.300000X2.050000X0*%
%ADD34RoundRect,0.250000X-0.650000X0.325000X-0.650000X-0.325000X0.650000X-0.325000X0.650000X0.325000X0*%
%ADD35RoundRect,0.250000X0.262500X0.450000X-0.262500X0.450000X-0.262500X-0.450000X0.262500X-0.450000X0*%
%ADD36RoundRect,0.250000X0.250000X0.475000X-0.250000X0.475000X-0.250000X-0.475000X0.250000X-0.475000X0*%
%ADD37R,3.000000X1.200000*%
%ADD38R,6.500000X6.000000*%
%ADD39R,1.000000X0.800000*%
%ADD40RoundRect,0.250000X0.650000X-1.000000X0.650000X1.000000X-0.650000X1.000000X-0.650000X-1.000000X0*%
%ADD41RoundRect,0.250000X-1.000000X-0.650000X1.000000X-0.650000X1.000000X0.650000X-1.000000X0.650000X0*%
%ADD42RoundRect,0.250000X-1.000000X1.750000X-1.000000X-1.750000X1.000000X-1.750000X1.000000X1.750000X0*%
%ADD43RoundRect,0.375000X-0.375000X0.625000X-0.375000X-0.625000X0.375000X-0.625000X0.375000X0.625000X0*%
%ADD44RoundRect,0.500000X-1.400000X0.500000X-1.400000X-0.500000X1.400000X-0.500000X1.400000X0.500000X0*%
G04 APERTURE END LIST*
D10*
%TO.C,U7*%
X125205000Y-43135000D02*
X125205000Y-41785000D01*
X126855000Y-41785000D01*
X126855000Y-43135000D01*
X125205000Y-43135000D01*
G36*
X126855000Y-43135000D02*
G01*
X125205000Y-43135000D01*
X125205000Y-41785000D01*
X126855000Y-41785000D01*
X126855000Y-43135000D01*
G37*
X125205000Y-45155000D02*
X125205000Y-43805000D01*
X126855000Y-43805000D01*
X126855000Y-45155000D01*
X125205000Y-45155000D01*
G36*
X126855000Y-45155000D02*
G01*
X125205000Y-45155000D01*
X125205000Y-43805000D01*
X126855000Y-43805000D01*
X126855000Y-45155000D01*
G37*
X125205000Y-47175000D02*
X125205000Y-45825000D01*
X126855000Y-45825000D01*
X126855000Y-47175000D01*
X125205000Y-47175000D01*
G36*
X126855000Y-47175000D02*
G01*
X125205000Y-47175000D01*
X125205000Y-45825000D01*
X126855000Y-45825000D01*
X126855000Y-47175000D01*
G37*
X125205000Y-49195000D02*
X125205000Y-47845000D01*
X126855000Y-47845000D01*
X126855000Y-49195000D01*
X125205000Y-49195000D01*
G36*
X126855000Y-49195000D02*
G01*
X125205000Y-49195000D01*
X125205000Y-47845000D01*
X126855000Y-47845000D01*
X126855000Y-49195000D01*
G37*
X125205000Y-51215000D02*
X125205000Y-49865000D01*
X126855000Y-49865000D01*
X126855000Y-51215000D01*
X125205000Y-51215000D01*
G36*
X126855000Y-51215000D02*
G01*
X125205000Y-51215000D01*
X125205000Y-49865000D01*
X126855000Y-49865000D01*
X126855000Y-51215000D01*
G37*
X127965000Y-43135000D02*
X127965000Y-41785000D01*
X129615000Y-41785000D01*
X129615000Y-43135000D01*
X127965000Y-43135000D01*
G36*
X129615000Y-43135000D02*
G01*
X127965000Y-43135000D01*
X127965000Y-41785000D01*
X129615000Y-41785000D01*
X129615000Y-43135000D01*
G37*
X127965000Y-45155000D02*
X127965000Y-43805000D01*
X129615000Y-43805000D01*
X129615000Y-45155000D01*
X127965000Y-45155000D01*
G36*
X129615000Y-45155000D02*
G01*
X127965000Y-45155000D01*
X127965000Y-43805000D01*
X129615000Y-43805000D01*
X129615000Y-45155000D01*
G37*
X127965000Y-47175000D02*
X127965000Y-45825000D01*
X129615000Y-45825000D01*
X129615000Y-47175000D01*
X127965000Y-47175000D01*
G36*
X129615000Y-47175000D02*
G01*
X127965000Y-47175000D01*
X127965000Y-45825000D01*
X129615000Y-45825000D01*
X129615000Y-47175000D01*
G37*
X127965000Y-49195000D02*
X127965000Y-47845000D01*
X129615000Y-47845000D01*
X129615000Y-49195000D01*
X127965000Y-49195000D01*
G36*
X129615000Y-49195000D02*
G01*
X127965000Y-49195000D01*
X127965000Y-47845000D01*
X129615000Y-47845000D01*
X129615000Y-49195000D01*
G37*
X127965000Y-51215000D02*
X127965000Y-49865000D01*
X129615000Y-49865000D01*
X129615000Y-51215000D01*
X127965000Y-51215000D01*
G36*
X129615000Y-51215000D02*
G01*
X127965000Y-51215000D01*
X127965000Y-49865000D01*
X129615000Y-49865000D01*
X129615000Y-51215000D01*
G37*
X130725000Y-43135000D02*
X130725000Y-41785000D01*
X132375000Y-41785000D01*
X132375000Y-43135000D01*
X130725000Y-43135000D01*
G36*
X132375000Y-43135000D02*
G01*
X130725000Y-43135000D01*
X130725000Y-41785000D01*
X132375000Y-41785000D01*
X132375000Y-43135000D01*
G37*
X130725000Y-45155000D02*
X130725000Y-43805000D01*
X132375000Y-43805000D01*
X132375000Y-45155000D01*
X130725000Y-45155000D01*
G36*
X132375000Y-45155000D02*
G01*
X130725000Y-45155000D01*
X130725000Y-43805000D01*
X132375000Y-43805000D01*
X132375000Y-45155000D01*
G37*
X130725000Y-47175000D02*
X130725000Y-45825000D01*
X132375000Y-45825000D01*
X132375000Y-47175000D01*
X130725000Y-47175000D01*
G36*
X132375000Y-47175000D02*
G01*
X130725000Y-47175000D01*
X130725000Y-45825000D01*
X132375000Y-45825000D01*
X132375000Y-47175000D01*
G37*
X130725000Y-49195000D02*
X130725000Y-47845000D01*
X132375000Y-47845000D01*
X132375000Y-49195000D01*
X130725000Y-49195000D01*
G36*
X132375000Y-49195000D02*
G01*
X130725000Y-49195000D01*
X130725000Y-47845000D01*
X132375000Y-47845000D01*
X132375000Y-49195000D01*
G37*
X130725000Y-51215000D02*
X130725000Y-49865000D01*
X132375000Y-49865000D01*
X132375000Y-51215000D01*
X130725000Y-51215000D01*
G36*
X132375000Y-51215000D02*
G01*
X130725000Y-51215000D01*
X130725000Y-49865000D01*
X132375000Y-49865000D01*
X132375000Y-51215000D01*
G37*
%TO.C,U11*%
X125205000Y-75135000D02*
X125205000Y-73785000D01*
X126855000Y-73785000D01*
X126855000Y-75135000D01*
X125205000Y-75135000D01*
G36*
X126855000Y-75135000D02*
G01*
X125205000Y-75135000D01*
X125205000Y-73785000D01*
X126855000Y-73785000D01*
X126855000Y-75135000D01*
G37*
X125205000Y-77155000D02*
X125205000Y-75805000D01*
X126855000Y-75805000D01*
X126855000Y-77155000D01*
X125205000Y-77155000D01*
G36*
X126855000Y-77155000D02*
G01*
X125205000Y-77155000D01*
X125205000Y-75805000D01*
X126855000Y-75805000D01*
X126855000Y-77155000D01*
G37*
X125205000Y-79175000D02*
X125205000Y-77825000D01*
X126855000Y-77825000D01*
X126855000Y-79175000D01*
X125205000Y-79175000D01*
G36*
X126855000Y-79175000D02*
G01*
X125205000Y-79175000D01*
X125205000Y-77825000D01*
X126855000Y-77825000D01*
X126855000Y-79175000D01*
G37*
X125205000Y-81195000D02*
X125205000Y-79845000D01*
X126855000Y-79845000D01*
X126855000Y-81195000D01*
X125205000Y-81195000D01*
G36*
X126855000Y-81195000D02*
G01*
X125205000Y-81195000D01*
X125205000Y-79845000D01*
X126855000Y-79845000D01*
X126855000Y-81195000D01*
G37*
X125205000Y-83215000D02*
X125205000Y-81865000D01*
X126855000Y-81865000D01*
X126855000Y-83215000D01*
X125205000Y-83215000D01*
G36*
X126855000Y-83215000D02*
G01*
X125205000Y-83215000D01*
X125205000Y-81865000D01*
X126855000Y-81865000D01*
X126855000Y-83215000D01*
G37*
X127965000Y-75135000D02*
X127965000Y-73785000D01*
X129615000Y-73785000D01*
X129615000Y-75135000D01*
X127965000Y-75135000D01*
G36*
X129615000Y-75135000D02*
G01*
X127965000Y-75135000D01*
X127965000Y-73785000D01*
X129615000Y-73785000D01*
X129615000Y-75135000D01*
G37*
X127965000Y-77155000D02*
X127965000Y-75805000D01*
X129615000Y-75805000D01*
X129615000Y-77155000D01*
X127965000Y-77155000D01*
G36*
X129615000Y-77155000D02*
G01*
X127965000Y-77155000D01*
X127965000Y-75805000D01*
X129615000Y-75805000D01*
X129615000Y-77155000D01*
G37*
X127965000Y-79175000D02*
X127965000Y-77825000D01*
X129615000Y-77825000D01*
X129615000Y-79175000D01*
X127965000Y-79175000D01*
G36*
X129615000Y-79175000D02*
G01*
X127965000Y-79175000D01*
X127965000Y-77825000D01*
X129615000Y-77825000D01*
X129615000Y-79175000D01*
G37*
X127965000Y-81195000D02*
X127965000Y-79845000D01*
X129615000Y-79845000D01*
X129615000Y-81195000D01*
X127965000Y-81195000D01*
G36*
X129615000Y-81195000D02*
G01*
X127965000Y-81195000D01*
X127965000Y-79845000D01*
X129615000Y-79845000D01*
X129615000Y-81195000D01*
G37*
X127965000Y-83215000D02*
X127965000Y-81865000D01*
X129615000Y-81865000D01*
X129615000Y-83215000D01*
X127965000Y-83215000D01*
G36*
X129615000Y-83215000D02*
G01*
X127965000Y-83215000D01*
X127965000Y-81865000D01*
X129615000Y-81865000D01*
X129615000Y-83215000D01*
G37*
X130725000Y-75135000D02*
X130725000Y-73785000D01*
X132375000Y-73785000D01*
X132375000Y-75135000D01*
X130725000Y-75135000D01*
G36*
X132375000Y-75135000D02*
G01*
X130725000Y-75135000D01*
X130725000Y-73785000D01*
X132375000Y-73785000D01*
X132375000Y-75135000D01*
G37*
X130725000Y-77155000D02*
X130725000Y-75805000D01*
X132375000Y-75805000D01*
X132375000Y-77155000D01*
X130725000Y-77155000D01*
G36*
X132375000Y-77155000D02*
G01*
X130725000Y-77155000D01*
X130725000Y-75805000D01*
X132375000Y-75805000D01*
X132375000Y-77155000D01*
G37*
X130725000Y-79175000D02*
X130725000Y-77825000D01*
X132375000Y-77825000D01*
X132375000Y-79175000D01*
X130725000Y-79175000D01*
G36*
X132375000Y-79175000D02*
G01*
X130725000Y-79175000D01*
X130725000Y-77825000D01*
X132375000Y-77825000D01*
X132375000Y-79175000D01*
G37*
X130725000Y-81195000D02*
X130725000Y-79845000D01*
X132375000Y-79845000D01*
X132375000Y-81195000D01*
X130725000Y-81195000D01*
G36*
X132375000Y-81195000D02*
G01*
X130725000Y-81195000D01*
X130725000Y-79845000D01*
X132375000Y-79845000D01*
X132375000Y-81195000D01*
G37*
X130725000Y-83215000D02*
X130725000Y-81865000D01*
X132375000Y-81865000D01*
X132375000Y-83215000D01*
X130725000Y-83215000D01*
G36*
X132375000Y-83215000D02*
G01*
X130725000Y-83215000D01*
X130725000Y-81865000D01*
X132375000Y-81865000D01*
X132375000Y-83215000D01*
G37*
%TO.C,U8*%
X125205000Y-59135000D02*
X125205000Y-57785000D01*
X126855000Y-57785000D01*
X126855000Y-59135000D01*
X125205000Y-59135000D01*
G36*
X126855000Y-59135000D02*
G01*
X125205000Y-59135000D01*
X125205000Y-57785000D01*
X126855000Y-57785000D01*
X126855000Y-59135000D01*
G37*
X125205000Y-61155000D02*
X125205000Y-59805000D01*
X126855000Y-59805000D01*
X126855000Y-61155000D01*
X125205000Y-61155000D01*
G36*
X126855000Y-61155000D02*
G01*
X125205000Y-61155000D01*
X125205000Y-59805000D01*
X126855000Y-59805000D01*
X126855000Y-61155000D01*
G37*
X125205000Y-63175000D02*
X125205000Y-61825000D01*
X126855000Y-61825000D01*
X126855000Y-63175000D01*
X125205000Y-63175000D01*
G36*
X126855000Y-63175000D02*
G01*
X125205000Y-63175000D01*
X125205000Y-61825000D01*
X126855000Y-61825000D01*
X126855000Y-63175000D01*
G37*
X125205000Y-65195000D02*
X125205000Y-63845000D01*
X126855000Y-63845000D01*
X126855000Y-65195000D01*
X125205000Y-65195000D01*
G36*
X126855000Y-65195000D02*
G01*
X125205000Y-65195000D01*
X125205000Y-63845000D01*
X126855000Y-63845000D01*
X126855000Y-65195000D01*
G37*
X125205000Y-67215000D02*
X125205000Y-65865000D01*
X126855000Y-65865000D01*
X126855000Y-67215000D01*
X125205000Y-67215000D01*
G36*
X126855000Y-67215000D02*
G01*
X125205000Y-67215000D01*
X125205000Y-65865000D01*
X126855000Y-65865000D01*
X126855000Y-67215000D01*
G37*
X127965000Y-59135000D02*
X127965000Y-57785000D01*
X129615000Y-57785000D01*
X129615000Y-59135000D01*
X127965000Y-59135000D01*
G36*
X129615000Y-59135000D02*
G01*
X127965000Y-59135000D01*
X127965000Y-57785000D01*
X129615000Y-57785000D01*
X129615000Y-59135000D01*
G37*
X127965000Y-61155000D02*
X127965000Y-59805000D01*
X129615000Y-59805000D01*
X129615000Y-61155000D01*
X127965000Y-61155000D01*
G36*
X129615000Y-61155000D02*
G01*
X127965000Y-61155000D01*
X127965000Y-59805000D01*
X129615000Y-59805000D01*
X129615000Y-61155000D01*
G37*
X127965000Y-63175000D02*
X127965000Y-61825000D01*
X129615000Y-61825000D01*
X129615000Y-63175000D01*
X127965000Y-63175000D01*
G36*
X129615000Y-63175000D02*
G01*
X127965000Y-63175000D01*
X127965000Y-61825000D01*
X129615000Y-61825000D01*
X129615000Y-63175000D01*
G37*
X127965000Y-65195000D02*
X127965000Y-63845000D01*
X129615000Y-63845000D01*
X129615000Y-65195000D01*
X127965000Y-65195000D01*
G36*
X129615000Y-65195000D02*
G01*
X127965000Y-65195000D01*
X127965000Y-63845000D01*
X129615000Y-63845000D01*
X129615000Y-65195000D01*
G37*
X127965000Y-67215000D02*
X127965000Y-65865000D01*
X129615000Y-65865000D01*
X129615000Y-67215000D01*
X127965000Y-67215000D01*
G36*
X129615000Y-67215000D02*
G01*
X127965000Y-67215000D01*
X127965000Y-65865000D01*
X129615000Y-65865000D01*
X129615000Y-67215000D01*
G37*
X130725000Y-59135000D02*
X130725000Y-57785000D01*
X132375000Y-57785000D01*
X132375000Y-59135000D01*
X130725000Y-59135000D01*
G36*
X132375000Y-59135000D02*
G01*
X130725000Y-59135000D01*
X130725000Y-57785000D01*
X132375000Y-57785000D01*
X132375000Y-59135000D01*
G37*
X130725000Y-61155000D02*
X130725000Y-59805000D01*
X132375000Y-59805000D01*
X132375000Y-61155000D01*
X130725000Y-61155000D01*
G36*
X132375000Y-61155000D02*
G01*
X130725000Y-61155000D01*
X130725000Y-59805000D01*
X132375000Y-59805000D01*
X132375000Y-61155000D01*
G37*
X130725000Y-63175000D02*
X130725000Y-61825000D01*
X132375000Y-61825000D01*
X132375000Y-63175000D01*
X130725000Y-63175000D01*
G36*
X132375000Y-63175000D02*
G01*
X130725000Y-63175000D01*
X130725000Y-61825000D01*
X132375000Y-61825000D01*
X132375000Y-63175000D01*
G37*
X130725000Y-65195000D02*
X130725000Y-63845000D01*
X132375000Y-63845000D01*
X132375000Y-65195000D01*
X130725000Y-65195000D01*
G36*
X132375000Y-65195000D02*
G01*
X130725000Y-65195000D01*
X130725000Y-63845000D01*
X132375000Y-63845000D01*
X132375000Y-65195000D01*
G37*
X130725000Y-67215000D02*
X130725000Y-65865000D01*
X132375000Y-65865000D01*
X132375000Y-67215000D01*
X130725000Y-67215000D01*
G36*
X132375000Y-67215000D02*
G01*
X130725000Y-67215000D01*
X130725000Y-65865000D01*
X132375000Y-65865000D01*
X132375000Y-67215000D01*
G37*
%TO.C,U12*%
X125205000Y-91135000D02*
X125205000Y-89785000D01*
X126855000Y-89785000D01*
X126855000Y-91135000D01*
X125205000Y-91135000D01*
G36*
X126855000Y-91135000D02*
G01*
X125205000Y-91135000D01*
X125205000Y-89785000D01*
X126855000Y-89785000D01*
X126855000Y-91135000D01*
G37*
X125205000Y-93155000D02*
X125205000Y-91805000D01*
X126855000Y-91805000D01*
X126855000Y-93155000D01*
X125205000Y-93155000D01*
G36*
X126855000Y-93155000D02*
G01*
X125205000Y-93155000D01*
X125205000Y-91805000D01*
X126855000Y-91805000D01*
X126855000Y-93155000D01*
G37*
X125205000Y-95175000D02*
X125205000Y-93825000D01*
X126855000Y-93825000D01*
X126855000Y-95175000D01*
X125205000Y-95175000D01*
G36*
X126855000Y-95175000D02*
G01*
X125205000Y-95175000D01*
X125205000Y-93825000D01*
X126855000Y-93825000D01*
X126855000Y-95175000D01*
G37*
X125205000Y-97195000D02*
X125205000Y-95845000D01*
X126855000Y-95845000D01*
X126855000Y-97195000D01*
X125205000Y-97195000D01*
G36*
X126855000Y-97195000D02*
G01*
X125205000Y-97195000D01*
X125205000Y-95845000D01*
X126855000Y-95845000D01*
X126855000Y-97195000D01*
G37*
X125205000Y-99215000D02*
X125205000Y-97865000D01*
X126855000Y-97865000D01*
X126855000Y-99215000D01*
X125205000Y-99215000D01*
G36*
X126855000Y-99215000D02*
G01*
X125205000Y-99215000D01*
X125205000Y-97865000D01*
X126855000Y-97865000D01*
X126855000Y-99215000D01*
G37*
X127965000Y-91135000D02*
X127965000Y-89785000D01*
X129615000Y-89785000D01*
X129615000Y-91135000D01*
X127965000Y-91135000D01*
G36*
X129615000Y-91135000D02*
G01*
X127965000Y-91135000D01*
X127965000Y-89785000D01*
X129615000Y-89785000D01*
X129615000Y-91135000D01*
G37*
X127965000Y-93155000D02*
X127965000Y-91805000D01*
X129615000Y-91805000D01*
X129615000Y-93155000D01*
X127965000Y-93155000D01*
G36*
X129615000Y-93155000D02*
G01*
X127965000Y-93155000D01*
X127965000Y-91805000D01*
X129615000Y-91805000D01*
X129615000Y-93155000D01*
G37*
X127965000Y-95175000D02*
X127965000Y-93825000D01*
X129615000Y-93825000D01*
X129615000Y-95175000D01*
X127965000Y-95175000D01*
G36*
X129615000Y-95175000D02*
G01*
X127965000Y-95175000D01*
X127965000Y-93825000D01*
X129615000Y-93825000D01*
X129615000Y-95175000D01*
G37*
X127965000Y-97195000D02*
X127965000Y-95845000D01*
X129615000Y-95845000D01*
X129615000Y-97195000D01*
X127965000Y-97195000D01*
G36*
X129615000Y-97195000D02*
G01*
X127965000Y-97195000D01*
X127965000Y-95845000D01*
X129615000Y-95845000D01*
X129615000Y-97195000D01*
G37*
X127965000Y-99215000D02*
X127965000Y-97865000D01*
X129615000Y-97865000D01*
X129615000Y-99215000D01*
X127965000Y-99215000D01*
G36*
X129615000Y-99215000D02*
G01*
X127965000Y-99215000D01*
X127965000Y-97865000D01*
X129615000Y-97865000D01*
X129615000Y-99215000D01*
G37*
X130725000Y-91135000D02*
X130725000Y-89785000D01*
X132375000Y-89785000D01*
X132375000Y-91135000D01*
X130725000Y-91135000D01*
G36*
X132375000Y-91135000D02*
G01*
X130725000Y-91135000D01*
X130725000Y-89785000D01*
X132375000Y-89785000D01*
X132375000Y-91135000D01*
G37*
X130725000Y-93155000D02*
X130725000Y-91805000D01*
X132375000Y-91805000D01*
X132375000Y-93155000D01*
X130725000Y-93155000D01*
G36*
X132375000Y-93155000D02*
G01*
X130725000Y-93155000D01*
X130725000Y-91805000D01*
X132375000Y-91805000D01*
X132375000Y-93155000D01*
G37*
X130725000Y-95175000D02*
X130725000Y-93825000D01*
X132375000Y-93825000D01*
X132375000Y-95175000D01*
X130725000Y-95175000D01*
G36*
X132375000Y-95175000D02*
G01*
X130725000Y-95175000D01*
X130725000Y-93825000D01*
X132375000Y-93825000D01*
X132375000Y-95175000D01*
G37*
X130725000Y-97195000D02*
X130725000Y-95845000D01*
X132375000Y-95845000D01*
X132375000Y-97195000D01*
X130725000Y-97195000D01*
G36*
X132375000Y-97195000D02*
G01*
X130725000Y-97195000D01*
X130725000Y-95845000D01*
X132375000Y-95845000D01*
X132375000Y-97195000D01*
G37*
X130725000Y-99215000D02*
X130725000Y-97865000D01*
X132375000Y-97865000D01*
X132375000Y-99215000D01*
X130725000Y-99215000D01*
G36*
X132375000Y-99215000D02*
G01*
X130725000Y-99215000D01*
X130725000Y-97865000D01*
X132375000Y-97865000D01*
X132375000Y-99215000D01*
G37*
%TD*%
D11*
%TO.C,R22*%
X144000000Y-34650000D03*
X144000000Y-36475000D03*
%TD*%
D12*
%TO.C,D10*%
X144000000Y-32250000D03*
X144000000Y-30375000D03*
%TD*%
D13*
%TO.C,C7*%
X181275000Y-88725000D03*
X181275000Y-96125000D03*
%TD*%
D11*
%TO.C,R24*%
X187115000Y-41137500D03*
X187115000Y-39312500D03*
%TD*%
D14*
%TO.C,R18*%
X121790000Y-74087500D03*
X121790000Y-75912500D03*
%TD*%
D15*
%TO.C,D8*%
X117000000Y-115000000D03*
X112000000Y-115000000D03*
%TD*%
D14*
%TO.C,R6*%
X145000000Y-82087500D03*
X145000000Y-83912500D03*
%TD*%
%TO.C,R5*%
X161000000Y-61087500D03*
X161000000Y-62912500D03*
%TD*%
D16*
%TO.C,C2*%
X175950000Y-68300000D03*
X175950000Y-66400000D03*
%TD*%
D17*
%TO.C,U7*%
X138450000Y-50310000D03*
X138450000Y-49040000D03*
X138450000Y-47770000D03*
X138450000Y-46500000D03*
X138450000Y-45230000D03*
X138450000Y-43960000D03*
X138450000Y-42690000D03*
%TD*%
D18*
%TO.C,R2*%
X255087500Y-31000000D03*
X256912500Y-31000000D03*
%TD*%
D19*
%TO.C,L1*%
X181275000Y-76605600D03*
X181275000Y-82244400D03*
%TD*%
D20*
%TO.C,U9*%
X157280000Y-70270000D03*
X157280000Y-67730000D03*
X148720000Y-67730000D03*
X148720000Y-70270000D03*
%TD*%
D14*
%TO.C,R3*%
X161000000Y-82087500D03*
X161000000Y-83912500D03*
%TD*%
D21*
%TO.C,D1*%
X240500000Y-92700000D03*
X236500000Y-92700000D03*
%TD*%
D20*
%TO.C,U4*%
X157280000Y-84270000D03*
X157280000Y-81730000D03*
X148720000Y-81730000D03*
X148720000Y-84270000D03*
%TD*%
D13*
%TO.C,C5*%
X208100000Y-88650000D03*
X208100000Y-96050000D03*
%TD*%
D22*
%TO.C,C9*%
X107500000Y-99200000D03*
X107500000Y-91800000D03*
%TD*%
D23*
%TO.C,U13*%
X131225000Y-108325000D03*
X131225000Y-113875000D03*
X136075000Y-108325000D03*
X136075000Y-113875000D03*
D24*
X124500000Y-107700000D03*
X124500000Y-109400000D03*
X124500000Y-111100000D03*
X124500000Y-112800000D03*
X124500000Y-114500000D03*
%TD*%
D25*
%TO.C,Q2*%
X119720000Y-31840000D03*
D26*
X122000000Y-25160000D03*
D25*
X124280000Y-31840000D03*
%TD*%
D27*
%TO.C,C6*%
X209375000Y-82350000D03*
X211275000Y-82350000D03*
%TD*%
D28*
%TO.C,U14*%
X185710000Y-50200000D03*
X186980000Y-50200000D03*
X188250000Y-50200000D03*
X189520000Y-50200000D03*
X189520000Y-45250000D03*
X188250000Y-45250000D03*
X186980000Y-45250000D03*
X185710000Y-45250000D03*
%TD*%
D29*
%TO.C,FH2*%
X114000000Y-23600000D03*
X114000000Y-30400000D03*
%TD*%
D14*
%TO.C,R12*%
X118790000Y-42087500D03*
X118790000Y-43912500D03*
%TD*%
D30*
%TO.C,D5*%
X255062500Y-34000000D03*
X256937500Y-34000000D03*
%TD*%
D14*
%TO.C,R21*%
X118790000Y-90087500D03*
X118790000Y-91912500D03*
%TD*%
D11*
%TO.C,R16*%
X145000000Y-69912500D03*
X145000000Y-68087500D03*
%TD*%
D31*
%TO.C,D7*%
X134000000Y-26250000D03*
X134000000Y-22750000D03*
%TD*%
D14*
%TO.C,R10*%
X121790000Y-58087500D03*
X121790000Y-59912500D03*
%TD*%
D29*
%TO.C,FH1*%
X248500000Y-100500000D03*
X248500000Y-93700000D03*
%TD*%
D32*
%TO.C,U2*%
X197275000Y-90075000D03*
X191725000Y-90075000D03*
X197275000Y-94925000D03*
X191725000Y-94925000D03*
D33*
X197900000Y-83350000D03*
X196200000Y-83350000D03*
X194500000Y-83350000D03*
X192800000Y-83350000D03*
X191100000Y-83350000D03*
%TD*%
D11*
%TO.C,R23*%
X184615000Y-41137500D03*
X184615000Y-39312500D03*
%TD*%
D14*
%TO.C,R19*%
X121790000Y-90087500D03*
X121790000Y-91912500D03*
%TD*%
D15*
%TO.C,D3*%
X205600000Y-78350000D03*
X210600000Y-78350000D03*
%TD*%
D34*
%TO.C,C3*%
X191450000Y-60875000D03*
X191450000Y-63825000D03*
%TD*%
D35*
%TO.C,R1*%
X231325000Y-92700000D03*
X229500000Y-92700000D03*
%TD*%
D17*
%TO.C,U11*%
X138450000Y-82310000D03*
X138450000Y-81040000D03*
X138450000Y-79770000D03*
X138450000Y-78500000D03*
X138450000Y-77230000D03*
X138450000Y-75960000D03*
X138450000Y-74690000D03*
%TD*%
D36*
%TO.C,C10*%
X113450000Y-111000000D03*
X111550000Y-111000000D03*
%TD*%
D14*
%TO.C,R13*%
X118877500Y-58087500D03*
X118877500Y-59912500D03*
%TD*%
D20*
%TO.C,U10*%
X157280000Y-77270000D03*
X157280000Y-74730000D03*
X148720000Y-74730000D03*
X148720000Y-77270000D03*
%TD*%
D37*
%TO.C,Q1*%
X232500000Y-97200000D03*
D38*
X239180000Y-99480000D03*
D37*
X232500000Y-101760000D03*
%TD*%
D20*
%TO.C,U5*%
X157280000Y-56270000D03*
X157280000Y-53730000D03*
X148720000Y-53730000D03*
X148720000Y-56270000D03*
%TD*%
D11*
%TO.C,R8*%
X145000000Y-62912500D03*
X145000000Y-61087500D03*
%TD*%
D19*
%TO.C,L2*%
X157000000Y-116250000D03*
X157000000Y-110611200D03*
%TD*%
D39*
%TO.C,D11*%
X189715000Y-39275000D03*
X189715000Y-41175000D03*
X192015000Y-40225000D03*
%TD*%
D20*
%TO.C,U6*%
X157280000Y-63270000D03*
X157280000Y-60730000D03*
X148720000Y-60730000D03*
X148720000Y-63270000D03*
%TD*%
D22*
%TO.C,C11*%
X146000000Y-115400000D03*
X146000000Y-108000000D03*
%TD*%
D14*
%TO.C,R11*%
X138000000Y-22587500D03*
X138000000Y-24412500D03*
%TD*%
D40*
%TO.C,D6*%
X129000000Y-27500000D03*
X129000000Y-23500000D03*
%TD*%
D11*
%TO.C,R17*%
X145000000Y-76912500D03*
X145000000Y-75087500D03*
%TD*%
D16*
%TO.C,C4*%
X191450000Y-68300000D03*
X191450000Y-66400000D03*
%TD*%
D31*
%TO.C,D2*%
X227000000Y-100750000D03*
X227000000Y-97250000D03*
%TD*%
D41*
%TO.C,D9*%
X155000000Y-105750000D03*
X159000000Y-105750000D03*
%TD*%
D42*
%TO.C,C8*%
X107500000Y-40000000D03*
X107500000Y-48000000D03*
%TD*%
D17*
%TO.C,U8*%
X138450000Y-66310000D03*
X138450000Y-65040000D03*
X138450000Y-63770000D03*
X138450000Y-62500000D03*
X138450000Y-61230000D03*
X138450000Y-59960000D03*
X138450000Y-58690000D03*
%TD*%
D14*
%TO.C,R4*%
X161000000Y-54087500D03*
X161000000Y-55912500D03*
%TD*%
D17*
%TO.C,U12*%
X138450000Y-98310000D03*
X138450000Y-97040000D03*
X138450000Y-95770000D03*
X138450000Y-94500000D03*
X138450000Y-93230000D03*
X138450000Y-91960000D03*
X138450000Y-90690000D03*
%TD*%
D14*
%TO.C,R15*%
X161000000Y-75087500D03*
X161000000Y-76912500D03*
%TD*%
%TO.C,R14*%
X161087500Y-68087500D03*
X161087500Y-69912500D03*
%TD*%
D34*
%TO.C,C1*%
X175950000Y-60875000D03*
X175950000Y-63825000D03*
%TD*%
D40*
%TO.C,D4*%
X250500000Y-34000000D03*
X250500000Y-30000000D03*
%TD*%
D43*
%TO.C,U1*%
X186050000Y-60850000D03*
X183750000Y-60850000D03*
D44*
X183750000Y-67150000D03*
D43*
X181450000Y-60850000D03*
%TD*%
D11*
%TO.C,R7*%
X145000000Y-55912500D03*
X145000000Y-54087500D03*
%TD*%
D14*
%TO.C,R20*%
X118790000Y-74087500D03*
X118790000Y-75912500D03*
%TD*%
%TO.C,R9*%
X121790000Y-42087500D03*
X121790000Y-43912500D03*
%TD*%
M02*
