%TF.GenerationSoftware,KiCad,Pcbnew,10.0.5*%
%TF.CreationDate,2026-08-13T14:41:52+07:00*%
%TF.ProjectId,main_controller_hat,6d61696e-5f63-46f6-9e74-726f6c6c6572,rev?*%
%TF.SameCoordinates,Original*%
%TF.FileFunction,Copper,L1,Top*%
%TF.FilePolarity,Positive*%
%FSLAX46Y46*%
G04 Gerber Fmt 4.6, Leading zero omitted, Abs format (unit mm)*
G04 Created by KiCad (PCBNEW 10.0.5) date 2026-08-13 14:41:52*
%MOMM*%
%LPD*%
G01*
G04 APERTURE LIST*
G04 Aperture macros list*
%AMRoundRect*
0 Rectangle with rounded corners*
0 $1 Rounding radius*
0 $2 $3 $4 $5 $6 $7 $8 $9 X,Y pos of 4 corners*
0 Add a 4 corners polygon primitive as box body*
4,1,4,$2,$3,$4,$5,$6,$7,$8,$9,$2,$3,0*
0 Add four circle primitives for the rounded corners*
1,1,$1+$1,$2,$3*
1,1,$1+$1,$4,$5*
1,1,$1+$1,$6,$7*
1,1,$1+$1,$8,$9*
0 Add four rect primitives between the rounded corners*
20,1,$1+$1,$2,$3,$4,$5,0*
20,1,$1+$1,$4,$5,$6,$7,0*
20,1,$1+$1,$6,$7,$8,$9,0*
20,1,$1+$1,$8,$9,$2,$3,0*%
G04 Aperture macros list end*
%TA.AperFunction,SMDPad,CuDef*%
%ADD10R,1.000000X0.800000*%
%TD*%
%TA.AperFunction,SMDPad,CuDef*%
%ADD11RoundRect,0.250000X-2.050000X-0.300000X2.050000X-0.300000X2.050000X0.300000X-2.050000X0.300000X0*%
%TD*%
%TA.AperFunction,SMDPad,CuDef*%
%ADD12RoundRect,0.250002X-4.449998X-5.149998X4.449998X-5.149998X4.449998X5.149998X-4.449998X5.149998X0*%
%TD*%
%TA.AperFunction,SMDPad,CuDef*%
%ADD13RoundRect,0.250000X0.650000X-1.000000X0.650000X1.000000X-0.650000X1.000000X-0.650000X-1.000000X0*%
%TD*%
%TA.AperFunction,SMDPad,CuDef*%
%ADD14RoundRect,0.250000X0.600000X-0.400000X0.600000X0.400000X-0.600000X0.400000X-0.600000X-0.400000X0*%
%TD*%
%TA.AperFunction,SMDPad,CuDef*%
%ADD15R,1.200000X3.000000*%
%TD*%
%TA.AperFunction,SMDPad,CuDef*%
%ADD16R,6.000000X6.500000*%
%TD*%
%TA.AperFunction,SMDPad,CuDef*%
%ADD17RoundRect,0.250000X-0.450000X0.262500X-0.450000X-0.262500X0.450000X-0.262500X0.450000X0.262500X0*%
%TD*%
%TA.AperFunction,SMDPad,CuDef*%
%ADD18RoundRect,0.375000X-0.375000X0.625000X-0.375000X-0.625000X0.375000X-0.625000X0.375000X0.625000X0*%
%TD*%
%TA.AperFunction,SMDPad,CuDef*%
%ADD19RoundRect,0.500000X-1.400000X0.500000X-1.400000X-0.500000X1.400000X-0.500000X1.400000X0.500000X0*%
%TD*%
%TA.AperFunction,SMDPad,CuDef*%
%ADD20RoundRect,0.250000X0.450000X-0.262500X0.450000X0.262500X-0.450000X0.262500X-0.450000X-0.262500X0*%
%TD*%
%TA.AperFunction,SMDPad,CuDef*%
%ADD21RoundRect,0.243750X-0.456250X0.243750X-0.456250X-0.243750X0.456250X-0.243750X0.456250X0.243750X0*%
%TD*%
%TA.AperFunction,SMDPad,CuDef*%
%ADD22RoundRect,0.250000X-1.000000X1.950000X-1.000000X-1.950000X1.000000X-1.950000X1.000000X1.950000X0*%
%TD*%
%TA.AperFunction,SMDPad,CuDef*%
%ADD23R,2.060000X1.540000*%
%TD*%
%TA.AperFunction,ComponentPad*%
%ADD24RoundRect,0.250000X0.550000X0.550000X-0.550000X0.550000X-0.550000X-0.550000X0.550000X-0.550000X0*%
%TD*%
%TA.AperFunction,ComponentPad*%
%ADD25C,1.600000*%
%TD*%
%TA.AperFunction,SMDPad,CuDef*%
%ADD26R,3.810000X0.800000*%
%TD*%
%TA.AperFunction,SMDPad,CuDef*%
%ADD27R,8.290000X10.070000*%
%TD*%
%TA.AperFunction,ComponentPad*%
%ADD28C,3.600000*%
%TD*%
%TA.AperFunction,ConnectorPad*%
%ADD29C,5.600000*%
%TD*%
%TA.AperFunction,SMDPad,CuDef*%
%ADD30RoundRect,0.250000X1.000000X0.650000X-1.000000X0.650000X-1.000000X-0.650000X1.000000X-0.650000X0*%
%TD*%
%TA.AperFunction,SMDPad,CuDef*%
%ADD31RoundRect,0.250000X-0.262500X-0.450000X0.262500X-0.450000X0.262500X0.450000X-0.262500X0.450000X0*%
%TD*%
%TA.AperFunction,ComponentPad*%
%ADD32RoundRect,0.249999X0.790001X1.550001X-0.790001X1.550001X-0.790001X-1.550001X0.790001X-1.550001X0*%
%TD*%
%TA.AperFunction,ComponentPad*%
%ADD33O,2.080000X3.600000*%
%TD*%
%TA.AperFunction,SMDPad,CuDef*%
%ADD34RoundRect,0.250000X1.000000X-1.950000X1.000000X1.950000X-1.000000X1.950000X-1.000000X-1.950000X0*%
%TD*%
%TA.AperFunction,SMDPad,CuDef*%
%ADD35RoundRect,0.250000X0.475000X-0.250000X0.475000X0.250000X-0.475000X0.250000X-0.475000X-0.250000X0*%
%TD*%
%TA.AperFunction,SMDPad,CuDef*%
%ADD36R,3.505200X2.260600*%
%TD*%
%TA.AperFunction,ComponentPad*%
%ADD37R,1.700000X1.700000*%
%TD*%
%TA.AperFunction,ComponentPad*%
%ADD38C,1.700000*%
%TD*%
%TA.AperFunction,ComponentPad*%
%ADD39RoundRect,0.250500X-0.499500X-0.499500X0.499500X-0.499500X0.499500X0.499500X-0.499500X0.499500X0*%
%TD*%
%TA.AperFunction,ComponentPad*%
%ADD40C,1.500000*%
%TD*%
%TA.AperFunction,ComponentPad*%
%ADD41C,2.500000*%
%TD*%
%TA.AperFunction,ComponentPad*%
%ADD42RoundRect,0.250000X-1.050000X1.050000X-1.050000X-1.050000X1.050000X-1.050000X1.050000X1.050000X0*%
%TD*%
%TA.AperFunction,ComponentPad*%
%ADD43C,2.600000*%
%TD*%
%TA.AperFunction,ComponentPad*%
%ADD44RoundRect,0.250000X-0.600000X-0.725000X0.600000X-0.725000X0.600000X0.725000X-0.600000X0.725000X0*%
%TD*%
%TA.AperFunction,ComponentPad*%
%ADD45O,1.700000X1.950000*%
%TD*%
%TA.AperFunction,SMDPad,CuDef*%
%ADD46RoundRect,0.243750X-0.243750X-0.456250X0.243750X-0.456250X0.243750X0.456250X-0.243750X0.456250X0*%
%TD*%
%TA.AperFunction,SMDPad,CuDef*%
%ADD47RoundRect,0.250000X-0.250000X-0.475000X0.250000X-0.475000X0.250000X0.475000X-0.250000X0.475000X0*%
%TD*%
%TA.AperFunction,SMDPad,CuDef*%
%ADD48RoundRect,0.150000X0.150000X-0.825000X0.150000X0.825000X-0.150000X0.825000X-0.150000X-0.825000X0*%
%TD*%
%TA.AperFunction,SMDPad,CuDef*%
%ADD49R,3.000000X3.800000*%
%TD*%
%TA.AperFunction,SMDPad,CuDef*%
%ADD50RoundRect,0.250000X-0.300000X2.050000X-0.300000X-2.050000X0.300000X-2.050000X0.300000X2.050000X0*%
%TD*%
%TA.AperFunction,SMDPad,CuDef*%
%ADD51RoundRect,0.250002X-5.149998X4.449998X-5.149998X-4.449998X5.149998X-4.449998X5.149998X4.449998X0*%
%TD*%
%TA.AperFunction,SMDPad,CuDef*%
%ADD52RoundRect,0.250000X-0.650000X0.325000X-0.650000X-0.325000X0.650000X-0.325000X0.650000X0.325000X0*%
%TD*%
%TA.AperFunction,SMDPad,CuDef*%
%ADD53R,3.000000X1.200000*%
%TD*%
%TA.AperFunction,SMDPad,CuDef*%
%ADD54R,6.500000X6.000000*%
%TD*%
%TA.AperFunction,ComponentPad*%
%ADD55RoundRect,0.249999X-0.790001X-1.550001X0.790001X-1.550001X0.790001X1.550001X-0.790001X1.550001X0*%
%TD*%
%TA.AperFunction,SMDPad,CuDef*%
%ADD56RoundRect,0.250000X0.262500X0.450000X-0.262500X0.450000X-0.262500X-0.450000X0.262500X-0.450000X0*%
%TD*%
%TA.AperFunction,SMDPad,CuDef*%
%ADD57RoundRect,0.250000X0.250000X0.475000X-0.250000X0.475000X-0.250000X-0.475000X0.250000X-0.475000X0*%
%TD*%
%TA.AperFunction,ComponentPad*%
%ADD58R,1.600000X1.600000*%
%TD*%
%TA.AperFunction,ComponentPad*%
%ADD59R,1.300000X1.300000*%
%TD*%
%TA.AperFunction,ComponentPad*%
%ADD60C,1.300000*%
%TD*%
%TA.AperFunction,SMDPad,CuDef*%
%ADD61RoundRect,0.250000X-1.000000X-0.650000X1.000000X-0.650000X1.000000X0.650000X-1.000000X0.650000X0*%
%TD*%
%TA.AperFunction,SMDPad,CuDef*%
%ADD62RoundRect,0.250000X-1.000000X1.750000X-1.000000X-1.750000X1.000000X-1.750000X1.000000X1.750000X0*%
%TD*%
%TA.AperFunction,ComponentPad*%
%ADD63RoundRect,0.250000X-1.050000X-1.050000X1.050000X-1.050000X1.050000X1.050000X-1.050000X1.050000X0*%
%TD*%
%TA.AperFunction,ViaPad*%
%ADD64C,1.270000*%
%TD*%
%TA.AperFunction,Conductor*%
%ADD65C,0.300000*%
%TD*%
%TA.AperFunction,Conductor*%
%ADD66C,0.500000*%
%TD*%
%TA.AperFunction,Conductor*%
%ADD67C,2.000000*%
%TD*%
%TA.AperFunction,Conductor*%
%ADD68C,1.000000*%
%TD*%
%TA.AperFunction,Conductor*%
%ADD69C,0.200000*%
%TD*%
G04 APERTURE END LIST*
D10*
%TO.P,D11,3,3_3*%
%TO.N,GND*%
X192015000Y-40225000D03*
%TO.P,D11,2,2_2*%
%TO.N,Net-(J4-Pin_2)*%
X189715000Y-41175000D03*
%TO.P,D11,1,1_1*%
%TO.N,Net-(J4-Pin_3)*%
X189715000Y-39275000D03*
%TD*%
D11*
%TO.P,U14,5,~{ON}/OFF_5*%
%TO.N,GNDA*%
X124500000Y-114500000D03*
%TO.P,U14,4,FB_4*%
%TO.N,+5VA*%
X124500000Y-112800000D03*
D12*
%TO.P,U14,3,GND_3*%
%TO.N,GNDA*%
X133650000Y-111100000D03*
D11*
X124500000Y-111100000D03*
%TO.P,U14,2,OUT_2*%
%TO.N,Net-(D8-K)*%
X124500000Y-109400000D03*
%TO.P,U14,1,VIN_1*%
%TO.N,+21VA*%
X124500000Y-107700000D03*
%TD*%
D13*
%TO.P,D10,1,A1_1*%
%TO.N,Net-(D10-A1)*%
X129000000Y-27500000D03*
%TO.P,D10,2,A2_2*%
%TO.N,GNDA*%
X129000000Y-23500000D03*
%TD*%
D14*
%TO.P,D7,1,K_1*%
%TO.N,+21VA*%
X134000000Y-26250000D03*
%TO.P,D7,2,A_2*%
%TO.N,Net-(D7-A)*%
X134000000Y-22750000D03*
%TD*%
D15*
%TO.P,Q2,1,G_1*%
%TO.N,Net-(D7-A)*%
X119720000Y-31840000D03*
D16*
%TO.P,Q2,2,D_2*%
%TO.N,Net-(D10-A1)*%
X122000000Y-25160000D03*
D15*
%TO.P,Q2,3,S_3*%
%TO.N,+21VA*%
X124280000Y-31840000D03*
%TD*%
D17*
%TO.P,R7,1*%
%TO.N,Net-(U8-SR)*%
X121790000Y-42087500D03*
%TO.P,R7,2*%
%TO.N,GNDA*%
X121790000Y-43912500D03*
%TD*%
D18*
%TO.P,U3,1,GND_1*%
%TO.N,GND*%
X186050000Y-60850000D03*
%TO.P,U3,2,VO_2*%
%TO.N,+3.3V*%
X183750000Y-60850000D03*
D19*
X183750000Y-67150000D03*
D18*
%TO.P,U3,3,VI_3*%
%TO.N,+5V*%
X181450000Y-60850000D03*
%TD*%
D17*
%TO.P,R6,1*%
%TO.N,Net-(U9-IS)*%
X118790000Y-74087500D03*
%TO.P,R6,2*%
%TO.N,GNDA*%
X118790000Y-75912500D03*
%TD*%
D20*
%TO.P,R15,1*%
%TO.N,+5VA*%
X144000000Y-36475000D03*
%TO.P,R15,2*%
%TO.N,Net-(D9-A)*%
X144000000Y-34650000D03*
%TD*%
D21*
%TO.P,D9,1,K_1*%
%TO.N,GNDA*%
X144000000Y-30375000D03*
%TO.P,D9,2,A_2*%
%TO.N,Net-(D9-A)*%
X144000000Y-32250000D03*
%TD*%
D20*
%TO.P,R17,1*%
%TO.N,Net-(J4-Pin_2)*%
X187115000Y-41137500D03*
%TO.P,R17,2*%
%TO.N,Net-(J4-Pin_3)*%
X187115000Y-39312500D03*
%TD*%
D22*
%TO.P,C3,1*%
%TO.N,+5V*%
X181275000Y-88725000D03*
%TO.P,C3,2*%
%TO.N,GND*%
X181275000Y-96125000D03*
%TD*%
D17*
%TO.P,R8,1*%
%TO.N,Net-(U9-SR)*%
X121790000Y-74087500D03*
%TO.P,R8,2*%
%TO.N,GNDA*%
X121790000Y-75912500D03*
%TD*%
D23*
%TO.P,D8,1,K_1*%
%TO.N,Net-(D8-K)*%
X117000000Y-115000000D03*
%TO.P,D8,2,A_2*%
%TO.N,GNDA*%
X112000000Y-115000000D03*
%TD*%
D24*
%TO.P,U10,1,NC_1*%
%TO.N,unconnected-(U10-NC-Pad1)*%
X154120000Y-66580000D03*
D25*
%TO.P,U10,2,A_2*%
%TO.N,LPWM*%
X154120000Y-64040000D03*
%TO.P,U10,3,C_3*%
%TO.N,GND*%
X154120000Y-61500000D03*
%TO.P,U10,4,NC_4*%
%TO.N,unconnected-(U10-NC-Pad4)*%
X154120000Y-58960000D03*
%TO.P,U10,5,GND_5*%
%TO.N,GNDA*%
X146500000Y-58960000D03*
%TO.P,U10,6,VO_6*%
%TO.N,Net-(U10-VO)*%
X146500000Y-61500000D03*
%TO.P,U10,7,EN_7*%
%TO.N,+5VA*%
X146500000Y-64040000D03*
%TO.P,U10,8,VCC_8*%
X146500000Y-66580000D03*
%TD*%
D26*
%TO.P,U8,1,GND_1*%
%TO.N,GNDA*%
X138450000Y-50310000D03*
%TO.P,U8,2,IN_2*%
%TO.N,Net-(U6-VO)*%
X138450000Y-49040000D03*
%TO.P,U8,3,INH_3*%
%TO.N,+5VA*%
X138450000Y-47770000D03*
%TO.P,U8,4,OUT_4*%
%TO.N,M1_R*%
X138450000Y-46500000D03*
%TO.P,U8,5,SR_5*%
%TO.N,Net-(U8-SR)*%
X138450000Y-45230000D03*
%TO.P,U8,6,IS_6*%
%TO.N,Net-(U8-IS)*%
X138450000Y-43960000D03*
%TO.P,U8,7,VS_7*%
%TO.N,+21VA*%
X138450000Y-42690000D03*
D27*
%TO.P,U8,8,OUT_8*%
%TO.N,M1_R*%
X128790000Y-46500000D03*
%TD*%
D24*
%TO.P,U7,1,NC_1*%
%TO.N,unconnected-(U7-NC-Pad1)*%
X154120000Y-82580000D03*
D25*
%TO.P,U7,2,A_2*%
%TO.N,RPWM1*%
X154120000Y-80040000D03*
%TO.P,U7,3,C_3*%
%TO.N,GND*%
X154120000Y-77500000D03*
%TO.P,U7,4,NC_4*%
%TO.N,unconnected-(U7-NC-Pad4)*%
X154120000Y-74960000D03*
%TO.P,U7,5,GND_5*%
%TO.N,GNDA*%
X146500000Y-74960000D03*
%TO.P,U7,6,VO_6*%
%TO.N,Net-(U7-VO)*%
X146500000Y-77500000D03*
%TO.P,U7,7,EN_7*%
%TO.N,+5VA*%
X146500000Y-80040000D03*
%TO.P,U7,8,VCC_8*%
X146500000Y-82580000D03*
%TD*%
D28*
%TO.P,H1,1*%
%TO.N,N/C*%
X104000000Y-24000000D03*
D29*
X104000000Y-24000000D03*
%TD*%
D30*
%TO.P,D3,1,A1_1*%
%TO.N,Net-(D3-A1)*%
X240500000Y-92700000D03*
%TO.P,D3,2,A2_2*%
%TO.N,GND*%
X236500000Y-92700000D03*
%TD*%
D31*
%TO.P,R1,1*%
%TO.N,+5V*%
X255087500Y-31000000D03*
%TO.P,R1,2*%
%TO.N,Net-(D5-A)*%
X256912500Y-31000000D03*
%TD*%
D32*
%TO.P,J6,1,Pin_1_1*%
%TO.N,GND*%
X173085000Y-30777500D03*
D33*
%TO.P,J6,2,Pin_2_2*%
%TO.N,TX*%
X168005000Y-30777500D03*
%TO.P,J6,3,Pin_3_3*%
%TO.N,RX*%
X162925000Y-30777500D03*
%TD*%
D34*
%TO.P,C10,1*%
%TO.N,+21VA*%
X107500000Y-99200000D03*
%TO.P,C10,2*%
%TO.N,GNDA*%
X107500000Y-91800000D03*
%TD*%
D24*
%TO.P,U11,1,NC_1*%
%TO.N,unconnected-(U11-NC-Pad1)*%
X153805000Y-98310000D03*
D25*
%TO.P,U11,2,A_2*%
%TO.N,LPWM1*%
X153805000Y-95770000D03*
%TO.P,U11,3,C_3*%
%TO.N,GND*%
X153805000Y-93230000D03*
%TO.P,U11,4,NC_4*%
%TO.N,unconnected-(U11-NC-Pad4)*%
X153805000Y-90690000D03*
%TO.P,U11,5,GND_5*%
%TO.N,GNDA*%
X146185000Y-90690000D03*
%TO.P,U11,6,VO_6*%
%TO.N,Net-(U11-VO)*%
X146185000Y-93230000D03*
%TO.P,U11,7,EN_7*%
%TO.N,+5VA*%
X146185000Y-95770000D03*
%TO.P,U11,8,VCC_8*%
X146185000Y-98310000D03*
%TD*%
D35*
%TO.P,C5,1*%
%TO.N,+5V*%
X175950000Y-68300000D03*
%TO.P,C5,2*%
%TO.N,GND*%
X175950000Y-66400000D03*
%TD*%
D36*
%TO.P,L1,1,1_1*%
%TO.N,Net-(D4-K)*%
X181275000Y-76605600D03*
%TO.P,L1,2,2_2*%
%TO.N,+5V*%
X181275000Y-82244400D03*
%TD*%
D37*
%TO.P,J2,1,Pin_1_1*%
%TO.N,Net-(J2-Pin_1)*%
X253000000Y-79790000D03*
D38*
%TO.P,J2,2,Pin_2_2*%
%TO.N,Net-(J2-Pin_2)*%
X253000000Y-77250000D03*
%TO.P,J2,3,Pin_3_3*%
%TO.N,Net-(J2-Pin_3)*%
X253000000Y-74710000D03*
%TO.P,J2,4,Pin_4_4*%
%TO.N,Net-(J2-Pin_4)*%
X253000000Y-72170000D03*
%TO.P,J2,5,Pin_5_5*%
%TO.N,Net-(J2-Pin_5)*%
X253000000Y-69630000D03*
%TO.P,J2,6,Pin_6_6*%
%TO.N,Net-(J2-Pin_6)*%
X253000000Y-67090000D03*
%TO.P,J2,7,Pin_7_7*%
%TO.N,Net-(J2-Pin_7)*%
X253000000Y-64550000D03*
%TO.P,J2,8,Pin_8_8*%
%TO.N,Net-(J2-Pin_8)*%
X253000000Y-62010000D03*
%TO.P,J2,9,Pin_9_9*%
%TO.N,Net-(J2-Pin_9)*%
X253000000Y-59470000D03*
%TO.P,J2,10,Pin_10_10*%
%TO.N,Net-(J2-Pin_10)*%
X253000000Y-56930000D03*
%TD*%
D22*
%TO.P,C1,1*%
%TO.N,+21V*%
X208100000Y-88650000D03*
%TO.P,C1,2*%
%TO.N,GND*%
X208100000Y-96050000D03*
%TD*%
D39*
%TO.P,J3,1,TD+_1*%
%TO.N,T+*%
X207560000Y-24390000D03*
D40*
%TO.P,J3,2,TD-_2*%
%TO.N,T-*%
X208820000Y-21850000D03*
%TO.P,J3,3,RD+_3*%
%TO.N,R+*%
X210100000Y-24390000D03*
%TO.P,J3,4,TCT_4*%
%TO.N,Net-(J3-RCT)*%
X211360000Y-21850000D03*
%TO.P,J3,5,RCT_5*%
X212640000Y-24390000D03*
%TO.P,J3,6,RD-_6*%
%TO.N,R-*%
X213900000Y-21850000D03*
%TO.P,J3,7,NC_7*%
%TO.N,unconnected-(J3-NC-Pad7)*%
X215180000Y-24390000D03*
%TO.P,J3,8*%
%TO.N,GND*%
X216440000Y-21850000D03*
%TO.P,J3,9*%
%TO.N,Net-(J3-Pad9)*%
X205375000Y-35650000D03*
%TO.P,J3,10*%
%TO.N,GND*%
X207915000Y-35650000D03*
%TO.P,J3,11*%
X216085000Y-35650000D03*
%TO.P,J3,12*%
%TO.N,LED*%
X218625000Y-35650000D03*
D41*
%TO.P,J3,SH*%
%TO.N,unconnected-(J3-PadSH)*%
X204255000Y-27700000D03*
X219745000Y-27700000D03*
%TD*%
D42*
%TO.P,J14,1,Pin_1_1*%
%TO.N,GNDA*%
X105500000Y-57260000D03*
D43*
%TO.P,J14,2,Pin_2_2*%
%TO.N,+BATT*%
X105500000Y-62340000D03*
%TO.P,J14,3,Pin_3_3*%
%TO.N,M1_R*%
X105500000Y-67420000D03*
%TO.P,J14,4,Pin_4_4*%
%TO.N,M1_L*%
X105500000Y-72500000D03*
%TO.P,J14,5,Pin_5_5*%
%TO.N,M2_R*%
X105500000Y-77580000D03*
%TO.P,J14,6,Pin_6_6*%
%TO.N,M2_L*%
X105500000Y-82660000D03*
%TD*%
D17*
%TO.P,R13,1*%
%TO.N,Net-(U12-SR)*%
X121790000Y-58087500D03*
%TO.P,R13,2*%
%TO.N,GNDA*%
X121790000Y-59912500D03*
%TD*%
%TO.P,R12,1*%
%TO.N,Net-(U13-IS)*%
X118790000Y-90087500D03*
%TO.P,R12,2*%
%TO.N,GNDA*%
X118790000Y-91912500D03*
%TD*%
D44*
%TO.P,J5,1,Pin_1_1*%
%TO.N,GND*%
X208500000Y-53000000D03*
D45*
%TO.P,J5,2,Pin_2_2*%
%TO.N,+3.3V*%
X211000000Y-53000000D03*
%TO.P,J5,3,Pin_3_3*%
%TO.N,SDA*%
X213500000Y-53000000D03*
%TO.P,J5,4,Pin_4_4*%
%TO.N,SCL*%
X216000000Y-53000000D03*
%TD*%
D46*
%TO.P,D5,1,K_1*%
%TO.N,GND*%
X255062500Y-34000000D03*
%TO.P,D5,2,A_2*%
%TO.N,Net-(D5-A)*%
X256937500Y-34000000D03*
%TD*%
D47*
%TO.P,C2,1*%
%TO.N,+21V*%
X209375000Y-82350000D03*
%TO.P,C2,2*%
%TO.N,GND*%
X211275000Y-82350000D03*
%TD*%
D48*
%TO.P,U15,1,D_1*%
%TO.N,CTX1*%
X185710000Y-50200000D03*
%TO.P,U15,2,GND_2*%
%TO.N,GND*%
X186980000Y-50200000D03*
%TO.P,U15,3,VCC_3*%
%TO.N,+3.3V*%
X188250000Y-50200000D03*
%TO.P,U15,4,R_4*%
%TO.N,CRX1*%
X189520000Y-50200000D03*
%TO.P,U15,5,Vref_5*%
%TO.N,unconnected-(U15-Vref-Pad5)*%
X189520000Y-45250000D03*
%TO.P,U15,6,CANL_6*%
%TO.N,Net-(J4-Pin_3)*%
X188250000Y-45250000D03*
%TO.P,U15,7,CANH_7*%
%TO.N,Net-(J4-Pin_2)*%
X186980000Y-45250000D03*
%TO.P,U15,8,Rs_8*%
%TO.N,Net-(U15-Rs)*%
X185710000Y-45250000D03*
%TD*%
D49*
%TO.P,FH2,1,1_1*%
%TO.N,+BATT*%
X114000000Y-23600000D03*
%TO.P,FH2,2,2_2*%
%TO.N,Net-(D10-A1)*%
X114000000Y-30400000D03*
%TD*%
D17*
%TO.P,R5,1*%
%TO.N,Net-(U8-IS)*%
X118790000Y-42087500D03*
%TO.P,R5,2*%
%TO.N,GNDA*%
X118790000Y-43912500D03*
%TD*%
D28*
%TO.P,H3,1*%
%TO.N,N/C*%
X104000000Y-116000000D03*
D29*
X104000000Y-116000000D03*
%TD*%
D20*
%TO.P,R19,1*%
%TO.N,Net-(U15-Rs)*%
X184615000Y-41137500D03*
%TO.P,R19,2*%
%TO.N,GND*%
X184615000Y-39312500D03*
%TD*%
D49*
%TO.P,FH1,1,1_1*%
%TO.N,Net-(J1-Pin_2)*%
X248500000Y-100500000D03*
%TO.P,FH1,2,2_2*%
%TO.N,Net-(D3-A1)*%
X248500000Y-93700000D03*
%TD*%
D32*
%TO.P,J4,1,Pin_1_1*%
%TO.N,GND*%
X193085000Y-30777500D03*
D33*
%TO.P,J4,2,Pin_2_2*%
%TO.N,Net-(J4-Pin_2)*%
X188005000Y-30777500D03*
%TO.P,J4,3,Pin_3_3*%
%TO.N,Net-(J4-Pin_3)*%
X182925000Y-30777500D03*
%TD*%
D50*
%TO.P,U1,1,VIN_1*%
%TO.N,+21V*%
X197900000Y-83350000D03*
%TO.P,U1,2,OUT_2*%
%TO.N,Net-(D4-K)*%
X196200000Y-83350000D03*
%TO.P,U1,3,GND_3*%
%TO.N,GND*%
X194500000Y-83350000D03*
D51*
X194500000Y-92500000D03*
D50*
%TO.P,U1,4,FB_4*%
%TO.N,+5V*%
X192800000Y-83350000D03*
%TO.P,U1,5,~{ON}/OFF_5*%
%TO.N,GND*%
X191100000Y-83350000D03*
%TD*%
D37*
%TO.P,J9,1,Pin_1_1*%
%TO.N,GND*%
X253000000Y-39300000D03*
D38*
%TO.P,J9,2,Pin_2_2*%
%TO.N,unconnected-(J9-Pin_2-Pad2)*%
X253000000Y-41840000D03*
%TO.P,J9,3,Pin_3_3*%
%TO.N,unconnected-(J9-Pin_3-Pad3)*%
X253000000Y-44380000D03*
%TO.P,J9,4,Pin_4_4*%
%TO.N,SCL*%
X253000000Y-46920000D03*
%TO.P,J9,5,Pin_5_5*%
%TO.N,SDA*%
X253000000Y-49460000D03*
%TO.P,J9,6,Pin_6_6*%
%TO.N,+3.3V*%
X253000000Y-52000000D03*
%TD*%
D23*
%TO.P,D4,1,K_1*%
%TO.N,Net-(D4-K)*%
X205600000Y-78350000D03*
%TO.P,D4,2,A_2*%
%TO.N,GND*%
X210600000Y-78350000D03*
%TD*%
D52*
%TO.P,C6,1*%
%TO.N,+3.3V*%
X191450000Y-60875000D03*
%TO.P,C6,2*%
%TO.N,GND*%
X191450000Y-63825000D03*
%TD*%
D53*
%TO.P,Q1,1,G_1*%
%TO.N,Net-(D1-A)*%
X232500000Y-97200000D03*
D54*
%TO.P,Q1,2,D_2*%
%TO.N,Net-(D3-A1)*%
X239180000Y-99480000D03*
D53*
%TO.P,Q1,3,S_3*%
%TO.N,+21V*%
X232500000Y-101760000D03*
%TD*%
D55*
%TO.P,J8,1,Pin_1_1*%
%TO.N,GND*%
X176380000Y-109222500D03*
D33*
%TO.P,J8,2,Pin_2_2*%
%TO.N,Net-(J8-Pin_2)*%
X181460000Y-109222500D03*
%TO.P,J8,3,Pin_3_3*%
%TO.N,Net-(J8-Pin_3)*%
X186540000Y-109222500D03*
%TO.P,J8,4,Pin_4_4*%
%TO.N,+5V*%
X191620000Y-109222500D03*
%TD*%
D17*
%TO.P,R14,1*%
%TO.N,Net-(U13-SR)*%
X121790000Y-90087500D03*
%TO.P,R14,2*%
%TO.N,GNDA*%
X121790000Y-91912500D03*
%TD*%
D56*
%TO.P,R2,1*%
%TO.N,GND*%
X231325000Y-92700000D03*
%TO.P,R2,2*%
%TO.N,Net-(D1-A)*%
X229500000Y-92700000D03*
%TD*%
D26*
%TO.P,U9,1,GND_1*%
%TO.N,GNDA*%
X138450000Y-82310000D03*
%TO.P,U9,2,IN_2*%
%TO.N,Net-(U7-VO)*%
X138450000Y-81040000D03*
%TO.P,U9,3,INH_3*%
%TO.N,+5VA*%
X138450000Y-79770000D03*
%TO.P,U9,4,OUT_4*%
%TO.N,M2_R*%
X138450000Y-78500000D03*
%TO.P,U9,5,SR_5*%
%TO.N,Net-(U9-SR)*%
X138450000Y-77230000D03*
%TO.P,U9,6,IS_6*%
%TO.N,Net-(U9-IS)*%
X138450000Y-75960000D03*
%TO.P,U9,7,VS_7*%
%TO.N,+21VA*%
X138450000Y-74690000D03*
D27*
%TO.P,U9,8,OUT_8*%
%TO.N,M2_R*%
X128790000Y-78500000D03*
%TD*%
D57*
%TO.P,C11,1*%
%TO.N,+21VA*%
X113450000Y-111000000D03*
%TO.P,C11,2*%
%TO.N,GNDA*%
X111550000Y-111000000D03*
%TD*%
D36*
%TO.P,L2,1,1_1*%
%TO.N,Net-(D8-K)*%
X157000000Y-116250000D03*
%TO.P,L2,2,2_2*%
%TO.N,+5VA*%
X157000000Y-110611200D03*
%TD*%
D17*
%TO.P,R11,1*%
%TO.N,Net-(U12-IS)*%
X118877500Y-58087500D03*
%TO.P,R11,2*%
%TO.N,GNDA*%
X118877500Y-59912500D03*
%TD*%
%TO.P,R16,1*%
%TO.N,GNDA*%
X138000000Y-22587500D03*
%TO.P,R16,2*%
%TO.N,Net-(D7-A)*%
X138000000Y-24412500D03*
%TD*%
D14*
%TO.P,D1,1,K_1*%
%TO.N,+21V*%
X227000000Y-100750000D03*
%TO.P,D1,2,A_2*%
%TO.N,Net-(D1-A)*%
X227000000Y-97250000D03*
%TD*%
D58*
%TO.P,U5,1,GND_1*%
%TO.N,GND*%
X229760000Y-21900000D03*
D25*
%TO.P,U5,2,0_RX1_CRX2_CS1_2*%
%TO.N,unconnected-(U5-0_RX1_CRX2_CS1-Pad2)*%
X229760000Y-24440000D03*
%TO.P,U5,3,1_TX1_CTX2_MISO1_3*%
%TO.N,unconnected-(U5-1_TX1_CTX2_MISO1-Pad3)*%
X229760000Y-26980000D03*
%TO.P,U5,4,2_OUT2_4*%
%TO.N,RPWM*%
X229760000Y-29520000D03*
%TO.P,U5,5,3_LRCLK2_5*%
%TO.N,LPWM*%
X229760000Y-32060000D03*
%TO.P,U5,6,4_BCLK2_6*%
%TO.N,RPWM1*%
X229760000Y-34600000D03*
%TO.P,U5,7,5_IN2_7*%
%TO.N,LPWM1*%
X229760000Y-37140000D03*
%TO.P,U5,8,6_OUT1D_8*%
%TO.N,unconnected-(U5-6_OUT1D-Pad8)*%
X229760000Y-39680000D03*
%TO.P,U5,9,7_RX2_OUT1A_9*%
%TO.N,RX*%
X229760000Y-42220000D03*
%TO.P,U5,10,8_TX2_IN1_10*%
%TO.N,TX*%
X229760000Y-44760000D03*
%TO.P,U5,11,9_OUT1C_11*%
%TO.N,ENC1_A*%
X229760000Y-47300000D03*
%TO.P,U5,12,10_CS_MQSR_12*%
%TO.N,ENC1_B*%
X229760000Y-49840000D03*
%TO.P,U5,13,11_MOSI_CTX1_13*%
%TO.N,ENC2_A*%
X229760000Y-52380000D03*
%TO.P,U5,14,12_MISO_MQSL_14*%
%TO.N,ENC2_B*%
X229760000Y-54920000D03*
%TO.P,U5,15,3V3_15*%
%TO.N,unconnected-(U5-3V3-Pad15)*%
X229760000Y-57460000D03*
%TO.P,U5,16,24_A10_TX6_SCL2_16*%
%TO.N,unconnected-(U5-24_A10_TX6_SCL2-Pad16)*%
X229760000Y-60000000D03*
%TO.P,U5,17,25_A11_RX6_SDA2_17*%
%TO.N,unconnected-(U5-25_A11_RX6_SDA2-Pad17)*%
X229760000Y-62540000D03*
%TO.P,U5,18,26_A12_MOSI1_18*%
%TO.N,unconnected-(U5-26_A12_MOSI1-Pad18)*%
X229760000Y-65080000D03*
%TO.P,U5,19,27_A13_SCK1_19*%
%TO.N,unconnected-(U5-27_A13_SCK1-Pad19)*%
X229760000Y-67620000D03*
%TO.P,U5,20,28_RX7_20*%
%TO.N,unconnected-(U5-28_RX7-Pad20)*%
X229760000Y-70160000D03*
%TO.P,U5,21,29_TX7_21*%
%TO.N,unconnected-(U5-29_TX7-Pad21)*%
X229760000Y-72700000D03*
%TO.P,U5,22,30_CRX3_22*%
%TO.N,unconnected-(U5-30_CRX3-Pad22)*%
X229760000Y-75240000D03*
%TO.P,U5,23,31_CTX3_23*%
%TO.N,unconnected-(U5-31_CTX3-Pad23)*%
X229760000Y-77780000D03*
%TO.P,U5,24,32_OUT1B_24*%
%TO.N,unconnected-(U5-32_OUT1B-Pad24)*%
X229760000Y-80320000D03*
%TO.P,U5,25,33_MCLK2_25*%
%TO.N,Net-(J2-Pin_1)*%
X245000000Y-80320000D03*
%TO.P,U5,26,34_RX8_26*%
%TO.N,Net-(J2-Pin_2)*%
X245000000Y-77780000D03*
%TO.P,U5,27,35_TX8_27*%
%TO.N,Net-(J2-Pin_3)*%
X245000000Y-75240000D03*
%TO.P,U5,28,36_CS_28*%
%TO.N,Net-(J2-Pin_4)*%
X245000000Y-72700000D03*
%TO.P,U5,29,37_CS_29*%
%TO.N,Net-(J2-Pin_5)*%
X245000000Y-70160000D03*
%TO.P,U5,30,38_CS1_IN1_30*%
%TO.N,Net-(J2-Pin_6)*%
X245000000Y-67620000D03*
%TO.P,U5,31,39_MISO1_OUT1A_31*%
%TO.N,Net-(J2-Pin_7)*%
X245000000Y-65080000D03*
%TO.P,U5,32,40_A16_32*%
%TO.N,Net-(J2-Pin_8)*%
X245000000Y-62540000D03*
%TO.P,U5,33,41_A17_33*%
%TO.N,Net-(J2-Pin_9)*%
X245000000Y-60000000D03*
%TO.P,U5,34,GND_34*%
%TO.N,unconnected-(U5-GND-Pad34)*%
X245000000Y-57460000D03*
%TO.P,U5,35,13_SCK_LED_35*%
%TO.N,Net-(J2-Pin_10)*%
X245000000Y-54920000D03*
%TO.P,U5,36,14_A0_TX3_SPDIF_OUT_36*%
%TO.N,unconnected-(U5-14_A0_TX3_SPDIF_OUT-Pad36)*%
X245000000Y-52380000D03*
%TO.P,U5,37,15_A1_RX3_SPDIF_IN_37*%
%TO.N,unconnected-(U5-15_A1_RX3_SPDIF_IN-Pad37)*%
X245000000Y-49840000D03*
%TO.P,U5,38,16_A2_RX4_SCL1_38*%
%TO.N,unconnected-(U5-16_A2_RX4_SCL1-Pad38)*%
X245000000Y-47300000D03*
%TO.P,U5,39,17_A3_TX4_SDA1_39*%
%TO.N,unconnected-(U5-17_A3_TX4_SDA1-Pad39)*%
X245000000Y-44760000D03*
%TO.P,U5,40,18_A4_SDA_40*%
%TO.N,SDA*%
X245000000Y-42220000D03*
%TO.P,U5,41,19_A5_SCL_41*%
%TO.N,SCL*%
X245000000Y-39680000D03*
%TO.P,U5,42,20_A6_TX5_LRCLK1_42*%
%TO.N,unconnected-(U5-20_A6_TX5_LRCLK1-Pad42)*%
X245000000Y-37140000D03*
%TO.P,U5,43,21_A7_RX5_BCLK1_43*%
%TO.N,unconnected-(U5-21_A7_RX5_BCLK1-Pad43)*%
X245000000Y-34600000D03*
%TO.P,U5,44,22_A8_CTX1_44*%
%TO.N,CTX1*%
X245000000Y-32060000D03*
%TO.P,U5,45,23_A9_CRX1_MCLK1_45*%
%TO.N,CRX1*%
X245000000Y-29520000D03*
%TO.P,U5,46,3V3_46*%
%TO.N,unconnected-(U5-3V3-Pad46)*%
X245000000Y-26980000D03*
%TO.P,U5,47,GND_47*%
%TO.N,unconnected-(U5-GND-Pad47)*%
X245000000Y-24440000D03*
%TO.P,U5,48,VIN_48*%
%TO.N,+5V*%
X245000000Y-21900000D03*
D59*
%TO.P,U5,60,R+_60*%
%TO.N,R+*%
X242561600Y-34870000D03*
D60*
%TO.P,U5,61,LED_61*%
%TO.N,LED*%
X240561600Y-34870000D03*
%TO.P,U5,62,T-_62*%
%TO.N,T-*%
X238561600Y-34870000D03*
%TO.P,U5,63,T+_63*%
%TO.N,T+*%
X238561600Y-36870000D03*
%TO.P,U5,64,GND_64*%
%TO.N,unconnected-(U5-GND-Pad64)*%
X240561600Y-36870000D03*
%TO.P,U5,65,R-_65*%
%TO.N,R-*%
X242561600Y-36870000D03*
%TD*%
D26*
%TO.P,U12,1,GND_1*%
%TO.N,GNDA*%
X138450000Y-66310000D03*
%TO.P,U12,2,IN_2*%
%TO.N,Net-(U10-VO)*%
X138450000Y-65040000D03*
%TO.P,U12,3,INH_3*%
%TO.N,+5VA*%
X138450000Y-63770000D03*
%TO.P,U12,4,OUT_4*%
%TO.N,M1_L*%
X138450000Y-62500000D03*
%TO.P,U12,5,SR_5*%
%TO.N,Net-(U12-SR)*%
X138450000Y-61230000D03*
%TO.P,U12,6,IS_6*%
%TO.N,Net-(U12-IS)*%
X138450000Y-59960000D03*
%TO.P,U12,7,VS_7*%
%TO.N,+21VA*%
X138450000Y-58690000D03*
D27*
%TO.P,U12,8,OUT_8*%
%TO.N,M1_L*%
X128790000Y-62500000D03*
%TD*%
D61*
%TO.P,D6,1,A1_1*%
%TO.N,GNDA*%
X155000000Y-105750000D03*
%TO.P,D6,2,A2_2*%
%TO.N,+5VA*%
X159000000Y-105750000D03*
%TD*%
D34*
%TO.P,C12,1*%
%TO.N,+5VA*%
X146000000Y-115400000D03*
%TO.P,C12,2*%
%TO.N,GNDA*%
X146000000Y-108000000D03*
%TD*%
D24*
%TO.P,U6,1,NC_1*%
%TO.N,unconnected-(U6-NC-Pad1)*%
X154120000Y-50580000D03*
D25*
%TO.P,U6,2,A_2*%
%TO.N,RPWM*%
X154120000Y-48040000D03*
%TO.P,U6,3,C_3*%
%TO.N,GND*%
X154120000Y-45500000D03*
%TO.P,U6,4,NC_4*%
%TO.N,unconnected-(U6-NC-Pad4)*%
X154120000Y-42960000D03*
%TO.P,U6,5,GND_5*%
%TO.N,GNDA*%
X146500000Y-42960000D03*
%TO.P,U6,6,VO_6*%
%TO.N,Net-(U6-VO)*%
X146500000Y-45500000D03*
%TO.P,U6,7,EN_7*%
%TO.N,+5VA*%
X146500000Y-48040000D03*
%TO.P,U6,8,VCC_8*%
X146500000Y-50580000D03*
%TD*%
D28*
%TO.P,H2,1*%
%TO.N,N/C*%
X256000000Y-24000000D03*
D29*
X256000000Y-24000000D03*
%TD*%
D35*
%TO.P,C7,1*%
%TO.N,+3.3V*%
X191450000Y-68300000D03*
%TO.P,C7,2*%
%TO.N,GND*%
X191450000Y-66400000D03*
%TD*%
D62*
%TO.P,C8,1*%
%TO.N,+21VA*%
X107500000Y-40000000D03*
%TO.P,C8,2*%
%TO.N,GNDA*%
X107500000Y-48000000D03*
%TD*%
D63*
%TO.P,J1,1,Pin_1_1*%
%TO.N,GND*%
X241920000Y-114000000D03*
D43*
%TO.P,J1,2,Pin_2_2*%
%TO.N,Net-(J1-Pin_2)*%
X247000000Y-114000000D03*
%TD*%
D26*
%TO.P,U13,1,GND_1*%
%TO.N,GNDA*%
X138450000Y-98310000D03*
%TO.P,U13,2,IN_2*%
%TO.N,Net-(U11-VO)*%
X138450000Y-97040000D03*
%TO.P,U13,3,INH_3*%
%TO.N,+5VA*%
X138450000Y-95770000D03*
%TO.P,U13,4,OUT_4*%
%TO.N,M2_L*%
X138450000Y-94500000D03*
%TO.P,U13,5,SR_5*%
%TO.N,Net-(U13-SR)*%
X138450000Y-93230000D03*
%TO.P,U13,6,IS_6*%
%TO.N,Net-(U13-IS)*%
X138450000Y-91960000D03*
%TO.P,U13,7,VS_7*%
%TO.N,+21VA*%
X138450000Y-90690000D03*
D27*
%TO.P,U13,8,OUT_8*%
%TO.N,M2_L*%
X128790000Y-94500000D03*
%TD*%
D55*
%TO.P,J7,1,Pin_1_1*%
%TO.N,GND*%
X200880000Y-109222500D03*
D33*
%TO.P,J7,2,Pin_2_2*%
%TO.N,Net-(J7-Pin_2)*%
X205960000Y-109222500D03*
%TO.P,J7,3,Pin_3_3*%
%TO.N,Net-(J7-Pin_3)*%
X211040000Y-109222500D03*
%TO.P,J7,4,Pin_4_4*%
%TO.N,+5V*%
X216120000Y-109222500D03*
%TD*%
D13*
%TO.P,D2,1,A1_1*%
%TO.N,GND*%
X250500000Y-34000000D03*
%TO.P,D2,2,A2_2*%
%TO.N,+5V*%
X250500000Y-30000000D03*
%TD*%
D52*
%TO.P,C4,1*%
%TO.N,+5V*%
X175950000Y-60875000D03*
%TO.P,C4,2*%
%TO.N,GND*%
X175950000Y-63825000D03*
%TD*%
D28*
%TO.P,H4,1*%
%TO.N,N/C*%
X256000000Y-116000000D03*
D29*
X256000000Y-116000000D03*
%TD*%
D64*
%TO.N,GND*%
X172000000Y-64500000D03*
X178750000Y-96500000D03*
X178750000Y-94500000D03*
X214500000Y-91000000D03*
X191000000Y-37000000D03*
X170000000Y-69000000D03*
X170000000Y-97500000D03*
X172500000Y-95000000D03*
%TO.N,SDA*%
X212750000Y-72500000D03*
%TO.N,CRX1*%
X220500000Y-93750000D03*
X258500000Y-36500000D03*
X259000000Y-90500000D03*
X190500000Y-53000000D03*
%TO.N,SCL*%
X253250000Y-89750000D03*
%TO.N,SDA*%
X251000000Y-89750000D03*
%TO.N,SCL*%
X214250000Y-74750000D03*
%TO.N,GNDA*%
X141000000Y-105000000D03*
X107000000Y-109500000D03*
X116500000Y-76000000D03*
X143750000Y-50250000D03*
X105000000Y-109500000D03*
X143500000Y-98310001D03*
X101500000Y-92500000D03*
X101500000Y-90500000D03*
X116500000Y-60000000D03*
X143000000Y-105000000D03*
%TO.N,+5V*%
X192900000Y-101300000D03*
X195200000Y-103900000D03*
%TO.N,GNDA*%
X143809999Y-66309999D03*
X116500000Y-92000000D03*
%TO.N,+5V*%
X186900000Y-101200000D03*
%TO.N,GND*%
X172500000Y-92500000D03*
X170000000Y-92500000D03*
%TO.N,GNDA*%
X143689999Y-82310001D03*
%TO.N,GND*%
X171750000Y-61250000D03*
%TO.N,+5VA*%
X142700000Y-115400000D03*
%TO.N,+21VA*%
X104800000Y-101300000D03*
%TO.N,GND*%
X170000000Y-95000000D03*
X186050000Y-58000000D03*
X210000000Y-100000000D03*
X172500000Y-97500000D03*
X207500000Y-100000000D03*
X252500000Y-83100000D03*
X172500000Y-90000000D03*
%TO.N,+5VA*%
X120500000Y-113000000D03*
%TO.N,+21VA*%
X139000000Y-88800000D03*
%TO.N,T-*%
X213600000Y-37100000D03*
%TO.N,+21VA*%
X131500000Y-31400000D03*
X139000000Y-73000000D03*
%TO.N,GND*%
X209500000Y-76000000D03*
X207500000Y-102500000D03*
X170000000Y-100000000D03*
X170000000Y-62750000D03*
X194000000Y-66500000D03*
%TO.N,T+*%
X219250000Y-46000000D03*
%TO.N,GND*%
X170000000Y-65750000D03*
X210000000Y-102500000D03*
X230500000Y-95100000D03*
X184500000Y-37000000D03*
X172000000Y-67500000D03*
%TO.N,+21VA*%
X139000000Y-40700000D03*
X129900000Y-31400000D03*
X139000000Y-57000000D03*
%TO.N,T-*%
X221000000Y-47750000D03*
%TO.N,R+*%
X222000000Y-55000000D03*
%TO.N,+3.3V*%
X215715000Y-70500000D03*
X221625000Y-83125000D03*
X223500000Y-85000000D03*
X250750000Y-86750000D03*
%TO.N,T+*%
X218500000Y-58750000D03*
%TO.N,T-*%
X220250000Y-56750000D03*
%TO.N,CTX1*%
X200250000Y-64000000D03*
%TO.N,CRX1*%
X198750000Y-64750000D03*
%TO.N,CTX1*%
X256500000Y-37000000D03*
%TO.N,R-*%
X217000000Y-61250000D03*
%TO.N,CTX1*%
X222750000Y-92000000D03*
%TO.N,R+*%
X222500000Y-46000000D03*
%TO.N,+3.3V*%
X219750000Y-81250000D03*
X202000000Y-37250000D03*
%TO.N,R-*%
X217965000Y-48000000D03*
%TO.N,+3.3V*%
X210000000Y-45250000D03*
%TO.N,CTX1*%
X257740642Y-88750000D03*
X195000000Y-53000000D03*
%TD*%
%TO.N,RX*%
D65*
X197750000Y-35562160D02*
X197750000Y-35226297D01*
%TO.N,TX*%
X196500000Y-35002389D02*
X196500000Y-35898023D01*
%TO.N,RX*%
X197750000Y-34050777D02*
X197750000Y-35226297D01*
%TO.N,TX*%
X196500000Y-36401817D02*
X196500000Y-36121932D01*
%TO.N,R-*%
X215566571Y-45905982D02*
X215736277Y-45736276D01*
X215198877Y-46273679D02*
X215566571Y-45905982D01*
X215283730Y-46697944D02*
X215198877Y-46613091D01*
X216188824Y-44774610D02*
G75*
G03*
X215849412Y-44774610I-169706J-169704D01*
G01*
X215425144Y-44010930D02*
X215340291Y-43926077D01*
X214435197Y-45849411D02*
X214350344Y-45764558D01*
X215340291Y-43926077D02*
G75*
G03*
X215000879Y-43926077I-169706J-169704D01*
G01*
X214208920Y-44208920D02*
X213792619Y-43792619D01*
X215736277Y-45736276D02*
X215736276Y-45736276D01*
X214350344Y-45764558D02*
G75*
G02*
X214350392Y-45425194I169656J169658D01*
G01*
X215000879Y-43926077D02*
X214633183Y-44293772D01*
X214293772Y-44293772D02*
X214208920Y-44208920D01*
X215623140Y-46697943D02*
G75*
G02*
X215283696Y-46697979I-169740J169743D01*
G01*
X216273677Y-45198874D02*
G75*
G03*
X216273646Y-44859495I-169677J169674D01*
G01*
X215057448Y-44718037D02*
X215425144Y-44350341D01*
X215990837Y-46330249D02*
X215623140Y-46697943D01*
X215736276Y-45736276D02*
X216273677Y-45198874D01*
X215425144Y-44350341D02*
G75*
G03*
X215425180Y-44010895I-169744J169741D01*
G01*
X214774607Y-45849410D02*
G75*
G02*
X214435196Y-45849412I-169707J169710D01*
G01*
X215849412Y-44774610D02*
X215312010Y-45312011D01*
X216273677Y-44859463D02*
X216188824Y-44774610D01*
X215312010Y-45312011D02*
X215312010Y-45312010D01*
X214887744Y-44887743D02*
X214887743Y-44887743D01*
X216330249Y-46330249D02*
G75*
G03*
X215990837Y-46330249I-169706J-169701D01*
G01*
X214350344Y-45425146D02*
X214887744Y-44887743D01*
X214887743Y-44887743D02*
X215057448Y-44718037D01*
X215312010Y-45312010D02*
X214774607Y-45849410D01*
X215198877Y-46613091D02*
G75*
G02*
X215198892Y-46273694I169723J169691D01*
G01*
X214633183Y-44293772D02*
G75*
G02*
X214293773Y-44293772I-169705J169703D01*
G01*
%TO.N,T-*%
X235740000Y-54514845D02*
X236500000Y-54514845D01*
X237500000Y-51274845D02*
G75*
G02*
X237260000Y-51514800I-240000J45D01*
G01*
X237500000Y-52354845D02*
X237500000Y-52474845D01*
X235500000Y-53074845D02*
G75*
G03*
X235740000Y-53314800I240000J45D01*
G01*
X235740000Y-50314845D02*
G75*
G03*
X235500045Y-50554845I0J-239955D01*
G01*
X237500000Y-51154845D02*
X237500000Y-51274845D01*
X235500000Y-50554845D02*
X235500000Y-50674845D01*
X235740000Y-53914845D02*
G75*
G03*
X235500045Y-54154845I0J-239955D01*
G01*
X236500000Y-51514845D02*
X235740000Y-51514845D01*
X236500000Y-55354845D02*
X236500000Y-55474845D01*
X236500000Y-49474845D02*
G75*
G03*
X236740000Y-49714800I240000J45D01*
G01*
X237500000Y-53554845D02*
X237500000Y-53674845D01*
X237260000Y-53314845D02*
G75*
G02*
X237499955Y-53554845I0J-239955D01*
G01*
X237260000Y-50914845D02*
G75*
G02*
X237499955Y-51154845I0J-239955D01*
G01*
X236740000Y-54514845D02*
X237260000Y-54514845D01*
X236740000Y-49714845D02*
X237260000Y-49714845D01*
X235740000Y-52114845D02*
X236500000Y-52114845D01*
X237500000Y-54754845D02*
X237500000Y-54874845D01*
X236500000Y-52714845D02*
X235740000Y-52714845D01*
X237500000Y-52474845D02*
G75*
G02*
X237260000Y-52714800I-240000J45D01*
G01*
X235500000Y-51874845D02*
G75*
G03*
X235740000Y-52114800I240000J45D01*
G01*
X236500000Y-50314845D02*
X235740000Y-50314845D01*
X237260000Y-51514845D02*
X236500000Y-51514845D01*
X235500000Y-54274845D02*
G75*
G03*
X235740000Y-54514800I240000J45D01*
G01*
X236500000Y-55474845D02*
X236500000Y-55744284D01*
X236740000Y-50314845D02*
X236500000Y-50314845D01*
X235740000Y-52714845D02*
G75*
G03*
X235500045Y-52954845I0J-239955D01*
G01*
X236500000Y-50914845D02*
X237260000Y-50914845D01*
X237500000Y-49954845D02*
X237500000Y-50074845D01*
X235500000Y-50674845D02*
G75*
G03*
X235740000Y-50914800I240000J45D01*
G01*
X237260000Y-54514845D02*
G75*
G02*
X237499955Y-54754845I0J-239955D01*
G01*
X236500000Y-53914845D02*
X235740000Y-53914845D01*
X235740000Y-50914845D02*
X236500000Y-50914845D01*
X237260000Y-53914845D02*
X236500000Y-53914845D01*
X236500000Y-54514845D02*
X236740000Y-54514845D01*
X237260000Y-50314845D02*
X236740000Y-50314845D01*
X235500000Y-52954845D02*
X235500000Y-53074845D01*
X237260000Y-55114845D02*
X236740000Y-55114845D01*
X235500000Y-54154845D02*
X235500000Y-54274845D01*
X237500000Y-50074845D02*
G75*
G02*
X237260000Y-50314800I-240000J45D01*
G01*
X237500000Y-54874845D02*
G75*
G02*
X237260000Y-55114800I-240000J45D01*
G01*
X237260000Y-52714845D02*
X236500000Y-52714845D01*
X236500000Y-53314845D02*
X237260000Y-53314845D01*
X235740000Y-53314845D02*
X236500000Y-53314845D01*
X236740000Y-55114845D02*
G75*
G03*
X236500045Y-55354845I0J-239955D01*
G01*
X237260000Y-49714845D02*
G75*
G02*
X237499955Y-49954845I0J-239955D01*
G01*
X237500000Y-53674845D02*
G75*
G02*
X237260000Y-53914800I-240000J45D01*
G01*
X237260000Y-52114845D02*
G75*
G02*
X237499955Y-52354845I0J-239955D01*
G01*
X236500000Y-52114845D02*
X237260000Y-52114845D01*
X235740000Y-51514845D02*
G75*
G03*
X235500045Y-51754845I0J-239955D01*
G01*
X235500000Y-51754845D02*
X235500000Y-51874845D01*
%TO.N,R+*%
X233250000Y-43398160D02*
X232490000Y-43398160D01*
X232250000Y-42558160D02*
G75*
G03*
X232490000Y-42798200I240000J-40D01*
G01*
X232490000Y-46998160D02*
G75*
G03*
X232249960Y-47238160I0J-240040D01*
G01*
X232250000Y-43638160D02*
X232250000Y-43758160D01*
X234010000Y-41598160D02*
G75*
G02*
X234250040Y-41838160I0J-240040D01*
G01*
X234010000Y-43398160D02*
X233250000Y-43398160D01*
X232250000Y-47358160D02*
G75*
G03*
X232490000Y-47598200I240000J-40D01*
G01*
X232250000Y-47238160D02*
X232250000Y-47358160D01*
X232250000Y-43758160D02*
G75*
G03*
X232490000Y-43998200I240000J-40D01*
G01*
X234250000Y-43038160D02*
X234250000Y-43158160D01*
X233250000Y-44598160D02*
X232490000Y-44598160D01*
X232490000Y-42198160D02*
G75*
G03*
X232249960Y-42438160I0J-240040D01*
G01*
X233490000Y-42198160D02*
X233250000Y-42198160D01*
X233010000Y-46998160D02*
X232490000Y-46998160D01*
X232490000Y-42798160D02*
X233250000Y-42798160D01*
X234250000Y-46758160D02*
G75*
G02*
X234010000Y-46998200I-240000J-40D01*
G01*
X233250000Y-41358160D02*
G75*
G03*
X233490000Y-41598200I240000J-40D01*
G01*
X233250000Y-43998160D02*
X234010000Y-43998160D01*
X232250000Y-46158160D02*
G75*
G03*
X232490000Y-46398200I240000J-40D01*
G01*
X232490000Y-43998160D02*
X233250000Y-43998160D01*
X233250000Y-47838160D02*
X233250000Y-47958160D01*
X234250000Y-44358160D02*
G75*
G02*
X234010000Y-44598200I-240000J-40D01*
G01*
X233250000Y-42798160D02*
X234010000Y-42798160D01*
X233250000Y-46398160D02*
X234010000Y-46398160D01*
X233250000Y-42198160D02*
X232490000Y-42198160D01*
X233250000Y-45198160D02*
X234010000Y-45198160D01*
X232250000Y-44958160D02*
G75*
G03*
X232490000Y-45198200I240000J-40D01*
G01*
X233250000Y-47958160D02*
X233250000Y-48523233D01*
X233250000Y-46998160D02*
X233010000Y-46998160D01*
X234010000Y-42798160D02*
G75*
G02*
X234250040Y-43038160I0J-240040D01*
G01*
X232250000Y-44838160D02*
X232250000Y-44958160D01*
X232490000Y-45198160D02*
X233250000Y-45198160D01*
X234010000Y-45798160D02*
X233250000Y-45798160D01*
X234010000Y-43998160D02*
G75*
G02*
X234250040Y-44238160I0J-240040D01*
G01*
X234250000Y-44238160D02*
X234250000Y-44358160D01*
X234250000Y-45558160D02*
G75*
G02*
X234010000Y-45798200I-240000J-40D01*
G01*
X234250000Y-41838160D02*
X234250000Y-41958160D01*
X232250000Y-42438160D02*
X232250000Y-42558160D01*
X232490000Y-45798160D02*
G75*
G03*
X232249960Y-46038160I0J-240040D01*
G01*
X233250000Y-45798160D02*
X232490000Y-45798160D01*
X232250000Y-46038160D02*
X232250000Y-46158160D01*
X234250000Y-46638160D02*
X234250000Y-46758160D01*
X234250000Y-43158160D02*
G75*
G02*
X234010000Y-43398200I-240000J-40D01*
G01*
X234010000Y-46998160D02*
X233250000Y-46998160D01*
X232490000Y-43398160D02*
G75*
G03*
X232249960Y-43638160I0J-240040D01*
G01*
X234250000Y-45438160D02*
X234250000Y-45558160D01*
X234010000Y-46398160D02*
G75*
G02*
X234250040Y-46638160I0J-240040D01*
G01*
X234010000Y-45198160D02*
G75*
G02*
X234250040Y-45438160I0J-240040D01*
G01*
X234010000Y-44598160D02*
X233250000Y-44598160D01*
X233490000Y-41598160D02*
X234010000Y-41598160D01*
X232490000Y-47598160D02*
X233010000Y-47598160D01*
X234250000Y-41958160D02*
G75*
G02*
X234010000Y-42198200I-240000J-40D01*
G01*
X234010000Y-42198160D02*
X233490000Y-42198160D01*
X232490000Y-44598160D02*
G75*
G03*
X232249960Y-44838160I0J-240040D01*
G01*
X233010000Y-47598160D02*
G75*
G02*
X233250040Y-47838160I0J-240040D01*
G01*
X232490000Y-46398160D02*
X233250000Y-46398160D01*
%TO.N,T+*%
X237561600Y-66121725D02*
G75*
G03*
X237801600Y-66361700I240000J25D01*
G01*
X237801600Y-59761725D02*
G75*
G03*
X237561625Y-60001725I0J-239975D01*
G01*
X237801600Y-60961725D02*
G75*
G03*
X237561625Y-61201725I0J-239975D01*
G01*
X238801600Y-59161725D02*
X239321600Y-59161725D01*
X238561600Y-59761725D02*
X237801600Y-59761725D01*
X238561600Y-66721725D02*
X238561600Y-67019751D01*
X237801600Y-60361725D02*
X238561600Y-60361725D01*
X239561600Y-65521725D02*
G75*
G02*
X239321600Y-65761700I-240000J25D01*
G01*
X239561600Y-60721725D02*
G75*
G02*
X239321600Y-60961700I-240000J25D01*
G01*
X237561600Y-61321725D02*
G75*
G03*
X237801600Y-61561700I240000J25D01*
G01*
X237561600Y-64801725D02*
X237561600Y-64921725D01*
X237801600Y-64561725D02*
G75*
G03*
X237561625Y-64801725I0J-239975D01*
G01*
X237561600Y-66001725D02*
X237561600Y-66121725D01*
X239561600Y-63121725D02*
G75*
G02*
X239321600Y-63361700I-240000J25D01*
G01*
X237801600Y-66361725D02*
X238321600Y-66361725D01*
X239321600Y-60361725D02*
G75*
G02*
X239561575Y-60601725I0J-239975D01*
G01*
X239561600Y-59521725D02*
G75*
G02*
X239321600Y-59761700I-240000J25D01*
G01*
X239321600Y-59761725D02*
X238801600Y-59761725D01*
X239321600Y-62161725D02*
X238561600Y-62161725D01*
X239321600Y-61561725D02*
G75*
G02*
X239561575Y-61801725I0J-239975D01*
G01*
X238321600Y-65761725D02*
X237801600Y-65761725D01*
X238561600Y-63961725D02*
X239321600Y-63961725D01*
X237801600Y-63361725D02*
G75*
G03*
X237561625Y-63601725I0J-239975D01*
G01*
X237561600Y-62521725D02*
G75*
G03*
X237801600Y-62761700I240000J25D01*
G01*
X238561600Y-62761725D02*
X239321600Y-62761725D01*
X237801600Y-61561725D02*
X238561600Y-61561725D01*
X237561600Y-62401725D02*
X237561600Y-62521725D01*
X237561600Y-64921725D02*
G75*
G03*
X237801600Y-65161700I240000J25D01*
G01*
X238801600Y-59761725D02*
X238561600Y-59761725D01*
X237801600Y-65761725D02*
G75*
G03*
X237561625Y-66001725I0J-239975D01*
G01*
X239561600Y-59401725D02*
X239561600Y-59521725D01*
X237561600Y-63721725D02*
G75*
G03*
X237801600Y-63961700I240000J25D01*
G01*
X238561600Y-63361725D02*
X237801600Y-63361725D01*
X239561600Y-64321725D02*
G75*
G02*
X239321600Y-64561700I-240000J25D01*
G01*
X237561600Y-63601725D02*
X237561600Y-63721725D01*
X238321600Y-66361725D02*
G75*
G02*
X238561575Y-66601725I0J-239975D01*
G01*
X239321600Y-65161725D02*
G75*
G02*
X239561575Y-65401725I0J-239975D01*
G01*
X237561600Y-61201725D02*
X237561600Y-61321725D01*
X238561600Y-58921725D02*
G75*
G03*
X238801600Y-59161700I240000J25D01*
G01*
X238561600Y-62161725D02*
X237801600Y-62161725D01*
X239561600Y-65401725D02*
X239561600Y-65521725D01*
X239321600Y-64561725D02*
X238561600Y-64561725D01*
X238561600Y-60961725D02*
X237801600Y-60961725D01*
X239321600Y-65761725D02*
X238561600Y-65761725D01*
X239561600Y-64201725D02*
X239561600Y-64321725D01*
X239321600Y-59161725D02*
G75*
G02*
X239561575Y-59401725I0J-239975D01*
G01*
X237561600Y-60121725D02*
G75*
G03*
X237801600Y-60361700I240000J25D01*
G01*
X239561600Y-61921725D02*
G75*
G02*
X239321600Y-62161700I-240000J25D01*
G01*
X238561600Y-61561725D02*
X239321600Y-61561725D01*
X239321600Y-63961725D02*
G75*
G02*
X239561575Y-64201725I0J-239975D01*
G01*
X237801600Y-62761725D02*
X238561600Y-62761725D01*
X237801600Y-62161725D02*
G75*
G03*
X237561625Y-62401725I0J-239975D01*
G01*
X239321600Y-60961725D02*
X238561600Y-60961725D01*
X237801600Y-65161725D02*
X238561600Y-65161725D01*
X238561600Y-60361725D02*
X239321600Y-60361725D01*
X239321600Y-62761725D02*
G75*
G02*
X239561575Y-63001725I0J-239975D01*
G01*
X238561600Y-64561725D02*
X237801600Y-64561725D01*
X238561600Y-66601725D02*
X238561600Y-66721725D01*
X239321600Y-63361725D02*
X238561600Y-63361725D01*
X237561600Y-60001725D02*
X237561600Y-60121725D01*
X239561600Y-63001725D02*
X239561600Y-63121725D01*
X239561600Y-60601725D02*
X239561600Y-60721725D01*
X238561600Y-65161725D02*
X239321600Y-65161725D01*
X237801600Y-63961725D02*
X238561600Y-63961725D01*
X238561600Y-65761725D02*
X238321600Y-65761725D01*
X239561600Y-61801725D02*
X239561600Y-61921725D01*
%TO.N,TX*%
X205414522Y-47378720D02*
X205046826Y-47746415D01*
X204028587Y-47067587D02*
X203858880Y-47237291D01*
X203066921Y-47180723D02*
X203434615Y-46813026D01*
X204339717Y-48453520D02*
G75*
G02*
X204000296Y-48453533I-169717J169720D01*
G01*
X203858880Y-47237291D02*
X203491184Y-47604987D01*
X203491184Y-47604987D02*
G75*
G02*
X203151796Y-47604967I-169684J169687D01*
G01*
X205046826Y-47746415D02*
X204877120Y-47916121D01*
X204877120Y-47916120D02*
X204339717Y-48453520D01*
X205838787Y-47802984D02*
G75*
G03*
X205838766Y-47463595I-169687J169684D01*
G01*
X205838787Y-47463573D02*
X205753934Y-47378720D01*
X203434616Y-46473616D02*
X203349764Y-46388764D01*
X204905401Y-46530187D02*
G75*
G03*
X204565989Y-46530187I-169706J-169704D01*
G01*
X203434615Y-46813026D02*
G75*
G03*
X203434637Y-46473596I-169715J169726D01*
G01*
X203349764Y-46388764D02*
X203008097Y-46047097D01*
X204565989Y-46530187D02*
X204028587Y-47067588D01*
X205753934Y-47378720D02*
G75*
G03*
X205414522Y-47378720I-169706J-169704D01*
G01*
X205471092Y-48510092D02*
G75*
G02*
X205471106Y-48170694I169708J169692D01*
G01*
X204452853Y-47491853D02*
X204990254Y-46954451D01*
X204452854Y-47491853D02*
X204452853Y-47491853D01*
X204990254Y-46615040D02*
X204905401Y-46530187D01*
X204877120Y-47916121D02*
X204877120Y-47916120D01*
X205471092Y-48170680D02*
X205838787Y-47802984D01*
X203915454Y-48029256D02*
X204452854Y-47491853D01*
X204000307Y-48453521D02*
X203915454Y-48368668D01*
X204028587Y-47067588D02*
X204028587Y-47067587D01*
X203066921Y-47520135D02*
G75*
G02*
X203066892Y-47180694I169679J169735D01*
G01*
X203151774Y-47604988D02*
X203066921Y-47520135D01*
X204990254Y-46954451D02*
G75*
G03*
X204990300Y-46614994I-169654J169751D01*
G01*
X203915454Y-48368668D02*
G75*
G02*
X203915492Y-48029294I169746J169668D01*
G01*
%TO.N,+3.3V*%
D66*
X183850000Y-63950000D02*
X186250000Y-63950000D01*
D65*
X250750000Y-86750000D02*
X225250000Y-86750000D01*
X219750000Y-81250000D02*
X215750000Y-77250000D01*
X225250000Y-86750000D02*
X223500000Y-85000000D01*
X219750000Y-81250000D02*
X221625000Y-83125000D01*
D66*
X187812500Y-68212500D02*
X186750000Y-67150000D01*
X206962500Y-60787500D02*
X191450000Y-60787500D01*
D65*
X221625000Y-83125000D02*
X223500000Y-85000000D01*
D66*
X183750000Y-67150000D02*
X186750000Y-67150000D01*
X211000000Y-53000000D02*
X211000000Y-56750000D01*
X191450000Y-68212500D02*
X187812500Y-68212500D01*
X211000000Y-56750000D02*
X206962500Y-60787500D01*
X183750000Y-60850000D02*
X183750000Y-63850000D01*
D65*
X215750000Y-70535000D02*
X215715000Y-70500000D01*
D66*
X191450000Y-60787500D02*
X191450000Y-57200000D01*
D65*
X211000000Y-65785000D02*
X215715000Y-70500000D01*
D66*
X188250000Y-54000000D02*
X188250000Y-50200000D01*
D65*
X210000000Y-45250000D02*
X202000000Y-37250000D01*
X215750000Y-77250000D02*
X215750000Y-70535000D01*
D66*
X183750000Y-63850000D02*
X183850000Y-63950000D01*
D65*
X211000000Y-53000000D02*
X211000000Y-65785000D01*
D66*
X189412500Y-60787500D02*
X191450000Y-60787500D01*
X191450000Y-57200000D02*
X188250000Y-54000000D01*
X186250000Y-63950000D02*
X189412500Y-60787500D01*
%TO.N,CRX1*%
D65*
X259000000Y-90500000D02*
X259025642Y-90474358D01*
X208000000Y-80000000D02*
X208000000Y-74000000D01*
X220500000Y-93750000D02*
X212750000Y-86000000D01*
X189520000Y-52020000D02*
X189520000Y-50200000D01*
X259025642Y-90474358D02*
X259025642Y-40275642D01*
X211750000Y-80500000D02*
X208500000Y-80500000D01*
X258500000Y-39750000D02*
X258500000Y-36500000D01*
X190500000Y-53000000D02*
X189520000Y-52020000D01*
X208000000Y-74000000D02*
X198750000Y-64750000D01*
X208500000Y-80500000D02*
X208000000Y-80000000D01*
X212750000Y-81500000D02*
X211750000Y-80500000D01*
X212750000Y-86000000D02*
X212750000Y-81500000D01*
X259025642Y-40275642D02*
X258500000Y-39750000D01*
%TO.N,M2_L*%
D67*
X128790000Y-94500000D02*
X127790000Y-95500000D01*
%TO.N,Net-(U13-IS)*%
D65*
X121700000Y-87200000D02*
X134200000Y-87200000D01*
%TO.N,M1_L*%
D67*
X128790000Y-62500000D02*
X127790000Y-63500000D01*
%TO.N,Net-(U15-Rs)*%
D65*
X184615000Y-42115000D02*
X185710000Y-43210000D01*
%TO.N,Net-(U13-IS)*%
X135200000Y-91400000D02*
X135760000Y-91960000D01*
%TO.N,Net-(U15-Rs)*%
X184615000Y-41137500D02*
X184615000Y-42115000D01*
%TO.N,+BATT*%
D67*
X102000000Y-37000000D02*
X102000000Y-61000000D01*
%TO.N,SDA*%
D65*
X212750000Y-72500000D02*
X212750000Y-75500000D01*
%TO.N,M1_L*%
D67*
X122100000Y-63500000D02*
X113100000Y-72500000D01*
%TO.N,SCL*%
D65*
X253250000Y-89750000D02*
X251750000Y-88250000D01*
%TO.N,M2_R*%
D67*
X127890000Y-79400000D02*
X111400000Y-79400000D01*
%TO.N,M2_L*%
X112150000Y-91350000D02*
X112150000Y-87050000D01*
%TO.N,Net-(U13-IS)*%
D65*
X118812500Y-90087500D02*
X121700000Y-87200000D01*
%TO.N,SCL*%
X214750000Y-78000000D02*
X214750000Y-75250000D01*
%TO.N,+BATT*%
D67*
X109000000Y-26000000D02*
X109000000Y-30000000D01*
X105500000Y-62340000D02*
X103340000Y-62340000D01*
%TO.N,M2_R*%
X110000000Y-78000000D02*
X105920000Y-78000000D01*
%TO.N,+BATT*%
X114000000Y-23600000D02*
X111400000Y-23600000D01*
X111400000Y-23600000D02*
X109000000Y-26000000D01*
%TO.N,SDA*%
D65*
X213500000Y-76250000D02*
X213500000Y-78750000D01*
%TO.N,SCL*%
X225000000Y-88250000D02*
X214750000Y-78000000D01*
%TO.N,M1_L*%
D66*
X138450000Y-62500000D02*
X128790000Y-62500000D01*
%TO.N,SDA*%
D65*
X213500000Y-78750000D02*
X224500000Y-89750000D01*
X212750000Y-75500000D02*
X213500000Y-76250000D01*
%TO.N,M1_L*%
D67*
X113100000Y-72500000D02*
X105500000Y-72500000D01*
%TO.N,+BATT*%
X109000000Y-30000000D02*
X102000000Y-37000000D01*
%TO.N,M1_L*%
X127790000Y-63500000D02*
X122100000Y-63500000D01*
%TO.N,SDA*%
D65*
X224500000Y-89750000D02*
X251000000Y-89750000D01*
%TO.N,M2_R*%
D67*
X105920000Y-78000000D02*
X105500000Y-77580000D01*
X128790000Y-78500000D02*
X127890000Y-79400000D01*
%TO.N,M2_L*%
D66*
X138450000Y-94500000D02*
X128790000Y-94500000D01*
D67*
X127790000Y-95500000D02*
X116300000Y-95500000D01*
%TO.N,Net-(U15-Rs)*%
D65*
X185710000Y-43210000D02*
X185710000Y-45250000D01*
%TO.N,+BATT*%
D67*
X103340000Y-62340000D02*
X102000000Y-61000000D01*
%TO.N,M2_R*%
D66*
X138450000Y-78500000D02*
X128790000Y-78500000D01*
%TO.N,M2_L*%
D67*
X112150000Y-87050000D02*
X107760000Y-82660000D01*
%TO.N,SCL*%
D65*
X251750000Y-88250000D02*
X225000000Y-88250000D01*
X214750000Y-75250000D02*
X214250000Y-74750000D01*
%TO.N,M2_R*%
D67*
X111400000Y-79400000D02*
X110000000Y-78000000D01*
%TO.N,M2_L*%
X116300000Y-95500000D02*
X112150000Y-91350000D01*
X107760000Y-82660000D02*
X105500000Y-82660000D01*
%TO.N,Net-(U12-SR)*%
D65*
X134500000Y-59707107D02*
X134500000Y-56707106D01*
%TO.N,Net-(D1-A)*%
D68*
X227050000Y-97200000D02*
X227000000Y-97250000D01*
%TO.N,Net-(J1-Pin_2)*%
D67*
X248500000Y-100500000D02*
X248500000Y-112500000D01*
%TO.N,Net-(U12-SR)*%
D65*
X121812500Y-58087500D02*
X123650000Y-56250000D01*
%TO.N,Net-(U13-SR)*%
X134930000Y-93230000D02*
X138450000Y-93230000D01*
%TO.N,Net-(U13-IS)*%
X118790000Y-90087500D02*
X118812500Y-90087500D01*
%TO.N,Net-(U13-SR)*%
X133700000Y-88200000D02*
X134200000Y-88700000D01*
%TO.N,Net-(U9-IS)*%
X135760000Y-75960000D02*
X135200000Y-75400000D01*
%TO.N,Net-(U12-IS)*%
X134750000Y-55350000D02*
X135300000Y-55900000D01*
%TO.N,Net-(U12-SR)*%
X134500000Y-56707106D02*
X134042894Y-56250000D01*
%TO.N,Net-(D1-A)*%
D68*
X227000000Y-93500000D02*
X227000000Y-97250000D01*
%TO.N,Net-(U12-SR)*%
D65*
X138450000Y-61230000D02*
X136022894Y-61230000D01*
%TO.N,Net-(U13-SR)*%
X121812500Y-90087500D02*
X123700000Y-88200000D01*
%TO.N,Net-(U9-IS)*%
X135200000Y-72100000D02*
X134500000Y-71400000D01*
%TO.N,Net-(U12-SR)*%
X123650000Y-56250000D02*
X134042894Y-56250000D01*
%TO.N,Net-(U13-IS)*%
X135200000Y-88200000D02*
X135200000Y-91400000D01*
X134200000Y-87200000D02*
X135200000Y-88200000D01*
X135760000Y-91960000D02*
X138450000Y-91960000D01*
%TO.N,Net-(U12-SR)*%
X136022894Y-61230000D02*
X134500000Y-59707107D01*
%TO.N,Net-(D1-A)*%
D68*
X232500000Y-97200000D02*
X227050000Y-97200000D01*
X227800000Y-92700000D02*
X227000000Y-93500000D01*
%TO.N,Net-(U9-IS)*%
D65*
X121477500Y-71400000D02*
X118790000Y-74087500D01*
%TO.N,Net-(U13-SR)*%
X134200000Y-88700000D02*
X134200000Y-92500000D01*
%TO.N,Net-(U9-IS)*%
X134500000Y-71400000D02*
X121477500Y-71400000D01*
%TO.N,Net-(U12-IS)*%
X135300000Y-59400000D02*
X135300000Y-55900000D01*
%TO.N,Net-(D1-A)*%
D68*
X229500000Y-92700000D02*
X227800000Y-92700000D01*
%TO.N,Net-(U12-IS)*%
D65*
X134750000Y-55350000D02*
X121615000Y-55350000D01*
%TO.N,Net-(U9-IS)*%
X138450000Y-75960000D02*
X135760000Y-75960000D01*
%TO.N,Net-(J1-Pin_2)*%
D67*
X248500000Y-112500000D02*
X247000000Y-114000000D01*
%TO.N,Net-(U12-IS)*%
D65*
X138450000Y-59960000D02*
X135860000Y-59960000D01*
%TO.N,Net-(U13-SR)*%
X123700000Y-88200000D02*
X133700000Y-88200000D01*
%TO.N,Net-(U9-IS)*%
X135200000Y-75400000D02*
X135200000Y-72100000D01*
%TO.N,Net-(U13-SR)*%
X134200000Y-92500000D02*
X134930000Y-93230000D01*
%TO.N,Net-(U12-IS)*%
X121615000Y-55350000D02*
X118877500Y-58087500D01*
%TO.N,Net-(U13-SR)*%
X121790000Y-90087500D02*
X121812500Y-90087500D01*
%TO.N,Net-(U12-IS)*%
X135860000Y-59960000D02*
X135300000Y-59400000D01*
%TO.N,Net-(U12-SR)*%
X121790000Y-58087500D02*
X121812500Y-58087500D01*
%TO.N,CTX1*%
X222750000Y-92000000D02*
X222750000Y-90000000D01*
X186210000Y-48500000D02*
X185710000Y-49000000D01*
X211400000Y-75650000D02*
X211400000Y-75627208D01*
%TO.N,R-*%
X242561600Y-78938400D02*
X236000000Y-85500000D01*
X207549000Y-20451000D02*
X212501000Y-20451000D01*
%TO.N,CTX1*%
X206250000Y-70000000D02*
X200250000Y-64000000D01*
X206250000Y-70500000D02*
X206250000Y-70000000D01*
%TO.N,R-*%
X217965000Y-47965000D02*
X217965000Y-48000000D01*
X210000000Y-40000000D02*
X210000000Y-30000000D01*
X226750000Y-85500000D02*
X217000000Y-75750000D01*
%TO.N,CTX1*%
X256500000Y-87509358D02*
X256500000Y-37000000D01*
X195000000Y-53000000D02*
X190500000Y-48500000D01*
X212500000Y-79750000D02*
X212500000Y-76750000D01*
%TO.N,R-*%
X217000000Y-75750000D02*
X217000000Y-61250000D01*
%TO.N,CTX1*%
X210850000Y-75100000D02*
X206250000Y-70500000D01*
X222750000Y-90000000D02*
X212500000Y-79750000D01*
X257740642Y-88750000D02*
X256500000Y-87509358D01*
X212500000Y-76750000D02*
X211400000Y-75650000D01*
X211400000Y-75627208D02*
X210872792Y-75100000D01*
X190500000Y-48500000D02*
X186210000Y-48500000D01*
%TO.N,R-*%
X216330249Y-46330249D02*
X217965000Y-47965000D01*
X236000000Y-85500000D02*
X226750000Y-85500000D01*
X212501000Y-20451000D02*
X213900000Y-21850000D01*
%TO.N,CTX1*%
X210872792Y-75100000D02*
X210850000Y-75100000D01*
X185710000Y-49000000D02*
X185710000Y-50200000D01*
%TO.N,+5V*%
X195200000Y-107700000D02*
X193677500Y-109222500D01*
D68*
X176000000Y-90250000D02*
X176000000Y-100750000D01*
%TO.N,GNDA*%
D65*
X116587500Y-91912500D02*
X116500000Y-92000000D01*
%TO.N,+5V*%
D68*
X181387500Y-60787500D02*
X181450000Y-60850000D01*
X190000000Y-104000000D02*
X191620000Y-105620000D01*
X175950000Y-68212500D02*
X177987500Y-68212500D01*
X177525000Y-88725000D02*
X176000000Y-90250000D01*
%TO.N,GNDA*%
D65*
X118790000Y-91912500D02*
X121790000Y-91912500D01*
%TO.N,Net-(D9-A)*%
X144000000Y-34650000D02*
X144000000Y-32250000D01*
%TO.N,+5V*%
D66*
X249000000Y-30000000D02*
X250500000Y-30000000D01*
D65*
X195200000Y-103600000D02*
X192900000Y-101300000D01*
D66*
X250500000Y-24500000D02*
X247900000Y-21900000D01*
%TO.N,GNDA*%
X124500000Y-114500000D02*
X130250000Y-114500000D01*
%TO.N,+5V*%
D68*
X178650000Y-67550000D02*
X178650000Y-60787500D01*
D65*
X195200000Y-103900000D02*
X195200000Y-107700000D01*
D68*
X179250000Y-104000000D02*
X190000000Y-104000000D01*
D66*
X257500000Y-91000000D02*
X247750000Y-81250000D01*
%TO.N,GNDA*%
X138450000Y-98310000D02*
X143500000Y-98310001D01*
X138450000Y-66310000D02*
X143809999Y-66309999D01*
%TO.N,+5V*%
X247500000Y-117750000D02*
X257500000Y-107750000D01*
D65*
X187000000Y-101300000D02*
X186900000Y-101200000D01*
D66*
X247750000Y-31250000D02*
X249000000Y-30000000D01*
D68*
X191620000Y-112120000D02*
X194000000Y-114500000D01*
%TO.N,GNDA*%
D66*
X138450000Y-82310000D02*
X143689999Y-82310001D01*
%TO.N,+5V*%
D68*
X216120000Y-113380000D02*
X216120000Y-109222500D01*
X175950000Y-81000000D02*
X177194400Y-82244400D01*
%TO.N,GNDA*%
D66*
X124500000Y-111100000D02*
X133650000Y-111100000D01*
%TO.N,+5V*%
D68*
X191620000Y-105620000D02*
X191620000Y-109222500D01*
D66*
X218972500Y-109222500D02*
X227500000Y-117750000D01*
D68*
X175950000Y-60787500D02*
X178650000Y-60787500D01*
D66*
X250500000Y-30000000D02*
X254087500Y-30000000D01*
%TO.N,GNDA*%
D69*
X111725000Y-114725000D02*
X112000000Y-115000000D01*
%TO.N,+5V*%
D68*
X194000000Y-114500000D02*
X215000000Y-114500000D01*
%TO.N,GNDA*%
D65*
X121790000Y-91912500D02*
X116587500Y-91912500D01*
D66*
X116587500Y-59912500D02*
X116500000Y-60000000D01*
%TO.N,+5V*%
D68*
X175950000Y-68212500D02*
X175950000Y-81000000D01*
%TO.N,GNDA*%
D66*
X121790000Y-59912500D02*
X116587500Y-59912500D01*
%TO.N,+5V*%
D68*
X181275000Y-88725000D02*
X177525000Y-88725000D01*
%TO.N,GNDA*%
D66*
X143690000Y-50310000D02*
X143750000Y-50250000D01*
%TO.N,+5V*%
D65*
X193677500Y-109222500D02*
X191620000Y-109222500D01*
D66*
X257500000Y-107750000D02*
X257500000Y-91000000D01*
%TO.N,GNDA*%
D68*
X155000000Y-105750000D02*
X148250000Y-105750000D01*
%TO.N,+5V*%
D66*
X250500000Y-30000000D02*
X250500000Y-24500000D01*
D68*
X191620000Y-109222500D02*
X191620000Y-112120000D01*
%TO.N,GNDA*%
D66*
X121790000Y-75912500D02*
X116587500Y-75912500D01*
X116587500Y-75912500D02*
X116500000Y-76000000D01*
%TO.N,+5V*%
X227500000Y-117750000D02*
X247500000Y-117750000D01*
X216120000Y-109222500D02*
X218972500Y-109222500D01*
%TO.N,GNDA*%
X130250000Y-114500000D02*
X133650000Y-111100000D01*
X138450000Y-50310000D02*
X143690000Y-50310000D01*
%TO.N,+5V*%
D68*
X177194400Y-82244400D02*
X181275000Y-82244400D01*
%TO.N,GNDA*%
X148250000Y-105750000D02*
X146000000Y-108000000D01*
%TO.N,+5V*%
X178650000Y-60787500D02*
X181387500Y-60787500D01*
X215000000Y-114500000D02*
X216120000Y-113380000D01*
D66*
X254087500Y-30000000D02*
X255087500Y-31000000D01*
X247750000Y-81250000D02*
X247750000Y-31250000D01*
%TO.N,GND*%
D68*
X216490000Y-21900000D02*
X216440000Y-21850000D01*
D66*
X249900000Y-40100000D02*
X250700000Y-39300000D01*
D68*
X157300000Y-61500000D02*
X157500000Y-61700000D01*
X157500000Y-45900000D02*
X157100000Y-45500000D01*
X157500000Y-92700000D02*
X157500000Y-77400000D01*
D66*
X184500000Y-37000000D02*
X184500000Y-39197500D01*
X250700000Y-39300000D02*
X253000000Y-39300000D01*
X192015000Y-38015000D02*
X191000000Y-37000000D01*
D68*
X154120000Y-61500000D02*
X157300000Y-61500000D01*
D66*
X209500000Y-77250000D02*
X210600000Y-78350000D01*
X191100000Y-83350000D02*
X191100000Y-89100000D01*
D68*
X154120000Y-77500000D02*
X157400000Y-77500000D01*
D66*
X186980000Y-51520000D02*
X186050000Y-52450000D01*
X186050000Y-52450000D02*
X186050000Y-58000000D01*
%TO.N,+5V*%
D65*
X192900000Y-101300000D02*
X187000000Y-101300000D01*
%TO.N,Net-(J4-Pin_2)*%
X193250000Y-37250000D02*
X193250000Y-41250000D01*
X188005000Y-32005000D02*
X188005000Y-30777500D01*
%TO.N,GND*%
D66*
X249900000Y-81400000D02*
X249900000Y-40100000D01*
%TO.N,Net-(J4-Pin_2)*%
D65*
X189677500Y-41137500D02*
X189715000Y-41175000D01*
X187115000Y-45115000D02*
X186980000Y-45250000D01*
X193250000Y-41250000D02*
X192500000Y-42000000D01*
%TO.N,GND*%
D66*
X252500000Y-83100000D02*
X251600000Y-83100000D01*
%TO.N,Net-(J4-Pin_2)*%
D65*
X193250000Y-37250000D02*
X188005000Y-32005000D01*
X187115000Y-41137500D02*
X187115000Y-45115000D01*
%TO.N,GND*%
D68*
X153805000Y-93230000D02*
X156970000Y-93230000D01*
D66*
X186980000Y-50200000D02*
X186980000Y-51520000D01*
X211100000Y-87600000D02*
X214500000Y-91000000D01*
%TO.N,Net-(J4-Pin_2)*%
D65*
X189715000Y-41175000D02*
X190540000Y-42000000D01*
%TO.N,Net-(J4-Pin_3)*%
X187750000Y-47000000D02*
X188250000Y-46500000D01*
X187152500Y-39275000D02*
X187115000Y-39312500D01*
%TO.N,GND*%
D66*
X192015000Y-40225000D02*
X192015000Y-38015000D01*
%TO.N,Net-(J4-Pin_3)*%
D65*
X182925000Y-44675000D02*
X185250000Y-47000000D01*
%TO.N,GND*%
D66*
X191100000Y-89100000D02*
X194500000Y-92500000D01*
X209500000Y-76000000D02*
X209500000Y-77250000D01*
%TO.N,Net-(J4-Pin_2)*%
D65*
X187115000Y-41137500D02*
X189677500Y-41137500D01*
X190540000Y-42000000D02*
X192500000Y-42000000D01*
%TO.N,GND*%
D66*
X211100000Y-82350000D02*
X211100000Y-87600000D01*
X251600000Y-83100000D02*
X249900000Y-81400000D01*
%TO.N,+5V*%
X247900000Y-21900000D02*
X245000000Y-21900000D01*
D68*
X177987500Y-68212500D02*
X178650000Y-67550000D01*
%TO.N,GND*%
X157400000Y-77500000D02*
X157500000Y-77400000D01*
D66*
X191462500Y-66500000D02*
X191450000Y-66487500D01*
%TO.N,+5V*%
D68*
X176000000Y-100750000D02*
X179250000Y-104000000D01*
%TO.N,GND*%
D66*
X194000000Y-66500000D02*
X191462500Y-66500000D01*
D68*
X157500000Y-77400000D02*
X157500000Y-61700000D01*
D66*
X194500000Y-83350000D02*
X194500000Y-92500000D01*
D68*
X157500000Y-61700000D02*
X157500000Y-45900000D01*
D66*
X184500000Y-39197500D02*
X184615000Y-39312500D01*
X186050000Y-58000000D02*
X186050000Y-60850000D01*
%TO.N,+5V*%
D65*
X195200000Y-103900000D02*
X195200000Y-103600000D01*
%TO.N,GND*%
D66*
X191450000Y-63912500D02*
X191450000Y-66487500D01*
D68*
X157100000Y-45500000D02*
X154120000Y-45500000D01*
X156970000Y-93230000D02*
X157500000Y-92700000D01*
%TO.N,Net-(D8-K)*%
D66*
X157000000Y-116250000D02*
X157000000Y-118250000D01*
%TO.N,+5VA*%
D68*
X157750000Y-102250000D02*
X159000000Y-103500000D01*
D66*
X138450000Y-79770000D02*
X135730000Y-79770000D01*
X144980000Y-52100000D02*
X146500000Y-50580000D01*
X135100000Y-51400000D02*
X135800000Y-52100000D01*
%TO.N,Net-(J4-Pin_3)*%
D65*
X182925000Y-30777500D02*
X182925000Y-44675000D01*
%TO.N,Net-(U9-SR)*%
X135130000Y-77230000D02*
X138450000Y-77230000D01*
X123600000Y-72300000D02*
X133700000Y-72300000D01*
%TO.N,Net-(D8-K)*%
D66*
X117000000Y-112500000D02*
X117000000Y-115000000D01*
X119000000Y-119000000D02*
X117000000Y-117000000D01*
%TO.N,Net-(U11-VO)*%
X145170000Y-93230000D02*
X146185000Y-93230000D01*
%TO.N,+5VA*%
X135100000Y-67200000D02*
X135800000Y-67900000D01*
D68*
X149400000Y-48900000D02*
X149400000Y-50580000D01*
D66*
X135730000Y-79770000D02*
X135200000Y-80300000D01*
%TO.N,Net-(U9-SR)*%
D65*
X121812500Y-74087500D02*
X123600000Y-72300000D01*
%TO.N,Net-(D8-K)*%
D66*
X120100000Y-109400000D02*
X117000000Y-112500000D01*
%TO.N,Net-(U11-VO)*%
X141360000Y-97040000D02*
X145170000Y-93230000D01*
%TO.N,+5VA*%
X135100000Y-48500000D02*
X135100000Y-51400000D01*
X138450000Y-47770000D02*
X135830000Y-47770000D01*
D68*
X148540000Y-48040000D02*
X149400000Y-48900000D01*
%TO.N,Net-(D8-K)*%
D66*
X124500000Y-109400000D02*
X120100000Y-109400000D01*
%TO.N,+5VA*%
X135830000Y-47770000D02*
X135100000Y-48500000D01*
D68*
X146500000Y-80040000D02*
X149240000Y-80040000D01*
%TO.N,Net-(U9-SR)*%
D65*
X134400000Y-76500000D02*
X135130000Y-77230000D01*
%TO.N,+5VA*%
X148540000Y-38290000D02*
X148540000Y-48040000D01*
D66*
X145900000Y-99800000D02*
X146185000Y-99515000D01*
X145180000Y-67900000D02*
X146500000Y-66580000D01*
X135600000Y-95770000D02*
X134900000Y-96470000D01*
%TO.N,Net-(U11-VO)*%
X138450000Y-97040000D02*
X141360000Y-97040000D01*
%TO.N,+5VA*%
D68*
X146500000Y-64040000D02*
X149240000Y-64040000D01*
%TO.N,Net-(U9-SR)*%
D65*
X121790000Y-74087500D02*
X121812500Y-74087500D01*
%TO.N,Net-(D8-K)*%
D66*
X156250000Y-119000000D02*
X119000000Y-119000000D01*
%TO.N,+5VA*%
X135100000Y-64300000D02*
X135100000Y-67200000D01*
%TO.N,Net-(J4-Pin_3)*%
D65*
X188250000Y-46500000D02*
X188250000Y-45250000D01*
X185682500Y-36317500D02*
X185682500Y-31710000D01*
%TO.N,Net-(U9-SR)*%
X133700000Y-72300000D02*
X134400000Y-73000000D01*
%TO.N,Net-(D8-K)*%
D66*
X157000000Y-118250000D02*
X156250000Y-119000000D01*
%TO.N,Net-(J4-Pin_3)*%
D65*
X184750000Y-30777500D02*
X182925000Y-30777500D01*
X187115000Y-37750000D02*
X185682500Y-36317500D01*
%TO.N,Net-(U9-SR)*%
X134400000Y-73000000D02*
X134400000Y-76500000D01*
%TO.N,Net-(J4-Pin_3)*%
X187115000Y-39312500D02*
X187115000Y-37750000D01*
%TO.N,+5VA*%
D68*
X146500000Y-48040000D02*
X148540000Y-48040000D01*
D66*
X135630000Y-63770000D02*
X135100000Y-64300000D01*
X135200000Y-83500000D02*
X135700000Y-84000000D01*
X146185000Y-99515000D02*
X146185000Y-98310000D01*
%TO.N,Net-(J4-Pin_3)*%
D65*
X189715000Y-39275000D02*
X187152500Y-39275000D01*
%TO.N,+5VA*%
X144000000Y-36475000D02*
X146725000Y-36475000D01*
%TO.N,Net-(J4-Pin_3)*%
X185250000Y-47000000D02*
X187750000Y-47000000D01*
X185682500Y-31710000D02*
X184750000Y-30777500D01*
%TO.N,+5VA*%
X146725000Y-36475000D02*
X148540000Y-38290000D01*
%TO.N,Net-(D8-K)*%
D66*
X117000000Y-117000000D02*
X117000000Y-115000000D01*
%TO.N,+5VA*%
X138450000Y-63770000D02*
X135630000Y-63770000D01*
X134900000Y-96470000D02*
X134900000Y-99200000D01*
D68*
X146500000Y-64040000D02*
X146500000Y-66580000D01*
%TO.N,TX*%
D65*
X229760000Y-44760000D02*
X223520000Y-51000000D01*
X168005000Y-30777500D02*
X168005000Y-27995000D01*
%TO.N,+5VA*%
D68*
X159000000Y-105750000D02*
X159000000Y-103500000D01*
X146500000Y-80040000D02*
X146500000Y-82580000D01*
%TO.N,TX*%
D65*
X207230500Y-50269500D02*
X205471092Y-48510092D01*
X202500000Y-45539000D02*
X202500000Y-45500000D01*
%TO.N,+5VA*%
D68*
X149400000Y-94500000D02*
X149400000Y-80200000D01*
X146000000Y-115400000D02*
X142700000Y-115400000D01*
%TO.N,TX*%
D65*
X168750000Y-27250000D02*
X194750000Y-27250000D01*
X208000000Y-51000000D02*
X207269500Y-50269500D01*
%TO.N,+5VA*%
D66*
X135700000Y-84000000D02*
X145080000Y-84000000D01*
D68*
X146185000Y-95770000D02*
X146185000Y-98310000D01*
X120700000Y-112800000D02*
X120500000Y-113000000D01*
%TO.N,TX*%
D65*
X168005000Y-27995000D02*
X168750000Y-27250000D01*
X207269500Y-50269500D02*
X207230500Y-50269500D01*
%TO.N,+5VA*%
D68*
X124500000Y-112800000D02*
X120700000Y-112800000D01*
X149240000Y-64040000D02*
X149400000Y-64200000D01*
X149400000Y-64200000D02*
X149400000Y-80200000D01*
%TO.N,TX*%
D65*
X202500000Y-45500000D02*
X196500000Y-39500000D01*
X196500000Y-35898023D02*
X196500000Y-36121932D01*
X196500000Y-39500000D02*
X196500000Y-36401817D01*
X203008097Y-46047097D02*
X202500000Y-45539000D01*
X223520000Y-51000000D02*
X208000000Y-51000000D01*
%TO.N,+5VA*%
D66*
X135200000Y-80300000D02*
X135200000Y-83500000D01*
D68*
X149240000Y-80040000D02*
X149400000Y-80200000D01*
X149400000Y-50580000D02*
X149400000Y-64200000D01*
D66*
X145080000Y-84000000D02*
X146500000Y-82580000D01*
X134900000Y-99200000D02*
X135500000Y-99800000D01*
D68*
X150125000Y-102250000D02*
X146185000Y-98310000D01*
D66*
X135500000Y-99800000D02*
X145900000Y-99800000D01*
D68*
X146500000Y-48040000D02*
X146500000Y-50580000D01*
%TO.N,TX*%
D65*
X196500000Y-29000000D02*
X196500000Y-35002389D01*
X194750000Y-27250000D02*
X196500000Y-29000000D01*
%TO.N,+5VA*%
D68*
X146185000Y-95770000D02*
X148300000Y-95770000D01*
D66*
X138450000Y-95770000D02*
X135600000Y-95770000D01*
D68*
X149400000Y-94670000D02*
X148300000Y-95770000D01*
X149400000Y-94500000D02*
X149400000Y-94670000D01*
D66*
X135800000Y-52100000D02*
X144980000Y-52100000D01*
X135800000Y-67900000D02*
X145180000Y-67900000D01*
D68*
X157750000Y-102250000D02*
X150125000Y-102250000D01*
%TO.N,RX*%
D65*
X228155000Y-42220000D02*
X227375000Y-43000000D01*
X227375000Y-45125000D02*
X222625000Y-49875000D01*
X165250000Y-26000000D02*
X195500000Y-26000000D01*
X197750000Y-28250000D02*
X197750000Y-34050777D01*
X229760000Y-42220000D02*
X228155000Y-42220000D01*
X195500000Y-26000000D02*
X197750000Y-28250000D01*
X162925000Y-30777500D02*
X162925000Y-28325000D01*
%TO.N,Net-(U10-VO)*%
D66*
X141360000Y-65040000D02*
X144900000Y-61500000D01*
%TO.N,Net-(U6-VO)*%
X138450000Y-49040000D02*
X141360000Y-49040000D01*
X146500000Y-45500000D02*
X144900000Y-45500000D01*
%TO.N,M1_R*%
X138450000Y-46500000D02*
X128790000Y-46500000D01*
D67*
X112300000Y-55600000D02*
X120300000Y-47600000D01*
X120300000Y-47600000D02*
X127690000Y-47600000D01*
%TO.N,RX*%
D65*
X200875000Y-39875000D02*
X197750000Y-36750000D01*
%TO.N,Net-(U8-SR)*%
X134300000Y-44730000D02*
X134300000Y-41000000D01*
X133500000Y-40200000D02*
X124000000Y-40200000D01*
X134300000Y-41000000D02*
X133500000Y-40200000D01*
X134800000Y-45230000D02*
X134300000Y-44730000D01*
%TO.N,Net-(U10-VO)*%
D66*
X144900000Y-61500000D02*
X146500000Y-61500000D01*
%TO.N,Net-(U8-SR)*%
D65*
X124000000Y-40200000D02*
X122112500Y-42087500D01*
X122112500Y-42087500D02*
X121790000Y-42087500D01*
X138450000Y-45230000D02*
X134800000Y-45230000D01*
%TO.N,Net-(U8-IS)*%
X118790000Y-42087500D02*
X121477500Y-39400000D01*
X135200000Y-43560000D02*
X135600000Y-43960000D01*
X121477500Y-39400000D02*
X134100000Y-39400000D01*
X134100000Y-39400000D02*
X135200000Y-40500000D01*
%TO.N,+21VA*%
D66*
X118800000Y-107700000D02*
X124500000Y-107700000D01*
D68*
X111800000Y-37700000D02*
X136000000Y-37700000D01*
%TO.N,M1_R*%
D67*
X110880000Y-67420000D02*
X112300000Y-66000000D01*
%TO.N,+21VA*%
D68*
X107500000Y-40000000D02*
X109500000Y-40000000D01*
%TO.N,RX*%
D65*
X222625000Y-49875000D02*
X210875000Y-49875000D01*
%TO.N,Net-(U10-VO)*%
D66*
X138450000Y-65040000D02*
X141360000Y-65040000D01*
%TO.N,M1_R*%
D67*
X105500000Y-67420000D02*
X110880000Y-67420000D01*
X127690000Y-47600000D02*
X128790000Y-46500000D01*
%TO.N,Net-(U8-IS)*%
D65*
X135200000Y-40500000D02*
X135200000Y-43560000D01*
X135600000Y-43960000D02*
X138450000Y-43960000D01*
%TO.N,RX*%
X197750000Y-36750000D02*
X197750000Y-35226297D01*
X210875000Y-49875000D02*
X200875000Y-39875000D01*
X162925000Y-28325000D02*
X165250000Y-26000000D01*
%TO.N,Net-(U6-VO)*%
D66*
X144900000Y-45500000D02*
X141360000Y-49040000D01*
%TO.N,RX*%
D65*
X227375000Y-43000000D02*
X227375000Y-45125000D01*
%TO.N,M1_R*%
D67*
X112300000Y-66000000D02*
X112300000Y-55600000D01*
%TO.N,RX*%
D65*
X200875000Y-39875000D02*
X198963142Y-37963142D01*
%TO.N,Net-(U7-VO)*%
D66*
X145000000Y-77500000D02*
X146500000Y-77500000D01*
%TO.N,+21VA*%
D68*
X107500000Y-99200000D02*
X105500000Y-99200000D01*
%TO.N,Net-(D4-K)*%
D66*
X201000000Y-78350000D02*
X196350000Y-78350000D01*
%TO.N,+21VA*%
X115500000Y-111000000D02*
X118800000Y-107700000D01*
%TO.N,Net-(U7-VO)*%
X138450000Y-81040000D02*
X141460000Y-81040000D01*
%TO.N,+21VA*%
D68*
X109500000Y-40000000D02*
X111800000Y-37700000D01*
%TO.N,Net-(D4-K)*%
X196200000Y-83350000D02*
X196200000Y-77700000D01*
%TO.N,+21V*%
D66*
X208100000Y-88650000D02*
X208100000Y-83800000D01*
%TO.N,Net-(D5-A)*%
X256912500Y-33975000D02*
X256937500Y-34000000D01*
%TO.N,Net-(U7-VO)*%
X141460000Y-81040000D02*
X145000000Y-77500000D01*
%TO.N,Net-(D5-A)*%
X256912500Y-31000000D02*
X256912500Y-33975000D01*
%TO.N,Net-(D4-K)*%
D68*
X195105600Y-76605600D02*
X181275000Y-76605600D01*
D66*
X205600000Y-78350000D02*
X201000000Y-78350000D01*
%TO.N,+21VA*%
D68*
X124500000Y-107700000D02*
X124500000Y-103000000D01*
%TO.N,Net-(D4-K)*%
X196200000Y-77700000D02*
X195105600Y-76605600D01*
%TO.N,+21VA*%
X105500000Y-99200000D02*
X104800000Y-99900000D01*
D66*
X113275000Y-111000000D02*
X115500000Y-111000000D01*
%TO.N,Net-(D4-K)*%
X201000000Y-78350000D02*
X198900000Y-78350000D01*
%TO.N,+21VA*%
D68*
X124500000Y-103000000D02*
X120700000Y-99200000D01*
X136000000Y-37700000D02*
X139000000Y-40700000D01*
%TO.N,Net-(D4-K)*%
D66*
X196350000Y-78350000D02*
X196200000Y-78500000D01*
%TO.N,+21VA*%
D68*
X104800000Y-99900000D02*
X104800000Y-101300000D01*
X120700000Y-99200000D02*
X107500000Y-99200000D01*
%TO.N,Net-(D4-K)*%
D66*
X196200000Y-78500000D02*
X196200000Y-77700000D01*
X196200000Y-81050000D02*
X196200000Y-83350000D01*
%TO.N,T+*%
D65*
X211500000Y-29750000D02*
X211500000Y-38250000D01*
%TO.N,+21V*%
D68*
X202925000Y-83475000D02*
X198025000Y-83475000D01*
D66*
X208100000Y-83800000D02*
X209550000Y-82350000D01*
%TO.N,T+*%
D65*
X238561600Y-67019751D02*
X238561600Y-80938400D01*
X235000000Y-84500000D02*
X227750000Y-84500000D01*
%TO.N,+21V*%
D68*
X220200000Y-100750000D02*
X227000000Y-100750000D01*
X198025000Y-83475000D02*
X197900000Y-83350000D01*
%TO.N,Net-(D7-A)*%
D66*
X134250000Y-22750000D02*
X135912500Y-24412500D01*
X119720000Y-31840000D02*
X119720000Y-33520000D01*
%TO.N,T+*%
D65*
X218500000Y-75250000D02*
X218500000Y-58750000D01*
X238561600Y-80938400D02*
X235000000Y-84500000D01*
X227750000Y-84500000D02*
X218500000Y-75250000D01*
%TO.N,Net-(D7-A)*%
D66*
X121400000Y-35200000D02*
X137100000Y-35200000D01*
%TO.N,+21V*%
D68*
X208100000Y-88650000D02*
X202925000Y-83475000D01*
%TO.N,Net-(D7-A)*%
D66*
X137100000Y-35200000D02*
X138000000Y-34300000D01*
X135912500Y-24412500D02*
X138000000Y-24412500D01*
%TO.N,T+*%
D65*
X207560000Y-25810000D02*
X211500000Y-29750000D01*
%TO.N,+21V*%
D68*
X208100000Y-88650000D02*
X220200000Y-100750000D01*
%TO.N,T+*%
D65*
X238561600Y-36870000D02*
X238561600Y-58921725D01*
%TO.N,Net-(D7-A)*%
D66*
X119720000Y-33520000D02*
X121400000Y-35200000D01*
X138000000Y-34300000D02*
X138000000Y-24412500D01*
%TO.N,T+*%
D65*
X211500000Y-38250000D02*
X219250000Y-46000000D01*
%TO.N,Net-(D7-A)*%
D66*
X134000000Y-22750000D02*
X134250000Y-22750000D01*
%TO.N,T+*%
D65*
X207560000Y-24390000D02*
X207560000Y-25810000D01*
%TO.N,T-*%
X220250000Y-75000000D02*
X220250000Y-56750000D01*
X228750000Y-83500000D02*
X220250000Y-75000000D01*
X236500000Y-81000000D02*
X234000000Y-83500000D01*
X236500000Y-36931600D02*
X236500000Y-49474845D01*
X238561600Y-34870000D02*
X236500000Y-36931600D01*
X236500000Y-55744284D02*
X236500000Y-81000000D01*
X234000000Y-83500000D02*
X228750000Y-83500000D01*
X221000000Y-44500000D02*
X213600000Y-37100000D01*
%TO.N,R+*%
X220250000Y-33250000D02*
X222500000Y-35500000D01*
X233250000Y-81250000D02*
X232250000Y-82250000D01*
X222000000Y-75000000D02*
X222000000Y-55000000D01*
X229250000Y-82250000D02*
X222000000Y-75000000D01*
X233250000Y-37500000D02*
X233250000Y-41358160D01*
X210100000Y-24390000D02*
X210100000Y-25600000D01*
X214250000Y-29750000D02*
X214250000Y-31500000D01*
X240691600Y-33000000D02*
X237750000Y-33000000D01*
X242561600Y-34870000D02*
X240691600Y-33000000D01*
X232250000Y-82250000D02*
X229250000Y-82250000D01*
%TO.N,T-*%
X221000000Y-47750000D02*
X221000000Y-44500000D01*
%TO.N,R+*%
X214250000Y-31500000D02*
X216000000Y-33250000D01*
X210100000Y-25600000D02*
X214250000Y-29750000D01*
X216000000Y-33250000D02*
X220250000Y-33250000D01*
%TO.N,R-*%
X205500000Y-22500000D02*
X207549000Y-20451000D01*
%TO.N,R+*%
X237750000Y-33000000D02*
X233250000Y-37500000D01*
%TO.N,Net-(J3-RCT)*%
X212640000Y-24390000D02*
X211360000Y-23110000D01*
X211360000Y-23110000D02*
X211360000Y-21850000D01*
%TO.N,R+*%
X233250000Y-48523233D02*
X233250000Y-81250000D01*
%TO.N,R-*%
X210000000Y-30000000D02*
X205500000Y-25500000D01*
X213792619Y-43792619D02*
X210000000Y-40000000D01*
X242561600Y-36870000D02*
X242561600Y-78938400D01*
%TO.N,R+*%
X222500000Y-35500000D02*
X222500000Y-46000000D01*
%TO.N,R-*%
X205500000Y-25500000D02*
X205500000Y-22500000D01*
%TD*%
%TA.AperFunction,Conductor*%
%TO.N,+5VA*%
G36*
X157768242Y-104769685D02*
G01*
X157813997Y-104822489D01*
X157823941Y-104891647D01*
X157804305Y-104942891D01*
X157764505Y-105002455D01*
X157764503Y-105002459D01*
X157750000Y-105075371D01*
X157750000Y-106424628D01*
X157764503Y-106497540D01*
X157764505Y-106497544D01*
X157819760Y-106580239D01*
X157902455Y-106635494D01*
X157902459Y-106635496D01*
X157975371Y-106649999D01*
X157975374Y-106650000D01*
X160024626Y-106650000D01*
X160024628Y-106649999D01*
X160097540Y-106635496D01*
X160097544Y-106635494D01*
X160180239Y-106580239D01*
X160235494Y-106497544D01*
X160235496Y-106497540D01*
X160249999Y-106424628D01*
X160250000Y-106424626D01*
X160250000Y-105075373D01*
X160249999Y-105075371D01*
X160235496Y-105002459D01*
X160235494Y-105002455D01*
X160195695Y-104942891D01*
X160174817Y-104876214D01*
X160193301Y-104808833D01*
X160245280Y-104762143D01*
X160298797Y-104750000D01*
X160626000Y-104750000D01*
X160693039Y-104769685D01*
X160738794Y-104822489D01*
X160750000Y-104874000D01*
X160750000Y-111209277D01*
X160730315Y-111276316D01*
X160713911Y-111296728D01*
X158615969Y-113405688D01*
X158554733Y-113439334D01*
X158528707Y-113442235D01*
X148562485Y-113494434D01*
X147500000Y-114562499D01*
X147500000Y-117626000D01*
X147480315Y-117693039D01*
X147427511Y-117738794D01*
X147376000Y-117750000D01*
X147259842Y-117750000D01*
X147192803Y-117730315D01*
X147147048Y-117677511D01*
X147137104Y-117608353D01*
X147166129Y-117544797D01*
X147172161Y-117538319D01*
X147180239Y-117530240D01*
X147235494Y-117447544D01*
X147235496Y-117447540D01*
X147249999Y-117374628D01*
X147250000Y-117374626D01*
X147250000Y-113425373D01*
X147249999Y-113425371D01*
X147235496Y-113352459D01*
X147235494Y-113352455D01*
X147180239Y-113269760D01*
X147097544Y-113214505D01*
X147097540Y-113214503D01*
X147024627Y-113200000D01*
X144975373Y-113200000D01*
X144902459Y-113214503D01*
X144902455Y-113214505D01*
X144819760Y-113269760D01*
X144764505Y-113352455D01*
X144764503Y-113352459D01*
X144750000Y-113425371D01*
X144750000Y-117374628D01*
X144764503Y-117447540D01*
X144764505Y-117447544D01*
X144819760Y-117530240D01*
X144827839Y-117538319D01*
X144861324Y-117599642D01*
X144856340Y-117669334D01*
X144814468Y-117725267D01*
X144749004Y-117749684D01*
X144740158Y-117750000D01*
X144624000Y-117750000D01*
X144556961Y-117730315D01*
X144511206Y-117677511D01*
X144500000Y-117626000D01*
X144500000Y-116625000D01*
X144125000Y-116250000D01*
X142124000Y-116250000D01*
X142056961Y-116230315D01*
X142011206Y-116177511D01*
X142000000Y-116126000D01*
X142000000Y-112889069D01*
X142019685Y-112822030D01*
X142036570Y-112801138D01*
X143100913Y-111742859D01*
X143162328Y-111709551D01*
X143189042Y-111706794D01*
X150125010Y-111746429D01*
X150750000Y-111125000D01*
X150750000Y-109770112D01*
X150769685Y-109703073D01*
X150786319Y-109682431D01*
X151182431Y-109286319D01*
X151243754Y-109252834D01*
X151270112Y-109250000D01*
X155178938Y-109250000D01*
X155245977Y-109269685D01*
X155291732Y-109322489D01*
X155301676Y-109391647D01*
X155272651Y-109455203D01*
X155266619Y-109461681D01*
X155247400Y-109480900D01*
X155247400Y-111741500D01*
X158752600Y-111741500D01*
X158752600Y-109480900D01*
X157068462Y-109480900D01*
X157001423Y-109461215D01*
X156955668Y-109408411D01*
X156945724Y-109339253D01*
X156974749Y-109275697D01*
X156980781Y-109269219D01*
X157000000Y-109250000D01*
X157000000Y-104874000D01*
X157019685Y-104806961D01*
X157072489Y-104761206D01*
X157124000Y-104750000D01*
X157701203Y-104750000D01*
X157768242Y-104769685D01*
G37*
%TD.AperFunction*%
%TD*%
%TA.AperFunction,Conductor*%
%TO.N,GND*%
G36*
X174644725Y-28255075D02*
G01*
X174671524Y-28262256D01*
X174738317Y-28300818D01*
X174738320Y-28300820D01*
X175942487Y-29504987D01*
X175966164Y-29535844D01*
X175980036Y-29559870D01*
X176000000Y-29634369D01*
X176000000Y-51750000D01*
X178750000Y-54500000D01*
X186831384Y-54500000D01*
X186869947Y-54505077D01*
X186885417Y-54509222D01*
X186952212Y-54547785D01*
X186990776Y-54614576D01*
X186994922Y-54630047D01*
X187000000Y-54668616D01*
X187000000Y-61831383D01*
X186994922Y-61869952D01*
X186990776Y-61885423D01*
X186952209Y-61952216D01*
X186885425Y-61990775D01*
X186869955Y-61994921D01*
X186831384Y-62000000D01*
X185668616Y-62000000D01*
X185630046Y-61994921D01*
X185615930Y-61991138D01*
X185549137Y-61952572D01*
X185510575Y-61885775D01*
X185505500Y-61847217D01*
X185505500Y-59699000D01*
X185503744Y-59639596D01*
X185501914Y-59628287D01*
X185500000Y-59604484D01*
X185500000Y-59375000D01*
X185457283Y-59332283D01*
X185421248Y-59273921D01*
X185413799Y-59251511D01*
X185413798Y-59251508D01*
X185319603Y-59071183D01*
X185319602Y-59071181D01*
X185191034Y-58913504D01*
X185136496Y-58858966D01*
X185047663Y-58780061D01*
X185047660Y-58780059D01*
X185047659Y-58780058D01*
X184875923Y-58670990D01*
X184776852Y-58633344D01*
X184724420Y-58599420D01*
X184625000Y-58500000D01*
X175000000Y-58500000D01*
X174000000Y-59500000D01*
X174000000Y-61750000D01*
X174750000Y-62500000D01*
X176831384Y-62500000D01*
X176869947Y-62505077D01*
X176885417Y-62509222D01*
X176952212Y-62547785D01*
X176990776Y-62614576D01*
X176994922Y-62630047D01*
X177000000Y-62668616D01*
X177000000Y-66694480D01*
X176994922Y-66733049D01*
X176990776Y-66748520D01*
X176952209Y-66815313D01*
X176885417Y-66853874D01*
X176879453Y-66855472D01*
X176804484Y-66856033D01*
X176621411Y-66809903D01*
X176621407Y-66809902D01*
X176552514Y-66804481D01*
X176552514Y-66804480D01*
X176501303Y-66800451D01*
X176489217Y-66799500D01*
X176489214Y-66799500D01*
X175410068Y-66799500D01*
X175407509Y-66799758D01*
X175365623Y-66803053D01*
X175365622Y-66803054D01*
X175284424Y-66809444D01*
X175276513Y-66809754D01*
X175268026Y-66812565D01*
X175257726Y-66815160D01*
X175241264Y-66819308D01*
X175179659Y-66834831D01*
X175060318Y-66864902D01*
X175060310Y-66864904D01*
X174855378Y-66957988D01*
X174855358Y-66958002D01*
X174849147Y-66962306D01*
X174814555Y-66980095D01*
X174783381Y-66991266D01*
X174733119Y-67000000D01*
X174250000Y-67000000D01*
X174250000Y-67765984D01*
X174248866Y-67784329D01*
X174246616Y-67802465D01*
X174243234Y-67820525D01*
X174234905Y-67853578D01*
X174234904Y-67853582D01*
X174234901Y-67853603D01*
X174224500Y-67985791D01*
X174224500Y-68616323D01*
X174224982Y-68620333D01*
X174234903Y-68746410D01*
X174243234Y-68779473D01*
X174246616Y-68797532D01*
X174248866Y-68815666D01*
X174250000Y-68834013D01*
X174250000Y-104875000D01*
X175125000Y-105750000D01*
X177668666Y-105750000D01*
X177707225Y-105755075D01*
X177734024Y-105762256D01*
X177800817Y-105800818D01*
X177800820Y-105800820D01*
X178692487Y-106692487D01*
X178716164Y-106723344D01*
X178730036Y-106747370D01*
X178750000Y-106821869D01*
X178750000Y-111168665D01*
X178744923Y-111207229D01*
X178737743Y-111234025D01*
X178699179Y-111300820D01*
X177307512Y-112692487D01*
X177276658Y-112716163D01*
X177252633Y-112730035D01*
X177178133Y-112750000D01*
X170018834Y-112750000D01*
X169980270Y-112744923D01*
X169953474Y-112737743D01*
X169886679Y-112699179D01*
X167557512Y-110370012D01*
X167533832Y-110339151D01*
X167519961Y-110315125D01*
X167500000Y-110240627D01*
X167500000Y-36643834D01*
X167505076Y-36605275D01*
X167507441Y-36596444D01*
X167512256Y-36578477D01*
X167550817Y-36511683D01*
X168254991Y-35807508D01*
X168285845Y-35783833D01*
X168309874Y-35769960D01*
X168384372Y-35750000D01*
X170140625Y-35750000D01*
X170750000Y-35140625D01*
X170750000Y-28418616D01*
X170755076Y-28380056D01*
X170759221Y-28364585D01*
X170797783Y-28297789D01*
X170864575Y-28259223D01*
X170880056Y-28255076D01*
X170918616Y-28250000D01*
X174606166Y-28250000D01*
X174644725Y-28255075D01*
G37*
%TD.AperFunction*%
%TD*%
%TA.AperFunction,Conductor*%
%TO.N,+21VA*%
G36*
X140325500Y-40019962D02*
G01*
X140380038Y-40074500D01*
X140400000Y-40149000D01*
X140400000Y-42951000D01*
X140380038Y-43025500D01*
X140325500Y-43080038D01*
X140251000Y-43100000D01*
X136649000Y-43100000D01*
X136574500Y-43080038D01*
X136519962Y-43025500D01*
X136500000Y-42951000D01*
X136500000Y-40149000D01*
X136519962Y-40074500D01*
X136574500Y-40019962D01*
X136649000Y-40000000D01*
X140251000Y-40000000D01*
X140325500Y-40019962D01*
G37*
%TD.AperFunction*%
%TD*%
%TA.AperFunction,Conductor*%
%TO.N,Net-(D10-A1)*%
G36*
X125443039Y-21519685D02*
G01*
X125488794Y-21572489D01*
X125500000Y-21624000D01*
X125500000Y-24875000D01*
X126625000Y-26000000D01*
X130376000Y-26000000D01*
X130443039Y-26019685D01*
X130488794Y-26072489D01*
X130500000Y-26124000D01*
X130500000Y-28876000D01*
X130480315Y-28943039D01*
X130427511Y-28988794D01*
X130376000Y-29000000D01*
X116999999Y-29000000D01*
X116000000Y-29999999D01*
X116000000Y-32876000D01*
X115980315Y-32943039D01*
X115927511Y-32988794D01*
X115876000Y-33000000D01*
X112124000Y-33000000D01*
X112056961Y-32980315D01*
X112011206Y-32927511D01*
X112000000Y-32876000D01*
X112000000Y-27624000D01*
X112019685Y-27556961D01*
X112072489Y-27511206D01*
X112124000Y-27500000D01*
X117000000Y-27500000D01*
X118500000Y-26000000D01*
X118500000Y-21624000D01*
X118519685Y-21556961D01*
X118572489Y-21511206D01*
X118624000Y-21500000D01*
X125376000Y-21500000D01*
X125443039Y-21519685D01*
G37*
%TD.AperFunction*%
%TD*%
%TA.AperFunction,Conductor*%
%TO.N,GND*%
G36*
X237925500Y-91519962D02*
G01*
X237980038Y-91574500D01*
X238000000Y-91649000D01*
X238000000Y-93851000D01*
X237980038Y-93925500D01*
X237925500Y-93980038D01*
X237851000Y-94000000D01*
X232850000Y-94000000D01*
X232400000Y-94450000D01*
X232400000Y-95450500D01*
X232380038Y-95525000D01*
X232325500Y-95579538D01*
X232251000Y-95599500D01*
X230941969Y-95599500D01*
X230882273Y-95604807D01*
X230822582Y-95610114D01*
X230822579Y-95610114D01*
X230822577Y-95610115D01*
X230626949Y-95666091D01*
X230446591Y-95760303D01*
X230446590Y-95760303D01*
X230439021Y-95766476D01*
X230368668Y-95798086D01*
X230344860Y-95800000D01*
X229849000Y-95800000D01*
X229774500Y-95780038D01*
X229719962Y-95725500D01*
X229700000Y-95651000D01*
X229700000Y-94549000D01*
X229719962Y-94474500D01*
X229774500Y-94419962D01*
X229849000Y-94400000D01*
X230300000Y-94400000D01*
X230500000Y-94200000D01*
X230500000Y-94199999D01*
X230506263Y-94184880D01*
X230553215Y-94123690D01*
X230559053Y-94119431D01*
X230567154Y-94113819D01*
X230726319Y-93954654D01*
X230854507Y-93769626D01*
X230903370Y-93662051D01*
X230947595Y-93564687D01*
X230969655Y-93477139D01*
X231002596Y-93346412D01*
X231013000Y-93214217D01*
X231012999Y-92185784D01*
X231002596Y-92053588D01*
X230947596Y-91835317D01*
X230947594Y-91835313D01*
X230946534Y-91831105D01*
X230947688Y-91753986D01*
X230985657Y-91689342D01*
X231131360Y-91543640D01*
X231198155Y-91505077D01*
X231236718Y-91500000D01*
X237851000Y-91500000D01*
X237925500Y-91519962D01*
G37*
%TD.AperFunction*%
%TD*%
%TA.AperFunction,Conductor*%
%TO.N,+21VA*%
G36*
X140343039Y-56319685D02*
G01*
X140388794Y-56372489D01*
X140400000Y-56424000D01*
X140400000Y-58976000D01*
X140380315Y-59043039D01*
X140327511Y-59088794D01*
X140276000Y-59100000D01*
X136624000Y-59100000D01*
X136556961Y-59080315D01*
X136511206Y-59027511D01*
X136500000Y-58976000D01*
X136500000Y-56424000D01*
X136519685Y-56356961D01*
X136572489Y-56311206D01*
X136624000Y-56300000D01*
X140276000Y-56300000D01*
X140343039Y-56319685D01*
G37*
%TD.AperFunction*%
%TD*%
%TA.AperFunction,Conductor*%
%TO.N,GNDA*%
G36*
X108294032Y-89019962D02*
G01*
X108324891Y-89043641D01*
X109456359Y-90175109D01*
X109494923Y-90241904D01*
X109500000Y-90280468D01*
X109500000Y-93813282D01*
X109480038Y-93887782D01*
X109456359Y-93918641D01*
X107918641Y-95456359D01*
X107851846Y-95494923D01*
X107813282Y-95500000D01*
X103843750Y-95500000D01*
X102500000Y-96843750D01*
X102500000Y-105009766D01*
X104990234Y-107500000D01*
X112399220Y-107500000D01*
X112473720Y-107519962D01*
X112504579Y-107543641D01*
X113990103Y-109029165D01*
X114028667Y-109095960D01*
X114028667Y-109173088D01*
X113990103Y-109239883D01*
X113923308Y-109278447D01*
X113873055Y-109283065D01*
X113805945Y-109277784D01*
X113764217Y-109274500D01*
X113764211Y-109274500D01*
X113135791Y-109274500D01*
X113135788Y-109274500D01*
X113135784Y-109274501D01*
X113090622Y-109278054D01*
X113003593Y-109284903D01*
X113003589Y-109284903D01*
X113003588Y-109284904D01*
X112966264Y-109294308D01*
X112785312Y-109339904D01*
X112580376Y-109432991D01*
X112395344Y-109561182D01*
X112236182Y-109720344D01*
X112107991Y-109905376D01*
X112014904Y-110110312D01*
X111959903Y-110328593D01*
X111949500Y-110460789D01*
X111949500Y-111539208D01*
X111949501Y-111539211D01*
X111959903Y-111671406D01*
X111959903Y-111671409D01*
X111959904Y-111671412D01*
X111972565Y-111721658D01*
X112014904Y-111889687D01*
X112107991Y-112094623D01*
X112107992Y-112094625D01*
X112107993Y-112094626D01*
X112236181Y-112279654D01*
X112395346Y-112438819D01*
X112580374Y-112567007D01*
X112580375Y-112567007D01*
X112580376Y-112567008D01*
X112785312Y-112660095D01*
X112822640Y-112669500D01*
X113003588Y-112715096D01*
X113135783Y-112725500D01*
X113764216Y-112725499D01*
X113896412Y-112715096D01*
X114114683Y-112660096D01*
X114289381Y-112580744D01*
X114365465Y-112568110D01*
X114437675Y-112595210D01*
X114486661Y-112654785D01*
X114500000Y-112716406D01*
X114500000Y-115594532D01*
X114480038Y-115669032D01*
X114456359Y-115699891D01*
X113699891Y-116456359D01*
X113633096Y-116494923D01*
X113594532Y-116500000D01*
X111186718Y-116500000D01*
X111112218Y-116480038D01*
X111081359Y-116456359D01*
X110043641Y-115418641D01*
X110005077Y-115351846D01*
X110000000Y-115313282D01*
X110000000Y-112843750D01*
X109156250Y-112000000D01*
X100399500Y-112000000D01*
X100325000Y-111980038D01*
X100270462Y-111925500D01*
X100250500Y-111851000D01*
X100250500Y-89149000D01*
X100270462Y-89074500D01*
X100325000Y-89019962D01*
X100399500Y-89000000D01*
X108219532Y-89000000D01*
X108294032Y-89019962D01*
G37*
%TD.AperFunction*%
%TD*%
%TA.AperFunction,Conductor*%
%TO.N,GND*%
G36*
X230943039Y-20270185D02*
G01*
X230988794Y-20322989D01*
X231000000Y-20374500D01*
X231000000Y-22448637D01*
X230980315Y-22515676D01*
X230963681Y-22536318D01*
X230317478Y-23182520D01*
X230256155Y-23216005D01*
X230191479Y-23212770D01*
X230155975Y-23201234D01*
X230064534Y-23171522D01*
X229889995Y-23143878D01*
X229862352Y-23139500D01*
X229657648Y-23139500D01*
X229633329Y-23143351D01*
X229455465Y-23171522D01*
X229260775Y-23234782D01*
X229257438Y-23236483D01*
X229201140Y-23250000D01*
X216051362Y-23250000D01*
X215984323Y-23230315D01*
X215963681Y-23213681D01*
X215286319Y-22536319D01*
X215252834Y-22474996D01*
X215250000Y-22448638D01*
X215250000Y-20374500D01*
X215269685Y-20307461D01*
X215322489Y-20261706D01*
X215374000Y-20250500D01*
X230876000Y-20250500D01*
X230943039Y-20270185D01*
G37*
%TD.AperFunction*%
%TD*%
%TA.AperFunction,Conductor*%
%TO.N,GNDA*%
G36*
X117877416Y-43513338D02*
G01*
X117925317Y-43535096D01*
X118143588Y-43590096D01*
X118275783Y-43600500D01*
X119304216Y-43600499D01*
X119436412Y-43590096D01*
X119654683Y-43535096D01*
X119702583Y-43513338D01*
X119764203Y-43500000D01*
X120815797Y-43500000D01*
X120877416Y-43513338D01*
X120925317Y-43535096D01*
X121143588Y-43590096D01*
X121275783Y-43600500D01*
X122304216Y-43600499D01*
X122436412Y-43590096D01*
X122654683Y-43535096D01*
X122702583Y-43513338D01*
X122764203Y-43500000D01*
X122851000Y-43500000D01*
X122925500Y-43519962D01*
X122980038Y-43574500D01*
X123000000Y-43649000D01*
X123000000Y-44851000D01*
X122980038Y-44925500D01*
X122925500Y-44980038D01*
X122851000Y-45000000D01*
X112875000Y-45000000D01*
X109500000Y-48375000D01*
X109500000Y-57563282D01*
X109480038Y-57637782D01*
X109456359Y-57668641D01*
X108168641Y-58956359D01*
X108101846Y-58994923D01*
X108063282Y-59000000D01*
X104149000Y-59000000D01*
X104074500Y-58980038D01*
X104019962Y-58925500D01*
X104000000Y-58851000D01*
X104000000Y-47436718D01*
X104019962Y-47362218D01*
X104043641Y-47331359D01*
X107831359Y-43543641D01*
X107898154Y-43505077D01*
X107936718Y-43500000D01*
X117815797Y-43500000D01*
X117877416Y-43513338D01*
G37*
%TD.AperFunction*%
%TD*%
%TA.AperFunction,Conductor*%
%TO.N,GND*%
G36*
X201869947Y-88005077D02*
G01*
X201885417Y-88009222D01*
X201952212Y-88047785D01*
X201990776Y-88114576D01*
X201994922Y-88130047D01*
X202000000Y-88168616D01*
X202000000Y-93500000D01*
X210356166Y-93500000D01*
X210394725Y-93505075D01*
X210421524Y-93512256D01*
X210488317Y-93550818D01*
X210488320Y-93550820D01*
X211942487Y-95004987D01*
X211966164Y-95035844D01*
X211980036Y-95059870D01*
X212000000Y-95134369D01*
X212000000Y-101953125D01*
X214296875Y-104250000D01*
X241043666Y-104250000D01*
X241082225Y-104255075D01*
X241109024Y-104262256D01*
X241175817Y-104300818D01*
X241175820Y-104300820D01*
X244192487Y-107317487D01*
X244216164Y-107348344D01*
X244230036Y-107372370D01*
X244250000Y-107446869D01*
X244250000Y-115496790D01*
X244244923Y-115535354D01*
X244237743Y-115562150D01*
X244199179Y-115628945D01*
X243135637Y-116692487D01*
X243104783Y-116716163D01*
X243080758Y-116730035D01*
X243006258Y-116750000D01*
X239643834Y-116750000D01*
X239605270Y-116744923D01*
X239578474Y-116737743D01*
X239511679Y-116699179D01*
X238057512Y-115245012D01*
X238033832Y-115214151D01*
X238019961Y-115190125D01*
X238000000Y-115115627D01*
X238000000Y-108687500D01*
X235312500Y-106000000D01*
X204468750Y-106000000D01*
X203500000Y-106968750D01*
X203500000Y-111331383D01*
X203494922Y-111369952D01*
X203490776Y-111385423D01*
X203452209Y-111452216D01*
X203385425Y-111490775D01*
X203369955Y-111494921D01*
X203331384Y-111500000D01*
X198300084Y-111500000D01*
X198261520Y-111494923D01*
X198234724Y-111487743D01*
X198167929Y-111449179D01*
X197057512Y-110338762D01*
X197033832Y-110307901D01*
X197019961Y-110283875D01*
X197000000Y-110209377D01*
X197000000Y-102875000D01*
X194125000Y-100000000D01*
X193961211Y-100000000D01*
X193922647Y-99994923D01*
X193891570Y-99986596D01*
X193842553Y-99963216D01*
X193833114Y-99956358D01*
X193833112Y-99956357D01*
X193804154Y-99935317D01*
X193757193Y-99901197D01*
X193757191Y-99901196D01*
X193757187Y-99901193D01*
X193757164Y-99901179D01*
X193756606Y-99900898D01*
X193560923Y-99801193D01*
X193527824Y-99784328D01*
X193527822Y-99784327D01*
X193527814Y-99784323D01*
X193527814Y-99784322D01*
X193527812Y-99784321D01*
X193420638Y-99749499D01*
X193282982Y-99704772D01*
X193210333Y-99693265D01*
X193028717Y-99664500D01*
X193028711Y-99664500D01*
X192771287Y-99664500D01*
X192771283Y-99664500D01*
X192715100Y-99673398D01*
X192612367Y-99689669D01*
X192612368Y-99689670D01*
X192517010Y-99704773D01*
X192272198Y-99784317D01*
X192272189Y-99784321D01*
X192272175Y-99784328D01*
X192043391Y-99900898D01*
X192042838Y-99901176D01*
X192042812Y-99901193D01*
X191961855Y-99960013D01*
X191927673Y-99978572D01*
X191897638Y-99990102D01*
X191844239Y-100000000D01*
X188094279Y-100000000D01*
X188055715Y-99994923D01*
X188028919Y-99987743D01*
X187971417Y-99954544D01*
X187969907Y-99956313D01*
X187965467Y-99952521D01*
X187965457Y-99952511D01*
X187894827Y-99901195D01*
X187894418Y-99900898D01*
X187757191Y-99801195D01*
X187757162Y-99801178D01*
X187756609Y-99800899D01*
X187724087Y-99784329D01*
X187724085Y-99784327D01*
X187724085Y-99784328D01*
X187655732Y-99749500D01*
X187655732Y-99749499D01*
X187527898Y-99684365D01*
X187527814Y-99684323D01*
X187527814Y-99684322D01*
X187527813Y-99684322D01*
X187527798Y-99684317D01*
X187282982Y-99604772D01*
X187210333Y-99593265D01*
X187028717Y-99564500D01*
X187028711Y-99564500D01*
X186771287Y-99564500D01*
X186771283Y-99564500D01*
X186715100Y-99573398D01*
X186612367Y-99589669D01*
X186612368Y-99589670D01*
X186517010Y-99604773D01*
X186272198Y-99684317D01*
X186272189Y-99684321D01*
X186272168Y-99684331D01*
X186043387Y-99800900D01*
X186042835Y-99801178D01*
X186042804Y-99801197D01*
X185829951Y-99955845D01*
X185816875Y-99964337D01*
X185789684Y-99980036D01*
X185715187Y-100000000D01*
X179084853Y-100000000D01*
X179046290Y-99994923D01*
X179020863Y-99988110D01*
X178966370Y-99960555D01*
X178965692Y-99960013D01*
X178964542Y-99959093D01*
X178948113Y-99943789D01*
X178908793Y-99901192D01*
X178908793Y-99901193D01*
X178483672Y-99440644D01*
X177552819Y-98432219D01*
X177530393Y-98400439D01*
X177517088Y-98375107D01*
X177500000Y-98305823D01*
X177500000Y-93668616D01*
X177505076Y-93630056D01*
X177509221Y-93614585D01*
X177547783Y-93547789D01*
X177614575Y-93509223D01*
X177630056Y-93505076D01*
X177668616Y-93500000D01*
X186125000Y-93500000D01*
X187500000Y-92125000D01*
X187500000Y-88168616D01*
X187505076Y-88130056D01*
X187509221Y-88114585D01*
X187547783Y-88047789D01*
X187614575Y-88009223D01*
X187630056Y-88005076D01*
X187668616Y-88000000D01*
X201831384Y-88000000D01*
X201869947Y-88005077D01*
G37*
%TD.AperFunction*%
%TD*%
%TA.AperFunction,Conductor*%
%TO.N,+21V*%
G36*
X230515677Y-99519685D02*
G01*
X230536319Y-99536319D01*
X231500000Y-100500000D01*
X234376000Y-100500000D01*
X234443039Y-100519685D01*
X234488794Y-100572489D01*
X234500000Y-100624000D01*
X234500000Y-102876000D01*
X234480315Y-102943039D01*
X234427511Y-102988794D01*
X234376000Y-103000000D01*
X230551362Y-103000000D01*
X230484323Y-102980315D01*
X230463681Y-102963681D01*
X229860000Y-102360000D01*
X231000000Y-102360000D01*
X234000000Y-102360000D01*
X234000000Y-101160000D01*
X231000000Y-101160000D01*
X231000000Y-102360000D01*
X229860000Y-102360000D01*
X229500000Y-102000000D01*
X226124000Y-102000000D01*
X226056961Y-101980315D01*
X226011206Y-101927511D01*
X226000000Y-101876000D01*
X226000000Y-101409842D01*
X226019685Y-101342803D01*
X226072489Y-101297048D01*
X226141647Y-101287104D01*
X226205203Y-101316129D01*
X226211681Y-101322161D01*
X226219759Y-101330239D01*
X226302455Y-101385494D01*
X226302459Y-101385496D01*
X226375371Y-101399999D01*
X226375374Y-101400000D01*
X227624626Y-101400000D01*
X227624628Y-101399999D01*
X227697540Y-101385496D01*
X227697544Y-101385494D01*
X227780239Y-101330239D01*
X227835494Y-101247544D01*
X227835496Y-101247540D01*
X227849999Y-101174628D01*
X227850000Y-101174626D01*
X227850000Y-100325373D01*
X227849999Y-100325371D01*
X227835496Y-100252459D01*
X227835494Y-100252455D01*
X227780239Y-100169760D01*
X227697544Y-100114505D01*
X227697540Y-100114503D01*
X227624627Y-100100000D01*
X226375373Y-100100000D01*
X226302459Y-100114503D01*
X226302455Y-100114505D01*
X226219759Y-100169760D01*
X226211681Y-100177839D01*
X226150358Y-100211324D01*
X226080666Y-100206340D01*
X226024733Y-100164468D01*
X226000316Y-100099004D01*
X226000000Y-100090158D01*
X226000000Y-99624000D01*
X226019685Y-99556961D01*
X226072489Y-99511206D01*
X226124000Y-99500000D01*
X230448638Y-99500000D01*
X230515677Y-99519685D01*
G37*
%TD.AperFunction*%
%TD*%
%TA.AperFunction,Conductor*%
%TO.N,+21VA*%
G36*
X140343039Y-72319685D02*
G01*
X140388794Y-72372489D01*
X140400000Y-72424000D01*
X140400000Y-74976000D01*
X140380315Y-75043039D01*
X140327511Y-75088794D01*
X140276000Y-75100000D01*
X136624000Y-75100000D01*
X136556961Y-75080315D01*
X136511206Y-75027511D01*
X136500000Y-74976000D01*
X136500000Y-72424000D01*
X136519685Y-72356961D01*
X136572489Y-72311206D01*
X136624000Y-72300000D01*
X140276000Y-72300000D01*
X140343039Y-72319685D01*
G37*
%TD.AperFunction*%
%TD*%
%TA.AperFunction,Conductor*%
%TO.N,+21VA*%
G36*
X140343039Y-88019685D02*
G01*
X140388794Y-88072489D01*
X140400000Y-88124000D01*
X140400000Y-90976000D01*
X140380315Y-91043039D01*
X140327511Y-91088794D01*
X140276000Y-91100000D01*
X136624000Y-91100000D01*
X136556961Y-91080315D01*
X136511206Y-91027511D01*
X136500000Y-90976000D01*
X136500000Y-88124000D01*
X136519685Y-88056961D01*
X136572489Y-88011206D01*
X136624000Y-88000000D01*
X140276000Y-88000000D01*
X140343039Y-88019685D01*
G37*
%TD.AperFunction*%
%TD*%
%TA.AperFunction,Conductor*%
%TO.N,GNDA*%
G36*
X143707725Y-20255575D02*
G01*
X143734524Y-20262756D01*
X143801317Y-20301318D01*
X143801320Y-20301320D01*
X148442487Y-24942487D01*
X148466164Y-24973344D01*
X148480036Y-24997370D01*
X148500000Y-25071869D01*
X148500000Y-36950719D01*
X148494923Y-36989283D01*
X148491333Y-37002681D01*
X148452769Y-37069476D01*
X148385974Y-37108040D01*
X148308881Y-37108049D01*
X148305291Y-37107088D01*
X148238487Y-37068541D01*
X147139669Y-35969723D01*
X147139663Y-35969718D01*
X147033130Y-35898537D01*
X147033129Y-35898536D01*
X147033127Y-35898535D01*
X147033123Y-35898533D01*
X147033121Y-35898532D01*
X147033117Y-35898530D01*
X147033108Y-35898526D01*
X147016838Y-35891787D01*
X146978167Y-35862114D01*
X146789075Y-35824500D01*
X146789072Y-35824500D01*
X146789069Y-35824500D01*
X145762803Y-35824500D01*
X145724240Y-35819423D01*
X145707249Y-35814870D01*
X145640456Y-35776307D01*
X145631851Y-35767702D01*
X145601549Y-35723962D01*
X145564312Y-35641981D01*
X145552986Y-35604771D01*
X145548848Y-35579853D01*
X145551915Y-35516870D01*
X145553023Y-35512736D01*
X145561279Y-35489697D01*
X145635095Y-35327186D01*
X145635096Y-35327183D01*
X145690096Y-35108912D01*
X145700500Y-34976717D01*
X145700499Y-34323284D01*
X145690096Y-34191088D01*
X145635987Y-33976356D01*
X145635403Y-33973769D01*
X145635095Y-33972814D01*
X145635095Y-33972812D01*
X145542008Y-33767876D01*
X145542007Y-33767874D01*
X145413821Y-33582849D01*
X145413820Y-33582847D01*
X145389530Y-33558557D01*
X145365856Y-33527705D01*
X145357843Y-33513827D01*
X145337882Y-33439332D01*
X145357841Y-33364835D01*
X145365855Y-33350955D01*
X145389534Y-33320099D01*
X145415248Y-33294386D01*
X145415248Y-33294385D01*
X145415252Y-33294382D01*
X145542799Y-33110279D01*
X145635424Y-32906361D01*
X145690148Y-32689180D01*
X145700500Y-32557648D01*
X145700500Y-31942352D01*
X145690148Y-31810820D01*
X145690147Y-31810816D01*
X145635425Y-31593644D01*
X145635425Y-31593643D01*
X145635424Y-31593639D01*
X145585527Y-31483789D01*
X145585527Y-31483788D01*
X145542802Y-31389725D01*
X145415255Y-31205621D01*
X145256877Y-31047243D01*
X145072773Y-30919696D01*
X144972563Y-30874179D01*
X144946922Y-30853096D01*
X144868867Y-30827078D01*
X144868839Y-30827069D01*
X144651685Y-30772352D01*
X144651680Y-30772351D01*
X144651679Y-30772351D01*
X144564715Y-30765507D01*
X144564714Y-30765506D01*
X144520148Y-30762000D01*
X143479852Y-30762000D01*
X143476984Y-30762225D01*
X143437665Y-30765319D01*
X143437666Y-30765320D01*
X143348318Y-30772351D01*
X143348176Y-30772387D01*
X143131156Y-30827070D01*
X143131143Y-30827074D01*
X143131134Y-30827077D01*
X143131126Y-30827081D01*
X142927225Y-30919696D01*
X142743121Y-31047243D01*
X142584743Y-31205621D01*
X142457196Y-31389725D01*
X142364581Y-31593626D01*
X142364577Y-31593634D01*
X142364574Y-31593643D01*
X142364570Y-31593656D01*
X142309887Y-31810676D01*
X142309851Y-31810818D01*
X142302820Y-31900166D01*
X142299500Y-31942353D01*
X142299500Y-32557646D01*
X142303373Y-32606864D01*
X142309851Y-32689180D01*
X142309881Y-32689302D01*
X142364570Y-32906342D01*
X142364574Y-32906355D01*
X142364577Y-32906364D01*
X142364581Y-32906372D01*
X142457196Y-33110273D01*
X142584743Y-33294377D01*
X142610465Y-33320099D01*
X142634144Y-33350958D01*
X142642153Y-33364830D01*
X142662115Y-33439330D01*
X142642156Y-33513825D01*
X142634150Y-33527693D01*
X142610470Y-33558555D01*
X142586177Y-33582848D01*
X142509406Y-33693660D01*
X142457993Y-33767872D01*
X142457992Y-33767874D01*
X142457990Y-33767877D01*
X142364904Y-33972810D01*
X142309903Y-34191090D01*
X142309902Y-34191094D01*
X142302148Y-34289627D01*
X142299501Y-34323284D01*
X142299500Y-34323293D01*
X142299500Y-34978826D01*
X142299982Y-34982834D01*
X142309444Y-35103071D01*
X142309599Y-35107039D01*
X142310175Y-35110585D01*
X142311267Y-35114322D01*
X142314231Y-35126084D01*
X142314232Y-35126087D01*
X142364902Y-35327180D01*
X142364905Y-35327189D01*
X142435687Y-35483021D01*
X142447013Y-35520229D01*
X142451151Y-35545144D01*
X142448084Y-35608132D01*
X142446977Y-35612262D01*
X142438718Y-35635306D01*
X142364905Y-35797809D01*
X142364902Y-35797818D01*
X142309903Y-36016090D01*
X142309902Y-36016094D01*
X142299500Y-36148293D01*
X142299500Y-36803826D01*
X142299982Y-36807834D01*
X142309444Y-36928071D01*
X142309599Y-36932039D01*
X142310175Y-36935586D01*
X142311267Y-36939322D01*
X142319082Y-36970336D01*
X142359458Y-37130576D01*
X142364904Y-37152187D01*
X142457991Y-37357123D01*
X142457992Y-37357125D01*
X142457993Y-37357126D01*
X142458031Y-37357202D01*
X142458802Y-37358294D01*
X142586179Y-37542152D01*
X142745347Y-37701320D01*
X142932325Y-37830859D01*
X142938741Y-37833308D01*
X143135312Y-37922595D01*
X143172346Y-37931926D01*
X143172636Y-37931999D01*
X143172638Y-37932000D01*
X143172639Y-37932000D01*
X143198723Y-37938572D01*
X143353588Y-37977596D01*
X143485783Y-37988000D01*
X144514216Y-37987999D01*
X144646412Y-37977596D01*
X144861148Y-37923486D01*
X144865846Y-37922425D01*
X144869389Y-37921409D01*
X144926033Y-37907136D01*
X144936211Y-37894075D01*
X144964414Y-37877296D01*
X145006612Y-37858129D01*
X145044470Y-37840933D01*
X145069626Y-37829507D01*
X145254654Y-37701319D01*
X145413819Y-37542154D01*
X145542007Y-37357126D01*
X145599415Y-37230734D01*
X145619982Y-37197729D01*
X145631157Y-37184138D01*
X145693889Y-37139276D01*
X145698464Y-37137559D01*
X145705290Y-37134998D01*
X145757636Y-37125500D01*
X146374220Y-37125500D01*
X146412779Y-37130575D01*
X146439578Y-37137756D01*
X146506371Y-37176318D01*
X146506374Y-37176320D01*
X147831987Y-38501933D01*
X147855664Y-38532790D01*
X147869536Y-38556816D01*
X147889500Y-38631315D01*
X147889500Y-43974961D01*
X147884423Y-44013525D01*
X147880833Y-44026923D01*
X147842269Y-44093718D01*
X147775474Y-44132282D01*
X147698356Y-44132285D01*
X147691420Y-44130427D01*
X147639269Y-44104711D01*
X147502451Y-43999727D01*
X147447683Y-43968107D01*
X147298056Y-43881719D01*
X147137997Y-43815420D01*
X147084883Y-43793419D01*
X147080832Y-43791570D01*
X147077830Y-43790814D01*
X146855805Y-43731322D01*
X146852848Y-43730445D01*
X146851989Y-43730302D01*
X146618021Y-43699500D01*
X146618016Y-43699500D01*
X146618011Y-43699500D01*
X146381989Y-43699500D01*
X146381983Y-43699500D01*
X146381977Y-43699500D01*
X146148000Y-43730303D01*
X145919998Y-43791396D01*
X145919994Y-43791397D01*
X145701946Y-43881717D01*
X145497553Y-43999724D01*
X145428251Y-44052900D01*
X145428251Y-44052901D01*
X145327218Y-44130427D01*
X145312088Y-44142037D01*
X145310461Y-44143246D01*
X145143408Y-44310299D01*
X145054518Y-44426143D01*
X145027011Y-44453649D01*
X145008946Y-44467510D01*
X144947327Y-44495432D01*
X144938775Y-44497134D01*
X144909692Y-44500000D01*
X143581334Y-44500000D01*
X143542770Y-44494923D01*
X143515974Y-44487743D01*
X143449179Y-44449179D01*
X141557512Y-42557512D01*
X141533832Y-42526651D01*
X141519961Y-42502625D01*
X141500000Y-42428127D01*
X141500000Y-29125000D01*
X138808012Y-26433012D01*
X138784332Y-26402151D01*
X138770461Y-26378125D01*
X138750500Y-26303627D01*
X138750500Y-26024596D01*
X138755575Y-25986039D01*
X138760127Y-25969047D01*
X138798685Y-25902256D01*
X138803634Y-25897307D01*
X138852991Y-25864592D01*
X138856941Y-25862990D01*
X138863755Y-25860420D01*
X138864672Y-25860098D01*
X138864683Y-25860096D01*
X138866928Y-25859076D01*
X138872548Y-25856662D01*
X138897788Y-25846427D01*
X138908942Y-25839993D01*
X138978630Y-25808339D01*
X139069626Y-25767007D01*
X139254654Y-25638819D01*
X139413819Y-25479654D01*
X139542007Y-25294626D01*
X139579906Y-25211188D01*
X139614895Y-25134159D01*
X139614895Y-25134158D01*
X139616015Y-25131692D01*
X139635095Y-25089687D01*
X139635353Y-25088658D01*
X139635409Y-25088557D01*
X139635381Y-25088550D01*
X139653893Y-25015082D01*
X139690096Y-24871412D01*
X139700500Y-24739217D01*
X139700499Y-24085784D01*
X139690096Y-23953588D01*
X139635987Y-23738856D01*
X139635403Y-23736269D01*
X139635095Y-23735314D01*
X139635095Y-23735312D01*
X139542008Y-23530376D01*
X139542007Y-23530374D01*
X139465487Y-23419924D01*
X139413820Y-23345347D01*
X139254652Y-23186179D01*
X139070794Y-23058802D01*
X139069702Y-23058031D01*
X139069626Y-23057993D01*
X139069625Y-23057992D01*
X139069623Y-23057991D01*
X139069608Y-23057984D01*
X138864688Y-22964904D01*
X138864680Y-22964902D01*
X138719924Y-22928427D01*
X138651826Y-22911268D01*
X138648087Y-22910175D01*
X138644539Y-22909599D01*
X138640573Y-22909444D01*
X138586122Y-22905159D01*
X138586121Y-22905158D01*
X138535733Y-22901193D01*
X138514217Y-22899500D01*
X138514212Y-22899500D01*
X137485068Y-22899500D01*
X137482509Y-22899758D01*
X137440623Y-22903053D01*
X137440622Y-22903054D01*
X137359424Y-22909444D01*
X137351513Y-22909754D01*
X137343026Y-22912565D01*
X137332726Y-22915160D01*
X137316264Y-22919308D01*
X137254659Y-22934831D01*
X137135318Y-22964902D01*
X137135310Y-22964904D01*
X136930378Y-23057989D01*
X136745342Y-23186183D01*
X136586183Y-23345342D01*
X136457991Y-23530375D01*
X136446006Y-23556762D01*
X136425433Y-23589776D01*
X136414264Y-23603359D01*
X136351539Y-23648220D01*
X136347194Y-23649851D01*
X136270431Y-23657344D01*
X136256267Y-23654278D01*
X136239342Y-23649743D01*
X136172547Y-23611179D01*
X135907476Y-23346108D01*
X135883797Y-23315248D01*
X135871387Y-23293753D01*
X135852051Y-23232893D01*
X135851125Y-23222819D01*
X135850499Y-23209201D01*
X135850499Y-22285784D01*
X135840096Y-22153588D01*
X135785987Y-21938856D01*
X135785403Y-21936269D01*
X135785095Y-21935314D01*
X135785095Y-21935312D01*
X135692008Y-21730376D01*
X135692007Y-21730374D01*
X135563819Y-21545346D01*
X135404654Y-21386181D01*
X135404652Y-21386179D01*
X135220794Y-21258802D01*
X135219702Y-21258031D01*
X135219626Y-21257993D01*
X135219625Y-21257992D01*
X135219623Y-21257991D01*
X135219608Y-21257984D01*
X135014688Y-21164904D01*
X135014680Y-21164902D01*
X134869924Y-21128427D01*
X134801826Y-21111268D01*
X134798087Y-21110175D01*
X134794539Y-21109599D01*
X134790573Y-21109444D01*
X134736122Y-21105159D01*
X134736121Y-21105158D01*
X134685733Y-21101193D01*
X134664217Y-21099500D01*
X134664212Y-21099500D01*
X133335068Y-21099500D01*
X133332509Y-21099758D01*
X133290623Y-21103053D01*
X133290622Y-21103054D01*
X133209424Y-21109444D01*
X133201513Y-21109754D01*
X133193026Y-21112565D01*
X133182726Y-21115160D01*
X133166264Y-21119308D01*
X133104659Y-21134831D01*
X132985318Y-21164902D01*
X132985310Y-21164904D01*
X132780378Y-21257989D01*
X132595342Y-21386183D01*
X132436183Y-21545342D01*
X132307989Y-21730378D01*
X132214905Y-21935309D01*
X132214902Y-21935316D01*
X132159903Y-22153590D01*
X132159902Y-22153594D01*
X132152148Y-22252127D01*
X132149501Y-22285784D01*
X132149500Y-22285793D01*
X132149500Y-23214226D01*
X132149533Y-23214630D01*
X132153532Y-23265440D01*
X132153532Y-23265442D01*
X132159444Y-23340572D01*
X132159599Y-23344539D01*
X132160175Y-23348087D01*
X132161268Y-23351826D01*
X132178427Y-23419924D01*
X132214902Y-23564680D01*
X132214904Y-23564688D01*
X132255598Y-23654278D01*
X132307991Y-23769623D01*
X132307992Y-23769625D01*
X132307993Y-23769626D01*
X132308031Y-23769702D01*
X132308802Y-23770794D01*
X132436179Y-23954652D01*
X132595347Y-24113820D01*
X132782325Y-24243359D01*
X132788741Y-24245808D01*
X132985312Y-24335095D01*
X133027917Y-24345830D01*
X133047335Y-24350723D01*
X133083493Y-24365071D01*
X133092363Y-24370017D01*
X133147708Y-24423735D01*
X133168778Y-24497929D01*
X133149929Y-24572719D01*
X133096211Y-24628064D01*
X133096209Y-24628065D01*
X133089242Y-24632227D01*
X133049235Y-24648797D01*
X132985308Y-24664905D01*
X132780377Y-24757990D01*
X132595342Y-24886183D01*
X132436183Y-25045342D01*
X132307990Y-25230376D01*
X132307990Y-25230377D01*
X132233325Y-25394760D01*
X132212752Y-25427775D01*
X132201582Y-25441359D01*
X132138854Y-25486221D01*
X132127462Y-25490497D01*
X132075102Y-25500000D01*
X131386524Y-25500000D01*
X131312024Y-25480038D01*
X131264624Y-25436682D01*
X131256764Y-25425500D01*
X131248700Y-25414026D01*
X131247480Y-25412618D01*
X131202948Y-25361225D01*
X131083830Y-25244819D01*
X130969942Y-25168626D01*
X130914736Y-25131692D01*
X130726329Y-25054917D01*
X130726326Y-25054916D01*
X130659289Y-25035231D01*
X130578403Y-25015082D01*
X130376009Y-24994500D01*
X130376000Y-24994500D01*
X127149000Y-24994500D01*
X127074500Y-24974538D01*
X127019962Y-24920000D01*
X127000000Y-24845500D01*
X127000000Y-20419116D01*
X127005076Y-20380556D01*
X127009221Y-20365085D01*
X127047783Y-20298289D01*
X127114575Y-20259723D01*
X127130056Y-20255576D01*
X127168616Y-20250500D01*
X143669166Y-20250500D01*
X143707725Y-20255575D01*
G37*
%TD.AperFunction*%
%TD*%
%TA.AperFunction,Conductor*%
%TO.N,Net-(D3-A1)*%
G36*
X250893106Y-91505023D02*
G01*
X250908104Y-91509427D01*
X250966855Y-91547172D01*
X250968042Y-91548541D01*
X250995518Y-91603402D01*
X250997163Y-91610960D01*
X251000000Y-91637331D01*
X251000000Y-95858170D01*
X250994975Y-95893114D01*
X250990570Y-95908112D01*
X250952827Y-95966855D01*
X250951458Y-95968042D01*
X250896597Y-95995518D01*
X250889039Y-95997163D01*
X250862668Y-96000000D01*
X244749998Y-96000000D01*
X243000000Y-97749998D01*
X243000000Y-102858170D01*
X242994975Y-102893114D01*
X242990570Y-102908112D01*
X242952827Y-102966855D01*
X242951458Y-102968042D01*
X242896597Y-102995518D01*
X242889039Y-102997163D01*
X242862668Y-103000000D01*
X236141830Y-103000000D01*
X236106889Y-102994975D01*
X236091890Y-102990570D01*
X236070232Y-102976650D01*
X236046696Y-102966222D01*
X236033144Y-102952827D01*
X236033115Y-102952793D01*
X236033114Y-102952793D01*
X236033113Y-102952791D01*
X236031957Y-102951458D01*
X236004477Y-102896583D01*
X236002832Y-102889021D01*
X236000000Y-102862668D01*
X236000000Y-102621829D01*
X236005023Y-102586893D01*
X236009427Y-102571895D01*
X236018367Y-102557978D01*
X236018931Y-102555976D01*
X236020611Y-102554486D01*
X236047172Y-102513144D01*
X236048541Y-102511957D01*
X236103420Y-102484477D01*
X236110979Y-102482833D01*
X236137332Y-102480000D01*
X242430000Y-102480000D01*
X242430000Y-96480000D01*
X236141830Y-96480000D01*
X236134305Y-96477790D01*
X236126565Y-96479057D01*
X236106889Y-96474975D01*
X236091890Y-96470570D01*
X236076885Y-96460930D01*
X236074791Y-96460315D01*
X236073362Y-96458666D01*
X236033144Y-96432827D01*
X236031957Y-96431458D01*
X236004477Y-96376583D01*
X236002832Y-96369021D01*
X236000000Y-96342668D01*
X236000000Y-96141829D01*
X236005023Y-96106893D01*
X236009427Y-96091895D01*
X236047172Y-96033144D01*
X236048541Y-96031957D01*
X236078261Y-96017074D01*
X236083644Y-96012225D01*
X236090035Y-96011179D01*
X236103420Y-96004477D01*
X236110979Y-96002833D01*
X236137332Y-96000000D01*
X238250000Y-96000000D01*
X238650000Y-95600000D01*
X247000000Y-95600000D01*
X250000000Y-95600000D01*
X250000000Y-91800000D01*
X247000000Y-91800000D01*
X247000000Y-95600000D01*
X238650000Y-95600000D01*
X239000000Y-95250000D01*
X239000000Y-93911375D01*
X239000636Y-93898829D01*
X239005500Y-93850999D01*
X239005500Y-93404436D01*
X239025185Y-93337397D01*
X239077989Y-93291642D01*
X239147147Y-93281698D01*
X239210703Y-93310723D01*
X239248477Y-93369501D01*
X239251117Y-93380244D01*
X239264503Y-93447539D01*
X239264504Y-93447543D01*
X239264505Y-93447544D01*
X239319760Y-93530239D01*
X239402455Y-93585494D01*
X239402459Y-93585496D01*
X239467731Y-93598479D01*
X239470465Y-93599203D01*
X239475373Y-93600000D01*
X241524626Y-93600000D01*
X241524807Y-93600000D01*
X241526804Y-93599566D01*
X241597540Y-93585496D01*
X241597544Y-93585494D01*
X241680239Y-93530239D01*
X241735494Y-93447544D01*
X241735496Y-93447540D01*
X241749566Y-93376804D01*
X241750000Y-93374807D01*
X241750000Y-92025189D01*
X241749564Y-92023184D01*
X241735496Y-91952460D01*
X241735494Y-91952455D01*
X241680238Y-91869759D01*
X241680237Y-91869758D01*
X241658341Y-91855127D01*
X241658334Y-91855123D01*
X241653263Y-91851734D01*
X241597547Y-91814506D01*
X241597545Y-91814505D01*
X241597540Y-91814502D01*
X241597538Y-91814502D01*
X241524631Y-91800000D01*
X241524627Y-91800000D01*
X239475373Y-91800000D01*
X239460871Y-91802884D01*
X239402460Y-91814502D01*
X239402455Y-91814504D01*
X239319760Y-91869760D01*
X239264504Y-91952455D01*
X239264503Y-91952459D01*
X239251117Y-92019754D01*
X239218732Y-92081665D01*
X239158016Y-92116239D01*
X239088246Y-92112498D01*
X239031575Y-92071632D01*
X239005993Y-92006614D01*
X239005500Y-91995562D01*
X239005500Y-91649008D01*
X239004940Y-91630080D01*
X239022634Y-91562488D01*
X239047659Y-91532721D01*
X239048548Y-91531950D01*
X239103420Y-91504477D01*
X239110979Y-91502833D01*
X239137332Y-91500000D01*
X250858170Y-91500000D01*
X250893106Y-91505023D01*
G37*
%TD.AperFunction*%
%TD*%
%TA.AperFunction,Conductor*%
%TO.N,GND*%
G36*
X255693039Y-32769685D02*
G01*
X255738794Y-32822489D01*
X255750000Y-32874000D01*
X255750000Y-35626000D01*
X255730315Y-35693039D01*
X255677511Y-35738794D01*
X255626000Y-35750000D01*
X254999999Y-35750000D01*
X254750000Y-35999999D01*
X254750000Y-40126000D01*
X254730315Y-40193039D01*
X254677511Y-40238794D01*
X254626000Y-40250000D01*
X251374000Y-40250000D01*
X251306961Y-40230315D01*
X251261206Y-40177511D01*
X251250000Y-40126000D01*
X251250000Y-36250000D01*
X250750000Y-35750000D01*
X249374000Y-35750000D01*
X249306961Y-35730315D01*
X249261206Y-35677511D01*
X249250000Y-35626000D01*
X249250000Y-32874000D01*
X249269685Y-32806961D01*
X249322489Y-32761206D01*
X249374000Y-32750000D01*
X255626000Y-32750000D01*
X255693039Y-32769685D01*
G37*
%TD.AperFunction*%
%TD*%
%TA.AperFunction,Conductor*%
%TO.N,+21VA*%
G36*
X134947627Y-26817759D02*
G01*
X134958089Y-26831733D01*
X134959197Y-26832269D01*
X134962386Y-26837473D01*
X134989500Y-26873692D01*
X134989501Y-26873694D01*
X134992182Y-26880882D01*
X134993517Y-26888282D01*
X134995700Y-26891845D01*
X134995536Y-26899473D01*
X135000000Y-26924216D01*
X135000000Y-31430808D01*
X134994976Y-31465745D01*
X134987564Y-31490986D01*
X134956269Y-31543730D01*
X133048926Y-33451073D01*
X133020675Y-33472222D01*
X132997587Y-33484830D01*
X132938157Y-33500000D01*
X125021830Y-33500000D01*
X124986889Y-33494975D01*
X124971890Y-33490570D01*
X124913144Y-33452827D01*
X124911957Y-33451458D01*
X124884477Y-33396583D01*
X124882832Y-33389021D01*
X124880000Y-33362668D01*
X124880000Y-30340000D01*
X123680000Y-30340000D01*
X123680000Y-33358170D01*
X123674975Y-33393114D01*
X123670570Y-33408112D01*
X123632827Y-33466855D01*
X123631458Y-33468042D01*
X123576597Y-33495518D01*
X123569039Y-33497163D01*
X123542668Y-33500000D01*
X123141830Y-33500000D01*
X123106889Y-33494975D01*
X123091890Y-33490570D01*
X123033144Y-33452827D01*
X123031957Y-33451458D01*
X123004477Y-33396583D01*
X123002832Y-33389021D01*
X123000000Y-33362668D01*
X123000000Y-30141829D01*
X123005023Y-30106893D01*
X123009427Y-30091895D01*
X123047172Y-30033144D01*
X123048541Y-30031957D01*
X123103420Y-30004477D01*
X123110979Y-30002833D01*
X123137332Y-30000000D01*
X131875000Y-30000000D01*
X133000000Y-28875000D01*
X133000000Y-26927671D01*
X133005021Y-26892744D01*
X133008207Y-26881891D01*
X133016273Y-26869337D01*
X133017725Y-26863783D01*
X133022906Y-26859014D01*
X133045977Y-26823110D01*
X133109531Y-26794081D01*
X133178686Y-26804019D01*
X133185677Y-26807211D01*
X133214399Y-26827155D01*
X133215044Y-26826370D01*
X133219756Y-26830237D01*
X133219759Y-26830239D01*
X133302455Y-26885494D01*
X133302459Y-26885496D01*
X133375371Y-26899999D01*
X133375374Y-26900000D01*
X134618882Y-26900000D01*
X134624626Y-26900000D01*
X134624628Y-26899999D01*
X134697540Y-26885496D01*
X134697544Y-26885494D01*
X134780240Y-26830239D01*
X134780242Y-26830236D01*
X134784580Y-26826677D01*
X134803811Y-26813701D01*
X134813893Y-26808196D01*
X134882162Y-26793344D01*
X134947627Y-26817759D01*
G37*
%TD.AperFunction*%
%TD*%
%TA.AperFunction,Conductor*%
%TO.N,+3.3V*%
G36*
X184425500Y-59569962D02*
G01*
X184480038Y-59624500D01*
X184500000Y-59699000D01*
X184500000Y-65387500D01*
X184862500Y-65750000D01*
X185801000Y-65750000D01*
X185875500Y-65769962D01*
X185930038Y-65824500D01*
X185950000Y-65899000D01*
X185950000Y-68201000D01*
X185930038Y-68275500D01*
X185875500Y-68330038D01*
X185801000Y-68350000D01*
X181699000Y-68350000D01*
X181624500Y-68330038D01*
X181569962Y-68275500D01*
X181550000Y-68201000D01*
X181550000Y-65899000D01*
X181569962Y-65824500D01*
X181624500Y-65769962D01*
X181699000Y-65750000D01*
X182637500Y-65750000D01*
X183000000Y-65387500D01*
X183000000Y-59699000D01*
X183019962Y-59624500D01*
X183074500Y-59569962D01*
X183149000Y-59550000D01*
X184351000Y-59550000D01*
X184425500Y-59569962D01*
G37*
%TD.AperFunction*%
%TD*%
%TA.AperFunction,Conductor*%
%TO.N,GNDA*%
G36*
X147869947Y-104005077D02*
G01*
X147885417Y-104009222D01*
X147952212Y-104047785D01*
X147990776Y-104114576D01*
X147994922Y-104130047D01*
X148000000Y-104168616D01*
X148000000Y-110331383D01*
X147994922Y-110369952D01*
X147990776Y-110385423D01*
X147952209Y-110452216D01*
X147885425Y-110490775D01*
X147869955Y-110494921D01*
X147831384Y-110500000D01*
X141812500Y-110500000D01*
X140500000Y-111812500D01*
X140500000Y-115668665D01*
X140494923Y-115707229D01*
X140487743Y-115734025D01*
X140449179Y-115800820D01*
X138807512Y-117442487D01*
X138776658Y-117466163D01*
X138752633Y-117480035D01*
X138678133Y-117500000D01*
X128668616Y-117500000D01*
X128630049Y-117494922D01*
X128620127Y-117492263D01*
X128614576Y-117490776D01*
X128547783Y-117452209D01*
X128509221Y-117385414D01*
X128505076Y-117369943D01*
X128500000Y-117331383D01*
X128500000Y-105706334D01*
X128505076Y-105667775D01*
X128507441Y-105658944D01*
X128512256Y-105640977D01*
X128550817Y-105574183D01*
X130067491Y-104057508D01*
X130098345Y-104033833D01*
X130122374Y-104019960D01*
X130196872Y-104000000D01*
X147831384Y-104000000D01*
X147869947Y-104005077D01*
G37*
%TD.AperFunction*%
%TD*%
%TA.AperFunction,Conductor*%
%TO.N,+5V*%
G36*
X193325500Y-79019962D02*
G01*
X193380038Y-79074500D01*
X193400000Y-79149000D01*
X193400000Y-85851000D01*
X193380038Y-85925500D01*
X193325500Y-85980038D01*
X193251000Y-86000000D01*
X192399000Y-86000000D01*
X192324500Y-85980038D01*
X192269962Y-85925500D01*
X192250000Y-85851000D01*
X192250000Y-80500000D01*
X188000000Y-80500000D01*
X187999997Y-80500000D01*
X184500000Y-82499999D01*
X184500000Y-91351000D01*
X184480038Y-91425500D01*
X184425500Y-91480038D01*
X184351000Y-91500000D01*
X178649000Y-91500000D01*
X178574500Y-91480038D01*
X178519962Y-91425500D01*
X178500000Y-91351000D01*
X178500000Y-80588833D01*
X178519962Y-80514333D01*
X178574500Y-80459795D01*
X178578101Y-80457782D01*
X181137175Y-79074500D01*
X181241841Y-79017924D01*
X181312693Y-79000000D01*
X193251000Y-79000000D01*
X193325500Y-79019962D01*
G37*
%TD.AperFunction*%
%TD*%
M02*
