%TF.GenerationSoftware,KiCad,Pcbnew,9.0.5*%
%TF.CreationDate,2026-08-05T17:44:25+07:00*%
%TF.ProjectId,ISR_AWCS,4953525f-4157-4435-932e-6b696361645f,rev?*%
%TF.SameCoordinates,Original*%
%TF.FileFunction,Legend,Bot*%
%TF.FilePolarity,Positive*%
%FSLAX46Y46*%
G04 Gerber Fmt 4.6, Leading zero omitted, Abs format (unit mm)*
G04 Created by KiCad (PCBNEW 9.0.5) date 2026-08-05 17:44:25*
%MOMM*%
%LPD*%
G01*
G04 APERTURE LIST*
G04 Aperture macros list*
%AMRoundRect*
0 Rectangle with rounded corners*
0 $1 Rounding radius*
0 $2 $3 $4 $5 $6 $7 $8 $9 X,Y pos of 4 corners*
0 Add a 4 corners polygon primitive as box body*
4,1,4,$2,$3,$4,$5,$6,$7,$8,$9,$2,$3,0*
0 Add four circle primitives for the rounded corners*
1,1,$1+$1,$2,$3*
1,1,$1+$1,$4,$5*
1,1,$1+$1,$6,$7*
1,1,$1+$1,$8,$9*
0 Add four rect primitives between the rounded corners*
20,1,$1+$1,$2,$3,$4,$5,0*
20,1,$1+$1,$4,$5,$6,$7,0*
20,1,$1+$1,$6,$7,$8,$9,0*
20,1,$1+$1,$8,$9,$2,$3,0*%
G04 Aperture macros list end*
%ADD10C,0.250000*%
%ADD11C,0.150000*%
%ADD12C,0.120000*%
%ADD13RoundRect,0.265625X0.584375X0.584375X-0.584375X0.584375X-0.584375X-0.584375X0.584375X-0.584375X0*%
%ADD14C,1.700000*%
%ADD15C,3.700000*%
%ADD16C,5.700000*%
%ADD17RoundRect,0.262019X0.827981X1.587981X-0.827981X1.587981X-0.827981X-1.587981X0.827981X-1.587981X0*%
%ADD18O,2.180000X3.700000*%
%ADD19RoundRect,0.050000X0.850000X0.850000X-0.850000X0.850000X-0.850000X-0.850000X0.850000X-0.850000X0*%
%ADD20C,1.800000*%
%ADD21C,3.350000*%
%ADD22RoundRect,0.267200X-0.532800X-0.532800X0.532800X-0.532800X0.532800X0.532800X-0.532800X0.532800X0*%
%ADD23C,1.600000*%
%ADD24C,2.600000*%
%ADD25RoundRect,0.264706X-0.635294X-0.760294X0.635294X-0.760294X0.635294X0.760294X-0.635294X0.760294X0*%
%ADD26O,1.800000X2.050000*%
%ADD27RoundRect,0.259616X-1.090384X1.090384X-1.090384X-1.090384X1.090384X-1.090384X1.090384X1.090384X0*%
%ADD28C,2.700000*%
%ADD29RoundRect,0.262019X-0.827981X-1.587981X0.827981X-1.587981X0.827981X1.587981X-0.827981X1.587981X0*%
%ADD30RoundRect,0.050000X-0.850000X-0.850000X0.850000X-0.850000X0.850000X0.850000X-0.850000X0.850000X0*%
%ADD31RoundRect,0.050000X-0.800000X0.800000X-0.800000X-0.800000X0.800000X-0.800000X0.800000X0.800000X0*%
%ADD32RoundRect,0.050000X-0.650000X0.650000X-0.650000X-0.650000X0.650000X-0.650000X0.650000X0.650000X0*%
%ADD33C,1.400000*%
%ADD34RoundRect,0.259616X-1.090384X-1.090384X1.090384X-1.090384X1.090384X1.090384X-1.090384X1.090384X0*%
%ADD35RoundRect,0.274390X0.288110X0.475610X-0.288110X0.475610X-0.288110X-0.475610X0.288110X-0.475610X0*%
%ADD36RoundRect,0.175000X-0.175000X0.612500X-0.175000X-0.612500X0.175000X-0.612500X0.175000X0.612500X0*%
%ADD37RoundRect,0.274390X-0.288110X-0.475610X0.288110X-0.475610X0.288110X0.475610X-0.288110X0.475610X0*%
%ADD38RoundRect,0.274390X0.475610X-0.288110X0.475610X0.288110X-0.475610X0.288110X-0.475610X-0.288110X0*%
%ADD39RoundRect,0.268868X0.681132X-0.443632X0.681132X0.443632X-0.681132X0.443632X-0.681132X-0.443632X0*%
%ADD40RoundRect,0.262500X0.275000X0.262500X-0.275000X0.262500X-0.275000X-0.262500X0.275000X-0.262500X0*%
G04 APERTURE END LIST*
D10*
X133997476Y-57116853D02*
X129997476Y-57116853D01*
X133807000Y-58831139D02*
X133997476Y-59402568D01*
X133997476Y-59402568D02*
X133997476Y-60354949D01*
X133997476Y-60354949D02*
X133807000Y-60735901D01*
X133807000Y-60735901D02*
X133616523Y-60926377D01*
X133616523Y-60926377D02*
X133235571Y-61116854D01*
X133235571Y-61116854D02*
X132854619Y-61116854D01*
X132854619Y-61116854D02*
X132473666Y-60926377D01*
X132473666Y-60926377D02*
X132283190Y-60735901D01*
X132283190Y-60735901D02*
X132092714Y-60354949D01*
X132092714Y-60354949D02*
X131902238Y-59593044D01*
X131902238Y-59593044D02*
X131711761Y-59212092D01*
X131711761Y-59212092D02*
X131521285Y-59021615D01*
X131521285Y-59021615D02*
X131140333Y-58831139D01*
X131140333Y-58831139D02*
X130759380Y-58831139D01*
X130759380Y-58831139D02*
X130378428Y-59021615D01*
X130378428Y-59021615D02*
X130187952Y-59212092D01*
X130187952Y-59212092D02*
X129997476Y-59593044D01*
X129997476Y-59593044D02*
X129997476Y-60545425D01*
X129997476Y-60545425D02*
X130187952Y-61116854D01*
X129997476Y-63593044D02*
X129997476Y-64354949D01*
X129997476Y-64354949D02*
X130187952Y-64735901D01*
X130187952Y-64735901D02*
X130568904Y-65116854D01*
X130568904Y-65116854D02*
X131330809Y-65307330D01*
X131330809Y-65307330D02*
X132664142Y-65307330D01*
X132664142Y-65307330D02*
X133426047Y-65116854D01*
X133426047Y-65116854D02*
X133807000Y-64735901D01*
X133807000Y-64735901D02*
X133997476Y-64354949D01*
X133997476Y-64354949D02*
X133997476Y-63593044D01*
X133997476Y-63593044D02*
X133807000Y-63212092D01*
X133807000Y-63212092D02*
X133426047Y-62831139D01*
X133426047Y-62831139D02*
X132664142Y-62640663D01*
X132664142Y-62640663D02*
X131330809Y-62640663D01*
X131330809Y-62640663D02*
X130568904Y-62831139D01*
X130568904Y-62831139D02*
X130187952Y-63212092D01*
X130187952Y-63212092D02*
X129997476Y-63593044D01*
X133997476Y-68926377D02*
X133997476Y-67021615D01*
X133997476Y-67021615D02*
X129997476Y-67021615D01*
X132854619Y-70069234D02*
X132854619Y-71973996D01*
X133997476Y-69688282D02*
X129997476Y-71021615D01*
X129997476Y-71021615D02*
X133997476Y-72354949D01*
X129997476Y-73116853D02*
X129997476Y-75402567D01*
X133997476Y-74259710D02*
X129997476Y-74259710D01*
X131902238Y-76735900D02*
X131902238Y-78069234D01*
X133997476Y-78640662D02*
X133997476Y-76735900D01*
X133997476Y-76735900D02*
X129997476Y-76735900D01*
X129997476Y-76735900D02*
X129997476Y-78640662D01*
X133997476Y-80354948D02*
X129997476Y-80354948D01*
X129997476Y-80354948D02*
X129997476Y-81307329D01*
X129997476Y-81307329D02*
X130187952Y-81878758D01*
X130187952Y-81878758D02*
X130568904Y-82259710D01*
X130568904Y-82259710D02*
X130949857Y-82450187D01*
X130949857Y-82450187D02*
X131711761Y-82640663D01*
X131711761Y-82640663D02*
X132283190Y-82640663D01*
X132283190Y-82640663D02*
X133045095Y-82450187D01*
X133045095Y-82450187D02*
X133426047Y-82259710D01*
X133426047Y-82259710D02*
X133807000Y-81878758D01*
X133807000Y-81878758D02*
X133997476Y-81307329D01*
X133997476Y-81307329D02*
X133997476Y-80354948D01*
D11*
X190100057Y-92842261D02*
X190052438Y-92747023D01*
X190052438Y-92747023D02*
X189957200Y-92651785D01*
X189957200Y-92651785D02*
X189814342Y-92508928D01*
X189814342Y-92508928D02*
X189766723Y-92413690D01*
X189766723Y-92413690D02*
X189766723Y-92318452D01*
X190004819Y-92366071D02*
X189957200Y-92270833D01*
X189957200Y-92270833D02*
X189861961Y-92175595D01*
X189861961Y-92175595D02*
X189671485Y-92127976D01*
X189671485Y-92127976D02*
X189338152Y-92127976D01*
X189338152Y-92127976D02*
X189147676Y-92175595D01*
X189147676Y-92175595D02*
X189052438Y-92270833D01*
X189052438Y-92270833D02*
X189004819Y-92366071D01*
X189004819Y-92366071D02*
X189004819Y-92556547D01*
X189004819Y-92556547D02*
X189052438Y-92651785D01*
X189052438Y-92651785D02*
X189147676Y-92747023D01*
X189147676Y-92747023D02*
X189338152Y-92794642D01*
X189338152Y-92794642D02*
X189671485Y-92794642D01*
X189671485Y-92794642D02*
X189861961Y-92747023D01*
X189861961Y-92747023D02*
X189957200Y-92651785D01*
X189957200Y-92651785D02*
X190004819Y-92556547D01*
X190004819Y-92556547D02*
X190004819Y-92366071D01*
X189004819Y-93699404D02*
X189004819Y-93223214D01*
X189004819Y-93223214D02*
X189481009Y-93175595D01*
X189481009Y-93175595D02*
X189433390Y-93223214D01*
X189433390Y-93223214D02*
X189385771Y-93318452D01*
X189385771Y-93318452D02*
X189385771Y-93556547D01*
X189385771Y-93556547D02*
X189433390Y-93651785D01*
X189433390Y-93651785D02*
X189481009Y-93699404D01*
X189481009Y-93699404D02*
X189576247Y-93747023D01*
X189576247Y-93747023D02*
X189814342Y-93747023D01*
X189814342Y-93747023D02*
X189909580Y-93699404D01*
X189909580Y-93699404D02*
X189957200Y-93651785D01*
X189957200Y-93651785D02*
X190004819Y-93556547D01*
X190004819Y-93556547D02*
X190004819Y-93318452D01*
X190004819Y-93318452D02*
X189957200Y-93223214D01*
X189957200Y-93223214D02*
X189909580Y-93175595D01*
X184100057Y-92842261D02*
X184052438Y-92747023D01*
X184052438Y-92747023D02*
X183957200Y-92651785D01*
X183957200Y-92651785D02*
X183814342Y-92508928D01*
X183814342Y-92508928D02*
X183766723Y-92413690D01*
X183766723Y-92413690D02*
X183766723Y-92318452D01*
X184004819Y-92366071D02*
X183957200Y-92270833D01*
X183957200Y-92270833D02*
X183861961Y-92175595D01*
X183861961Y-92175595D02*
X183671485Y-92127976D01*
X183671485Y-92127976D02*
X183338152Y-92127976D01*
X183338152Y-92127976D02*
X183147676Y-92175595D01*
X183147676Y-92175595D02*
X183052438Y-92270833D01*
X183052438Y-92270833D02*
X183004819Y-92366071D01*
X183004819Y-92366071D02*
X183004819Y-92556547D01*
X183004819Y-92556547D02*
X183052438Y-92651785D01*
X183052438Y-92651785D02*
X183147676Y-92747023D01*
X183147676Y-92747023D02*
X183338152Y-92794642D01*
X183338152Y-92794642D02*
X183671485Y-92794642D01*
X183671485Y-92794642D02*
X183861961Y-92747023D01*
X183861961Y-92747023D02*
X183957200Y-92651785D01*
X183957200Y-92651785D02*
X184004819Y-92556547D01*
X184004819Y-92556547D02*
X184004819Y-92366071D01*
X183004819Y-93127976D02*
X183004819Y-93747023D01*
X183004819Y-93747023D02*
X183385771Y-93413690D01*
X183385771Y-93413690D02*
X183385771Y-93556547D01*
X183385771Y-93556547D02*
X183433390Y-93651785D01*
X183433390Y-93651785D02*
X183481009Y-93699404D01*
X183481009Y-93699404D02*
X183576247Y-93747023D01*
X183576247Y-93747023D02*
X183814342Y-93747023D01*
X183814342Y-93747023D02*
X183909580Y-93699404D01*
X183909580Y-93699404D02*
X183957200Y-93651785D01*
X183957200Y-93651785D02*
X184004819Y-93556547D01*
X184004819Y-93556547D02*
X184004819Y-93270833D01*
X184004819Y-93270833D02*
X183957200Y-93175595D01*
X183957200Y-93175595D02*
X183909580Y-93127976D01*
X196062557Y-92967261D02*
X196014938Y-92872023D01*
X196014938Y-92872023D02*
X195919700Y-92776785D01*
X195919700Y-92776785D02*
X195776842Y-92633928D01*
X195776842Y-92633928D02*
X195729223Y-92538690D01*
X195729223Y-92538690D02*
X195729223Y-92443452D01*
X195967319Y-92491071D02*
X195919700Y-92395833D01*
X195919700Y-92395833D02*
X195824461Y-92300595D01*
X195824461Y-92300595D02*
X195633985Y-92252976D01*
X195633985Y-92252976D02*
X195300652Y-92252976D01*
X195300652Y-92252976D02*
X195110176Y-92300595D01*
X195110176Y-92300595D02*
X195014938Y-92395833D01*
X195014938Y-92395833D02*
X194967319Y-92491071D01*
X194967319Y-92491071D02*
X194967319Y-92681547D01*
X194967319Y-92681547D02*
X195014938Y-92776785D01*
X195014938Y-92776785D02*
X195110176Y-92872023D01*
X195110176Y-92872023D02*
X195300652Y-92919642D01*
X195300652Y-92919642D02*
X195633985Y-92919642D01*
X195633985Y-92919642D02*
X195824461Y-92872023D01*
X195824461Y-92872023D02*
X195919700Y-92776785D01*
X195919700Y-92776785D02*
X195967319Y-92681547D01*
X195967319Y-92681547D02*
X195967319Y-92491071D01*
X195300652Y-93776785D02*
X195967319Y-93776785D01*
X194919700Y-93538690D02*
X195633985Y-93300595D01*
X195633985Y-93300595D02*
X195633985Y-93919642D01*
X215709580Y-31607142D02*
X215757200Y-31559523D01*
X215757200Y-31559523D02*
X215804819Y-31416666D01*
X215804819Y-31416666D02*
X215804819Y-31321428D01*
X215804819Y-31321428D02*
X215757200Y-31178571D01*
X215757200Y-31178571D02*
X215661961Y-31083333D01*
X215661961Y-31083333D02*
X215566723Y-31035714D01*
X215566723Y-31035714D02*
X215376247Y-30988095D01*
X215376247Y-30988095D02*
X215233390Y-30988095D01*
X215233390Y-30988095D02*
X215042914Y-31035714D01*
X215042914Y-31035714D02*
X214947676Y-31083333D01*
X214947676Y-31083333D02*
X214852438Y-31178571D01*
X214852438Y-31178571D02*
X214804819Y-31321428D01*
X214804819Y-31321428D02*
X214804819Y-31416666D01*
X214804819Y-31416666D02*
X214852438Y-31559523D01*
X214852438Y-31559523D02*
X214900057Y-31607142D01*
X215804819Y-32559523D02*
X215804819Y-31988095D01*
X215804819Y-32273809D02*
X214804819Y-32273809D01*
X214804819Y-32273809D02*
X214947676Y-32178571D01*
X214947676Y-32178571D02*
X215042914Y-32083333D01*
X215042914Y-32083333D02*
X215090533Y-31988095D01*
X214804819Y-32892857D02*
X214804819Y-33511904D01*
X214804819Y-33511904D02*
X215185771Y-33178571D01*
X215185771Y-33178571D02*
X215185771Y-33321428D01*
X215185771Y-33321428D02*
X215233390Y-33416666D01*
X215233390Y-33416666D02*
X215281009Y-33464285D01*
X215281009Y-33464285D02*
X215376247Y-33511904D01*
X215376247Y-33511904D02*
X215614342Y-33511904D01*
X215614342Y-33511904D02*
X215709580Y-33464285D01*
X215709580Y-33464285D02*
X215757200Y-33416666D01*
X215757200Y-33416666D02*
X215804819Y-33321428D01*
X215804819Y-33321428D02*
X215804819Y-33035714D01*
X215804819Y-33035714D02*
X215757200Y-32940476D01*
X215757200Y-32940476D02*
X215709580Y-32892857D01*
X207230357Y-37774819D02*
X207563690Y-37298628D01*
X207801785Y-37774819D02*
X207801785Y-36774819D01*
X207801785Y-36774819D02*
X207420833Y-36774819D01*
X207420833Y-36774819D02*
X207325595Y-36822438D01*
X207325595Y-36822438D02*
X207277976Y-36870057D01*
X207277976Y-36870057D02*
X207230357Y-36965295D01*
X207230357Y-36965295D02*
X207230357Y-37108152D01*
X207230357Y-37108152D02*
X207277976Y-37203390D01*
X207277976Y-37203390D02*
X207325595Y-37251009D01*
X207325595Y-37251009D02*
X207420833Y-37298628D01*
X207420833Y-37298628D02*
X207801785Y-37298628D01*
X206277976Y-37774819D02*
X206849404Y-37774819D01*
X206563690Y-37774819D02*
X206563690Y-36774819D01*
X206563690Y-36774819D02*
X206658928Y-36917676D01*
X206658928Y-36917676D02*
X206754166Y-37012914D01*
X206754166Y-37012914D02*
X206849404Y-37060533D01*
X205706547Y-37203390D02*
X205801785Y-37155771D01*
X205801785Y-37155771D02*
X205849404Y-37108152D01*
X205849404Y-37108152D02*
X205897023Y-37012914D01*
X205897023Y-37012914D02*
X205897023Y-36965295D01*
X205897023Y-36965295D02*
X205849404Y-36870057D01*
X205849404Y-36870057D02*
X205801785Y-36822438D01*
X205801785Y-36822438D02*
X205706547Y-36774819D01*
X205706547Y-36774819D02*
X205516071Y-36774819D01*
X205516071Y-36774819D02*
X205420833Y-36822438D01*
X205420833Y-36822438D02*
X205373214Y-36870057D01*
X205373214Y-36870057D02*
X205325595Y-36965295D01*
X205325595Y-36965295D02*
X205325595Y-37012914D01*
X205325595Y-37012914D02*
X205373214Y-37108152D01*
X205373214Y-37108152D02*
X205420833Y-37155771D01*
X205420833Y-37155771D02*
X205516071Y-37203390D01*
X205516071Y-37203390D02*
X205706547Y-37203390D01*
X205706547Y-37203390D02*
X205801785Y-37251009D01*
X205801785Y-37251009D02*
X205849404Y-37298628D01*
X205849404Y-37298628D02*
X205897023Y-37393866D01*
X205897023Y-37393866D02*
X205897023Y-37584342D01*
X205897023Y-37584342D02*
X205849404Y-37679580D01*
X205849404Y-37679580D02*
X205801785Y-37727200D01*
X205801785Y-37727200D02*
X205706547Y-37774819D01*
X205706547Y-37774819D02*
X205516071Y-37774819D01*
X205516071Y-37774819D02*
X205420833Y-37727200D01*
X205420833Y-37727200D02*
X205373214Y-37679580D01*
X205373214Y-37679580D02*
X205325595Y-37584342D01*
X205325595Y-37584342D02*
X205325595Y-37393866D01*
X205325595Y-37393866D02*
X205373214Y-37298628D01*
X205373214Y-37298628D02*
X205420833Y-37251009D01*
X205420833Y-37251009D02*
X205516071Y-37203390D01*
X202062557Y-92967261D02*
X202014938Y-92872023D01*
X202014938Y-92872023D02*
X201919700Y-92776785D01*
X201919700Y-92776785D02*
X201776842Y-92633928D01*
X201776842Y-92633928D02*
X201729223Y-92538690D01*
X201729223Y-92538690D02*
X201729223Y-92443452D01*
X201967319Y-92491071D02*
X201919700Y-92395833D01*
X201919700Y-92395833D02*
X201824461Y-92300595D01*
X201824461Y-92300595D02*
X201633985Y-92252976D01*
X201633985Y-92252976D02*
X201300652Y-92252976D01*
X201300652Y-92252976D02*
X201110176Y-92300595D01*
X201110176Y-92300595D02*
X201014938Y-92395833D01*
X201014938Y-92395833D02*
X200967319Y-92491071D01*
X200967319Y-92491071D02*
X200967319Y-92681547D01*
X200967319Y-92681547D02*
X201014938Y-92776785D01*
X201014938Y-92776785D02*
X201110176Y-92872023D01*
X201110176Y-92872023D02*
X201300652Y-92919642D01*
X201300652Y-92919642D02*
X201633985Y-92919642D01*
X201633985Y-92919642D02*
X201824461Y-92872023D01*
X201824461Y-92872023D02*
X201919700Y-92776785D01*
X201919700Y-92776785D02*
X201967319Y-92681547D01*
X201967319Y-92681547D02*
X201967319Y-92491071D01*
X200967319Y-93776785D02*
X200967319Y-93586309D01*
X200967319Y-93586309D02*
X201014938Y-93491071D01*
X201014938Y-93491071D02*
X201062557Y-93443452D01*
X201062557Y-93443452D02*
X201205414Y-93348214D01*
X201205414Y-93348214D02*
X201395890Y-93300595D01*
X201395890Y-93300595D02*
X201776842Y-93300595D01*
X201776842Y-93300595D02*
X201872080Y-93348214D01*
X201872080Y-93348214D02*
X201919700Y-93395833D01*
X201919700Y-93395833D02*
X201967319Y-93491071D01*
X201967319Y-93491071D02*
X201967319Y-93681547D01*
X201967319Y-93681547D02*
X201919700Y-93776785D01*
X201919700Y-93776785D02*
X201872080Y-93824404D01*
X201872080Y-93824404D02*
X201776842Y-93872023D01*
X201776842Y-93872023D02*
X201538747Y-93872023D01*
X201538747Y-93872023D02*
X201443509Y-93824404D01*
X201443509Y-93824404D02*
X201395890Y-93776785D01*
X201395890Y-93776785D02*
X201348271Y-93681547D01*
X201348271Y-93681547D02*
X201348271Y-93491071D01*
X201348271Y-93491071D02*
X201395890Y-93395833D01*
X201395890Y-93395833D02*
X201443509Y-93348214D01*
X201443509Y-93348214D02*
X201538747Y-93300595D01*
D12*
%TO.C,R23*%
X198139564Y-97265000D02*
X197685436Y-97265000D01*
X198139564Y-98735000D02*
X197685436Y-98735000D01*
%TO.C,Q5*%
X190390000Y-92177500D02*
X190390000Y-93697500D01*
X190390000Y-93697500D02*
X191390000Y-93697500D01*
X190440000Y-92177500D02*
X190390000Y-92177500D01*
X192340000Y-92177500D02*
X191560000Y-92177500D01*
X192510000Y-93697500D02*
X193510000Y-93697500D01*
X193510000Y-92177500D02*
X193460000Y-92177500D01*
X193510000Y-93697500D02*
X193510000Y-92177500D01*
X191900000Y-91877500D02*
X191570000Y-91637500D01*
X191900000Y-91397500D01*
X191900000Y-91877500D01*
G36*
X191900000Y-91877500D02*
G01*
X191570000Y-91637500D01*
X191900000Y-91397500D01*
X191900000Y-91877500D01*
G37*
%TO.C,R26*%
X203685436Y-87265000D02*
X204139564Y-87265000D01*
X203685436Y-88735000D02*
X204139564Y-88735000D01*
%TO.C,R21*%
X186227064Y-97265000D02*
X185772936Y-97265000D01*
X186227064Y-98735000D02*
X185772936Y-98735000D01*
%TO.C,R9*%
X157015000Y-62977064D02*
X157015000Y-62522936D01*
X158485000Y-62977064D02*
X158485000Y-62522936D01*
%TO.C,R10*%
X156765000Y-94727064D02*
X156765000Y-94272936D01*
X158235000Y-94727064D02*
X158235000Y-94272936D01*
%TO.C,R20*%
X185772936Y-87265000D02*
X186227064Y-87265000D01*
X185772936Y-88735000D02*
X186227064Y-88735000D01*
%TO.C,R27*%
X204139564Y-97265000D02*
X203685436Y-97265000D01*
X204139564Y-98735000D02*
X203685436Y-98735000D01*
%TO.C,Q3*%
X184390000Y-92177500D02*
X184390000Y-93697500D01*
X184390000Y-93697500D02*
X185390000Y-93697500D01*
X184440000Y-92177500D02*
X184390000Y-92177500D01*
X186340000Y-92177500D02*
X185560000Y-92177500D01*
X186510000Y-93697500D02*
X187510000Y-93697500D01*
X187510000Y-92177500D02*
X187460000Y-92177500D01*
X187510000Y-93697500D02*
X187510000Y-92177500D01*
X185900000Y-91877500D02*
X185570000Y-91637500D01*
X185900000Y-91397500D01*
X185900000Y-91877500D01*
G36*
X185900000Y-91877500D02*
G01*
X185570000Y-91637500D01*
X185900000Y-91397500D01*
X185900000Y-91877500D01*
G37*
%TO.C,Q4*%
X196352500Y-92302500D02*
X196352500Y-93822500D01*
X196352500Y-93822500D02*
X197352500Y-93822500D01*
X196402500Y-92302500D02*
X196352500Y-92302500D01*
X198302500Y-92302500D02*
X197522500Y-92302500D01*
X198472500Y-93822500D02*
X199472500Y-93822500D01*
X199472500Y-92302500D02*
X199422500Y-92302500D01*
X199472500Y-93822500D02*
X199472500Y-92302500D01*
X197862500Y-92002500D02*
X197532500Y-91762500D01*
X197862500Y-91522500D01*
X197862500Y-92002500D01*
G36*
X197862500Y-92002500D02*
G01*
X197532500Y-91762500D01*
X197862500Y-91522500D01*
X197862500Y-92002500D01*
G37*
%TO.C,R3*%
X157015000Y-46977064D02*
X157015000Y-46522936D01*
X158485000Y-46977064D02*
X158485000Y-46522936D01*
%TO.C,C13*%
X212590000Y-32961252D02*
X212590000Y-31538748D01*
X214410000Y-32961252D02*
X214410000Y-31538748D01*
%TO.C,R4*%
X157015000Y-78977064D02*
X157015000Y-78522936D01*
X158485000Y-78977064D02*
X158485000Y-78522936D01*
%TO.C,R18*%
X206842224Y-38227500D02*
X206332776Y-38227500D01*
X206842224Y-39272500D02*
X206332776Y-39272500D01*
%TO.C,R24*%
X191772936Y-87265000D02*
X192227064Y-87265000D01*
X191772936Y-88735000D02*
X192227064Y-88735000D01*
%TO.C,R22*%
X197685436Y-87265000D02*
X198139564Y-87265000D01*
X197685436Y-88735000D02*
X198139564Y-88735000D01*
%TO.C,Q6*%
X202352500Y-92302500D02*
X202352500Y-93822500D01*
X202352500Y-93822500D02*
X203352500Y-93822500D01*
X202402500Y-92302500D02*
X202352500Y-92302500D01*
X204302500Y-92302500D02*
X203522500Y-92302500D01*
X204472500Y-93822500D02*
X205472500Y-93822500D01*
X205472500Y-92302500D02*
X205422500Y-92302500D01*
X205472500Y-93822500D02*
X205472500Y-92302500D01*
X203862500Y-92002500D02*
X203532500Y-91762500D01*
X203862500Y-91522500D01*
X203862500Y-92002500D01*
G36*
X203862500Y-92002500D02*
G01*
X203532500Y-91762500D01*
X203862500Y-91522500D01*
X203862500Y-92002500D01*
G37*
%TO.C,R25*%
X192227064Y-97265000D02*
X191772936Y-97265000D01*
X192227064Y-98735000D02*
X191772936Y-98735000D01*
%TD*%
%LPC*%
D13*
%TO.C,U11*%
X153805000Y-98310000D03*
D14*
X153805000Y-95770000D03*
X153805000Y-93230000D03*
X153805000Y-90690000D03*
X146185000Y-90690000D03*
X146185000Y-93230000D03*
X146185000Y-95770000D03*
X146185000Y-98310000D03*
%TD*%
D15*
%TO.C,H1*%
X104000000Y-24000000D03*
D16*
X104000000Y-24000000D03*
%TD*%
D17*
%TO.C,J6*%
X173085000Y-30777500D03*
D18*
X168005000Y-30777500D03*
X162925000Y-30777500D03*
%TD*%
D13*
%TO.C,U10*%
X154120000Y-66580000D03*
D14*
X154120000Y-64040000D03*
X154120000Y-61500000D03*
X154120000Y-58960000D03*
X146500000Y-58960000D03*
X146500000Y-61500000D03*
X146500000Y-64040000D03*
X146500000Y-66580000D03*
%TD*%
D19*
%TO.C,J2*%
X253000000Y-79790000D03*
D20*
X253000000Y-77250000D03*
X253000000Y-74710000D03*
X253000000Y-72170000D03*
X253000000Y-69630000D03*
X253000000Y-67090000D03*
X253000000Y-64550000D03*
X253000000Y-62010000D03*
X253000000Y-59470000D03*
X253000000Y-56930000D03*
%TD*%
D13*
%TO.C,U7*%
X154120000Y-82580000D03*
D14*
X154120000Y-80040000D03*
X154120000Y-77500000D03*
X154120000Y-74960000D03*
X146500000Y-74960000D03*
X146500000Y-77500000D03*
X146500000Y-80040000D03*
X146500000Y-82580000D03*
%TD*%
D21*
%TO.C,J3*%
X206285000Y-30750000D03*
X217715000Y-30750000D03*
D22*
X207560000Y-24390000D03*
D23*
X208820000Y-21850000D03*
X210100000Y-24390000D03*
X211360000Y-21850000D03*
X212640000Y-24390000D03*
X213900000Y-21850000D03*
X215180000Y-24390000D03*
X216440000Y-21850000D03*
X205375000Y-35650000D03*
X207915000Y-35650000D03*
X216085000Y-35650000D03*
X218625000Y-35650000D03*
D24*
X204255000Y-27700000D03*
X219745000Y-27700000D03*
%TD*%
D25*
%TO.C,J5*%
X208500000Y-53000000D03*
D26*
X211000000Y-53000000D03*
X213500000Y-53000000D03*
X216000000Y-53000000D03*
%TD*%
D27*
%TO.C,J14*%
X105500000Y-57260000D03*
D28*
X105500000Y-62340000D03*
X105500000Y-67420000D03*
X105500000Y-72500000D03*
X105500000Y-77580000D03*
X105500000Y-82660000D03*
%TD*%
D15*
%TO.C,H3*%
X104000000Y-116000000D03*
D16*
X104000000Y-116000000D03*
%TD*%
D29*
%TO.C,J8*%
X176380000Y-109222500D03*
D18*
X181460000Y-109222500D03*
X186540000Y-109222500D03*
X191620000Y-109222500D03*
%TD*%
D30*
%TO.C,J9*%
X253000000Y-39300000D03*
D20*
X253000000Y-41840000D03*
X253000000Y-44380000D03*
X253000000Y-46920000D03*
X253000000Y-49460000D03*
X253000000Y-52000000D03*
%TD*%
D17*
%TO.C,J4*%
X193085000Y-30777500D03*
D18*
X188005000Y-30777500D03*
X182925000Y-30777500D03*
%TD*%
D13*
%TO.C,U6*%
X154120000Y-50580000D03*
D14*
X154120000Y-48040000D03*
X154120000Y-45500000D03*
X154120000Y-42960000D03*
X146500000Y-42960000D03*
X146500000Y-45500000D03*
X146500000Y-48040000D03*
X146500000Y-50580000D03*
%TD*%
D15*
%TO.C,H2*%
X256000000Y-24000000D03*
D16*
X256000000Y-24000000D03*
%TD*%
D31*
%TO.C,U5*%
X229760000Y-21900000D03*
D14*
X229760000Y-24440000D03*
X229760000Y-26980000D03*
X229760000Y-29520000D03*
X229760000Y-32060000D03*
X229760000Y-34600000D03*
X229760000Y-37140000D03*
X229760000Y-39680000D03*
X229760000Y-42220000D03*
X229760000Y-44760000D03*
X229760000Y-47300000D03*
X229760000Y-49840000D03*
X229760000Y-52380000D03*
X229760000Y-54920000D03*
X229760000Y-57460000D03*
X229760000Y-60000000D03*
X229760000Y-62540000D03*
X229760000Y-65080000D03*
X229760000Y-67620000D03*
X229760000Y-70160000D03*
X229760000Y-72700000D03*
X229760000Y-75240000D03*
X229760000Y-77780000D03*
X229760000Y-80320000D03*
X245000000Y-80320000D03*
X245000000Y-77780000D03*
X245000000Y-75240000D03*
X245000000Y-72700000D03*
X245000000Y-70160000D03*
X245000000Y-67620000D03*
X245000000Y-65080000D03*
X245000000Y-62540000D03*
X245000000Y-60000000D03*
X245000000Y-57460000D03*
X245000000Y-54920000D03*
X245000000Y-52380000D03*
X245000000Y-49840000D03*
X245000000Y-47300000D03*
X245000000Y-44760000D03*
X245000000Y-42220000D03*
X245000000Y-39680000D03*
X245000000Y-37140000D03*
X245000000Y-34600000D03*
X245000000Y-32060000D03*
X245000000Y-29520000D03*
X245000000Y-26980000D03*
X245000000Y-24440000D03*
X245000000Y-21900000D03*
D32*
X242561600Y-34870000D03*
D33*
X240561600Y-34870000D03*
X238561600Y-34870000D03*
X238561600Y-36870000D03*
X240561600Y-36870000D03*
X242561600Y-36870000D03*
%TD*%
D34*
%TO.C,J1*%
X241920000Y-114000000D03*
D28*
X247000000Y-114000000D03*
%TD*%
D15*
%TO.C,H4*%
X256000000Y-116000000D03*
D16*
X256000000Y-116000000D03*
%TD*%
D29*
%TO.C,J7*%
X200880000Y-109222500D03*
D18*
X205960000Y-109222500D03*
X211040000Y-109222500D03*
X216120000Y-109222500D03*
%TD*%
D35*
%TO.C,R23*%
X198825000Y-98000000D03*
X197000000Y-98000000D03*
%TD*%
D36*
%TO.C,Q5*%
X191000000Y-92000000D03*
X192900000Y-92000000D03*
X191950000Y-93875000D03*
%TD*%
D37*
%TO.C,R26*%
X203000000Y-88000000D03*
X204825000Y-88000000D03*
%TD*%
D35*
%TO.C,R21*%
X186912500Y-98000000D03*
X185087500Y-98000000D03*
%TD*%
D38*
%TO.C,R9*%
X157750000Y-63662500D03*
X157750000Y-61837500D03*
%TD*%
%TO.C,R10*%
X157500000Y-95412500D03*
X157500000Y-93587500D03*
%TD*%
D37*
%TO.C,R20*%
X185087500Y-88000000D03*
X186912500Y-88000000D03*
%TD*%
D35*
%TO.C,R27*%
X204825000Y-98000000D03*
X203000000Y-98000000D03*
%TD*%
D36*
%TO.C,Q3*%
X185000000Y-92000000D03*
X186900000Y-92000000D03*
X185950000Y-93875000D03*
%TD*%
%TO.C,Q4*%
X196962500Y-92125000D03*
X198862500Y-92125000D03*
X197912500Y-94000000D03*
%TD*%
D38*
%TO.C,R3*%
X157750000Y-47662500D03*
X157750000Y-45837500D03*
%TD*%
D39*
%TO.C,C13*%
X213500000Y-33812500D03*
X213500000Y-30687500D03*
%TD*%
D38*
%TO.C,R4*%
X157750000Y-79662500D03*
X157750000Y-77837500D03*
%TD*%
D40*
%TO.C,R18*%
X207500000Y-38750000D03*
X205675000Y-38750000D03*
%TD*%
D37*
%TO.C,R24*%
X191087500Y-88000000D03*
X192912500Y-88000000D03*
%TD*%
%TO.C,R22*%
X197000000Y-88000000D03*
X198825000Y-88000000D03*
%TD*%
D36*
%TO.C,Q6*%
X202962500Y-92125000D03*
X204862500Y-92125000D03*
X203912500Y-94000000D03*
%TD*%
D35*
%TO.C,R25*%
X192912500Y-98000000D03*
X191087500Y-98000000D03*
%TD*%
%LPD*%
M02*
