%TF.GenerationSoftware,KiCad,Pcbnew,9.0.5*%
%TF.CreationDate,2026-08-05T17:44:24+07:00*%
%TF.ProjectId,ISR_AWCS,4953525f-4157-4435-932e-6b696361645f,rev?*%
%TF.SameCoordinates,Original*%
%TF.FileFunction,Copper,L1,Top*%
%TF.FilePolarity,Positive*%
%FSLAX46Y46*%
G04 Gerber Fmt 4.6, Leading zero omitted, Abs format (unit mm)*
G04 Created by KiCad (PCBNEW 9.0.5) date 2026-08-05 17:44:24*
%MOMM*%
%LPD*%
G01*
G04 APERTURE LIST*
G04 Aperture macros list*
%AMRoundRect*
0 Rectangle with rounded corners*
0 $1 Rounding radius*
0 $2 $3 $4 $5 $6 $7 $8 $9 X,Y pos of 4 corners*
0 Add a 4 corners polygon primitive as box body*
4,1,4,$2,$3,$4,$5,$6,$7,$8,$9,$2,$3,0*
0 Add four circle primitives for the rounded corners*
1,1,$1+$1,$2,$3*
1,1,$1+$1,$4,$5*
1,1,$1+$1,$6,$7*
1,1,$1+$1,$8,$9*
0 Add four rect primitives between the rounded corners*
20,1,$1+$1,$2,$3,$4,$5,0*
20,1,$1+$1,$4,$5,$6,$7,0*
20,1,$1+$1,$6,$7,$8,$9,0*
20,1,$1+$1,$8,$9,$2,$3,0*%
G04 Aperture macros list end*
%TA.AperFunction,SMDPad,CuDef*%
%ADD10RoundRect,0.243750X-0.456250X0.243750X-0.456250X-0.243750X0.456250X-0.243750X0.456250X0.243750X0*%
%TD*%
%TA.AperFunction,SMDPad,CuDef*%
%ADD11RoundRect,0.250000X-1.000000X1.950000X-1.000000X-1.950000X1.000000X-1.950000X1.000000X1.950000X0*%
%TD*%
%TA.AperFunction,SMDPad,CuDef*%
%ADD12RoundRect,0.237500X0.237500X-0.250000X0.237500X0.250000X-0.237500X0.250000X-0.237500X-0.250000X0*%
%TD*%
%TA.AperFunction,SMDPad,CuDef*%
%ADD13RoundRect,0.250000X-0.450000X0.262500X-0.450000X-0.262500X0.450000X-0.262500X0.450000X0.262500X0*%
%TD*%
%TA.AperFunction,SMDPad,CuDef*%
%ADD14R,2.060000X1.540000*%
%TD*%
%TA.AperFunction,ComponentPad*%
%ADD15RoundRect,0.250000X0.550000X0.550000X-0.550000X0.550000X-0.550000X-0.550000X0.550000X-0.550000X0*%
%TD*%
%TA.AperFunction,ComponentPad*%
%ADD16C,1.600000*%
%TD*%
%TA.AperFunction,ComponentPad*%
%ADD17C,3.600000*%
%TD*%
%TA.AperFunction,ConnectorPad*%
%ADD18C,5.600000*%
%TD*%
%TA.AperFunction,ComponentPad*%
%ADD19RoundRect,0.249999X0.790001X1.550001X-0.790001X1.550001X-0.790001X-1.550001X0.790001X-1.550001X0*%
%TD*%
%TA.AperFunction,ComponentPad*%
%ADD20O,2.080000X3.600000*%
%TD*%
%TA.AperFunction,SMDPad,CuDef*%
%ADD21RoundRect,0.237500X0.237500X-0.300000X0.237500X0.300000X-0.237500X0.300000X-0.237500X-0.300000X0*%
%TD*%
%TA.AperFunction,SMDPad,CuDef*%
%ADD22R,3.810000X0.800000*%
%TD*%
%TA.AperFunction,SMDPad,CuDef*%
%ADD23R,8.290000X10.070000*%
%TD*%
%TA.AperFunction,SMDPad,CuDef*%
%ADD24RoundRect,0.250000X-0.262500X-0.450000X0.262500X-0.450000X0.262500X0.450000X-0.262500X0.450000X0*%
%TD*%
%TA.AperFunction,ComponentPad*%
%ADD25R,1.700000X1.700000*%
%TD*%
%TA.AperFunction,ComponentPad*%
%ADD26C,1.700000*%
%TD*%
%TA.AperFunction,SMDPad,CuDef*%
%ADD27R,3.505200X2.260600*%
%TD*%
%TA.AperFunction,SMDPad,CuDef*%
%ADD28RoundRect,0.250000X1.000000X0.650000X-1.000000X0.650000X-1.000000X-0.650000X1.000000X-0.650000X0*%
%TD*%
%TA.AperFunction,SMDPad,CuDef*%
%ADD29RoundRect,0.250000X1.000000X-1.950000X1.000000X1.950000X-1.000000X1.950000X-1.000000X-1.950000X0*%
%TD*%
%TA.AperFunction,SMDPad,CuDef*%
%ADD30RoundRect,0.250000X-2.050000X-0.300000X2.050000X-0.300000X2.050000X0.300000X-2.050000X0.300000X0*%
%TD*%
%TA.AperFunction,SMDPad,CuDef*%
%ADD31RoundRect,0.250002X-4.449998X-5.149998X4.449998X-5.149998X4.449998X5.149998X-4.449998X5.149998X0*%
%TD*%
%TA.AperFunction,SMDPad,CuDef*%
%ADD32R,1.200000X3.000000*%
%TD*%
%TA.AperFunction,SMDPad,CuDef*%
%ADD33R,6.000000X6.500000*%
%TD*%
%TA.AperFunction,SMDPad,CuDef*%
%ADD34RoundRect,0.225000X-0.225000X-0.250000X0.225000X-0.250000X0.225000X0.250000X-0.225000X0.250000X0*%
%TD*%
%TA.AperFunction,ComponentPad*%
%ADD35RoundRect,0.250500X-0.499500X-0.499500X0.499500X-0.499500X0.499500X0.499500X-0.499500X0.499500X0*%
%TD*%
%TA.AperFunction,ComponentPad*%
%ADD36C,1.500000*%
%TD*%
%TA.AperFunction,ComponentPad*%
%ADD37C,2.500000*%
%TD*%
%TA.AperFunction,SMDPad,CuDef*%
%ADD38RoundRect,0.150000X0.150000X-0.825000X0.150000X0.825000X-0.150000X0.825000X-0.150000X-0.825000X0*%
%TD*%
%TA.AperFunction,SMDPad,CuDef*%
%ADD39R,3.000000X3.800000*%
%TD*%
%TA.AperFunction,ComponentPad*%
%ADD40RoundRect,0.250000X-0.600000X-0.725000X0.600000X-0.725000X0.600000X0.725000X-0.600000X0.725000X0*%
%TD*%
%TA.AperFunction,ComponentPad*%
%ADD41O,1.700000X1.950000*%
%TD*%
%TA.AperFunction,SMDPad,CuDef*%
%ADD42RoundRect,0.243750X-0.243750X-0.456250X0.243750X-0.456250X0.243750X0.456250X-0.243750X0.456250X0*%
%TD*%
%TA.AperFunction,ComponentPad*%
%ADD43RoundRect,0.250000X-1.050000X1.050000X-1.050000X-1.050000X1.050000X-1.050000X1.050000X1.050000X0*%
%TD*%
%TA.AperFunction,ComponentPad*%
%ADD44C,2.600000*%
%TD*%
%TA.AperFunction,SMDPad,CuDef*%
%ADD45RoundRect,0.250000X0.600000X-0.400000X0.600000X0.400000X-0.600000X0.400000X-0.600000X-0.400000X0*%
%TD*%
%TA.AperFunction,SMDPad,CuDef*%
%ADD46RoundRect,0.250000X-0.300000X2.050000X-0.300000X-2.050000X0.300000X-2.050000X0.300000X2.050000X0*%
%TD*%
%TA.AperFunction,SMDPad,CuDef*%
%ADD47RoundRect,0.250002X-5.149998X4.449998X-5.149998X-4.449998X5.149998X-4.449998X5.149998X4.449998X0*%
%TD*%
%TA.AperFunction,ComponentPad*%
%ADD48RoundRect,0.249999X-0.790001X-1.550001X0.790001X-1.550001X0.790001X1.550001X-0.790001X1.550001X0*%
%TD*%
%TA.AperFunction,SMDPad,CuDef*%
%ADD49RoundRect,0.250000X-0.650000X0.412500X-0.650000X-0.412500X0.650000X-0.412500X0.650000X0.412500X0*%
%TD*%
%TA.AperFunction,SMDPad,CuDef*%
%ADD50RoundRect,0.250000X0.262500X0.450000X-0.262500X0.450000X-0.262500X-0.450000X0.262500X-0.450000X0*%
%TD*%
%TA.AperFunction,SMDPad,CuDef*%
%ADD51RoundRect,0.225000X0.225000X0.250000X-0.225000X0.250000X-0.225000X-0.250000X0.225000X-0.250000X0*%
%TD*%
%TA.AperFunction,SMDPad,CuDef*%
%ADD52R,3.000000X1.200000*%
%TD*%
%TA.AperFunction,SMDPad,CuDef*%
%ADD53R,6.500000X6.000000*%
%TD*%
%TA.AperFunction,SMDPad,CuDef*%
%ADD54R,1.000000X0.800000*%
%TD*%
%TA.AperFunction,SMDPad,CuDef*%
%ADD55RoundRect,0.250000X0.650000X-1.000000X0.650000X1.000000X-0.650000X1.000000X-0.650000X-1.000000X0*%
%TD*%
%TA.AperFunction,ComponentPad*%
%ADD56R,1.600000X1.600000*%
%TD*%
%TA.AperFunction,ComponentPad*%
%ADD57R,1.300000X1.300000*%
%TD*%
%TA.AperFunction,ComponentPad*%
%ADD58C,1.300000*%
%TD*%
%TA.AperFunction,SMDPad,CuDef*%
%ADD59RoundRect,0.250000X-1.000000X-0.650000X1.000000X-0.650000X1.000000X0.650000X-1.000000X0.650000X0*%
%TD*%
%TA.AperFunction,SMDPad,CuDef*%
%ADD60RoundRect,0.250000X-1.000000X1.750000X-1.000000X-1.750000X1.000000X-1.750000X1.000000X1.750000X0*%
%TD*%
%TA.AperFunction,ComponentPad*%
%ADD61RoundRect,0.250000X-1.050000X-1.050000X1.050000X-1.050000X1.050000X1.050000X-1.050000X1.050000X0*%
%TD*%
%TA.AperFunction,SMDPad,CuDef*%
%ADD62RoundRect,0.375000X-0.375000X0.625000X-0.375000X-0.625000X0.375000X-0.625000X0.375000X0.625000X0*%
%TD*%
%TA.AperFunction,SMDPad,CuDef*%
%ADD63RoundRect,0.500000X-1.400000X0.500000X-1.400000X-0.500000X1.400000X-0.500000X1.400000X0.500000X0*%
%TD*%
%TA.AperFunction,SMDPad,CuDef*%
%ADD64RoundRect,0.250000X0.450000X-0.262500X0.450000X0.262500X-0.450000X0.262500X-0.450000X-0.262500X0*%
%TD*%
%TA.AperFunction,ViaPad*%
%ADD65C,1.270000*%
%TD*%
%TA.AperFunction,Conductor*%
%ADD66C,0.500000*%
%TD*%
%TA.AperFunction,Conductor*%
%ADD67C,1.000000*%
%TD*%
%TA.AperFunction,Conductor*%
%ADD68C,0.300000*%
%TD*%
%TA.AperFunction,Conductor*%
%ADD69C,0.200000*%
%TD*%
%TA.AperFunction,Conductor*%
%ADD70C,2.000000*%
%TD*%
G04 APERTURE END LIST*
D10*
%TO.P,D9,1,K*%
%TO.N,GNDA*%
X144000000Y-30375000D03*
%TO.P,D9,2,A*%
%TO.N,Net-(D9-A)*%
X144000000Y-32250000D03*
%TD*%
D11*
%TO.P,C3,1*%
%TO.N,+5V*%
X181275000Y-88725000D03*
%TO.P,C3,2*%
%TO.N,GND*%
X181275000Y-96125000D03*
%TD*%
D12*
%TO.P,R17,1*%
%TO.N,Net-(J4-Pin_2)*%
X187115000Y-41137500D03*
%TO.P,R17,2*%
%TO.N,Net-(J4-Pin_3)*%
X187115000Y-39312500D03*
%TD*%
D13*
%TO.P,R8,1*%
%TO.N,Net-(U9-SR)*%
X121790000Y-74087500D03*
%TO.P,R8,2*%
%TO.N,GNDA*%
X121790000Y-75912500D03*
%TD*%
D14*
%TO.P,D8,1,K*%
%TO.N,Net-(D8-K)*%
X117000000Y-115000000D03*
%TO.P,D8,2,A*%
%TO.N,GNDA*%
X112000000Y-115000000D03*
%TD*%
D15*
%TO.P,U11,1,NC*%
%TO.N,unconnected-(U11-NC-Pad1)*%
X153805000Y-98310000D03*
D16*
%TO.P,U11,2,A*%
%TO.N,LPWM1*%
X153805000Y-95770000D03*
%TO.P,U11,3,C*%
%TO.N,GND*%
X153805000Y-93230000D03*
%TO.P,U11,4,NC*%
%TO.N,unconnected-(U11-NC-Pad4)*%
X153805000Y-90690000D03*
%TO.P,U11,5,GND*%
%TO.N,GNDA*%
X146185000Y-90690000D03*
%TO.P,U11,6,VO*%
%TO.N,Net-(U11-VO)*%
X146185000Y-93230000D03*
%TO.P,U11,7,EN*%
%TO.N,+5VA*%
X146185000Y-95770000D03*
%TO.P,U11,8,VCC*%
X146185000Y-98310000D03*
%TD*%
D17*
%TO.P,H1,1*%
%TO.N,N/C*%
X104000000Y-24000000D03*
D18*
X104000000Y-24000000D03*
%TD*%
D19*
%TO.P,J6,1,Pin_1*%
%TO.N,GND*%
X173085000Y-30777500D03*
D20*
%TO.P,J6,2,Pin_2*%
%TO.N,TX*%
X168005000Y-30777500D03*
%TO.P,J6,3,Pin_3*%
%TO.N,RX*%
X162925000Y-30777500D03*
%TD*%
D21*
%TO.P,C5,1*%
%TO.N,+5V*%
X175950000Y-68212500D03*
%TO.P,C5,2*%
%TO.N,GND*%
X175950000Y-66487500D03*
%TD*%
D15*
%TO.P,U10,1,NC*%
%TO.N,unconnected-(U10-NC-Pad1)*%
X154120000Y-66580000D03*
D16*
%TO.P,U10,2,A*%
%TO.N,LPWM*%
X154120000Y-64040000D03*
%TO.P,U10,3,C*%
%TO.N,GND*%
X154120000Y-61500000D03*
%TO.P,U10,4,NC*%
%TO.N,unconnected-(U10-NC-Pad4)*%
X154120000Y-58960000D03*
%TO.P,U10,5,GND*%
%TO.N,GNDA*%
X146500000Y-58960000D03*
%TO.P,U10,6,VO*%
%TO.N,Net-(U10-VO)*%
X146500000Y-61500000D03*
%TO.P,U10,7,EN*%
%TO.N,+5VA*%
X146500000Y-64040000D03*
%TO.P,U10,8,VCC*%
X146500000Y-66580000D03*
%TD*%
D22*
%TO.P,U8,1,GND*%
%TO.N,GNDA*%
X138450000Y-50310000D03*
%TO.P,U8,2,IN*%
%TO.N,Net-(U6-VO)*%
X138450000Y-49040000D03*
%TO.P,U8,3,INH*%
%TO.N,+5VA*%
X138450000Y-47770000D03*
%TO.P,U8,4,OUT*%
%TO.N,M1_R*%
X138450000Y-46500000D03*
%TO.P,U8,5,SR*%
%TO.N,Net-(U8-SR)*%
X138450000Y-45230000D03*
%TO.P,U8,6,IS*%
%TO.N,Net-(U8-IS)*%
X138450000Y-43960000D03*
%TO.P,U8,7,VS*%
%TO.N,+21VA*%
X138450000Y-42690000D03*
D23*
%TO.P,U8,8,OUT*%
%TO.N,M1_R*%
X128790000Y-46500000D03*
%TD*%
D24*
%TO.P,R1,1*%
%TO.N,+5V*%
X255087500Y-31000000D03*
%TO.P,R1,2*%
%TO.N,Net-(D5-A)*%
X256912500Y-31000000D03*
%TD*%
D25*
%TO.P,J2,1,Pin_1*%
%TO.N,Net-(J2-Pin_1)*%
X253000000Y-79790000D03*
D26*
%TO.P,J2,2,Pin_2*%
%TO.N,Net-(J2-Pin_2)*%
X253000000Y-77250000D03*
%TO.P,J2,3,Pin_3*%
%TO.N,Net-(J2-Pin_3)*%
X253000000Y-74710000D03*
%TO.P,J2,4,Pin_4*%
%TO.N,Net-(J2-Pin_4)*%
X253000000Y-72170000D03*
%TO.P,J2,5,Pin_5*%
%TO.N,Net-(J2-Pin_5)*%
X253000000Y-69630000D03*
%TO.P,J2,6,Pin_6*%
%TO.N,Net-(J2-Pin_6)*%
X253000000Y-67090000D03*
%TO.P,J2,7,Pin_7*%
%TO.N,Net-(J2-Pin_7)*%
X253000000Y-64550000D03*
%TO.P,J2,8,Pin_8*%
%TO.N,Net-(J2-Pin_8)*%
X253000000Y-62010000D03*
%TO.P,J2,9,Pin_9*%
%TO.N,Net-(J2-Pin_9)*%
X253000000Y-59470000D03*
%TO.P,J2,10,Pin_10*%
%TO.N,Net-(J2-Pin_10)*%
X253000000Y-56930000D03*
%TD*%
D27*
%TO.P,L1,1,1*%
%TO.N,Net-(D4-K)*%
X181275000Y-76605600D03*
%TO.P,L1,2,2*%
%TO.N,+5V*%
X181275000Y-82244400D03*
%TD*%
D15*
%TO.P,U7,1,NC*%
%TO.N,unconnected-(U7-NC-Pad1)*%
X154120000Y-82580000D03*
D16*
%TO.P,U7,2,A*%
%TO.N,RPWM1*%
X154120000Y-80040000D03*
%TO.P,U7,3,C*%
%TO.N,GND*%
X154120000Y-77500000D03*
%TO.P,U7,4,NC*%
%TO.N,unconnected-(U7-NC-Pad4)*%
X154120000Y-74960000D03*
%TO.P,U7,5,GND*%
%TO.N,GNDA*%
X146500000Y-74960000D03*
%TO.P,U7,6,VO*%
%TO.N,Net-(U7-VO)*%
X146500000Y-77500000D03*
%TO.P,U7,7,EN*%
%TO.N,+5VA*%
X146500000Y-80040000D03*
%TO.P,U7,8,VCC*%
X146500000Y-82580000D03*
%TD*%
D28*
%TO.P,D3,1,A1*%
%TO.N,Net-(D3-A1)*%
X240500000Y-92700000D03*
%TO.P,D3,2,A2*%
%TO.N,GND*%
X236500000Y-92700000D03*
%TD*%
D11*
%TO.P,C1,1*%
%TO.N,+21V*%
X208100000Y-88650000D03*
%TO.P,C1,2*%
%TO.N,GND*%
X208100000Y-96050000D03*
%TD*%
D29*
%TO.P,C10,1*%
%TO.N,+21VA*%
X107500000Y-99200000D03*
%TO.P,C10,2*%
%TO.N,GNDA*%
X107500000Y-91800000D03*
%TD*%
D30*
%TO.P,U14,1,VIN*%
%TO.N,+21VA*%
X124500000Y-107700000D03*
%TO.P,U14,2,OUT*%
%TO.N,Net-(D8-K)*%
X124500000Y-109400000D03*
%TO.P,U14,3,GND*%
%TO.N,GNDA*%
X124500000Y-111100000D03*
D31*
X133650000Y-111100000D03*
D30*
%TO.P,U14,4,FB*%
%TO.N,+5VA*%
X124500000Y-112800000D03*
%TO.P,U14,5,~{ON}/OFF*%
%TO.N,GNDA*%
X124500000Y-114500000D03*
%TD*%
D32*
%TO.P,Q2,1,G*%
%TO.N,Net-(D7-A)*%
X119720000Y-31840000D03*
D33*
%TO.P,Q2,2,D*%
%TO.N,Net-(D10-A1)*%
X122000000Y-25160000D03*
D32*
%TO.P,Q2,3,S*%
%TO.N,+21VA*%
X124280000Y-31840000D03*
%TD*%
D34*
%TO.P,C2,1*%
%TO.N,+21V*%
X209550000Y-82350000D03*
%TO.P,C2,2*%
%TO.N,GND*%
X211100000Y-82350000D03*
%TD*%
D35*
%TO.P,J3,1,TD+*%
%TO.N,T+*%
X207560000Y-24390000D03*
D36*
%TO.P,J3,2,TD-*%
%TO.N,T-*%
X208820000Y-21850000D03*
%TO.P,J3,3,RD+*%
%TO.N,R+*%
X210100000Y-24390000D03*
%TO.P,J3,4,TCT*%
%TO.N,Net-(J3-RCT)*%
X211360000Y-21850000D03*
%TO.P,J3,5,RCT*%
X212640000Y-24390000D03*
%TO.P,J3,6,RD-*%
%TO.N,R-*%
X213900000Y-21850000D03*
%TO.P,J3,7,NC*%
%TO.N,unconnected-(J3-NC-Pad7)*%
X215180000Y-24390000D03*
%TO.P,J3,8*%
%TO.N,GND*%
X216440000Y-21850000D03*
%TO.P,J3,9*%
%TO.N,Net-(J3-Pad9)*%
X205375000Y-35650000D03*
%TO.P,J3,10*%
%TO.N,GND*%
X207915000Y-35650000D03*
%TO.P,J3,11*%
X216085000Y-35650000D03*
%TO.P,J3,12*%
%TO.N,LED*%
X218625000Y-35650000D03*
D37*
%TO.P,J3,SH*%
%TO.N,unconnected-(J3-PadSH)*%
X204255000Y-27700000D03*
X219745000Y-27700000D03*
%TD*%
D38*
%TO.P,U15,1,D*%
%TO.N,CTX1*%
X185710000Y-50200000D03*
%TO.P,U15,2,GND*%
%TO.N,GND*%
X186980000Y-50200000D03*
%TO.P,U15,3,VCC*%
%TO.N,+3.3V*%
X188250000Y-50200000D03*
%TO.P,U15,4,R*%
%TO.N,CRX1*%
X189520000Y-50200000D03*
%TO.P,U15,5,Vref*%
%TO.N,unconnected-(U15-Vref-Pad5)*%
X189520000Y-45250000D03*
%TO.P,U15,6,CANL*%
%TO.N,Net-(J4-Pin_3)*%
X188250000Y-45250000D03*
%TO.P,U15,7,CANH*%
%TO.N,Net-(J4-Pin_2)*%
X186980000Y-45250000D03*
%TO.P,U15,8,Rs*%
%TO.N,Net-(U15-Rs)*%
X185710000Y-45250000D03*
%TD*%
D39*
%TO.P,FH2,1,1*%
%TO.N,+BATT*%
X114000000Y-23600000D03*
%TO.P,FH2,2,2*%
%TO.N,Net-(D10-A1)*%
X114000000Y-30400000D03*
%TD*%
D40*
%TO.P,J5,1,Pin_1*%
%TO.N,GND*%
X208500000Y-53000000D03*
D41*
%TO.P,J5,2,Pin_2*%
%TO.N,+3.3V*%
X211000000Y-53000000D03*
%TO.P,J5,3,Pin_3*%
%TO.N,SDA*%
X213500000Y-53000000D03*
%TO.P,J5,4,Pin_4*%
%TO.N,SCL*%
X216000000Y-53000000D03*
%TD*%
D13*
%TO.P,R5,1*%
%TO.N,Net-(U8-IS)*%
X118790000Y-42087500D03*
%TO.P,R5,2*%
%TO.N,GNDA*%
X118790000Y-43912500D03*
%TD*%
D42*
%TO.P,D5,1,K*%
%TO.N,GND*%
X255062500Y-34000000D03*
%TO.P,D5,2,A*%
%TO.N,Net-(D5-A)*%
X256937500Y-34000000D03*
%TD*%
D43*
%TO.P,J14,1,Pin_1*%
%TO.N,GNDA*%
X105500000Y-57260000D03*
D44*
%TO.P,J14,2,Pin_2*%
%TO.N,+BATT*%
X105500000Y-62340000D03*
%TO.P,J14,3,Pin_3*%
%TO.N,M1_R*%
X105500000Y-67420000D03*
%TO.P,J14,4,Pin_4*%
%TO.N,M1_L*%
X105500000Y-72500000D03*
%TO.P,J14,5,Pin_5*%
%TO.N,M2_R*%
X105500000Y-77580000D03*
%TO.P,J14,6,Pin_6*%
%TO.N,M2_L*%
X105500000Y-82660000D03*
%TD*%
D17*
%TO.P,H3,1*%
%TO.N,N/C*%
X104000000Y-116000000D03*
D18*
X104000000Y-116000000D03*
%TD*%
D13*
%TO.P,R12,1*%
%TO.N,Net-(U13-IS)*%
X118790000Y-90087500D03*
%TO.P,R12,2*%
%TO.N,GNDA*%
X118790000Y-91912500D03*
%TD*%
D45*
%TO.P,D7,1,K*%
%TO.N,+21VA*%
X134000000Y-26250000D03*
%TO.P,D7,2,A*%
%TO.N,Net-(D7-A)*%
X134000000Y-22750000D03*
%TD*%
D13*
%TO.P,R13,1*%
%TO.N,Net-(U12-SR)*%
X121790000Y-58087500D03*
%TO.P,R13,2*%
%TO.N,GNDA*%
X121790000Y-59912500D03*
%TD*%
D39*
%TO.P,FH1,1,1*%
%TO.N,Net-(J1-Pin_2)*%
X248500000Y-100500000D03*
%TO.P,FH1,2,2*%
%TO.N,Net-(D3-A1)*%
X248500000Y-93700000D03*
%TD*%
D46*
%TO.P,U1,1,VIN*%
%TO.N,+21V*%
X197900000Y-83350000D03*
%TO.P,U1,2,OUT*%
%TO.N,Net-(D4-K)*%
X196200000Y-83350000D03*
%TO.P,U1,3,GND*%
%TO.N,GND*%
X194500000Y-83350000D03*
D47*
X194500000Y-92500000D03*
D46*
%TO.P,U1,4,FB*%
%TO.N,+5V*%
X192800000Y-83350000D03*
%TO.P,U1,5,~{ON}/OFF*%
%TO.N,GND*%
X191100000Y-83350000D03*
%TD*%
D12*
%TO.P,R19,1*%
%TO.N,Net-(U15-Rs)*%
X184615000Y-41137500D03*
%TO.P,R19,2*%
%TO.N,GND*%
X184615000Y-39312500D03*
%TD*%
D13*
%TO.P,R14,1*%
%TO.N,Net-(U13-SR)*%
X121790000Y-90087500D03*
%TO.P,R14,2*%
%TO.N,GNDA*%
X121790000Y-91912500D03*
%TD*%
D48*
%TO.P,J8,1,Pin_1*%
%TO.N,GND*%
X176380000Y-109222500D03*
D20*
%TO.P,J8,2,Pin_2*%
%TO.N,Net-(J8-Pin_2)*%
X181460000Y-109222500D03*
%TO.P,J8,3,Pin_3*%
%TO.N,Net-(J8-Pin_3)*%
X186540000Y-109222500D03*
%TO.P,J8,4,Pin_4*%
%TO.N,+5V*%
X191620000Y-109222500D03*
%TD*%
D14*
%TO.P,D4,1,K*%
%TO.N,Net-(D4-K)*%
X205600000Y-78350000D03*
%TO.P,D4,2,A*%
%TO.N,GND*%
X210600000Y-78350000D03*
%TD*%
D49*
%TO.P,C6,1*%
%TO.N,+3.3V*%
X191450000Y-60787500D03*
%TO.P,C6,2*%
%TO.N,GND*%
X191450000Y-63912500D03*
%TD*%
D50*
%TO.P,R2,1*%
%TO.N,GND*%
X231325000Y-92700000D03*
%TO.P,R2,2*%
%TO.N,Net-(D1-A)*%
X229500000Y-92700000D03*
%TD*%
D22*
%TO.P,U9,1,GND*%
%TO.N,GNDA*%
X138450000Y-82310000D03*
%TO.P,U9,2,IN*%
%TO.N,Net-(U7-VO)*%
X138450000Y-81040000D03*
%TO.P,U9,3,INH*%
%TO.N,+5VA*%
X138450000Y-79770000D03*
%TO.P,U9,4,OUT*%
%TO.N,M2_R*%
X138450000Y-78500000D03*
%TO.P,U9,5,SR*%
%TO.N,Net-(U9-SR)*%
X138450000Y-77230000D03*
%TO.P,U9,6,IS*%
%TO.N,Net-(U9-IS)*%
X138450000Y-75960000D03*
%TO.P,U9,7,VS*%
%TO.N,+21VA*%
X138450000Y-74690000D03*
D23*
%TO.P,U9,8,OUT*%
%TO.N,M2_R*%
X128790000Y-78500000D03*
%TD*%
D25*
%TO.P,J9,1,Pin_1*%
%TO.N,GND*%
X253000000Y-39300000D03*
D26*
%TO.P,J9,2,Pin_2*%
%TO.N,unconnected-(J9-Pin_2-Pad2)*%
X253000000Y-41840000D03*
%TO.P,J9,3,Pin_3*%
%TO.N,unconnected-(J9-Pin_3-Pad3)*%
X253000000Y-44380000D03*
%TO.P,J9,4,Pin_4*%
%TO.N,SCL*%
X253000000Y-46920000D03*
%TO.P,J9,5,Pin_5*%
%TO.N,SDA*%
X253000000Y-49460000D03*
%TO.P,J9,6,Pin_6*%
%TO.N,+3.3V*%
X253000000Y-52000000D03*
%TD*%
D19*
%TO.P,J4,1,Pin_1*%
%TO.N,GND*%
X193085000Y-30777500D03*
D20*
%TO.P,J4,2,Pin_2*%
%TO.N,Net-(J4-Pin_2)*%
X188005000Y-30777500D03*
%TO.P,J4,3,Pin_3*%
%TO.N,Net-(J4-Pin_3)*%
X182925000Y-30777500D03*
%TD*%
D51*
%TO.P,C11,1*%
%TO.N,+21VA*%
X113275000Y-111000000D03*
%TO.P,C11,2*%
%TO.N,GNDA*%
X111725000Y-111000000D03*
%TD*%
D13*
%TO.P,R11,1*%
%TO.N,Net-(U12-IS)*%
X118877500Y-58087500D03*
%TO.P,R11,2*%
%TO.N,GNDA*%
X118877500Y-59912500D03*
%TD*%
D52*
%TO.P,Q1,1,G*%
%TO.N,Net-(D1-A)*%
X232500000Y-97200000D03*
D53*
%TO.P,Q1,2,D*%
%TO.N,Net-(D3-A1)*%
X239180000Y-99480000D03*
D52*
%TO.P,Q1,3,S*%
%TO.N,+21V*%
X232500000Y-101760000D03*
%TD*%
D27*
%TO.P,L2,1,1*%
%TO.N,Net-(D8-K)*%
X157000000Y-116250000D03*
%TO.P,L2,2,2*%
%TO.N,+5VA*%
X157000000Y-110611200D03*
%TD*%
D54*
%TO.P,D11,1,1*%
%TO.N,Net-(J4-Pin_3)*%
X189715000Y-39275000D03*
%TO.P,D11,2,2*%
%TO.N,Net-(J4-Pin_2)*%
X189715000Y-41175000D03*
%TO.P,D11,3,3*%
%TO.N,GND*%
X192015000Y-40225000D03*
%TD*%
D29*
%TO.P,C12,1*%
%TO.N,+5VA*%
X146000000Y-115400000D03*
%TO.P,C12,2*%
%TO.N,GNDA*%
X146000000Y-108000000D03*
%TD*%
D15*
%TO.P,U6,1,NC*%
%TO.N,unconnected-(U6-NC-Pad1)*%
X154120000Y-50580000D03*
D16*
%TO.P,U6,2,A*%
%TO.N,RPWM*%
X154120000Y-48040000D03*
%TO.P,U6,3,C*%
%TO.N,GND*%
X154120000Y-45500000D03*
%TO.P,U6,4,NC*%
%TO.N,unconnected-(U6-NC-Pad4)*%
X154120000Y-42960000D03*
%TO.P,U6,5,GND*%
%TO.N,GNDA*%
X146500000Y-42960000D03*
%TO.P,U6,6,VO*%
%TO.N,Net-(U6-VO)*%
X146500000Y-45500000D03*
%TO.P,U6,7,EN*%
%TO.N,+5VA*%
X146500000Y-48040000D03*
%TO.P,U6,8,VCC*%
X146500000Y-50580000D03*
%TD*%
D13*
%TO.P,R16,1*%
%TO.N,GNDA*%
X138000000Y-22587500D03*
%TO.P,R16,2*%
%TO.N,Net-(D7-A)*%
X138000000Y-24412500D03*
%TD*%
D17*
%TO.P,H2,1*%
%TO.N,N/C*%
X256000000Y-24000000D03*
D18*
X256000000Y-24000000D03*
%TD*%
D55*
%TO.P,D10,1,A1*%
%TO.N,Net-(D10-A1)*%
X129000000Y-27500000D03*
%TO.P,D10,2,A2*%
%TO.N,GNDA*%
X129000000Y-23500000D03*
%TD*%
D56*
%TO.P,U5,1,GND*%
%TO.N,GND*%
X229760000Y-21900000D03*
D16*
%TO.P,U5,2,0_RX1_CRX2_CS1*%
%TO.N,unconnected-(U5-0_RX1_CRX2_CS1-Pad2)*%
X229760000Y-24440000D03*
%TO.P,U5,3,1_TX1_CTX2_MISO1*%
%TO.N,unconnected-(U5-1_TX1_CTX2_MISO1-Pad3)*%
X229760000Y-26980000D03*
%TO.P,U5,4,2_OUT2*%
%TO.N,RPWM*%
X229760000Y-29520000D03*
%TO.P,U5,5,3_LRCLK2*%
%TO.N,LPWM*%
X229760000Y-32060000D03*
%TO.P,U5,6,4_BCLK2*%
%TO.N,RPWM1*%
X229760000Y-34600000D03*
%TO.P,U5,7,5_IN2*%
%TO.N,LPWM1*%
X229760000Y-37140000D03*
%TO.P,U5,8,6_OUT1D*%
%TO.N,unconnected-(U5-6_OUT1D-Pad8)*%
X229760000Y-39680000D03*
%TO.P,U5,9,7_RX2_OUT1A*%
%TO.N,RX*%
X229760000Y-42220000D03*
%TO.P,U5,10,8_TX2_IN1*%
%TO.N,TX*%
X229760000Y-44760000D03*
%TO.P,U5,11,9_OUT1C*%
%TO.N,ENC1_A*%
X229760000Y-47300000D03*
%TO.P,U5,12,10_CS_MQSR*%
%TO.N,ENC1_B*%
X229760000Y-49840000D03*
%TO.P,U5,13,11_MOSI_CTX1*%
%TO.N,ENC2_A*%
X229760000Y-52380000D03*
%TO.P,U5,14,12_MISO_MQSL*%
%TO.N,ENC2_B*%
X229760000Y-54920000D03*
%TO.P,U5,15,3V3*%
%TO.N,unconnected-(U5-3V3-Pad15)*%
X229760000Y-57460000D03*
%TO.P,U5,16,24_A10_TX6_SCL2*%
%TO.N,unconnected-(U5-24_A10_TX6_SCL2-Pad16)*%
X229760000Y-60000000D03*
%TO.P,U5,17,25_A11_RX6_SDA2*%
%TO.N,unconnected-(U5-25_A11_RX6_SDA2-Pad17)*%
X229760000Y-62540000D03*
%TO.P,U5,18,26_A12_MOSI1*%
%TO.N,unconnected-(U5-26_A12_MOSI1-Pad18)*%
X229760000Y-65080000D03*
%TO.P,U5,19,27_A13_SCK1*%
%TO.N,unconnected-(U5-27_A13_SCK1-Pad19)*%
X229760000Y-67620000D03*
%TO.P,U5,20,28_RX7*%
%TO.N,unconnected-(U5-28_RX7-Pad20)*%
X229760000Y-70160000D03*
%TO.P,U5,21,29_TX7*%
%TO.N,unconnected-(U5-29_TX7-Pad21)*%
X229760000Y-72700000D03*
%TO.P,U5,22,30_CRX3*%
%TO.N,unconnected-(U5-30_CRX3-Pad22)*%
X229760000Y-75240000D03*
%TO.P,U5,23,31_CTX3*%
%TO.N,unconnected-(U5-31_CTX3-Pad23)*%
X229760000Y-77780000D03*
%TO.P,U5,24,32_OUT1B*%
%TO.N,unconnected-(U5-32_OUT1B-Pad24)*%
X229760000Y-80320000D03*
%TO.P,U5,25,33_MCLK2*%
%TO.N,Net-(J2-Pin_1)*%
X245000000Y-80320000D03*
%TO.P,U5,26,34_RX8*%
%TO.N,Net-(J2-Pin_2)*%
X245000000Y-77780000D03*
%TO.P,U5,27,35_TX8*%
%TO.N,Net-(J2-Pin_3)*%
X245000000Y-75240000D03*
%TO.P,U5,28,36_CS*%
%TO.N,Net-(J2-Pin_4)*%
X245000000Y-72700000D03*
%TO.P,U5,29,37_CS*%
%TO.N,Net-(J2-Pin_5)*%
X245000000Y-70160000D03*
%TO.P,U5,30,38_CS1_IN1*%
%TO.N,Net-(J2-Pin_6)*%
X245000000Y-67620000D03*
%TO.P,U5,31,39_MISO1_OUT1A*%
%TO.N,Net-(J2-Pin_7)*%
X245000000Y-65080000D03*
%TO.P,U5,32,40_A16*%
%TO.N,Net-(J2-Pin_8)*%
X245000000Y-62540000D03*
%TO.P,U5,33,41_A17*%
%TO.N,Net-(J2-Pin_9)*%
X245000000Y-60000000D03*
%TO.P,U5,34,GND*%
%TO.N,unconnected-(U5-GND-Pad34)*%
X245000000Y-57460000D03*
%TO.P,U5,35,13_SCK_LED*%
%TO.N,Net-(J2-Pin_10)*%
X245000000Y-54920000D03*
%TO.P,U5,36,14_A0_TX3_SPDIF_OUT*%
%TO.N,unconnected-(U5-14_A0_TX3_SPDIF_OUT-Pad36)*%
X245000000Y-52380000D03*
%TO.P,U5,37,15_A1_RX3_SPDIF_IN*%
%TO.N,unconnected-(U5-15_A1_RX3_SPDIF_IN-Pad37)*%
X245000000Y-49840000D03*
%TO.P,U5,38,16_A2_RX4_SCL1*%
%TO.N,unconnected-(U5-16_A2_RX4_SCL1-Pad38)*%
X245000000Y-47300000D03*
%TO.P,U5,39,17_A3_TX4_SDA1*%
%TO.N,unconnected-(U5-17_A3_TX4_SDA1-Pad39)*%
X245000000Y-44760000D03*
%TO.P,U5,40,18_A4_SDA*%
%TO.N,SDA*%
X245000000Y-42220000D03*
%TO.P,U5,41,19_A5_SCL*%
%TO.N,SCL*%
X245000000Y-39680000D03*
%TO.P,U5,42,20_A6_TX5_LRCLK1*%
%TO.N,unconnected-(U5-20_A6_TX5_LRCLK1-Pad42)*%
X245000000Y-37140000D03*
%TO.P,U5,43,21_A7_RX5_BCLK1*%
%TO.N,unconnected-(U5-21_A7_RX5_BCLK1-Pad43)*%
X245000000Y-34600000D03*
%TO.P,U5,44,22_A8_CTX1*%
%TO.N,CTX1*%
X245000000Y-32060000D03*
%TO.P,U5,45,23_A9_CRX1_MCLK1*%
%TO.N,CRX1*%
X245000000Y-29520000D03*
%TO.P,U5,46,3V3*%
%TO.N,unconnected-(U5-3V3-Pad46)*%
X245000000Y-26980000D03*
%TO.P,U5,47,GND*%
%TO.N,unconnected-(U5-GND-Pad47)*%
X245000000Y-24440000D03*
%TO.P,U5,48,VIN*%
%TO.N,+5V*%
X245000000Y-21900000D03*
D57*
%TO.P,U5,60,R+*%
%TO.N,R+*%
X242561600Y-34870000D03*
D58*
%TO.P,U5,61,LED*%
%TO.N,LED*%
X240561600Y-34870000D03*
%TO.P,U5,62,T-*%
%TO.N,T-*%
X238561600Y-34870000D03*
%TO.P,U5,63,T+*%
%TO.N,T+*%
X238561600Y-36870000D03*
%TO.P,U5,64,GND*%
%TO.N,unconnected-(U5-GND-Pad64)*%
X240561600Y-36870000D03*
%TO.P,U5,65,R-*%
%TO.N,R-*%
X242561600Y-36870000D03*
%TD*%
D21*
%TO.P,C7,1*%
%TO.N,+3.3V*%
X191450000Y-68212500D03*
%TO.P,C7,2*%
%TO.N,GND*%
X191450000Y-66487500D03*
%TD*%
D45*
%TO.P,D1,1,K*%
%TO.N,+21V*%
X227000000Y-100750000D03*
%TO.P,D1,2,A*%
%TO.N,Net-(D1-A)*%
X227000000Y-97250000D03*
%TD*%
D59*
%TO.P,D6,1,A1*%
%TO.N,GNDA*%
X155000000Y-105750000D03*
%TO.P,D6,2,A2*%
%TO.N,+5VA*%
X159000000Y-105750000D03*
%TD*%
D60*
%TO.P,C8,1*%
%TO.N,+21VA*%
X107500000Y-40000000D03*
%TO.P,C8,2*%
%TO.N,GNDA*%
X107500000Y-48000000D03*
%TD*%
D61*
%TO.P,J1,1,Pin_1*%
%TO.N,GND*%
X241920000Y-114000000D03*
D44*
%TO.P,J1,2,Pin_2*%
%TO.N,Net-(J1-Pin_2)*%
X247000000Y-114000000D03*
%TD*%
D22*
%TO.P,U12,1,GND*%
%TO.N,GNDA*%
X138450000Y-66310000D03*
%TO.P,U12,2,IN*%
%TO.N,Net-(U10-VO)*%
X138450000Y-65040000D03*
%TO.P,U12,3,INH*%
%TO.N,+5VA*%
X138450000Y-63770000D03*
%TO.P,U12,4,OUT*%
%TO.N,M1_L*%
X138450000Y-62500000D03*
%TO.P,U12,5,SR*%
%TO.N,Net-(U12-SR)*%
X138450000Y-61230000D03*
%TO.P,U12,6,IS*%
%TO.N,Net-(U12-IS)*%
X138450000Y-59960000D03*
%TO.P,U12,7,VS*%
%TO.N,+21VA*%
X138450000Y-58690000D03*
D23*
%TO.P,U12,8,OUT*%
%TO.N,M1_L*%
X128790000Y-62500000D03*
%TD*%
D17*
%TO.P,H4,1*%
%TO.N,N/C*%
X256000000Y-116000000D03*
D18*
X256000000Y-116000000D03*
%TD*%
D22*
%TO.P,U13,1,GND*%
%TO.N,GNDA*%
X138450000Y-98310000D03*
%TO.P,U13,2,IN*%
%TO.N,Net-(U11-VO)*%
X138450000Y-97040000D03*
%TO.P,U13,3,INH*%
%TO.N,+5VA*%
X138450000Y-95770000D03*
%TO.P,U13,4,OUT*%
%TO.N,M2_L*%
X138450000Y-94500000D03*
%TO.P,U13,5,SR*%
%TO.N,Net-(U13-SR)*%
X138450000Y-93230000D03*
%TO.P,U13,6,IS*%
%TO.N,Net-(U13-IS)*%
X138450000Y-91960000D03*
%TO.P,U13,7,VS*%
%TO.N,+21VA*%
X138450000Y-90690000D03*
D23*
%TO.P,U13,8,OUT*%
%TO.N,M2_L*%
X128790000Y-94500000D03*
%TD*%
D48*
%TO.P,J7,1,Pin_1*%
%TO.N,GND*%
X200880000Y-109222500D03*
D20*
%TO.P,J7,2,Pin_2*%
%TO.N,Net-(J7-Pin_2)*%
X205960000Y-109222500D03*
%TO.P,J7,3,Pin_3*%
%TO.N,Net-(J7-Pin_3)*%
X211040000Y-109222500D03*
%TO.P,J7,4,Pin_4*%
%TO.N,+5V*%
X216120000Y-109222500D03*
%TD*%
D49*
%TO.P,C4,1*%
%TO.N,+5V*%
X175950000Y-60787500D03*
%TO.P,C4,2*%
%TO.N,GND*%
X175950000Y-63912500D03*
%TD*%
D55*
%TO.P,D2,1,A1*%
%TO.N,GND*%
X250500000Y-34000000D03*
%TO.P,D2,2,A2*%
%TO.N,+5V*%
X250500000Y-30000000D03*
%TD*%
D62*
%TO.P,U3,1,GND*%
%TO.N,GND*%
X186050000Y-60850000D03*
%TO.P,U3,2,VO*%
%TO.N,+3.3V*%
X183750000Y-60850000D03*
D63*
X183750000Y-67150000D03*
D62*
%TO.P,U3,3,VI*%
%TO.N,+5V*%
X181450000Y-60850000D03*
%TD*%
D64*
%TO.P,R15,1*%
%TO.N,+5VA*%
X144000000Y-36475000D03*
%TO.P,R15,2*%
%TO.N,Net-(D9-A)*%
X144000000Y-34650000D03*
%TD*%
D13*
%TO.P,R6,1*%
%TO.N,Net-(U9-IS)*%
X118790000Y-74087500D03*
%TO.P,R6,2*%
%TO.N,GNDA*%
X118790000Y-75912500D03*
%TD*%
%TO.P,R7,1*%
%TO.N,Net-(U8-SR)*%
X121790000Y-42087500D03*
%TO.P,R7,2*%
%TO.N,GNDA*%
X121790000Y-43912500D03*
%TD*%
D65*
%TO.N,GND*%
X214500000Y-91000000D03*
X191000000Y-37000000D03*
X230500000Y-95100000D03*
X186050000Y-58000000D03*
X184500000Y-37000000D03*
X252500000Y-83100000D03*
X194000000Y-66500000D03*
X173000000Y-66000000D03*
X209500000Y-76000000D03*
X173000000Y-58000000D03*
%TO.N,+5V*%
X195200000Y-103900000D03*
X192900000Y-101300000D03*
X186900000Y-101200000D03*
%TO.N,+3.3V*%
X221625000Y-83125000D03*
X215750000Y-70500000D03*
X210000000Y-45250000D03*
X223500000Y-85000000D03*
X219750000Y-81250000D03*
X202000000Y-37250000D03*
X250750000Y-86750000D03*
%TO.N,+21VA*%
X139000000Y-88800000D03*
X131500000Y-31400000D03*
X104800000Y-101300000D03*
X139000000Y-73000000D03*
X139000000Y-40700000D03*
X129900000Y-31400000D03*
X139000000Y-57000000D03*
%TO.N,+5VA*%
X142700000Y-115400000D03*
X120500000Y-113000000D03*
%TO.N,GNDA*%
X141000000Y-105000000D03*
X143750000Y-50250000D03*
X116500000Y-76000000D03*
X107000000Y-109500000D03*
X105000000Y-109500000D03*
X143500000Y-98310001D03*
X116500000Y-60000000D03*
X116500000Y-92000000D03*
X143689999Y-82310001D03*
X101500000Y-92500000D03*
X101500000Y-90500000D03*
X143000000Y-105000000D03*
X143809999Y-66309999D03*
%TO.N,R+*%
X222000000Y-55000000D03*
X222500000Y-46000000D03*
%TO.N,T+*%
X219250000Y-46000000D03*
X218500000Y-58750000D03*
%TO.N,R-*%
X218000000Y-48000000D03*
X217000000Y-61250000D03*
%TO.N,T-*%
X220250000Y-56750000D03*
X221000000Y-47750000D03*
X213600000Y-37100000D03*
%TO.N,SDA*%
X251000000Y-89750000D03*
X212750000Y-72500000D03*
%TO.N,SCL*%
X214250000Y-74750000D03*
X253250000Y-89750000D03*
%TO.N,CRX1*%
X198750000Y-64750000D03*
X220500000Y-93750000D03*
X259000000Y-90500000D03*
X190500000Y-53000000D03*
X258500000Y-39750000D03*
%TO.N,CTX1*%
X200250000Y-64000000D03*
X257750000Y-88750000D03*
X195000000Y-53000000D03*
X256500000Y-39500000D03*
X222750000Y-92000000D03*
%TD*%
D66*
%TO.N,GND*%
X191100000Y-89100000D02*
X194500000Y-92500000D01*
D67*
X154120000Y-61500000D02*
X157300000Y-61500000D01*
X216490000Y-21900000D02*
X216440000Y-21850000D01*
D66*
X186980000Y-51520000D02*
X186050000Y-52450000D01*
D67*
X157500000Y-61700000D02*
X157500000Y-45900000D01*
X157500000Y-45900000D02*
X157100000Y-45500000D01*
X156970000Y-93230000D02*
X157500000Y-92700000D01*
D66*
X191450000Y-63912500D02*
X191450000Y-66487500D01*
X194000000Y-66500000D02*
X191462500Y-66500000D01*
X211100000Y-82350000D02*
X211100000Y-87600000D01*
D67*
X153805000Y-93230000D02*
X156970000Y-93230000D01*
D66*
X251600000Y-83100000D02*
X249900000Y-81400000D01*
D67*
X176380000Y-109222500D02*
X173000000Y-105842500D01*
X157100000Y-45500000D02*
X154120000Y-45500000D01*
D66*
X249900000Y-81400000D02*
X249900000Y-40100000D01*
X184500000Y-39197500D02*
X184615000Y-39312500D01*
X186050000Y-58000000D02*
X186050000Y-60850000D01*
D67*
X157400000Y-77500000D02*
X157500000Y-77400000D01*
D66*
X186050000Y-52450000D02*
X186050000Y-58000000D01*
X255062500Y-34000000D02*
X255062500Y-37237500D01*
D67*
X157500000Y-77400000D02*
X157500000Y-61700000D01*
D66*
X192015000Y-40225000D02*
X192015000Y-38015000D01*
X194500000Y-83350000D02*
X194500000Y-92500000D01*
X209500000Y-76000000D02*
X209500000Y-77250000D01*
X249900000Y-40100000D02*
X250700000Y-39300000D01*
X252500000Y-83100000D02*
X251600000Y-83100000D01*
D67*
X157300000Y-61500000D02*
X157500000Y-61700000D01*
X157500000Y-92700000D02*
X157500000Y-77400000D01*
D66*
X184500000Y-37000000D02*
X184500000Y-39197500D01*
D67*
X173000000Y-105842500D02*
X173000000Y-66000000D01*
D66*
X250700000Y-39300000D02*
X253000000Y-39300000D01*
X192015000Y-38015000D02*
X191000000Y-37000000D01*
X255062500Y-34000000D02*
X250500000Y-34000000D01*
D67*
X229760000Y-21900000D02*
X216490000Y-21900000D01*
D66*
X209500000Y-77250000D02*
X210600000Y-78350000D01*
X186980000Y-50200000D02*
X186980000Y-51520000D01*
X191462500Y-66500000D02*
X191450000Y-66487500D01*
D67*
X154120000Y-77500000D02*
X157400000Y-77500000D01*
D66*
X211100000Y-87600000D02*
X214500000Y-91000000D01*
X255062500Y-37237500D02*
X253000000Y-39300000D01*
X191100000Y-83350000D02*
X191100000Y-89100000D01*
%TO.N,+21V*%
X208100000Y-88650000D02*
X208100000Y-83800000D01*
D67*
X220200000Y-100750000D02*
X227000000Y-100750000D01*
X208100000Y-88650000D02*
X220200000Y-100750000D01*
X208100000Y-88650000D02*
X202925000Y-83475000D01*
X198025000Y-83475000D02*
X197900000Y-83350000D01*
X202925000Y-83475000D02*
X198025000Y-83475000D01*
D66*
X208100000Y-83800000D02*
X209550000Y-82350000D01*
D68*
%TO.N,+5V*%
X195200000Y-103900000D02*
X195200000Y-107700000D01*
D66*
X249000000Y-30000000D02*
X250500000Y-30000000D01*
D67*
X178650000Y-60787500D02*
X181387500Y-60787500D01*
D66*
X227500000Y-117750000D02*
X247500000Y-117750000D01*
D67*
X215000000Y-114500000D02*
X216120000Y-113380000D01*
X176750000Y-89500000D02*
X176750000Y-101500000D01*
X191620000Y-109222500D02*
X191620000Y-105620000D01*
D68*
X195200000Y-103600000D02*
X192900000Y-101300000D01*
X193677500Y-109222500D02*
X191620000Y-109222500D01*
D67*
X175950000Y-68212500D02*
X175950000Y-81000000D01*
D66*
X247500000Y-117750000D02*
X257500000Y-107750000D01*
D67*
X176750000Y-101500000D02*
X179250000Y-104000000D01*
X175950000Y-68212500D02*
X177987500Y-68212500D01*
X191620000Y-105620000D02*
X190000000Y-104000000D01*
X177194400Y-82244400D02*
X181275000Y-82244400D01*
X191620000Y-112120000D02*
X194000000Y-114500000D01*
X216120000Y-113380000D02*
X216120000Y-109222500D01*
D66*
X216120000Y-109222500D02*
X218972500Y-109222500D01*
D67*
X178650000Y-67550000D02*
X178650000Y-60787500D01*
X181275000Y-88725000D02*
X177525000Y-88725000D01*
D66*
X257500000Y-107750000D02*
X257500000Y-91000000D01*
X250500000Y-30000000D02*
X250500000Y-24500000D01*
D67*
X175950000Y-81000000D02*
X177194400Y-82244400D01*
D66*
X250500000Y-24500000D02*
X247900000Y-21900000D01*
X254087500Y-30000000D02*
X255087500Y-31000000D01*
D67*
X191620000Y-109222500D02*
X191620000Y-112120000D01*
D66*
X247750000Y-81250000D02*
X247750000Y-31250000D01*
D68*
X195200000Y-107700000D02*
X193677500Y-109222500D01*
D67*
X175950000Y-60787500D02*
X178650000Y-60787500D01*
D68*
X187000000Y-101300000D02*
X186900000Y-101200000D01*
D67*
X181387500Y-60787500D02*
X181450000Y-60850000D01*
D66*
X250500000Y-30000000D02*
X254087500Y-30000000D01*
X218972500Y-109222500D02*
X227500000Y-117750000D01*
X257500000Y-91000000D02*
X247750000Y-81250000D01*
X247750000Y-31250000D02*
X249000000Y-30000000D01*
D67*
X194000000Y-114500000D02*
X215000000Y-114500000D01*
X190000000Y-104000000D02*
X179250000Y-104000000D01*
D68*
X195200000Y-103900000D02*
X195200000Y-103600000D01*
D67*
X177987500Y-68212500D02*
X178650000Y-67550000D01*
D68*
X192900000Y-101300000D02*
X187000000Y-101300000D01*
D67*
X177525000Y-88725000D02*
X176750000Y-89500000D01*
D66*
X247900000Y-21900000D02*
X245000000Y-21900000D01*
%TO.N,+3.3V*%
X191450000Y-60787500D02*
X191450000Y-57200000D01*
X186250000Y-63950000D02*
X189412500Y-60787500D01*
D68*
X211000000Y-65750000D02*
X215750000Y-70500000D01*
X219750000Y-81250000D02*
X215750000Y-77250000D01*
X221625000Y-83125000D02*
X223500000Y-85000000D01*
X215750000Y-77250000D02*
X215750000Y-70500000D01*
X211000000Y-53000000D02*
X211000000Y-65750000D01*
D66*
X183750000Y-63850000D02*
X183850000Y-63950000D01*
X183750000Y-67150000D02*
X186750000Y-67150000D01*
D68*
X219750000Y-81250000D02*
X221625000Y-83125000D01*
D66*
X183850000Y-63950000D02*
X186250000Y-63950000D01*
D68*
X250750000Y-86750000D02*
X225250000Y-86750000D01*
X210000000Y-45250000D02*
X202000000Y-37250000D01*
D66*
X188250000Y-54000000D02*
X188250000Y-50200000D01*
D68*
X225250000Y-86750000D02*
X223500000Y-85000000D01*
D66*
X187812500Y-68212500D02*
X186750000Y-67150000D01*
X206962500Y-60787500D02*
X191450000Y-60787500D01*
X189412500Y-60787500D02*
X191450000Y-60787500D01*
X211000000Y-53000000D02*
X211000000Y-56750000D01*
X191450000Y-57200000D02*
X188250000Y-54000000D01*
X191450000Y-68212500D02*
X187812500Y-68212500D01*
X211000000Y-56750000D02*
X206962500Y-60787500D01*
X183750000Y-60850000D02*
X183750000Y-63850000D01*
%TO.N,+21VA*%
X118800000Y-107700000D02*
X124500000Y-107700000D01*
D67*
X111800000Y-37700000D02*
X136000000Y-37700000D01*
X107500000Y-40000000D02*
X109500000Y-40000000D01*
X104800000Y-99900000D02*
X104800000Y-101300000D01*
X136000000Y-37700000D02*
X139000000Y-40700000D01*
X120700000Y-99200000D02*
X107500000Y-99200000D01*
D66*
X113275000Y-111000000D02*
X115500000Y-111000000D01*
D67*
X107500000Y-99200000D02*
X105500000Y-99200000D01*
X105500000Y-99200000D02*
X104800000Y-99900000D01*
X109500000Y-40000000D02*
X111800000Y-37700000D01*
X124500000Y-107700000D02*
X124500000Y-103000000D01*
D66*
X115500000Y-111000000D02*
X118800000Y-107700000D01*
D67*
X124500000Y-103000000D02*
X120700000Y-99200000D01*
D66*
%TO.N,+5VA*%
X145180000Y-67900000D02*
X146500000Y-66580000D01*
X135100000Y-64300000D02*
X135100000Y-67200000D01*
X144980000Y-52100000D02*
X146500000Y-50580000D01*
D67*
X146500000Y-48040000D02*
X148540000Y-48040000D01*
X146500000Y-64040000D02*
X149240000Y-64040000D01*
D68*
X146725000Y-36475000D02*
X148540000Y-38290000D01*
D66*
X135630000Y-63770000D02*
X135100000Y-64300000D01*
X135200000Y-83500000D02*
X135700000Y-84000000D01*
X146185000Y-99515000D02*
X146185000Y-98310000D01*
X135830000Y-47770000D02*
X135100000Y-48500000D01*
D67*
X157750000Y-102250000D02*
X159000000Y-103500000D01*
D68*
X148540000Y-38290000D02*
X148540000Y-48040000D01*
D66*
X138450000Y-63770000D02*
X135630000Y-63770000D01*
D68*
X144000000Y-36475000D02*
X146725000Y-36475000D01*
D66*
X134900000Y-96470000D02*
X134900000Y-99200000D01*
D67*
X146500000Y-64040000D02*
X146500000Y-66580000D01*
D66*
X138450000Y-79770000D02*
X135730000Y-79770000D01*
X135100000Y-67200000D02*
X135800000Y-67900000D01*
X135100000Y-51400000D02*
X135800000Y-52100000D01*
D67*
X149400000Y-48900000D02*
X149400000Y-50580000D01*
D66*
X135730000Y-79770000D02*
X135200000Y-80300000D01*
X135100000Y-48500000D02*
X135100000Y-51400000D01*
X138450000Y-47770000D02*
X135830000Y-47770000D01*
D67*
X148540000Y-48040000D02*
X149400000Y-48900000D01*
X146500000Y-80040000D02*
X149240000Y-80040000D01*
D66*
X145900000Y-99800000D02*
X146185000Y-99515000D01*
X135600000Y-95770000D02*
X134900000Y-96470000D01*
D67*
X149400000Y-50580000D02*
X149400000Y-64200000D01*
D66*
X134900000Y-99200000D02*
X135500000Y-99800000D01*
D67*
X149400000Y-94500000D02*
X149400000Y-80200000D01*
X146185000Y-95770000D02*
X146185000Y-98310000D01*
X120700000Y-112800000D02*
X120500000Y-113000000D01*
D66*
X135800000Y-52100000D02*
X144980000Y-52100000D01*
D67*
X124500000Y-112800000D02*
X120700000Y-112800000D01*
D66*
X135800000Y-67900000D02*
X145180000Y-67900000D01*
X135200000Y-80300000D02*
X135200000Y-83500000D01*
D67*
X149400000Y-94500000D02*
X149400000Y-94670000D01*
X146185000Y-95770000D02*
X148300000Y-95770000D01*
X149240000Y-64040000D02*
X149400000Y-64200000D01*
D66*
X138450000Y-95770000D02*
X135600000Y-95770000D01*
D67*
X149400000Y-94670000D02*
X148300000Y-95770000D01*
X146000000Y-115400000D02*
X142700000Y-115400000D01*
D66*
X145080000Y-84000000D02*
X146500000Y-82580000D01*
X135700000Y-84000000D02*
X145080000Y-84000000D01*
D67*
X150125000Y-102250000D02*
X146185000Y-98310000D01*
X159000000Y-105750000D02*
X159000000Y-103500000D01*
X146500000Y-48040000D02*
X146500000Y-50580000D01*
X157750000Y-102250000D02*
X150125000Y-102250000D01*
X146500000Y-80040000D02*
X146500000Y-82580000D01*
D66*
X135500000Y-99800000D02*
X145900000Y-99800000D01*
D67*
X149400000Y-64200000D02*
X149400000Y-80200000D01*
X149240000Y-80040000D02*
X149400000Y-80200000D01*
D68*
%TO.N,Net-(J3-RCT)*%
X212640000Y-24390000D02*
X211360000Y-23110000D01*
X211360000Y-23110000D02*
X211360000Y-21850000D01*
D67*
%TO.N,Net-(D1-A)*%
X227050000Y-97200000D02*
X227000000Y-97250000D01*
X229500000Y-92700000D02*
X227800000Y-92700000D01*
X232500000Y-97200000D02*
X227050000Y-97200000D01*
X227000000Y-93500000D02*
X227000000Y-97250000D01*
X227800000Y-92700000D02*
X227000000Y-93500000D01*
D66*
%TO.N,Net-(D4-K)*%
X196200000Y-78500000D02*
X196200000Y-77700000D01*
X196350000Y-78350000D02*
X196200000Y-78500000D01*
D67*
X195105600Y-76605600D02*
X181275000Y-76605600D01*
D66*
X205600000Y-78350000D02*
X201000000Y-78350000D01*
X196200000Y-81050000D02*
X196200000Y-83350000D01*
D67*
X196200000Y-83350000D02*
X196200000Y-77700000D01*
X196200000Y-77700000D02*
X195105600Y-76605600D01*
D66*
X201000000Y-78350000D02*
X198900000Y-78350000D01*
X201000000Y-78350000D02*
X196350000Y-78350000D01*
%TO.N,Net-(D5-A)*%
X256912500Y-33975000D02*
X256937500Y-34000000D01*
X256912500Y-31000000D02*
X256912500Y-33975000D01*
%TO.N,Net-(D7-A)*%
X134000000Y-22750000D02*
X134250000Y-22750000D01*
X121400000Y-35200000D02*
X137100000Y-35200000D01*
X119720000Y-31840000D02*
X119720000Y-33520000D01*
X137100000Y-35200000D02*
X138000000Y-34300000D01*
X135912500Y-24412500D02*
X138000000Y-24412500D01*
X119720000Y-33520000D02*
X121400000Y-35200000D01*
X134250000Y-22750000D02*
X135912500Y-24412500D01*
X138000000Y-34300000D02*
X138000000Y-24412500D01*
%TO.N,Net-(D8-K)*%
X117000000Y-112500000D02*
X117000000Y-115000000D01*
X117000000Y-117000000D02*
X117000000Y-115000000D01*
X156250000Y-119000000D02*
X119000000Y-119000000D01*
X157000000Y-116250000D02*
X157000000Y-118250000D01*
X119000000Y-119000000D02*
X117000000Y-117000000D01*
X120100000Y-109400000D02*
X117000000Y-112500000D01*
X124500000Y-109400000D02*
X120100000Y-109400000D01*
X157000000Y-118250000D02*
X156250000Y-119000000D01*
D68*
%TO.N,Net-(D9-A)*%
X144000000Y-34650000D02*
X144000000Y-32250000D01*
D66*
%TO.N,GNDA*%
X124500000Y-111100000D02*
X133650000Y-111100000D01*
X138450000Y-98310000D02*
X143500000Y-98310001D01*
X130250000Y-114500000D02*
X133650000Y-111100000D01*
X138450000Y-50310000D02*
X143690000Y-50310000D01*
X143690000Y-50310000D02*
X143750000Y-50250000D01*
X124500000Y-114500000D02*
X130250000Y-114500000D01*
X121790000Y-75912500D02*
X116587500Y-75912500D01*
D69*
X111725000Y-114725000D02*
X112000000Y-115000000D01*
D66*
X116587500Y-75912500D02*
X116500000Y-76000000D01*
D68*
X121790000Y-91912500D02*
X116587500Y-91912500D01*
D67*
X148250000Y-105750000D02*
X146000000Y-108000000D01*
D66*
X116587500Y-59912500D02*
X116500000Y-60000000D01*
X138450000Y-82310000D02*
X143689999Y-82310001D01*
D68*
X118790000Y-91912500D02*
X121790000Y-91912500D01*
D66*
X121790000Y-59912500D02*
X116587500Y-59912500D01*
D68*
X116587500Y-91912500D02*
X116500000Y-92000000D01*
D67*
X155000000Y-105750000D02*
X148250000Y-105750000D01*
D66*
X138450000Y-66310000D02*
X143809999Y-66309999D01*
D68*
%TO.N,Net-(J4-Pin_2)*%
X187115000Y-41137500D02*
X187115000Y-45115000D01*
X188005000Y-32005000D02*
X188005000Y-30777500D01*
X190540000Y-42000000D02*
X192500000Y-42000000D01*
X187115000Y-41137500D02*
X189677500Y-41137500D01*
X193250000Y-37250000D02*
X193250000Y-41250000D01*
X189677500Y-41137500D02*
X189715000Y-41175000D01*
X187115000Y-45115000D02*
X186980000Y-45250000D01*
X193250000Y-41250000D02*
X192500000Y-42000000D01*
X193250000Y-37250000D02*
X188005000Y-32005000D01*
X189715000Y-41175000D02*
X190540000Y-42000000D01*
%TO.N,Net-(J4-Pin_3)*%
X187750000Y-47000000D02*
X188250000Y-46500000D01*
X187152500Y-39275000D02*
X187115000Y-39312500D01*
X182925000Y-44675000D02*
X185250000Y-47000000D01*
X182925000Y-30777500D02*
X182925000Y-44675000D01*
X187115000Y-39312500D02*
X187115000Y-37750000D01*
X184750000Y-30777500D02*
X182925000Y-30777500D01*
X185682500Y-36317500D02*
X185682500Y-31710000D01*
X189715000Y-39275000D02*
X187152500Y-39275000D01*
X188250000Y-46500000D02*
X188250000Y-45250000D01*
X185250000Y-47000000D02*
X187750000Y-47000000D01*
X187115000Y-37750000D02*
X185682500Y-36317500D01*
X185682500Y-31710000D02*
X184750000Y-30777500D01*
D70*
%TO.N,Net-(J1-Pin_2)*%
X248500000Y-100500000D02*
X248500000Y-112500000D01*
X248500000Y-112500000D02*
X247000000Y-114000000D01*
D68*
%TO.N,R+*%
X233250000Y-43398160D02*
X232490000Y-43398160D01*
X231750000Y-82750000D02*
X228250000Y-82750000D01*
X232250000Y-43638160D02*
X232250000Y-43758160D01*
X232250000Y-47238160D02*
X232250000Y-47358160D01*
X228250000Y-82750000D02*
X222000000Y-76500000D01*
X233250000Y-44598160D02*
X232490000Y-44598160D01*
X233010000Y-46998160D02*
X232490000Y-46998160D01*
X233250000Y-48523233D02*
X233250000Y-81250000D01*
X234010000Y-43398160D02*
X233250000Y-43398160D01*
X222000000Y-76500000D02*
X222000000Y-55000000D01*
X214250000Y-31500000D02*
X216000000Y-33250000D01*
X233250000Y-43998160D02*
X234010000Y-43998160D01*
X232490000Y-43998160D02*
X233250000Y-43998160D01*
X233250000Y-47838160D02*
X233250000Y-47958160D01*
X220250000Y-33250000D02*
X222500000Y-35500000D01*
X233250000Y-37500000D02*
X233250000Y-41358160D01*
X214250000Y-29750000D02*
X214250000Y-31500000D01*
X233250000Y-42798160D02*
X234010000Y-42798160D01*
X233250000Y-42198160D02*
X232490000Y-42198160D01*
X234250000Y-43038160D02*
X234250000Y-43158160D01*
X233250000Y-47958160D02*
X233250000Y-48523233D01*
X232250000Y-44838160D02*
X232250000Y-44958160D01*
X232490000Y-45198160D02*
X233250000Y-45198160D01*
X234250000Y-44238160D02*
X234250000Y-44358160D01*
X234250000Y-41838160D02*
X234250000Y-41958160D01*
X210100000Y-24390000D02*
X210100000Y-25600000D01*
X232490000Y-42798160D02*
X233250000Y-42798160D01*
X233250000Y-81250000D02*
X231750000Y-82750000D01*
X240691600Y-33000000D02*
X237750000Y-33000000D01*
X234010000Y-45798160D02*
X233250000Y-45798160D01*
X232250000Y-42438160D02*
X232250000Y-42558160D01*
X233250000Y-45798160D02*
X232490000Y-45798160D01*
X242561600Y-34870000D02*
X240691600Y-33000000D01*
X233250000Y-45198160D02*
X234010000Y-45198160D01*
X222500000Y-35500000D02*
X222500000Y-46000000D01*
X234250000Y-46638160D02*
X234250000Y-46758160D01*
X234010000Y-46998160D02*
X233250000Y-46998160D01*
X210100000Y-25600000D02*
X214250000Y-29750000D01*
X234010000Y-44598160D02*
X233250000Y-44598160D01*
X237750000Y-33000000D02*
X233250000Y-37500000D01*
X233490000Y-41598160D02*
X234010000Y-41598160D01*
X234250000Y-45438160D02*
X234250000Y-45558160D01*
X232490000Y-47598160D02*
X233010000Y-47598160D01*
X234010000Y-42198160D02*
X233490000Y-42198160D01*
X216000000Y-33250000D02*
X220250000Y-33250000D01*
X233490000Y-42198160D02*
X233250000Y-42198160D01*
X232250000Y-46038160D02*
X232250000Y-46158160D01*
X233250000Y-46398160D02*
X234010000Y-46398160D01*
X233250000Y-46998160D02*
X233010000Y-46998160D01*
X232490000Y-46398160D02*
X233250000Y-46398160D01*
X232250000Y-42558160D02*
G75*
G03*
X232490000Y-42798200I240000J-40D01*
G01*
X234010000Y-41598160D02*
G75*
G02*
X234250040Y-41838160I0J-240040D01*
G01*
X232490000Y-46998160D02*
G75*
G03*
X232249960Y-47238160I0J-240040D01*
G01*
X232250000Y-47358160D02*
G75*
G03*
X232490000Y-47598200I240000J-40D01*
G01*
X232250000Y-43758160D02*
G75*
G03*
X232490000Y-43998200I240000J-40D01*
G01*
X232490000Y-42198160D02*
G75*
G03*
X232249960Y-42438160I0J-240040D01*
G01*
X234250000Y-46758160D02*
G75*
G02*
X234010000Y-46998200I-240000J-40D01*
G01*
X233250000Y-41358160D02*
G75*
G03*
X233490000Y-41598200I240000J-40D01*
G01*
X232250000Y-46158160D02*
G75*
G03*
X232490000Y-46398200I240000J-40D01*
G01*
X232250000Y-44958160D02*
G75*
G03*
X232490000Y-45198200I240000J-40D01*
G01*
X234250000Y-44358160D02*
G75*
G02*
X234010000Y-44598200I-240000J-40D01*
G01*
X234010000Y-42798160D02*
G75*
G02*
X234250040Y-43038160I0J-240040D01*
G01*
X234010000Y-43998160D02*
G75*
G02*
X234250040Y-44238160I0J-240040D01*
G01*
X234250000Y-45558160D02*
G75*
G02*
X234010000Y-45798200I-240000J-40D01*
G01*
X234250000Y-43158160D02*
G75*
G02*
X234010000Y-43398200I-240000J-40D01*
G01*
X232490000Y-43398160D02*
G75*
G03*
X232249960Y-43638160I0J-240040D01*
G01*
X232490000Y-45798160D02*
G75*
G03*
X232249960Y-46038160I0J-240040D01*
G01*
X234010000Y-46398160D02*
G75*
G02*
X234250040Y-46638160I0J-240040D01*
G01*
X234010000Y-45198160D02*
G75*
G02*
X234250040Y-45438160I0J-240040D01*
G01*
X232490000Y-44598160D02*
G75*
G03*
X232249960Y-44838160I0J-240040D01*
G01*
X234250000Y-41958160D02*
G75*
G02*
X234010000Y-42198200I-240000J-40D01*
G01*
X233010000Y-47598160D02*
G75*
G02*
X233250040Y-47838160I0J-240040D01*
G01*
%TO.N,T+*%
X238801600Y-59161725D02*
X239321600Y-59161725D01*
X227550000Y-84800000D02*
X218500000Y-75750000D01*
X238561600Y-66721725D02*
X238561600Y-67019751D01*
X238561600Y-36870000D02*
X238561600Y-58921725D01*
X218500000Y-75750000D02*
X218500000Y-58750000D01*
X237561600Y-64801725D02*
X237561600Y-64921725D01*
X238561600Y-59761725D02*
X237801600Y-59761725D01*
X239321600Y-59761725D02*
X238801600Y-59761725D01*
X239321600Y-62161725D02*
X238561600Y-62161725D01*
X238321600Y-65761725D02*
X237801600Y-65761725D01*
X237801600Y-61561725D02*
X238561600Y-61561725D01*
X237561600Y-62401725D02*
X237561600Y-62521725D01*
X211500000Y-29750000D02*
X211500000Y-38250000D01*
X238801600Y-59761725D02*
X238561600Y-59761725D01*
X239561600Y-59401725D02*
X239561600Y-59521725D01*
X238561600Y-63361725D02*
X237801600Y-63361725D01*
X237561600Y-63601725D02*
X237561600Y-63721725D01*
X237801600Y-60361725D02*
X238561600Y-60361725D01*
X237801600Y-66361725D02*
X238321600Y-66361725D01*
X238561600Y-62161725D02*
X237801600Y-62161725D01*
X239561600Y-65401725D02*
X239561600Y-65521725D01*
X238561600Y-60961725D02*
X237801600Y-60961725D01*
X239321600Y-65761725D02*
X238561600Y-65761725D01*
X234700000Y-84800000D02*
X227550000Y-84800000D01*
X239561600Y-64201725D02*
X239561600Y-64321725D01*
X238561600Y-61561725D02*
X239321600Y-61561725D01*
X239321600Y-64561725D02*
X238561600Y-64561725D01*
X207560000Y-25810000D02*
X211500000Y-29750000D01*
X238561600Y-80938400D02*
X234700000Y-84800000D01*
X239321600Y-60961725D02*
X238561600Y-60961725D01*
X238561600Y-63961725D02*
X239321600Y-63961725D01*
X238561600Y-67019751D02*
X238561600Y-80938400D01*
X211500000Y-38250000D02*
X219250000Y-46000000D01*
X237801600Y-65161725D02*
X238561600Y-65161725D01*
X238561600Y-60361725D02*
X239321600Y-60361725D01*
X238561600Y-66601725D02*
X238561600Y-66721725D01*
X239321600Y-63361725D02*
X238561600Y-63361725D01*
X207560000Y-24390000D02*
X207560000Y-25810000D01*
X237561600Y-61201725D02*
X237561600Y-61321725D01*
X239561600Y-63001725D02*
X239561600Y-63121725D01*
X238561600Y-62761725D02*
X239321600Y-62761725D01*
X237561600Y-60001725D02*
X237561600Y-60121725D01*
X237801600Y-62761725D02*
X238561600Y-62761725D01*
X239561600Y-60601725D02*
X239561600Y-60721725D01*
X238561600Y-65161725D02*
X239321600Y-65161725D01*
X237561600Y-66001725D02*
X237561600Y-66121725D01*
X238561600Y-64561725D02*
X237801600Y-64561725D01*
X237801600Y-63961725D02*
X238561600Y-63961725D01*
X238561600Y-65761725D02*
X238321600Y-65761725D01*
X239561600Y-61801725D02*
X239561600Y-61921725D01*
X237801600Y-59761725D02*
G75*
G03*
X237561625Y-60001725I0J-239975D01*
G01*
X239561600Y-60721725D02*
G75*
G02*
X239321600Y-60961700I-240000J25D01*
G01*
X239561600Y-65521725D02*
G75*
G02*
X239321600Y-65761700I-240000J25D01*
G01*
X237561600Y-66121725D02*
G75*
G03*
X237801600Y-66361700I240000J25D01*
G01*
X237801600Y-64561725D02*
G75*
G03*
X237561625Y-64801725I0J-239975D01*
G01*
X239561600Y-63121725D02*
G75*
G02*
X239321600Y-63361700I-240000J25D01*
G01*
X239321600Y-60361725D02*
G75*
G02*
X239561575Y-60601725I0J-239975D01*
G01*
X239561600Y-59521725D02*
G75*
G02*
X239321600Y-59761700I-240000J25D01*
G01*
X239321600Y-61561725D02*
G75*
G02*
X239561575Y-61801725I0J-239975D01*
G01*
X237801600Y-63361725D02*
G75*
G03*
X237561625Y-63601725I0J-239975D01*
G01*
X237561600Y-62521725D02*
G75*
G03*
X237801600Y-62761700I240000J25D01*
G01*
X237561600Y-64921725D02*
G75*
G03*
X237801600Y-65161700I240000J25D01*
G01*
X237561600Y-63721725D02*
G75*
G03*
X237801600Y-63961700I240000J25D01*
G01*
X237561600Y-61321725D02*
G75*
G03*
X237801600Y-61561700I240000J25D01*
G01*
X239321600Y-65161725D02*
G75*
G02*
X239561575Y-65401725I0J-239975D01*
G01*
X238561600Y-58921725D02*
G75*
G03*
X238801600Y-59161700I240000J25D01*
G01*
X239561600Y-64321725D02*
G75*
G02*
X239321600Y-64561700I-240000J25D01*
G01*
X238321600Y-66361725D02*
G75*
G02*
X238561575Y-66601725I0J-239975D01*
G01*
X239321600Y-59161725D02*
G75*
G02*
X239561575Y-59401725I0J-239975D01*
G01*
X237561600Y-60121725D02*
G75*
G03*
X237801600Y-60361700I240000J25D01*
G01*
X239561600Y-61921725D02*
G75*
G02*
X239321600Y-62161700I-240000J25D01*
G01*
X239321600Y-63961725D02*
G75*
G02*
X239561575Y-64201725I0J-239975D01*
G01*
X237801600Y-62161725D02*
G75*
G03*
X237561625Y-62401725I0J-239975D01*
G01*
X237801600Y-60961725D02*
G75*
G03*
X237561625Y-61201725I0J-239975D01*
G01*
X237801600Y-65761725D02*
G75*
G03*
X237561625Y-66001725I0J-239975D01*
G01*
X239321600Y-62761725D02*
G75*
G02*
X239561575Y-63001725I0J-239975D01*
G01*
%TO.N,R-*%
X205500000Y-25500000D02*
X205500000Y-22500000D01*
X215283730Y-46697944D02*
X215198877Y-46613091D01*
X215425144Y-44010930D02*
X215340291Y-43926077D01*
X214435197Y-45849411D02*
X214350344Y-45764558D01*
X214208920Y-44208920D02*
X213792619Y-43792619D01*
X217000000Y-75750000D02*
X217000000Y-61250000D01*
X235750000Y-85750000D02*
X227000000Y-85750000D01*
X215566571Y-45905982D02*
X215736277Y-45736276D01*
X215000879Y-43926077D02*
X214633183Y-44293772D01*
X214293772Y-44293772D02*
X214208920Y-44208920D01*
X205500000Y-22500000D02*
X207549000Y-20451000D01*
X210000000Y-30000000D02*
X205500000Y-25500000D01*
X215057448Y-44718037D02*
X215425144Y-44350341D01*
X215990837Y-46330249D02*
X215623140Y-46697943D01*
X215736277Y-45736276D02*
X215736276Y-45736276D01*
X215736276Y-45736276D02*
X216273677Y-45198874D01*
X213792619Y-43792619D02*
X210000000Y-40000000D01*
X218000000Y-48000000D02*
X216330249Y-46330249D01*
X242561600Y-78938400D02*
X235750000Y-85750000D01*
X216273677Y-44859463D02*
X216188824Y-44774610D01*
X215312010Y-45312011D02*
X215312010Y-45312010D01*
X214350344Y-45425146D02*
X214887744Y-44887743D01*
X242561600Y-36870000D02*
X242561600Y-78938400D01*
X212501000Y-20451000D02*
X213900000Y-21850000D01*
X227000000Y-85750000D02*
X217000000Y-75750000D01*
X207549000Y-20451000D02*
X212501000Y-20451000D01*
X215849412Y-44774610D02*
X215312010Y-45312011D01*
X214887743Y-44887743D02*
X215057448Y-44718037D01*
X214887744Y-44887743D02*
X214887743Y-44887743D01*
X215312010Y-45312010D02*
X214774607Y-45849410D01*
X210000000Y-40000000D02*
X210000000Y-30000000D01*
X215198877Y-46273679D02*
X215566571Y-45905982D01*
X216188824Y-44774610D02*
G75*
G03*
X215849412Y-44774610I-169706J-169704D01*
G01*
X214350344Y-45764558D02*
G75*
G02*
X214350392Y-45425194I169656J169658D01*
G01*
X215623140Y-46697943D02*
G75*
G02*
X215283696Y-46697979I-169740J169743D01*
G01*
X216273677Y-45198874D02*
G75*
G03*
X216273646Y-44859495I-169677J169674D01*
G01*
X215340291Y-43926077D02*
G75*
G03*
X215000879Y-43926077I-169706J-169704D01*
G01*
X215425144Y-44350341D02*
G75*
G03*
X215425180Y-44010895I-169744J169741D01*
G01*
X214774607Y-45849410D02*
G75*
G02*
X214435196Y-45849412I-169707J169710D01*
G01*
X216330249Y-46330249D02*
G75*
G03*
X215990837Y-46330249I-169706J-169701D01*
G01*
X215198877Y-46613091D02*
G75*
G02*
X215198892Y-46273694I169723J169691D01*
G01*
X214633183Y-44293772D02*
G75*
G02*
X214293773Y-44293772I-169705J169703D01*
G01*
%TO.N,T-*%
X237500000Y-52354845D02*
X237500000Y-52474845D01*
X235740000Y-54514845D02*
X236500000Y-54514845D01*
X237500000Y-51154845D02*
X237500000Y-51274845D01*
X235500000Y-50554845D02*
X235500000Y-50674845D01*
X236500000Y-51514845D02*
X235740000Y-51514845D01*
X237500000Y-53554845D02*
X237500000Y-53674845D01*
X236740000Y-54514845D02*
X237260000Y-54514845D01*
X238561600Y-34870000D02*
X236500000Y-36931600D01*
X236740000Y-49714845D02*
X237260000Y-49714845D01*
X237500000Y-54754845D02*
X237500000Y-54874845D01*
X228000000Y-83750000D02*
X220250000Y-76000000D01*
X236500000Y-50314845D02*
X235740000Y-50314845D01*
X233750000Y-83750000D02*
X228000000Y-83750000D01*
X237260000Y-51514845D02*
X236500000Y-51514845D01*
X236500000Y-55474845D02*
X236500000Y-55744284D01*
X236740000Y-50314845D02*
X236500000Y-50314845D01*
X220250000Y-76000000D02*
X220250000Y-56750000D01*
X236500000Y-50914845D02*
X237260000Y-50914845D01*
X236500000Y-81000000D02*
X233750000Y-83750000D01*
X221000000Y-44500000D02*
X213600000Y-37100000D01*
X237500000Y-49954845D02*
X237500000Y-50074845D01*
X236500000Y-53914845D02*
X235740000Y-53914845D01*
X235740000Y-50914845D02*
X236500000Y-50914845D01*
X237260000Y-53914845D02*
X236500000Y-53914845D01*
X236500000Y-54514845D02*
X236740000Y-54514845D01*
X235500000Y-52954845D02*
X235500000Y-53074845D01*
X237260000Y-55114845D02*
X236740000Y-55114845D01*
X235500000Y-54154845D02*
X235500000Y-54274845D01*
X236500000Y-55744284D02*
X236500000Y-81000000D01*
X236500000Y-36931600D02*
X236500000Y-49474845D01*
X237260000Y-52714845D02*
X236500000Y-52714845D01*
X236500000Y-55354845D02*
X236500000Y-55474845D01*
X237260000Y-50314845D02*
X236740000Y-50314845D01*
X236500000Y-52714845D02*
X235740000Y-52714845D01*
X236500000Y-53314845D02*
X237260000Y-53314845D01*
X235740000Y-53314845D02*
X236500000Y-53314845D01*
X221000000Y-47750000D02*
X221000000Y-44500000D01*
X236500000Y-52114845D02*
X237260000Y-52114845D01*
X235500000Y-51754845D02*
X235500000Y-51874845D01*
X235740000Y-52114845D02*
X236500000Y-52114845D01*
X235740000Y-50314845D02*
G75*
G03*
X235500045Y-50554845I0J-239955D01*
G01*
X235500000Y-53074845D02*
G75*
G03*
X235740000Y-53314800I240000J45D01*
G01*
X235740000Y-53914845D02*
G75*
G03*
X235500045Y-54154845I0J-239955D01*
G01*
X236500000Y-49474845D02*
G75*
G03*
X236740000Y-49714800I240000J45D01*
G01*
X237260000Y-53314845D02*
G75*
G02*
X237499955Y-53554845I0J-239955D01*
G01*
X237260000Y-50914845D02*
G75*
G02*
X237499955Y-51154845I0J-239955D01*
G01*
X237500000Y-52474845D02*
G75*
G02*
X237260000Y-52714800I-240000J45D01*
G01*
X235500000Y-51874845D02*
G75*
G03*
X235740000Y-52114800I240000J45D01*
G01*
X235500000Y-54274845D02*
G75*
G03*
X235740000Y-54514800I240000J45D01*
G01*
X237500000Y-51274845D02*
G75*
G02*
X237260000Y-51514800I-240000J45D01*
G01*
X235500000Y-50674845D02*
G75*
G03*
X235740000Y-50914800I240000J45D01*
G01*
X235740000Y-52714845D02*
G75*
G03*
X235500045Y-52954845I0J-239955D01*
G01*
X237500000Y-50074845D02*
G75*
G02*
X237260000Y-50314800I-240000J45D01*
G01*
X237500000Y-54874845D02*
G75*
G02*
X237260000Y-55114800I-240000J45D01*
G01*
X237260000Y-54514845D02*
G75*
G02*
X237499955Y-54754845I0J-239955D01*
G01*
X236740000Y-55114845D02*
G75*
G03*
X236500045Y-55354845I0J-239955D01*
G01*
X237260000Y-49714845D02*
G75*
G02*
X237499955Y-49954845I0J-239955D01*
G01*
X237500000Y-53674845D02*
G75*
G02*
X237260000Y-53914800I-240000J45D01*
G01*
X237260000Y-52114845D02*
G75*
G02*
X237499955Y-52354845I0J-239955D01*
G01*
X235740000Y-51514845D02*
G75*
G03*
X235500045Y-51754845I0J-239955D01*
G01*
%TO.N,SDA*%
X224500000Y-89750000D02*
X251000000Y-89750000D01*
X213500000Y-78750000D02*
X224500000Y-89750000D01*
X212750000Y-75500000D02*
X213500000Y-76250000D01*
X212750000Y-72500000D02*
X212750000Y-75500000D01*
X213500000Y-76250000D02*
X213500000Y-78750000D01*
%TO.N,SCL*%
X214750000Y-78000000D02*
X214750000Y-75250000D01*
X225000000Y-88250000D02*
X214750000Y-78000000D01*
X253250000Y-89750000D02*
X251750000Y-88250000D01*
X214750000Y-75250000D02*
X214250000Y-74750000D01*
X251750000Y-88250000D02*
X225000000Y-88250000D01*
%TO.N,TX*%
X204028587Y-47067587D02*
X203858880Y-47237291D01*
X203858880Y-47237291D02*
X203491184Y-47604987D01*
X223520000Y-51000000D02*
X208000000Y-51000000D01*
X207269500Y-50269500D02*
X207230500Y-50269500D01*
X207230500Y-50269500D02*
X205471092Y-48510092D01*
X202500000Y-45539000D02*
X202500000Y-45500000D01*
X208000000Y-51000000D02*
X207269500Y-50269500D01*
X196500000Y-29000000D02*
X196500000Y-35002389D01*
X229760000Y-44760000D02*
X223520000Y-51000000D01*
X168005000Y-30777500D02*
X168005000Y-27995000D01*
X204877120Y-47916120D02*
X204339717Y-48453520D01*
X168005000Y-27995000D02*
X168750000Y-27250000D01*
X196500000Y-36401817D02*
X196500000Y-36121932D01*
X205046826Y-47746415D02*
X204877120Y-47916121D01*
X205838787Y-47463573D02*
X205753934Y-47378720D01*
X203066921Y-47180723D02*
X203434615Y-46813026D01*
X194750000Y-27250000D02*
X196500000Y-29000000D01*
X203434616Y-46473616D02*
X203349764Y-46388764D01*
X196500000Y-35002389D02*
X196500000Y-35898023D01*
X168750000Y-27250000D02*
X194750000Y-27250000D01*
X203008097Y-46047097D02*
X202500000Y-45539000D01*
X204565989Y-46530187D02*
X204028587Y-47067588D01*
X205414522Y-47378720D02*
X205046826Y-47746415D01*
X204452853Y-47491853D02*
X204990254Y-46954451D01*
X204452854Y-47491853D02*
X204452853Y-47491853D01*
X204990254Y-46615040D02*
X204905401Y-46530187D01*
X204877120Y-47916121D02*
X204877120Y-47916120D01*
X203349764Y-46388764D02*
X203008097Y-46047097D01*
X205471092Y-48170680D02*
X205838787Y-47802984D01*
X203915454Y-48029256D02*
X204452854Y-47491853D01*
X204000307Y-48453521D02*
X203915454Y-48368668D01*
X202500000Y-45500000D02*
X196500000Y-39500000D01*
X196500000Y-35898023D02*
X196500000Y-36121932D01*
X204028587Y-47067588D02*
X204028587Y-47067587D01*
X196500000Y-39500000D02*
X196500000Y-36401817D01*
X203151774Y-47604988D02*
X203066921Y-47520135D01*
X204339717Y-48453520D02*
G75*
G02*
X204000296Y-48453533I-169717J169720D01*
G01*
X203491184Y-47604987D02*
G75*
G02*
X203151796Y-47604967I-169684J169687D01*
G01*
X205838787Y-47802984D02*
G75*
G03*
X205838766Y-47463595I-169687J169684D01*
G01*
X204905401Y-46530187D02*
G75*
G03*
X204565989Y-46530187I-169706J-169704D01*
G01*
X203434615Y-46813026D02*
G75*
G03*
X203434637Y-46473596I-169715J169726D01*
G01*
X205753934Y-47378720D02*
G75*
G03*
X205414522Y-47378720I-169706J-169704D01*
G01*
X205471092Y-48510092D02*
G75*
G02*
X205471106Y-48170694I169708J169692D01*
G01*
X203066921Y-47520135D02*
G75*
G02*
X203066892Y-47180694I169679J169735D01*
G01*
X204990254Y-46954451D02*
G75*
G03*
X204990300Y-46614994I-169654J169751D01*
G01*
X203915454Y-48368668D02*
G75*
G02*
X203915492Y-48029294I169746J169668D01*
G01*
%TO.N,RX*%
X197750000Y-36750000D02*
X197750000Y-35226297D01*
X227375000Y-45125000D02*
X222625000Y-49875000D01*
X210875000Y-49875000D02*
X200875000Y-39875000D01*
X197750000Y-28250000D02*
X197750000Y-34050777D01*
X200875000Y-39875000D02*
X198963142Y-37963142D01*
X200875000Y-39875000D02*
X197750000Y-36750000D01*
X228155000Y-42220000D02*
X227375000Y-43000000D01*
X197750000Y-35562160D02*
X197750000Y-35226297D01*
X227375000Y-43000000D02*
X227375000Y-45125000D01*
X165250000Y-26000000D02*
X195500000Y-26000000D01*
X222625000Y-49875000D02*
X210875000Y-49875000D01*
X162925000Y-30777500D02*
X162925000Y-28325000D01*
X162925000Y-28325000D02*
X165250000Y-26000000D01*
X229760000Y-42220000D02*
X228155000Y-42220000D01*
X197750000Y-34050777D02*
X197750000Y-35226297D01*
X195500000Y-26000000D02*
X197750000Y-28250000D01*
%TO.N,Net-(U8-IS)*%
X135600000Y-43960000D02*
X138450000Y-43960000D01*
X135200000Y-40500000D02*
X135200000Y-43560000D01*
X118790000Y-42087500D02*
X121477500Y-39400000D01*
X135200000Y-43560000D02*
X135600000Y-43960000D01*
X121477500Y-39400000D02*
X134100000Y-39400000D01*
X134100000Y-39400000D02*
X135200000Y-40500000D01*
%TO.N,Net-(U9-IS)*%
X135200000Y-75400000D02*
X135200000Y-72100000D01*
X135760000Y-75960000D02*
X135200000Y-75400000D01*
X121477500Y-71400000D02*
X118790000Y-74087500D01*
X138450000Y-75960000D02*
X135760000Y-75960000D01*
X135200000Y-72100000D02*
X134500000Y-71400000D01*
X134500000Y-71400000D02*
X121477500Y-71400000D01*
%TO.N,Net-(U8-SR)*%
X134300000Y-44730000D02*
X134300000Y-41000000D01*
X124000000Y-40200000D02*
X122112500Y-42087500D01*
X133500000Y-40200000D02*
X124000000Y-40200000D01*
X134300000Y-41000000D02*
X133500000Y-40200000D01*
X134800000Y-45230000D02*
X134300000Y-44730000D01*
X122112500Y-42087500D02*
X121790000Y-42087500D01*
X138450000Y-45230000D02*
X134800000Y-45230000D01*
%TO.N,Net-(U9-SR)*%
X135130000Y-77230000D02*
X138450000Y-77230000D01*
X134400000Y-73000000D02*
X134400000Y-76500000D01*
X133700000Y-72300000D02*
X134400000Y-73000000D01*
X123600000Y-72300000D02*
X133700000Y-72300000D01*
X134400000Y-76500000D02*
X135130000Y-77230000D01*
X121790000Y-74087500D02*
X121812500Y-74087500D01*
X121812500Y-74087500D02*
X123600000Y-72300000D01*
%TO.N,Net-(U12-IS)*%
X134750000Y-55350000D02*
X135300000Y-55900000D01*
X135860000Y-59960000D02*
X135300000Y-59400000D01*
X135300000Y-59400000D02*
X135300000Y-55900000D01*
X138450000Y-59960000D02*
X135860000Y-59960000D01*
X134750000Y-55350000D02*
X121615000Y-55350000D01*
X121615000Y-55350000D02*
X118877500Y-58087500D01*
%TO.N,Net-(U13-IS)*%
X121700000Y-87200000D02*
X134200000Y-87200000D01*
X118812500Y-90087500D02*
X121700000Y-87200000D01*
X135200000Y-91400000D02*
X135760000Y-91960000D01*
X135760000Y-91960000D02*
X138450000Y-91960000D01*
X118790000Y-90087500D02*
X118812500Y-90087500D01*
X134200000Y-87200000D02*
X135200000Y-88200000D01*
X135200000Y-88200000D02*
X135200000Y-91400000D01*
%TO.N,Net-(U12-SR)*%
X136022894Y-61230000D02*
X134500000Y-59707107D01*
X121812500Y-58087500D02*
X123650000Y-56250000D01*
X123650000Y-56250000D02*
X134042894Y-56250000D01*
X138450000Y-61230000D02*
X136022894Y-61230000D01*
X134500000Y-59707107D02*
X134500000Y-56707106D01*
X134500000Y-56707106D02*
X134042894Y-56250000D01*
X121790000Y-58087500D02*
X121812500Y-58087500D01*
%TO.N,Net-(U13-SR)*%
X134200000Y-88700000D02*
X134200000Y-92500000D01*
X133700000Y-88200000D02*
X134200000Y-88700000D01*
X121790000Y-90087500D02*
X121812500Y-90087500D01*
X123700000Y-88200000D02*
X133700000Y-88200000D01*
X134930000Y-93230000D02*
X138450000Y-93230000D01*
X134200000Y-92500000D02*
X134930000Y-93230000D01*
X121812500Y-90087500D02*
X123700000Y-88200000D01*
%TO.N,Net-(U15-Rs)*%
X185710000Y-43210000D02*
X185710000Y-45250000D01*
X184615000Y-42115000D02*
X185710000Y-43210000D01*
X184615000Y-41137500D02*
X184615000Y-42115000D01*
D66*
%TO.N,Net-(U6-VO)*%
X144900000Y-45500000D02*
X141360000Y-49040000D01*
X146500000Y-45500000D02*
X144900000Y-45500000D01*
X138450000Y-49040000D02*
X141360000Y-49040000D01*
%TO.N,Net-(U7-VO)*%
X141460000Y-81040000D02*
X145000000Y-77500000D01*
X145000000Y-77500000D02*
X146500000Y-77500000D01*
X138450000Y-81040000D02*
X141460000Y-81040000D01*
%TO.N,Net-(U10-VO)*%
X141360000Y-65040000D02*
X144900000Y-61500000D01*
X144900000Y-61500000D02*
X146500000Y-61500000D01*
X138450000Y-65040000D02*
X141360000Y-65040000D01*
%TO.N,Net-(U11-VO)*%
X138450000Y-97040000D02*
X141360000Y-97040000D01*
X145170000Y-93230000D02*
X146185000Y-93230000D01*
X141360000Y-97040000D02*
X145170000Y-93230000D01*
D68*
%TO.N,CRX1*%
X211750000Y-80750000D02*
X208750000Y-80750000D01*
X212750000Y-86000000D02*
X212750000Y-81750000D01*
X208000000Y-80000000D02*
X208000000Y-74000000D01*
X258500000Y-39750000D02*
X259025642Y-40275642D01*
X220500000Y-93750000D02*
X212750000Y-86000000D01*
X259025642Y-40275642D02*
X259025642Y-90474358D01*
X190500000Y-53000000D02*
X189520000Y-52020000D01*
X189520000Y-52020000D02*
X189520000Y-50200000D01*
X208000000Y-74000000D02*
X198750000Y-64750000D01*
X259025642Y-90474358D02*
X259000000Y-90500000D01*
X212750000Y-81750000D02*
X211750000Y-80750000D01*
X208750000Y-80750000D02*
X208000000Y-80000000D01*
%TO.N,CTX1*%
X256500000Y-39500000D02*
X257750000Y-40750000D01*
X222750000Y-90000000D02*
X212500000Y-79750000D01*
X210850000Y-75100000D02*
X206250000Y-70500000D01*
X206250000Y-70500000D02*
X206250000Y-70000000D01*
X186210000Y-48500000D02*
X185710000Y-49000000D01*
X211400000Y-75650000D02*
X211400000Y-75627208D01*
X206250000Y-70000000D02*
X200250000Y-64000000D01*
X212500000Y-76750000D02*
X211400000Y-75650000D01*
X257750000Y-40750000D02*
X257750000Y-88750000D01*
X195000000Y-53000000D02*
X190500000Y-48500000D01*
X210872792Y-75100000D02*
X210850000Y-75100000D01*
X211400000Y-75627208D02*
X210872792Y-75100000D01*
X212500000Y-79750000D02*
X212500000Y-76750000D01*
X190500000Y-48500000D02*
X186210000Y-48500000D01*
X185710000Y-49000000D02*
X185710000Y-50200000D01*
X222750000Y-92000000D02*
X222750000Y-90000000D01*
D70*
%TO.N,M1_R*%
X112300000Y-66000000D02*
X112300000Y-55600000D01*
D66*
X138450000Y-46500000D02*
X128790000Y-46500000D01*
D70*
X110880000Y-67420000D02*
X112300000Y-66000000D01*
X112300000Y-55600000D02*
X120300000Y-47600000D01*
X127690000Y-47600000D02*
X128790000Y-46500000D01*
X105500000Y-67420000D02*
X110880000Y-67420000D01*
X120300000Y-47600000D02*
X127690000Y-47600000D01*
%TO.N,M2_R*%
X127890000Y-79400000D02*
X111400000Y-79400000D01*
X105920000Y-78000000D02*
X105500000Y-77580000D01*
D66*
X138450000Y-78500000D02*
X128790000Y-78500000D01*
D70*
X111400000Y-79400000D02*
X110000000Y-78000000D01*
X128790000Y-78500000D02*
X127890000Y-79400000D01*
X110000000Y-78000000D02*
X105920000Y-78000000D01*
%TO.N,M1_L*%
X122100000Y-63500000D02*
X113100000Y-72500000D01*
X128790000Y-62500000D02*
X127790000Y-63500000D01*
D66*
X138450000Y-62500000D02*
X128790000Y-62500000D01*
D70*
X113100000Y-72500000D02*
X105500000Y-72500000D01*
X127790000Y-63500000D02*
X122100000Y-63500000D01*
D66*
%TO.N,M2_L*%
X138450000Y-94500000D02*
X128790000Y-94500000D01*
D70*
X127790000Y-95500000D02*
X116300000Y-95500000D01*
X107760000Y-82660000D02*
X105500000Y-82660000D01*
X112150000Y-87050000D02*
X107760000Y-82660000D01*
X112150000Y-91350000D02*
X112150000Y-87050000D01*
X116300000Y-95500000D02*
X112150000Y-91350000D01*
X128790000Y-94500000D02*
X127790000Y-95500000D01*
%TO.N,+BATT*%
X111400000Y-23600000D02*
X109000000Y-26000000D01*
X109000000Y-30000000D02*
X102000000Y-37000000D01*
X105500000Y-62340000D02*
X103340000Y-62340000D01*
X114000000Y-23600000D02*
X111400000Y-23600000D01*
X103340000Y-62340000D02*
X102000000Y-61000000D01*
X102000000Y-37000000D02*
X102000000Y-61000000D01*
X109000000Y-26000000D02*
X109000000Y-30000000D01*
%TD*%
%TA.AperFunction,Conductor*%
%TO.N,Net-(D3-A1)*%
G36*
X250943039Y-91519685D02*
G01*
X250988794Y-91572489D01*
X251000000Y-91624000D01*
X251000000Y-95876000D01*
X250980315Y-95943039D01*
X250927511Y-95988794D01*
X250876000Y-96000000D01*
X244749999Y-96000000D01*
X243000000Y-97749999D01*
X243000000Y-102876000D01*
X242980315Y-102943039D01*
X242927511Y-102988794D01*
X242876000Y-103000000D01*
X236124000Y-103000000D01*
X236056961Y-102980315D01*
X236011206Y-102927511D01*
X236000000Y-102876000D01*
X236000000Y-102604000D01*
X236019685Y-102536961D01*
X236072489Y-102491206D01*
X236124000Y-102480000D01*
X242430000Y-102480000D01*
X242430000Y-96480000D01*
X236124000Y-96480000D01*
X236115314Y-96477449D01*
X236106353Y-96478738D01*
X236082312Y-96467759D01*
X236056961Y-96460315D01*
X236051033Y-96453474D01*
X236042797Y-96449713D01*
X236028507Y-96427478D01*
X236011206Y-96407511D01*
X236008918Y-96396996D01*
X236005023Y-96390935D01*
X236000000Y-96356000D01*
X236000000Y-96124000D01*
X236019685Y-96056961D01*
X236072489Y-96011206D01*
X236124000Y-96000000D01*
X238250000Y-96000000D01*
X238650000Y-95600000D01*
X247000000Y-95600000D01*
X250000000Y-95600000D01*
X250000000Y-91800000D01*
X247000000Y-91800000D01*
X247000000Y-95600000D01*
X238650000Y-95600000D01*
X239000000Y-95250000D01*
X239000000Y-92025371D01*
X239250000Y-92025371D01*
X239250000Y-93374628D01*
X239264503Y-93447540D01*
X239264505Y-93447544D01*
X239319760Y-93530239D01*
X239402455Y-93585494D01*
X239402459Y-93585496D01*
X239475371Y-93599999D01*
X239475374Y-93600000D01*
X241524626Y-93600000D01*
X241524628Y-93599999D01*
X241597540Y-93585496D01*
X241597544Y-93585494D01*
X241680239Y-93530239D01*
X241735494Y-93447544D01*
X241735496Y-93447540D01*
X241749999Y-93374628D01*
X241750000Y-93374626D01*
X241750000Y-92025373D01*
X241749999Y-92025371D01*
X241735496Y-91952459D01*
X241735494Y-91952455D01*
X241680239Y-91869760D01*
X241653271Y-91851740D01*
X241653269Y-91851738D01*
X241597547Y-91814506D01*
X241597540Y-91814503D01*
X241524627Y-91800000D01*
X239475373Y-91800000D01*
X239402459Y-91814503D01*
X239402455Y-91814505D01*
X239319760Y-91869760D01*
X239264505Y-91952455D01*
X239264503Y-91952459D01*
X239250000Y-92025371D01*
X239000000Y-92025371D01*
X239000000Y-91624000D01*
X239019685Y-91556961D01*
X239072489Y-91511206D01*
X239124000Y-91500000D01*
X250876000Y-91500000D01*
X250943039Y-91519685D01*
G37*
%TD.AperFunction*%
%TD*%
%TA.AperFunction,Conductor*%
%TO.N,GNDA*%
G36*
X147925500Y-104019962D02*
G01*
X147980038Y-104074500D01*
X148000000Y-104149000D01*
X148000000Y-110351000D01*
X147980038Y-110425500D01*
X147925500Y-110480038D01*
X147851000Y-110500000D01*
X141812500Y-110500000D01*
X140500000Y-111812500D01*
X140500000Y-115688282D01*
X140480038Y-115762782D01*
X140456359Y-115793641D01*
X138793641Y-117456359D01*
X138726846Y-117494923D01*
X138688282Y-117500000D01*
X128649000Y-117500000D01*
X128574500Y-117480038D01*
X128519962Y-117425500D01*
X128500000Y-117351000D01*
X128500000Y-105686718D01*
X128519962Y-105612218D01*
X128543641Y-105581359D01*
X130081359Y-104043641D01*
X130148154Y-104005077D01*
X130186718Y-104000000D01*
X147851000Y-104000000D01*
X147925500Y-104019962D01*
G37*
%TD.AperFunction*%
%TD*%
%TA.AperFunction,Conductor*%
%TO.N,GNDA*%
G36*
X143763282Y-20270462D02*
G01*
X143794141Y-20294141D01*
X148456359Y-24956359D01*
X148494923Y-25023154D01*
X148500000Y-25061718D01*
X148500000Y-36970336D01*
X148480038Y-37044836D01*
X148425500Y-37099374D01*
X148351000Y-37119336D01*
X148276500Y-37099374D01*
X148245641Y-37075695D01*
X147139669Y-35969723D01*
X147033127Y-35898535D01*
X147033123Y-35898533D01*
X147033121Y-35898532D01*
X146952369Y-35865084D01*
X146914744Y-35849499D01*
X146914742Y-35849498D01*
X146914743Y-35849498D01*
X146789072Y-35824500D01*
X146789069Y-35824500D01*
X145743187Y-35824500D01*
X145736029Y-35822582D01*
X145728720Y-35823796D01*
X145699171Y-35812706D01*
X145668687Y-35804538D01*
X145663447Y-35799298D01*
X145656510Y-35796695D01*
X145636464Y-35772315D01*
X145614149Y-35750000D01*
X145607531Y-35737132D01*
X145556198Y-35624118D01*
X145543565Y-35548033D01*
X145556200Y-35500880D01*
X145635095Y-35327186D01*
X145635096Y-35327183D01*
X145690096Y-35108912D01*
X145700500Y-34976717D01*
X145700499Y-34323284D01*
X145690096Y-34191088D01*
X145644500Y-34010140D01*
X145635095Y-33972812D01*
X145542008Y-33767876D01*
X145542007Y-33767874D01*
X145413819Y-33582846D01*
X145375661Y-33544688D01*
X145337098Y-33477894D01*
X145337098Y-33400766D01*
X145375661Y-33333972D01*
X145415252Y-33294382D01*
X145542799Y-33110279D01*
X145635424Y-32906361D01*
X145690148Y-32689180D01*
X145700500Y-32557648D01*
X145700500Y-31942352D01*
X145690148Y-31810820D01*
X145635424Y-31593639D01*
X145569561Y-31448638D01*
X145542800Y-31389722D01*
X145542798Y-31389719D01*
X145415255Y-31205621D01*
X145256878Y-31047244D01*
X145072780Y-30919701D01*
X145072777Y-30919699D01*
X144868863Y-30827077D01*
X144868864Y-30827077D01*
X144868861Y-30827076D01*
X144868858Y-30827075D01*
X144868855Y-30827074D01*
X144651683Y-30772352D01*
X144651679Y-30772351D01*
X144564715Y-30765507D01*
X144520148Y-30762000D01*
X143479852Y-30762000D01*
X143437666Y-30765320D01*
X143348320Y-30772351D01*
X143348316Y-30772352D01*
X143131144Y-30827074D01*
X143131136Y-30827077D01*
X142927222Y-30919699D01*
X142927219Y-30919701D01*
X142743121Y-31047244D01*
X142584744Y-31205621D01*
X142457201Y-31389719D01*
X142457199Y-31389722D01*
X142364577Y-31593636D01*
X142364574Y-31593644D01*
X142309852Y-31810816D01*
X142309851Y-31810820D01*
X142302820Y-31900166D01*
X142299500Y-31942352D01*
X142299500Y-32557648D01*
X142303373Y-32606864D01*
X142309851Y-32689179D01*
X142309852Y-32689183D01*
X142364574Y-32906355D01*
X142364577Y-32906363D01*
X142457199Y-33110277D01*
X142457201Y-33110280D01*
X142584744Y-33294378D01*
X142624337Y-33333971D01*
X142662901Y-33400766D01*
X142662901Y-33477894D01*
X142624338Y-33544688D01*
X142586177Y-33582849D01*
X142457993Y-33767872D01*
X142457991Y-33767875D01*
X142364904Y-33972812D01*
X142309903Y-34191093D01*
X142299500Y-34323289D01*
X142299500Y-34976708D01*
X142299501Y-34976711D01*
X142309903Y-35108906D01*
X142309903Y-35108909D01*
X142309904Y-35108912D01*
X142314231Y-35126082D01*
X142364904Y-35327186D01*
X142443800Y-35500880D01*
X142456435Y-35576966D01*
X142443800Y-35624120D01*
X142364904Y-35797813D01*
X142309903Y-36016093D01*
X142299500Y-36148289D01*
X142299500Y-36801708D01*
X142299501Y-36801711D01*
X142309903Y-36933906D01*
X142309903Y-36933909D01*
X142309904Y-36933912D01*
X142319082Y-36970336D01*
X142364904Y-37152187D01*
X142457991Y-37357123D01*
X142457992Y-37357125D01*
X142457993Y-37357126D01*
X142586181Y-37542154D01*
X142745346Y-37701319D01*
X142930374Y-37829507D01*
X142930375Y-37829507D01*
X142930376Y-37829508D01*
X143135312Y-37922595D01*
X143172640Y-37932000D01*
X143353588Y-37977596D01*
X143485783Y-37988000D01*
X144514216Y-37987999D01*
X144646412Y-37977596D01*
X144864683Y-37922596D01*
X144864682Y-37922596D01*
X144864687Y-37922595D01*
X145006613Y-37858128D01*
X145069626Y-37829507D01*
X145254654Y-37701319D01*
X145413819Y-37542154D01*
X145542007Y-37357126D01*
X145607526Y-37212878D01*
X145656510Y-37153305D01*
X145728720Y-37126204D01*
X145743187Y-37125500D01*
X146393836Y-37125500D01*
X146468336Y-37145462D01*
X146499195Y-37169141D01*
X147845859Y-38515805D01*
X147884423Y-38582600D01*
X147889500Y-38621164D01*
X147889500Y-43994578D01*
X147869538Y-44069078D01*
X147815000Y-44123616D01*
X147740500Y-44143578D01*
X147666000Y-44123616D01*
X147649795Y-44112788D01*
X147502452Y-43999728D01*
X147298056Y-43881719D01*
X147079996Y-43791395D01*
X147079994Y-43791394D01*
X147079993Y-43791394D01*
X146852014Y-43730307D01*
X146852012Y-43730306D01*
X146852006Y-43730305D01*
X146618016Y-43699500D01*
X146618011Y-43699500D01*
X146381989Y-43699500D01*
X146381983Y-43699500D01*
X146147993Y-43730305D01*
X145920003Y-43791395D01*
X145701943Y-43881719D01*
X145497551Y-43999726D01*
X145428251Y-44052901D01*
X145310301Y-44143408D01*
X145310299Y-44143409D01*
X145310295Y-44143413D01*
X145143408Y-44310300D01*
X145042577Y-44441706D01*
X144981387Y-44488658D01*
X144924368Y-44500000D01*
X143561718Y-44500000D01*
X143487218Y-44480038D01*
X143456359Y-44456359D01*
X141543641Y-42543641D01*
X141505077Y-42476846D01*
X141500000Y-42438282D01*
X141500000Y-29125000D01*
X138794141Y-26419141D01*
X138755577Y-26352346D01*
X138750500Y-26313782D01*
X138750500Y-26004980D01*
X138770462Y-25930480D01*
X138825000Y-25875942D01*
X138858400Y-25862399D01*
X138858368Y-25862306D01*
X138860294Y-25861632D01*
X138863096Y-25860495D01*
X138864683Y-25860096D01*
X139069626Y-25767007D01*
X139254654Y-25638819D01*
X139413819Y-25479654D01*
X139542007Y-25294626D01*
X139616015Y-25131692D01*
X139635095Y-25089687D01*
X139635381Y-25088549D01*
X139690096Y-24871412D01*
X139700500Y-24739217D01*
X139700499Y-24085784D01*
X139690096Y-23953588D01*
X139635096Y-23735317D01*
X139635095Y-23735312D01*
X139542008Y-23530376D01*
X139542007Y-23530374D01*
X139413819Y-23345346D01*
X139254654Y-23186181D01*
X139069626Y-23057993D01*
X139069625Y-23057992D01*
X139069623Y-23057991D01*
X138864687Y-22964904D01*
X138719924Y-22928427D01*
X138646412Y-22909904D01*
X138646409Y-22909903D01*
X138646406Y-22909903D01*
X138586122Y-22905159D01*
X138514217Y-22899500D01*
X138514209Y-22899500D01*
X137485791Y-22899500D01*
X137485788Y-22899500D01*
X137485784Y-22899501D01*
X137440622Y-22903054D01*
X137353593Y-22909903D01*
X137353589Y-22909903D01*
X137353588Y-22909904D01*
X137331380Y-22915500D01*
X137135312Y-22964904D01*
X136930376Y-23057991D01*
X136745344Y-23186182D01*
X136586182Y-23345344D01*
X136457991Y-23530376D01*
X136437895Y-23574620D01*
X136433189Y-23580342D01*
X136431272Y-23587500D01*
X136408952Y-23609819D01*
X136388910Y-23634195D01*
X136381973Y-23636798D01*
X136376734Y-23642038D01*
X136346245Y-23650207D01*
X136316700Y-23661296D01*
X136302234Y-23662000D01*
X136285086Y-23662000D01*
X136210586Y-23642038D01*
X136179727Y-23618359D01*
X135893605Y-23332237D01*
X135855041Y-23265442D01*
X135850604Y-23217143D01*
X135850500Y-23217143D01*
X135850499Y-23217139D01*
X135850385Y-23217135D01*
X135850450Y-23215471D01*
X135850424Y-23215184D01*
X135850499Y-23214226D01*
X135850500Y-23214217D01*
X135850499Y-22285784D01*
X135840096Y-22153588D01*
X135785096Y-21935317D01*
X135785095Y-21935312D01*
X135692008Y-21730376D01*
X135692007Y-21730374D01*
X135563819Y-21545346D01*
X135404654Y-21386181D01*
X135219626Y-21257993D01*
X135219625Y-21257992D01*
X135219623Y-21257991D01*
X135014687Y-21164904D01*
X134869924Y-21128427D01*
X134796412Y-21109904D01*
X134796409Y-21109903D01*
X134796406Y-21109903D01*
X134736122Y-21105159D01*
X134664217Y-21099500D01*
X134664209Y-21099500D01*
X133335791Y-21099500D01*
X133335788Y-21099500D01*
X133335784Y-21099501D01*
X133290622Y-21103054D01*
X133203593Y-21109903D01*
X133203589Y-21109903D01*
X133203588Y-21109904D01*
X133166264Y-21119308D01*
X132985312Y-21164904D01*
X132780376Y-21257991D01*
X132595344Y-21386182D01*
X132436182Y-21545344D01*
X132307991Y-21730376D01*
X132214904Y-21935312D01*
X132159903Y-22153593D01*
X132149500Y-22285789D01*
X132149500Y-23214208D01*
X132149500Y-23214210D01*
X132149501Y-23214216D01*
X132153532Y-23265442D01*
X132159903Y-23346406D01*
X132159903Y-23346409D01*
X132159904Y-23346412D01*
X132178427Y-23419924D01*
X132214904Y-23564687D01*
X132307991Y-23769623D01*
X132307992Y-23769625D01*
X132307993Y-23769626D01*
X132436181Y-23954654D01*
X132595346Y-24113819D01*
X132780374Y-24242007D01*
X132780375Y-24242007D01*
X132780376Y-24242008D01*
X132985312Y-24335095D01*
X133027917Y-24345830D01*
X133066356Y-24355516D01*
X133133720Y-24393077D01*
X133173279Y-24459287D01*
X133174433Y-24536407D01*
X133136872Y-24603771D01*
X133070662Y-24643330D01*
X133066370Y-24644480D01*
X133053639Y-24647688D01*
X132985312Y-24664904D01*
X132780376Y-24757991D01*
X132595344Y-24886182D01*
X132436182Y-25045344D01*
X132307991Y-25230376D01*
X132225213Y-25412620D01*
X132176228Y-25472195D01*
X132104018Y-25499296D01*
X132089552Y-25500000D01*
X131386524Y-25500000D01*
X131312024Y-25480038D01*
X131264624Y-25436682D01*
X131256764Y-25425500D01*
X131248700Y-25414026D01*
X131247480Y-25412618D01*
X131202948Y-25361225D01*
X131083830Y-25244819D01*
X130981469Y-25176338D01*
X130914736Y-25131692D01*
X130726329Y-25054917D01*
X130726326Y-25054916D01*
X130659289Y-25035231D01*
X130578403Y-25015082D01*
X130376009Y-24994500D01*
X130376000Y-24994500D01*
X127149000Y-24994500D01*
X127074500Y-24974538D01*
X127019962Y-24920000D01*
X127000000Y-24845500D01*
X127000000Y-20399500D01*
X127019962Y-20325000D01*
X127074500Y-20270462D01*
X127149000Y-20250500D01*
X143688782Y-20250500D01*
X143763282Y-20270462D01*
G37*
%TD.AperFunction*%
%TD*%
%TA.AperFunction,Conductor*%
%TO.N,+3.3V*%
G36*
X183943039Y-60869685D02*
G01*
X183988794Y-60922489D01*
X184000000Y-60974000D01*
X184000000Y-62350000D01*
X184201097Y-62350000D01*
X184243824Y-62347102D01*
X184428521Y-62301169D01*
X184570905Y-62230553D01*
X184639710Y-62218401D01*
X184704162Y-62245377D01*
X184743798Y-62302916D01*
X184750000Y-62341641D01*
X184750000Y-65449999D01*
X184759439Y-65472787D01*
X184757564Y-65473563D01*
X184771804Y-65499642D01*
X184766820Y-65569334D01*
X184724948Y-65625267D01*
X184659484Y-65649684D01*
X184650638Y-65650000D01*
X184000000Y-65650000D01*
X184000000Y-67026000D01*
X183980315Y-67093039D01*
X183927511Y-67138794D01*
X183876000Y-67150000D01*
X183624000Y-67150000D01*
X183556961Y-67130315D01*
X183511206Y-67077511D01*
X183500000Y-67026000D01*
X183500000Y-65650000D01*
X182763092Y-65650000D01*
X182696053Y-65630315D01*
X182650298Y-65577511D01*
X182640354Y-65508353D01*
X182648530Y-65478548D01*
X182650000Y-65474999D01*
X182650000Y-62273635D01*
X182669685Y-62206596D01*
X182722489Y-62160841D01*
X182791647Y-62150897D01*
X182851688Y-62176989D01*
X182900974Y-62216607D01*
X182900977Y-62216609D01*
X183071476Y-62301168D01*
X183256175Y-62347102D01*
X183298903Y-62350000D01*
X183500000Y-62350000D01*
X183500000Y-60974000D01*
X183519685Y-60906961D01*
X183572489Y-60861206D01*
X183624000Y-60850000D01*
X183876000Y-60850000D01*
X183943039Y-60869685D01*
G37*
%TD.AperFunction*%
%TD*%
%TA.AperFunction,Conductor*%
%TO.N,+21VA*%
G36*
X133205203Y-26816129D02*
G01*
X133211681Y-26822161D01*
X133219759Y-26830239D01*
X133302455Y-26885494D01*
X133302459Y-26885496D01*
X133375371Y-26899999D01*
X133375374Y-26900000D01*
X134624626Y-26900000D01*
X134624628Y-26899999D01*
X134697540Y-26885496D01*
X134697544Y-26885494D01*
X134780240Y-26830239D01*
X134788319Y-26822161D01*
X134849642Y-26788676D01*
X134919334Y-26793660D01*
X134975267Y-26835532D01*
X134999684Y-26900996D01*
X135000000Y-26909842D01*
X135000000Y-31448638D01*
X134980315Y-31515677D01*
X134963681Y-31536319D01*
X133036319Y-33463681D01*
X132974996Y-33497166D01*
X132948638Y-33500000D01*
X125004000Y-33500000D01*
X124936961Y-33480315D01*
X124891206Y-33427511D01*
X124880000Y-33376000D01*
X124880000Y-30340000D01*
X123680000Y-30340000D01*
X123680000Y-33376000D01*
X123660315Y-33443039D01*
X123607511Y-33488794D01*
X123556000Y-33500000D01*
X123124000Y-33500000D01*
X123056961Y-33480315D01*
X123011206Y-33427511D01*
X123000000Y-33376000D01*
X123000000Y-30124000D01*
X123019685Y-30056961D01*
X123072489Y-30011206D01*
X123124000Y-30000000D01*
X131875000Y-30000000D01*
X133000000Y-28875000D01*
X133000000Y-26909842D01*
X133019685Y-26842803D01*
X133072489Y-26797048D01*
X133141647Y-26787104D01*
X133205203Y-26816129D01*
G37*
%TD.AperFunction*%
%TD*%
%TA.AperFunction,Conductor*%
%TO.N,GND*%
G36*
X237925500Y-91519962D02*
G01*
X237980038Y-91574500D01*
X238000000Y-91649000D01*
X238000000Y-93851000D01*
X237980038Y-93925500D01*
X237925500Y-93980038D01*
X237851000Y-94000000D01*
X232850000Y-94000000D01*
X232400000Y-94450000D01*
X232400000Y-95450500D01*
X232380038Y-95525000D01*
X232325500Y-95579538D01*
X232251000Y-95599500D01*
X230941969Y-95599500D01*
X230882273Y-95604807D01*
X230822582Y-95610114D01*
X230822579Y-95610114D01*
X230822577Y-95610115D01*
X230626949Y-95666091D01*
X230446591Y-95760303D01*
X230446590Y-95760303D01*
X230439021Y-95766476D01*
X230368668Y-95798086D01*
X230344860Y-95800000D01*
X229849000Y-95800000D01*
X229774500Y-95780038D01*
X229719962Y-95725500D01*
X229700000Y-95651000D01*
X229700000Y-94549000D01*
X229719962Y-94474500D01*
X229774500Y-94419962D01*
X229849000Y-94400000D01*
X230300000Y-94400000D01*
X230500000Y-94200000D01*
X230500000Y-94199999D01*
X230506263Y-94184880D01*
X230553215Y-94123690D01*
X230559053Y-94119431D01*
X230567154Y-94113819D01*
X230726319Y-93954654D01*
X230854507Y-93769626D01*
X230903370Y-93662051D01*
X230947595Y-93564687D01*
X230969655Y-93477139D01*
X231002596Y-93346412D01*
X231013000Y-93214217D01*
X231012999Y-92185784D01*
X231002596Y-92053588D01*
X230947596Y-91835317D01*
X230947594Y-91835313D01*
X230946534Y-91831105D01*
X230947095Y-91793614D01*
X230947095Y-91756133D01*
X230947670Y-91755135D01*
X230947688Y-91753986D01*
X230985657Y-91689342D01*
X231131360Y-91543640D01*
X231198155Y-91505077D01*
X231236718Y-91500000D01*
X237851000Y-91500000D01*
X237925500Y-91519962D01*
G37*
%TD.AperFunction*%
%TD*%
%TA.AperFunction,Conductor*%
%TO.N,Net-(D10-A1)*%
G36*
X125443039Y-21519685D02*
G01*
X125488794Y-21572489D01*
X125500000Y-21624000D01*
X125500000Y-24875000D01*
X126625000Y-26000000D01*
X130376000Y-26000000D01*
X130443039Y-26019685D01*
X130488794Y-26072489D01*
X130500000Y-26124000D01*
X130500000Y-28876000D01*
X130480315Y-28943039D01*
X130427511Y-28988794D01*
X130376000Y-29000000D01*
X116999999Y-29000000D01*
X116000000Y-29999999D01*
X116000000Y-32876000D01*
X115980315Y-32943039D01*
X115927511Y-32988794D01*
X115876000Y-33000000D01*
X112124000Y-33000000D01*
X112056961Y-32980315D01*
X112011206Y-32927511D01*
X112000000Y-32876000D01*
X112000000Y-32300000D01*
X112500000Y-32300000D01*
X115500000Y-32300000D01*
X115500000Y-28500000D01*
X112500000Y-28500000D01*
X112500000Y-32300000D01*
X112000000Y-32300000D01*
X112000000Y-28410000D01*
X119000000Y-28410000D01*
X125000000Y-28410000D01*
X125000000Y-26475371D01*
X128100000Y-26475371D01*
X128100000Y-28524628D01*
X128114503Y-28597540D01*
X128114505Y-28597544D01*
X128169760Y-28680239D01*
X128252455Y-28735494D01*
X128252459Y-28735496D01*
X128325371Y-28749999D01*
X128325374Y-28750000D01*
X129674626Y-28750000D01*
X129674628Y-28749999D01*
X129747540Y-28735496D01*
X129747544Y-28735494D01*
X129830239Y-28680239D01*
X129885494Y-28597544D01*
X129885496Y-28597540D01*
X129899999Y-28524628D01*
X129900000Y-28524626D01*
X129900000Y-26475373D01*
X129899999Y-26475371D01*
X129885496Y-26402459D01*
X129885494Y-26402455D01*
X129830239Y-26319760D01*
X129747544Y-26264505D01*
X129747540Y-26264503D01*
X129674627Y-26250000D01*
X128325373Y-26250000D01*
X128252459Y-26264503D01*
X128252455Y-26264505D01*
X128169760Y-26319760D01*
X128114505Y-26402455D01*
X128114503Y-26402459D01*
X128100000Y-26475371D01*
X125000000Y-26475371D01*
X125000000Y-21910000D01*
X119000000Y-21910000D01*
X119000000Y-28410000D01*
X112000000Y-28410000D01*
X112000000Y-27624000D01*
X112019685Y-27556961D01*
X112072489Y-27511206D01*
X112124000Y-27500000D01*
X117000000Y-27500000D01*
X118500000Y-26000000D01*
X118500000Y-21624000D01*
X118519685Y-21556961D01*
X118572489Y-21511206D01*
X118624000Y-21500000D01*
X125376000Y-21500000D01*
X125443039Y-21519685D01*
G37*
%TD.AperFunction*%
%TD*%
%TA.AperFunction,Conductor*%
%TO.N,+21V*%
G36*
X230515677Y-99519685D02*
G01*
X230536319Y-99536319D01*
X231500000Y-100500000D01*
X234376000Y-100500000D01*
X234443039Y-100519685D01*
X234488794Y-100572489D01*
X234500000Y-100624000D01*
X234500000Y-102876000D01*
X234480315Y-102943039D01*
X234427511Y-102988794D01*
X234376000Y-103000000D01*
X230551362Y-103000000D01*
X230484323Y-102980315D01*
X230463681Y-102963681D01*
X229860000Y-102360000D01*
X231000000Y-102360000D01*
X234000000Y-102360000D01*
X234000000Y-101160000D01*
X231000000Y-101160000D01*
X231000000Y-102360000D01*
X229860000Y-102360000D01*
X229500000Y-102000000D01*
X226124000Y-102000000D01*
X226056961Y-101980315D01*
X226011206Y-101927511D01*
X226000000Y-101876000D01*
X226000000Y-101409842D01*
X226019685Y-101342803D01*
X226072489Y-101297048D01*
X226141647Y-101287104D01*
X226205203Y-101316129D01*
X226211681Y-101322161D01*
X226219759Y-101330239D01*
X226302455Y-101385494D01*
X226302459Y-101385496D01*
X226375371Y-101399999D01*
X226375374Y-101400000D01*
X227624626Y-101400000D01*
X227624628Y-101399999D01*
X227697540Y-101385496D01*
X227697544Y-101385494D01*
X227780239Y-101330239D01*
X227835494Y-101247544D01*
X227835496Y-101247540D01*
X227849999Y-101174628D01*
X227850000Y-101174626D01*
X227850000Y-100325373D01*
X227849999Y-100325371D01*
X227835496Y-100252459D01*
X227835494Y-100252455D01*
X227780239Y-100169760D01*
X227697544Y-100114505D01*
X227697540Y-100114503D01*
X227624627Y-100100000D01*
X226375373Y-100100000D01*
X226302459Y-100114503D01*
X226302455Y-100114505D01*
X226219759Y-100169760D01*
X226211681Y-100177839D01*
X226150358Y-100211324D01*
X226080666Y-100206340D01*
X226024733Y-100164468D01*
X226000316Y-100099004D01*
X226000000Y-100090158D01*
X226000000Y-99624000D01*
X226019685Y-99556961D01*
X226072489Y-99511206D01*
X226124000Y-99500000D01*
X230448638Y-99500000D01*
X230515677Y-99519685D01*
G37*
%TD.AperFunction*%
%TD*%
%TA.AperFunction,Conductor*%
%TO.N,+21VA*%
G36*
X140343039Y-40019685D02*
G01*
X140388794Y-40072489D01*
X140400000Y-40124000D01*
X140400000Y-42166000D01*
X140380315Y-42233039D01*
X140327511Y-42278794D01*
X140276000Y-42290000D01*
X136624000Y-42290000D01*
X136556961Y-42270315D01*
X136511206Y-42217511D01*
X136500000Y-42166000D01*
X136500000Y-40124000D01*
X136519685Y-40056961D01*
X136572489Y-40011206D01*
X136624000Y-40000000D01*
X140276000Y-40000000D01*
X140343039Y-40019685D01*
G37*
%TD.AperFunction*%
%TD*%
%TA.AperFunction,Conductor*%
%TO.N,+5V*%
G36*
X193443039Y-79019685D02*
G01*
X193488794Y-79072489D01*
X193500000Y-79124000D01*
X193500000Y-81040158D01*
X193480315Y-81107197D01*
X193427511Y-81152952D01*
X193358353Y-81162896D01*
X193294797Y-81133871D01*
X193288319Y-81127839D01*
X193280240Y-81119760D01*
X193197544Y-81064505D01*
X193197540Y-81064503D01*
X193124627Y-81050000D01*
X192475373Y-81050000D01*
X192402459Y-81064503D01*
X192402455Y-81064505D01*
X192319760Y-81119760D01*
X192264505Y-81202455D01*
X192264503Y-81202459D01*
X192250000Y-81275371D01*
X192250000Y-85424628D01*
X192264503Y-85497540D01*
X192264505Y-85497544D01*
X192319760Y-85580239D01*
X192402455Y-85635494D01*
X192402459Y-85635496D01*
X192475371Y-85649999D01*
X192475374Y-85650000D01*
X193124626Y-85650000D01*
X193124628Y-85649999D01*
X193197540Y-85635496D01*
X193197544Y-85635494D01*
X193280240Y-85580239D01*
X193288319Y-85572161D01*
X193349642Y-85538676D01*
X193419334Y-85543660D01*
X193475267Y-85585532D01*
X193499684Y-85650996D01*
X193500000Y-85659842D01*
X193500000Y-85876000D01*
X193480315Y-85943039D01*
X193427511Y-85988794D01*
X193376000Y-86000000D01*
X192124000Y-86000000D01*
X192056961Y-85980315D01*
X192011206Y-85927511D01*
X192000000Y-85876000D01*
X192000000Y-80500000D01*
X188000000Y-80500000D01*
X187999999Y-80500000D01*
X184500000Y-82499999D01*
X184500000Y-91376000D01*
X184480315Y-91443039D01*
X184427511Y-91488794D01*
X184376000Y-91500000D01*
X178624000Y-91500000D01*
X178556961Y-91480315D01*
X178511206Y-91427511D01*
X178500000Y-91376000D01*
X178500000Y-86750371D01*
X180025000Y-86750371D01*
X180025000Y-90699628D01*
X180039503Y-90772540D01*
X180039505Y-90772544D01*
X180094760Y-90855239D01*
X180177455Y-90910494D01*
X180177459Y-90910496D01*
X180250371Y-90924999D01*
X180250374Y-90925000D01*
X182299626Y-90925000D01*
X182299628Y-90924999D01*
X182372540Y-90910496D01*
X182372544Y-90910494D01*
X182455239Y-90855239D01*
X182510494Y-90772544D01*
X182510496Y-90772540D01*
X182524999Y-90699628D01*
X182525000Y-90699626D01*
X182525000Y-86750373D01*
X182524999Y-86750371D01*
X182510496Y-86677459D01*
X182510494Y-86677455D01*
X182455239Y-86594760D01*
X182372544Y-86539505D01*
X182372540Y-86539503D01*
X182299627Y-86525000D01*
X180250373Y-86525000D01*
X180177459Y-86539503D01*
X180177455Y-86539505D01*
X180094760Y-86594760D01*
X180039505Y-86677455D01*
X180039503Y-86677459D01*
X180025000Y-86750371D01*
X178500000Y-86750371D01*
X178500000Y-83374700D01*
X179522400Y-83374700D01*
X183027600Y-83374700D01*
X183027600Y-81114100D01*
X179522400Y-81114100D01*
X179522400Y-83374700D01*
X178500000Y-83374700D01*
X178500000Y-80573929D01*
X178519685Y-80506890D01*
X178565034Y-80464845D01*
X181247405Y-79014915D01*
X181306369Y-79000000D01*
X193376000Y-79000000D01*
X193443039Y-79019685D01*
G37*
%TD.AperFunction*%
%TD*%
%TA.AperFunction,Conductor*%
%TO.N,GND*%
G36*
X186925500Y-57019962D02*
G01*
X186980038Y-57074500D01*
X187000000Y-57149000D01*
X187000000Y-61851000D01*
X186980038Y-61925500D01*
X186925500Y-61980038D01*
X186851000Y-62000000D01*
X185806176Y-62000000D01*
X185731676Y-61980038D01*
X185677138Y-61925500D01*
X185671147Y-61913472D01*
X185571855Y-61732522D01*
X185571852Y-61732519D01*
X185571848Y-61732510D01*
X185532212Y-61674971D01*
X185532208Y-61674967D01*
X185530360Y-61672508D01*
X185530462Y-61672430D01*
X185530459Y-61672426D01*
X185530578Y-61672343D01*
X185531397Y-61671727D01*
X185528620Y-61665569D01*
X185519962Y-61656911D01*
X185513001Y-61630931D01*
X185501947Y-61606419D01*
X185500000Y-61582411D01*
X185500000Y-61581985D01*
X185500210Y-61574079D01*
X185500500Y-61568621D01*
X185500500Y-60131376D01*
X185500210Y-60125917D01*
X185500000Y-60118013D01*
X185500000Y-59375000D01*
X184625000Y-58500000D01*
X175000000Y-58500000D01*
X174000000Y-59500000D01*
X174000000Y-61750000D01*
X174750000Y-62500000D01*
X176851000Y-62500000D01*
X176925500Y-62519962D01*
X176980038Y-62574500D01*
X177000000Y-62649000D01*
X177000000Y-66690498D01*
X176980038Y-66764998D01*
X176925500Y-66819536D01*
X176851000Y-66839498D01*
X176789380Y-66826159D01*
X176598040Y-66739249D01*
X176455469Y-66703324D01*
X176381949Y-66684799D01*
X176381947Y-66684798D01*
X176381944Y-66684798D01*
X176302574Y-66678552D01*
X176251084Y-66674500D01*
X175648916Y-66674500D01*
X175600029Y-66678347D01*
X175518057Y-66684798D01*
X175518053Y-66684798D01*
X175301959Y-66739249D01*
X175099070Y-66831406D01*
X175099067Y-66831407D01*
X175099067Y-66831408D01*
X174963255Y-66925500D01*
X174915888Y-66958316D01*
X174910756Y-66962601D01*
X174909545Y-66961151D01*
X174851051Y-66994923D01*
X174812487Y-67000000D01*
X172149000Y-67000000D01*
X172074500Y-66980038D01*
X172019962Y-66925500D01*
X172000000Y-66851000D01*
X172000000Y-57149000D01*
X172019962Y-57074500D01*
X172074500Y-57019962D01*
X172149000Y-57000000D01*
X186851000Y-57000000D01*
X186925500Y-57019962D01*
G37*
%TD.AperFunction*%
%TD*%
%TA.AperFunction,Conductor*%
%TO.N,+21VA*%
G36*
X140343039Y-88019685D02*
G01*
X140388794Y-88072489D01*
X140400000Y-88124000D01*
X140400000Y-90166000D01*
X140380315Y-90233039D01*
X140327511Y-90278794D01*
X140276000Y-90290000D01*
X136624000Y-90290000D01*
X136556961Y-90270315D01*
X136511206Y-90217511D01*
X136500000Y-90166000D01*
X136500000Y-88124000D01*
X136519685Y-88056961D01*
X136572489Y-88011206D01*
X136624000Y-88000000D01*
X140276000Y-88000000D01*
X140343039Y-88019685D01*
G37*
%TD.AperFunction*%
%TD*%
%TA.AperFunction,Conductor*%
%TO.N,GNDA*%
G36*
X108294032Y-89019962D02*
G01*
X108324891Y-89043641D01*
X109456359Y-90175109D01*
X109494923Y-90241904D01*
X109500000Y-90280468D01*
X109500000Y-93813282D01*
X109480038Y-93887782D01*
X109456359Y-93918641D01*
X107918641Y-95456359D01*
X107851846Y-95494923D01*
X107813282Y-95500000D01*
X103843750Y-95500000D01*
X102500000Y-96843750D01*
X102500000Y-105009766D01*
X104990234Y-107500000D01*
X112399220Y-107500000D01*
X112473720Y-107519962D01*
X112504579Y-107543641D01*
X114456359Y-109495421D01*
X114466166Y-109512408D01*
X114480038Y-109526280D01*
X114485115Y-109545228D01*
X114494923Y-109562216D01*
X114500000Y-109600780D01*
X114500000Y-109667438D01*
X114480038Y-109741938D01*
X114425500Y-109796476D01*
X114351000Y-109816438D01*
X114276500Y-109796476D01*
X114266152Y-109789920D01*
X114107239Y-109679824D01*
X114107238Y-109679823D01*
X114107236Y-109679822D01*
X113906394Y-109588596D01*
X113692481Y-109534695D01*
X113624964Y-109529382D01*
X113562933Y-109524500D01*
X113562925Y-109524500D01*
X112987075Y-109524500D01*
X112987072Y-109524500D01*
X112987068Y-109524501D01*
X112957805Y-109526803D01*
X112857514Y-109534695D01*
X112643603Y-109588596D01*
X112442763Y-109679822D01*
X112261431Y-109805450D01*
X112105450Y-109961431D01*
X111979822Y-110142763D01*
X111888596Y-110343605D01*
X111834695Y-110557517D01*
X111834695Y-110557520D01*
X111824500Y-110687073D01*
X111824500Y-111312924D01*
X111824501Y-111312927D01*
X111834695Y-111442485D01*
X111888596Y-111656396D01*
X111979822Y-111857236D01*
X111979823Y-111857238D01*
X111979824Y-111857239D01*
X112105449Y-112038567D01*
X112261433Y-112194551D01*
X112442761Y-112320176D01*
X112442762Y-112320176D01*
X112442763Y-112320177D01*
X112543184Y-112365790D01*
X112643607Y-112411404D01*
X112857515Y-112465304D01*
X112987067Y-112475500D01*
X113562932Y-112475499D01*
X113692485Y-112465304D01*
X113906393Y-112411404D01*
X113906394Y-112411403D01*
X113906396Y-112411403D01*
X114079972Y-112332561D01*
X114107239Y-112320176D01*
X114266150Y-112210081D01*
X114338753Y-112184065D01*
X114414642Y-112197836D01*
X114473478Y-112247707D01*
X114499496Y-112320314D01*
X114500000Y-112332561D01*
X114500000Y-115594532D01*
X114480038Y-115669032D01*
X114456359Y-115699891D01*
X113699891Y-116456359D01*
X113633096Y-116494923D01*
X113594532Y-116500000D01*
X111186718Y-116500000D01*
X111112218Y-116480038D01*
X111081359Y-116456359D01*
X110043641Y-115418641D01*
X110005077Y-115351846D01*
X110000000Y-115313282D01*
X110000000Y-112843750D01*
X109156250Y-112000000D01*
X100399500Y-112000000D01*
X100325000Y-111980038D01*
X100270462Y-111925500D01*
X100250500Y-111851000D01*
X100250500Y-89149000D01*
X100270462Y-89074500D01*
X100325000Y-89019962D01*
X100399500Y-89000000D01*
X108219532Y-89000000D01*
X108294032Y-89019962D01*
G37*
%TD.AperFunction*%
%TD*%
%TA.AperFunction,Conductor*%
%TO.N,GND*%
G36*
X201925500Y-88019962D02*
G01*
X201980038Y-88074500D01*
X202000000Y-88149000D01*
X202000000Y-93500000D01*
X209313282Y-93500000D01*
X209387782Y-93519962D01*
X209418641Y-93543641D01*
X210956359Y-95081359D01*
X210994923Y-95148154D01*
X211000000Y-95186718D01*
X211000000Y-98719532D01*
X210980038Y-98794032D01*
X210956359Y-98824891D01*
X209824891Y-99956359D01*
X209758096Y-99994923D01*
X209719532Y-100000000D01*
X205375000Y-100000000D01*
X203500000Y-101875000D01*
X203500000Y-109813282D01*
X203480038Y-109887782D01*
X203456359Y-109918641D01*
X201918641Y-111456359D01*
X201851846Y-111494923D01*
X201813282Y-111500000D01*
X198280468Y-111500000D01*
X198205968Y-111480038D01*
X198175109Y-111456359D01*
X197043641Y-110324891D01*
X197005077Y-110258096D01*
X197000000Y-110219532D01*
X197000000Y-102875000D01*
X194125000Y-100000000D01*
X193941595Y-100000000D01*
X193867095Y-99980038D01*
X193854014Y-99971543D01*
X193833115Y-99956359D01*
X193827815Y-99952508D01*
X193757193Y-99901197D01*
X193757185Y-99901193D01*
X193527824Y-99784328D01*
X193527822Y-99784327D01*
X193527814Y-99784323D01*
X193527810Y-99784321D01*
X193527804Y-99784319D01*
X193282982Y-99704772D01*
X193210333Y-99693265D01*
X193028717Y-99664500D01*
X192771283Y-99664500D01*
X192612368Y-99689670D01*
X192517017Y-99704772D01*
X192272195Y-99784319D01*
X192272175Y-99784328D01*
X192042814Y-99901193D01*
X192042806Y-99901197D01*
X191945986Y-99971543D01*
X191873981Y-99999184D01*
X191858405Y-100000000D01*
X188074663Y-100000000D01*
X188000163Y-99980038D01*
X187969308Y-99956362D01*
X187965457Y-99952511D01*
X187894827Y-99901195D01*
X187757193Y-99801197D01*
X187757185Y-99801193D01*
X187724085Y-99784328D01*
X187527814Y-99684323D01*
X187527810Y-99684321D01*
X187527804Y-99684319D01*
X187282982Y-99604772D01*
X187210333Y-99593265D01*
X187028717Y-99564500D01*
X186771283Y-99564500D01*
X186612368Y-99589670D01*
X186517017Y-99604772D01*
X186272195Y-99684319D01*
X186272175Y-99684328D01*
X186042814Y-99801193D01*
X186042806Y-99801197D01*
X185834546Y-99952508D01*
X185834543Y-99952511D01*
X185830693Y-99956360D01*
X185763901Y-99994923D01*
X185725337Y-100000000D01*
X180186718Y-100000000D01*
X180112218Y-99980038D01*
X180081359Y-99956359D01*
X178543641Y-98418641D01*
X178505077Y-98351846D01*
X178500000Y-98313282D01*
X178500000Y-93649000D01*
X178519962Y-93574500D01*
X178574500Y-93519962D01*
X178649000Y-93500000D01*
X186125000Y-93500000D01*
X187500000Y-92125000D01*
X187500000Y-88149000D01*
X187519962Y-88074500D01*
X187574500Y-88019962D01*
X187649000Y-88000000D01*
X201851000Y-88000000D01*
X201925500Y-88019962D01*
G37*
%TD.AperFunction*%
%TD*%
%TA.AperFunction,Conductor*%
%TO.N,+5VA*%
G36*
X157768242Y-104769685D02*
G01*
X157813997Y-104822489D01*
X157823941Y-104891647D01*
X157804305Y-104942891D01*
X157764505Y-105002455D01*
X157764503Y-105002459D01*
X157750000Y-105075371D01*
X157750000Y-106424628D01*
X157764503Y-106497540D01*
X157764505Y-106497544D01*
X157819760Y-106580239D01*
X157902455Y-106635494D01*
X157902459Y-106635496D01*
X157975371Y-106649999D01*
X157975374Y-106650000D01*
X160024626Y-106650000D01*
X160024628Y-106649999D01*
X160097540Y-106635496D01*
X160097544Y-106635494D01*
X160180239Y-106580239D01*
X160235494Y-106497544D01*
X160235496Y-106497540D01*
X160249999Y-106424628D01*
X160250000Y-106424626D01*
X160250000Y-105075373D01*
X160249999Y-105075371D01*
X160235496Y-105002459D01*
X160235494Y-105002455D01*
X160195695Y-104942891D01*
X160174817Y-104876214D01*
X160193301Y-104808833D01*
X160245280Y-104762143D01*
X160298797Y-104750000D01*
X160626000Y-104750000D01*
X160693039Y-104769685D01*
X160738794Y-104822489D01*
X160750000Y-104874000D01*
X160750000Y-111209277D01*
X160730315Y-111276316D01*
X160713911Y-111296728D01*
X158615969Y-113405688D01*
X158554733Y-113439334D01*
X158528707Y-113442235D01*
X148562485Y-113494434D01*
X147500000Y-114562499D01*
X147500000Y-117626000D01*
X147480315Y-117693039D01*
X147427511Y-117738794D01*
X147376000Y-117750000D01*
X147259842Y-117750000D01*
X147192803Y-117730315D01*
X147147048Y-117677511D01*
X147137104Y-117608353D01*
X147166129Y-117544797D01*
X147172161Y-117538319D01*
X147180239Y-117530240D01*
X147235494Y-117447544D01*
X147235496Y-117447540D01*
X147249999Y-117374628D01*
X147250000Y-117374626D01*
X147250000Y-113425373D01*
X147249999Y-113425371D01*
X147235496Y-113352459D01*
X147235494Y-113352455D01*
X147180239Y-113269760D01*
X147097544Y-113214505D01*
X147097540Y-113214503D01*
X147024627Y-113200000D01*
X144975373Y-113200000D01*
X144902459Y-113214503D01*
X144902455Y-113214505D01*
X144819760Y-113269760D01*
X144764505Y-113352455D01*
X144764503Y-113352459D01*
X144750000Y-113425371D01*
X144750000Y-117374628D01*
X144764503Y-117447540D01*
X144764505Y-117447544D01*
X144819760Y-117530240D01*
X144827839Y-117538319D01*
X144861324Y-117599642D01*
X144856340Y-117669334D01*
X144814468Y-117725267D01*
X144749004Y-117749684D01*
X144740158Y-117750000D01*
X144624000Y-117750000D01*
X144556961Y-117730315D01*
X144511206Y-117677511D01*
X144500000Y-117626000D01*
X144500000Y-116625000D01*
X144125000Y-116250000D01*
X142124000Y-116250000D01*
X142056961Y-116230315D01*
X142011206Y-116177511D01*
X142000000Y-116126000D01*
X142000000Y-112889069D01*
X142019685Y-112822030D01*
X142036570Y-112801138D01*
X143100913Y-111742859D01*
X143162328Y-111709551D01*
X143189042Y-111706794D01*
X150125010Y-111746429D01*
X150750000Y-111125000D01*
X150750000Y-109770112D01*
X150769685Y-109703073D01*
X150786319Y-109682431D01*
X151182431Y-109286319D01*
X151243754Y-109252834D01*
X151270112Y-109250000D01*
X155178938Y-109250000D01*
X155245977Y-109269685D01*
X155291732Y-109322489D01*
X155301676Y-109391647D01*
X155272651Y-109455203D01*
X155266619Y-109461681D01*
X155247400Y-109480900D01*
X155247400Y-111741500D01*
X158752600Y-111741500D01*
X158752600Y-109480900D01*
X157068462Y-109480900D01*
X157001423Y-109461215D01*
X156955668Y-109408411D01*
X156945724Y-109339253D01*
X156974749Y-109275697D01*
X156980781Y-109269219D01*
X157000000Y-109250000D01*
X157000000Y-104874000D01*
X157019685Y-104806961D01*
X157072489Y-104761206D01*
X157124000Y-104750000D01*
X157701203Y-104750000D01*
X157768242Y-104769685D01*
G37*
%TD.AperFunction*%
%TD*%
%TA.AperFunction,Conductor*%
%TO.N,+21VA*%
G36*
X140343039Y-72319685D02*
G01*
X140388794Y-72372489D01*
X140400000Y-72424000D01*
X140400000Y-74976000D01*
X140380315Y-75043039D01*
X140327511Y-75088794D01*
X140276000Y-75100000D01*
X136624000Y-75100000D01*
X136556961Y-75080315D01*
X136511206Y-75027511D01*
X136500000Y-74976000D01*
X136500000Y-72424000D01*
X136519685Y-72356961D01*
X136572489Y-72311206D01*
X136624000Y-72300000D01*
X140276000Y-72300000D01*
X140343039Y-72319685D01*
G37*
%TD.AperFunction*%
%TD*%
%TA.AperFunction,Conductor*%
%TO.N,GNDA*%
G36*
X117877416Y-43513338D02*
G01*
X117925317Y-43535096D01*
X118143588Y-43590096D01*
X118275783Y-43600500D01*
X119304216Y-43600499D01*
X119436412Y-43590096D01*
X119654683Y-43535096D01*
X119702583Y-43513338D01*
X119764203Y-43500000D01*
X120815797Y-43500000D01*
X120877416Y-43513338D01*
X120925317Y-43535096D01*
X121143588Y-43590096D01*
X121275783Y-43600500D01*
X122304216Y-43600499D01*
X122436412Y-43590096D01*
X122654683Y-43535096D01*
X122702583Y-43513338D01*
X122764203Y-43500000D01*
X122851000Y-43500000D01*
X122925500Y-43519962D01*
X122980038Y-43574500D01*
X123000000Y-43649000D01*
X123000000Y-44851000D01*
X122980038Y-44925500D01*
X122925500Y-44980038D01*
X122851000Y-45000000D01*
X112875000Y-45000000D01*
X109500000Y-48375000D01*
X109500000Y-57563282D01*
X109480038Y-57637782D01*
X109456359Y-57668641D01*
X108168641Y-58956359D01*
X108101846Y-58994923D01*
X108063282Y-59000000D01*
X104149000Y-59000000D01*
X104074500Y-58980038D01*
X104019962Y-58925500D01*
X104000000Y-58851000D01*
X104000000Y-47436718D01*
X104019962Y-47362218D01*
X104043641Y-47331359D01*
X107831359Y-43543641D01*
X107898154Y-43505077D01*
X107936718Y-43500000D01*
X117815797Y-43500000D01*
X117877416Y-43513338D01*
G37*
%TD.AperFunction*%
%TD*%
%TA.AperFunction,Conductor*%
%TO.N,+21VA*%
G36*
X140343039Y-56319685D02*
G01*
X140388794Y-56372489D01*
X140400000Y-56424000D01*
X140400000Y-58166000D01*
X140380315Y-58233039D01*
X140327511Y-58278794D01*
X140276000Y-58290000D01*
X136624000Y-58290000D01*
X136556961Y-58270315D01*
X136511206Y-58217511D01*
X136500000Y-58166000D01*
X136500000Y-56424000D01*
X136519685Y-56356961D01*
X136572489Y-56311206D01*
X136624000Y-56300000D01*
X140276000Y-56300000D01*
X140343039Y-56319685D01*
G37*
%TD.AperFunction*%
%TD*%
M02*
