%TF.GenerationSoftware,KiCad,Pcbnew,10.0.5*%
%TF.CreationDate,2026-09-10T12:24:19+07:00*%
%TF.ProjectId,main_controller_hat,6d61696e-5f63-46f6-9e74-726f6c6c6572,rev?*%
%TF.SameCoordinates,Original*%
%TF.FileFunction,Soldermask,Bot*%
%TF.FilePolarity,Negative*%
%FSLAX46Y46*%
G04 Gerber Fmt 4.6, Leading zero omitted, Abs format (unit mm)*
G04 Created by KiCad (PCBNEW 10.0.5) date 2026-09-10 12:24:19*
%MOMM*%
%LPD*%
G01*
G04 APERTURE LIST*
G04 Aperture macros list*
%AMRoundRect*
0 Rectangle with rounded corners*
0 $1 Rounding radius*
0 $2 $3 $4 $5 $6 $7 $8 $9 X,Y pos of 4 corners*
0 Add a 4 corners polygon primitive as box body*
4,1,4,$2,$3,$4,$5,$6,$7,$8,$9,$2,$3,0*
0 Add four circle primitives for the rounded corners*
1,1,$1+$1,$2,$3*
1,1,$1+$1,$4,$5*
1,1,$1+$1,$6,$7*
1,1,$1+$1,$8,$9*
0 Add four rect primitives between the rounded corners*
20,1,$1+$1,$2,$3,$4,$5,0*
20,1,$1+$1,$4,$5,$6,$7,0*
20,1,$1+$1,$6,$7,$8,$9,0*
20,1,$1+$1,$8,$9,$2,$3,0*%
G04 Aperture macros list end*
%ADD10C,1.400000*%
%ADD11C,3.700000*%
%ADD12C,5.700000*%
%ADD13RoundRect,0.299999X0.790001X1.550001X-0.790001X1.550001X-0.790001X-1.550001X0.790001X-1.550001X0*%
%ADD14O,2.180000X3.700000*%
%ADD15RoundRect,0.050000X0.850000X0.850000X-0.850000X0.850000X-0.850000X-0.850000X0.850000X-0.850000X0*%
%ADD16C,1.800000*%
%ADD17RoundRect,0.300000X-0.600000X-0.725000X0.600000X-0.725000X0.600000X0.725000X-0.600000X0.725000X0*%
%ADD18O,1.800000X2.050000*%
%ADD19RoundRect,0.300000X-1.050000X1.050000X-1.050000X-1.050000X1.050000X-1.050000X1.050000X1.050000X0*%
%ADD20C,2.700000*%
%ADD21RoundRect,0.299999X-0.790001X-1.550001X0.790001X-1.550001X0.790001X1.550001X-0.790001X1.550001X0*%
%ADD22RoundRect,0.050000X-0.650000X-0.650000X0.650000X-0.650000X0.650000X0.650000X-0.650000X0.650000X0*%
%ADD23RoundRect,0.050000X-0.850000X-0.850000X0.850000X-0.850000X0.850000X0.850000X-0.850000X0.850000X0*%
%ADD24C,3.350000*%
%ADD25RoundRect,0.300500X0.499500X0.499500X-0.499500X0.499500X-0.499500X-0.499500X0.499500X-0.499500X0*%
%ADD26C,1.600000*%
%ADD27C,2.600000*%
%ADD28RoundRect,0.050000X-0.800000X0.800000X-0.800000X-0.800000X0.800000X-0.800000X0.800000X0.800000X0*%
%ADD29C,1.700000*%
%ADD30RoundRect,0.050000X-0.650000X0.650000X-0.650000X-0.650000X0.650000X-0.650000X0.650000X0.650000X0*%
%ADD31RoundRect,0.300000X-1.050000X-1.050000X1.050000X-1.050000X1.050000X1.050000X-1.050000X1.050000X0*%
%ADD32RoundRect,0.300000X0.262500X0.450000X-0.262500X0.450000X-0.262500X-0.450000X0.262500X-0.450000X0*%
%ADD33RoundRect,0.200000X-0.150000X0.587500X-0.150000X-0.587500X0.150000X-0.587500X0.150000X0.587500X0*%
%ADD34RoundRect,0.300000X-0.262500X-0.450000X0.262500X-0.450000X0.262500X0.450000X-0.262500X0.450000X0*%
%ADD35RoundRect,0.300000X-0.250000X-0.475000X0.250000X-0.475000X0.250000X0.475000X-0.250000X0.475000X0*%
%ADD36RoundRect,0.300000X-0.450000X0.262500X-0.450000X-0.262500X0.450000X-0.262500X0.450000X0.262500X0*%
G04 APERTURE END LIST*
D10*
%TO.C,*%
X220400000Y-41500000D03*
%TD*%
D11*
%TO.C,H2*%
X104000000Y-24000000D03*
D12*
X104000000Y-24000000D03*
%TD*%
D13*
%TO.C,J8*%
X173085000Y-30777500D03*
D14*
X168005000Y-30777500D03*
X162925000Y-30777500D03*
%TD*%
D15*
%TO.C,J2*%
X253000000Y-79790000D03*
D16*
X253000000Y-77250000D03*
X253000000Y-74710000D03*
X253000000Y-72170000D03*
X253000000Y-69630000D03*
X253000000Y-67090000D03*
X253000000Y-64550000D03*
X253000000Y-62010000D03*
X253000000Y-59470000D03*
X253000000Y-56930000D03*
%TD*%
D17*
%TO.C,J6*%
X208500000Y-53000000D03*
D18*
X211000000Y-53000000D03*
X213500000Y-53000000D03*
X216000000Y-53000000D03*
%TD*%
D10*
%TO.C,*%
X220400000Y-39500000D03*
%TD*%
D19*
%TO.C,J4*%
X105500000Y-57260000D03*
D20*
X105500000Y-62340000D03*
X105500000Y-67420000D03*
X105500000Y-72500000D03*
X105500000Y-77580000D03*
X105500000Y-82660000D03*
%TD*%
D10*
%TO.C,*%
X222400000Y-39500000D03*
%TD*%
D11*
%TO.C,H3*%
X104000000Y-116000000D03*
D12*
X104000000Y-116000000D03*
%TD*%
D21*
%TO.C,J11*%
X176380000Y-109222500D03*
D14*
X181460000Y-109222500D03*
X186540000Y-109222500D03*
X191620000Y-109222500D03*
%TD*%
D22*
%TO.C,*%
X220400000Y-37500000D03*
%TD*%
D23*
%TO.C,J9*%
X253000000Y-39300000D03*
D16*
X253000000Y-41840000D03*
X253000000Y-44380000D03*
X253000000Y-46920000D03*
X253000000Y-49460000D03*
X253000000Y-52000000D03*
%TD*%
D13*
%TO.C,J5*%
X193085000Y-30777500D03*
D14*
X188005000Y-30777500D03*
X182925000Y-30777500D03*
%TD*%
D10*
%TO.C,*%
X222400000Y-41500000D03*
%TD*%
%TO.C,*%
X222400000Y-37500000D03*
%TD*%
D11*
%TO.C,H1*%
X256000000Y-24000000D03*
D12*
X256000000Y-24000000D03*
%TD*%
D24*
%TO.C,J7*%
X215130000Y-31780000D03*
X203700000Y-31780000D03*
D25*
X213855000Y-38140000D03*
D26*
X212595000Y-40680000D03*
X211315000Y-38140000D03*
X210055000Y-40680000D03*
X208775000Y-38140000D03*
X207515000Y-40680000D03*
X206235000Y-38140000D03*
X204975000Y-40680000D03*
X216040000Y-26880000D03*
X213500000Y-26880000D03*
X205330000Y-26880000D03*
X202790000Y-26880000D03*
D27*
X217160000Y-34830000D03*
X201670000Y-34830000D03*
%TD*%
D28*
%TO.C,U3*%
X229760000Y-21900000D03*
D29*
X229760000Y-24440000D03*
X229760000Y-26980000D03*
X229760000Y-29520000D03*
X229760000Y-32060000D03*
X229760000Y-34600000D03*
X229760000Y-37140000D03*
X229760000Y-39680000D03*
X229760000Y-42220000D03*
X229760000Y-44760000D03*
X229760000Y-47300000D03*
X229760000Y-49840000D03*
X229760000Y-52380000D03*
X229760000Y-54920000D03*
X229760000Y-57460000D03*
X229760000Y-60000000D03*
X229760000Y-62540000D03*
X229760000Y-65080000D03*
X229760000Y-67620000D03*
X229760000Y-70160000D03*
X229760000Y-72700000D03*
X229760000Y-75240000D03*
X229760000Y-77780000D03*
X229760000Y-80320000D03*
X245000000Y-80320000D03*
X245000000Y-77780000D03*
X245000000Y-75240000D03*
X245000000Y-72700000D03*
X245000000Y-70160000D03*
X245000000Y-67620000D03*
X245000000Y-65080000D03*
X245000000Y-62540000D03*
X245000000Y-60000000D03*
X245000000Y-57460000D03*
X245000000Y-54920000D03*
X245000000Y-52380000D03*
X245000000Y-49840000D03*
X245000000Y-47300000D03*
X245000000Y-44760000D03*
X245000000Y-42220000D03*
X245000000Y-39680000D03*
X245000000Y-37140000D03*
X245000000Y-34600000D03*
X245000000Y-32060000D03*
X245000000Y-29520000D03*
X245000000Y-26980000D03*
X245000000Y-24440000D03*
X245000000Y-21900000D03*
D30*
X242561600Y-34870000D03*
D10*
X240561600Y-34870000D03*
X238561600Y-34870000D03*
X238561600Y-36870000D03*
X240561600Y-36870000D03*
X242561600Y-36870000D03*
%TD*%
D31*
%TO.C,J1*%
X241920000Y-114000000D03*
D20*
X247000000Y-114000000D03*
%TD*%
D11*
%TO.C,H4*%
X256000000Y-116000000D03*
D12*
X256000000Y-116000000D03*
%TD*%
D21*
%TO.C,J10*%
X200880000Y-109222500D03*
D14*
X205960000Y-109222500D03*
X211040000Y-109222500D03*
X216120000Y-109222500D03*
%TD*%
D23*
%TO.C,J3*%
X148600000Y-94200000D03*
D16*
X148600000Y-96740000D03*
%TD*%
D32*
%TO.C,R32*%
X198825000Y-98000000D03*
X197000000Y-98000000D03*
%TD*%
D33*
%TO.C,Q4*%
X191000000Y-92000000D03*
X192900000Y-92000000D03*
X191950000Y-93875000D03*
%TD*%
D34*
%TO.C,R31*%
X203000000Y-88000000D03*
X204825000Y-88000000D03*
%TD*%
D32*
%TO.C,R28*%
X186912500Y-98000000D03*
X185087500Y-98000000D03*
%TD*%
D34*
%TO.C,R26*%
X185087500Y-88000000D03*
X186912500Y-88000000D03*
%TD*%
D32*
%TO.C,R33*%
X204825000Y-98000000D03*
X203000000Y-98000000D03*
%TD*%
D33*
%TO.C,Q3*%
X185000000Y-92000000D03*
X186900000Y-92000000D03*
X185950000Y-93875000D03*
%TD*%
%TO.C,Q5*%
X196962500Y-92125000D03*
X198862500Y-92125000D03*
X197912500Y-94000000D03*
%TD*%
D35*
%TO.C,C12*%
X206800000Y-34800000D03*
X208700000Y-34800000D03*
%TD*%
D36*
%TO.C,R25*%
X220700000Y-26787500D03*
X220700000Y-28612500D03*
%TD*%
D34*
%TO.C,R27*%
X191087500Y-88000000D03*
X192912500Y-88000000D03*
%TD*%
%TO.C,R30*%
X197000000Y-88000000D03*
X198825000Y-88000000D03*
%TD*%
D33*
%TO.C,Q6*%
X202962500Y-92125000D03*
X204862500Y-92125000D03*
X203912500Y-94000000D03*
%TD*%
D32*
%TO.C,R29*%
X192912500Y-98000000D03*
X191087500Y-98000000D03*
%TD*%
M02*
