%TF.GenerationSoftware,KiCad,Pcbnew,9.0.5*%
%TF.CreationDate,2026-08-05T17:44:24+07:00*%
%TF.ProjectId,ISR_AWCS,4953525f-4157-4435-932e-6b696361645f,rev?*%
%TF.SameCoordinates,Original*%
%TF.FileFunction,Copper,L2,Inr*%
%TF.FilePolarity,Positive*%
%FSLAX46Y46*%
G04 Gerber Fmt 4.6, Leading zero omitted, Abs format (unit mm)*
G04 Created by KiCad (PCBNEW 9.0.5) date 2026-08-05 17:44:24*
%MOMM*%
%LPD*%
G01*
G04 APERTURE LIST*
G04 Aperture macros list*
%AMRoundRect*
0 Rectangle with rounded corners*
0 $1 Rounding radius*
0 $2 $3 $4 $5 $6 $7 $8 $9 X,Y pos of 4 corners*
0 Add a 4 corners polygon primitive as box body*
4,1,4,$2,$3,$4,$5,$6,$7,$8,$9,$2,$3,0*
0 Add four circle primitives for the rounded corners*
1,1,$1+$1,$2,$3*
1,1,$1+$1,$4,$5*
1,1,$1+$1,$6,$7*
1,1,$1+$1,$8,$9*
0 Add four rect primitives between the rounded corners*
20,1,$1+$1,$2,$3,$4,$5,0*
20,1,$1+$1,$4,$5,$6,$7,0*
20,1,$1+$1,$6,$7,$8,$9,0*
20,1,$1+$1,$8,$9,$2,$3,0*%
G04 Aperture macros list end*
%TA.AperFunction,ComponentPad*%
%ADD10RoundRect,0.250000X0.550000X0.550000X-0.550000X0.550000X-0.550000X-0.550000X0.550000X-0.550000X0*%
%TD*%
%TA.AperFunction,ComponentPad*%
%ADD11C,1.600000*%
%TD*%
%TA.AperFunction,ComponentPad*%
%ADD12C,3.600000*%
%TD*%
%TA.AperFunction,ComponentPad*%
%ADD13RoundRect,0.249999X0.790001X1.550001X-0.790001X1.550001X-0.790001X-1.550001X0.790001X-1.550001X0*%
%TD*%
%TA.AperFunction,ComponentPad*%
%ADD14O,2.080000X3.600000*%
%TD*%
%TA.AperFunction,ComponentPad*%
%ADD15R,1.700000X1.700000*%
%TD*%
%TA.AperFunction,ComponentPad*%
%ADD16C,1.700000*%
%TD*%
%TA.AperFunction,ComponentPad*%
%ADD17RoundRect,0.250500X-0.499500X-0.499500X0.499500X-0.499500X0.499500X0.499500X-0.499500X0.499500X0*%
%TD*%
%TA.AperFunction,ComponentPad*%
%ADD18C,1.500000*%
%TD*%
%TA.AperFunction,ComponentPad*%
%ADD19C,2.500000*%
%TD*%
%TA.AperFunction,ComponentPad*%
%ADD20RoundRect,0.250000X-0.600000X-0.725000X0.600000X-0.725000X0.600000X0.725000X-0.600000X0.725000X0*%
%TD*%
%TA.AperFunction,ComponentPad*%
%ADD21O,1.700000X1.950000*%
%TD*%
%TA.AperFunction,ComponentPad*%
%ADD22RoundRect,0.250000X-1.050000X1.050000X-1.050000X-1.050000X1.050000X-1.050000X1.050000X1.050000X0*%
%TD*%
%TA.AperFunction,ComponentPad*%
%ADD23C,2.600000*%
%TD*%
%TA.AperFunction,ComponentPad*%
%ADD24RoundRect,0.249999X-0.790001X-1.550001X0.790001X-1.550001X0.790001X1.550001X-0.790001X1.550001X0*%
%TD*%
%TA.AperFunction,ComponentPad*%
%ADD25R,1.600000X1.600000*%
%TD*%
%TA.AperFunction,ComponentPad*%
%ADD26R,1.300000X1.300000*%
%TD*%
%TA.AperFunction,ComponentPad*%
%ADD27C,1.300000*%
%TD*%
%TA.AperFunction,ComponentPad*%
%ADD28RoundRect,0.250000X-1.050000X-1.050000X1.050000X-1.050000X1.050000X1.050000X-1.050000X1.050000X0*%
%TD*%
%TA.AperFunction,ViaPad*%
%ADD29C,1.270000*%
%TD*%
G04 APERTURE END LIST*
D10*
%TO.N,unconnected-(U11-NC-Pad1)*%
%TO.C,U11*%
X153805000Y-98310000D03*
D11*
%TO.N,LPWM1*%
X153805000Y-95770000D03*
%TO.N,GND*%
X153805000Y-93230000D03*
%TO.N,unconnected-(U11-NC-Pad4)*%
X153805000Y-90690000D03*
%TO.N,GNDA*%
X146185000Y-90690000D03*
%TO.N,Net-(U11-VO)*%
X146185000Y-93230000D03*
%TO.N,+5VA*%
X146185000Y-95770000D03*
X146185000Y-98310000D03*
%TD*%
D12*
%TO.N,N/C*%
%TO.C,H1*%
X104000000Y-24000000D03*
%TD*%
D13*
%TO.N,GND*%
%TO.C,J6*%
X173085000Y-30777500D03*
D14*
%TO.N,TX*%
X168005000Y-30777500D03*
%TO.N,RX*%
X162925000Y-30777500D03*
%TD*%
D10*
%TO.N,unconnected-(U10-NC-Pad1)*%
%TO.C,U10*%
X154120000Y-66580000D03*
D11*
%TO.N,LPWM*%
X154120000Y-64040000D03*
%TO.N,GND*%
X154120000Y-61500000D03*
%TO.N,unconnected-(U10-NC-Pad4)*%
X154120000Y-58960000D03*
%TO.N,GNDA*%
X146500000Y-58960000D03*
%TO.N,Net-(U10-VO)*%
X146500000Y-61500000D03*
%TO.N,+5VA*%
X146500000Y-64040000D03*
X146500000Y-66580000D03*
%TD*%
D15*
%TO.N,Net-(J2-Pin_1)*%
%TO.C,J2*%
X253000000Y-79790000D03*
D16*
%TO.N,Net-(J2-Pin_2)*%
X253000000Y-77250000D03*
%TO.N,Net-(J2-Pin_3)*%
X253000000Y-74710000D03*
%TO.N,Net-(J2-Pin_4)*%
X253000000Y-72170000D03*
%TO.N,Net-(J2-Pin_5)*%
X253000000Y-69630000D03*
%TO.N,Net-(J2-Pin_6)*%
X253000000Y-67090000D03*
%TO.N,Net-(J2-Pin_7)*%
X253000000Y-64550000D03*
%TO.N,Net-(J2-Pin_8)*%
X253000000Y-62010000D03*
%TO.N,Net-(J2-Pin_9)*%
X253000000Y-59470000D03*
%TO.N,Net-(J2-Pin_10)*%
X253000000Y-56930000D03*
%TD*%
D10*
%TO.N,unconnected-(U7-NC-Pad1)*%
%TO.C,U7*%
X154120000Y-82580000D03*
D11*
%TO.N,RPWM1*%
X154120000Y-80040000D03*
%TO.N,GND*%
X154120000Y-77500000D03*
%TO.N,unconnected-(U7-NC-Pad4)*%
X154120000Y-74960000D03*
%TO.N,GNDA*%
X146500000Y-74960000D03*
%TO.N,Net-(U7-VO)*%
X146500000Y-77500000D03*
%TO.N,+5VA*%
X146500000Y-80040000D03*
X146500000Y-82580000D03*
%TD*%
D17*
%TO.N,T+*%
%TO.C,J3*%
X207560000Y-24390000D03*
D18*
%TO.N,T-*%
X208820000Y-21850000D03*
%TO.N,R+*%
X210100000Y-24390000D03*
%TO.N,Net-(J3-RCT)*%
X211360000Y-21850000D03*
X212640000Y-24390000D03*
%TO.N,R-*%
X213900000Y-21850000D03*
%TO.N,unconnected-(J3-NC-Pad7)*%
X215180000Y-24390000D03*
%TO.N,GND*%
X216440000Y-21850000D03*
%TO.N,Net-(J3-Pad9)*%
X205375000Y-35650000D03*
%TO.N,GND*%
X207915000Y-35650000D03*
X216085000Y-35650000D03*
%TO.N,LED*%
X218625000Y-35650000D03*
D19*
%TO.N,unconnected-(J3-PadSH)*%
X204255000Y-27700000D03*
X219745000Y-27700000D03*
%TD*%
D20*
%TO.N,GND*%
%TO.C,J5*%
X208500000Y-53000000D03*
D21*
%TO.N,+3.3V*%
X211000000Y-53000000D03*
%TO.N,SDA*%
X213500000Y-53000000D03*
%TO.N,SCL*%
X216000000Y-53000000D03*
%TD*%
D22*
%TO.N,GNDA*%
%TO.C,J14*%
X105500000Y-57260000D03*
D23*
%TO.N,+BATT*%
X105500000Y-62340000D03*
%TO.N,M1_R*%
X105500000Y-67420000D03*
%TO.N,M1_L*%
X105500000Y-72500000D03*
%TO.N,M2_R*%
X105500000Y-77580000D03*
%TO.N,M2_L*%
X105500000Y-82660000D03*
%TD*%
D12*
%TO.N,N/C*%
%TO.C,H3*%
X104000000Y-116000000D03*
%TD*%
D24*
%TO.N,GND*%
%TO.C,J8*%
X176380000Y-109222500D03*
D14*
%TO.N,Net-(J8-Pin_2)*%
X181460000Y-109222500D03*
%TO.N,Net-(J8-Pin_3)*%
X186540000Y-109222500D03*
%TO.N,+5V*%
X191620000Y-109222500D03*
%TD*%
D15*
%TO.N,GND*%
%TO.C,J9*%
X253000000Y-39300000D03*
D16*
%TO.N,unconnected-(J9-Pin_2-Pad2)*%
X253000000Y-41840000D03*
%TO.N,unconnected-(J9-Pin_3-Pad3)*%
X253000000Y-44380000D03*
%TO.N,SCL*%
X253000000Y-46920000D03*
%TO.N,SDA*%
X253000000Y-49460000D03*
%TO.N,+3.3V*%
X253000000Y-52000000D03*
%TD*%
D13*
%TO.N,GND*%
%TO.C,J4*%
X193085000Y-30777500D03*
D14*
%TO.N,Net-(J4-Pin_2)*%
X188005000Y-30777500D03*
%TO.N,Net-(J4-Pin_3)*%
X182925000Y-30777500D03*
%TD*%
D10*
%TO.N,unconnected-(U6-NC-Pad1)*%
%TO.C,U6*%
X154120000Y-50580000D03*
D11*
%TO.N,RPWM*%
X154120000Y-48040000D03*
%TO.N,GND*%
X154120000Y-45500000D03*
%TO.N,unconnected-(U6-NC-Pad4)*%
X154120000Y-42960000D03*
%TO.N,GNDA*%
X146500000Y-42960000D03*
%TO.N,Net-(U6-VO)*%
X146500000Y-45500000D03*
%TO.N,+5VA*%
X146500000Y-48040000D03*
X146500000Y-50580000D03*
%TD*%
D12*
%TO.N,N/C*%
%TO.C,H2*%
X256000000Y-24000000D03*
%TD*%
D25*
%TO.N,GND*%
%TO.C,U5*%
X229760000Y-21900000D03*
D11*
%TO.N,unconnected-(U5-0_RX1_CRX2_CS1-Pad2)*%
X229760000Y-24440000D03*
%TO.N,unconnected-(U5-1_TX1_CTX2_MISO1-Pad3)*%
X229760000Y-26980000D03*
%TO.N,RPWM*%
X229760000Y-29520000D03*
%TO.N,LPWM*%
X229760000Y-32060000D03*
%TO.N,RPWM1*%
X229760000Y-34600000D03*
%TO.N,LPWM1*%
X229760000Y-37140000D03*
%TO.N,unconnected-(U5-6_OUT1D-Pad8)*%
X229760000Y-39680000D03*
%TO.N,RX*%
X229760000Y-42220000D03*
%TO.N,TX*%
X229760000Y-44760000D03*
%TO.N,ENC1_A*%
X229760000Y-47300000D03*
%TO.N,ENC1_B*%
X229760000Y-49840000D03*
%TO.N,ENC2_A*%
X229760000Y-52380000D03*
%TO.N,ENC2_B*%
X229760000Y-54920000D03*
%TO.N,unconnected-(U5-3V3-Pad15)*%
X229760000Y-57460000D03*
%TO.N,unconnected-(U5-24_A10_TX6_SCL2-Pad16)*%
X229760000Y-60000000D03*
%TO.N,unconnected-(U5-25_A11_RX6_SDA2-Pad17)*%
X229760000Y-62540000D03*
%TO.N,unconnected-(U5-26_A12_MOSI1-Pad18)*%
X229760000Y-65080000D03*
%TO.N,unconnected-(U5-27_A13_SCK1-Pad19)*%
X229760000Y-67620000D03*
%TO.N,unconnected-(U5-28_RX7-Pad20)*%
X229760000Y-70160000D03*
%TO.N,unconnected-(U5-29_TX7-Pad21)*%
X229760000Y-72700000D03*
%TO.N,unconnected-(U5-30_CRX3-Pad22)*%
X229760000Y-75240000D03*
%TO.N,unconnected-(U5-31_CTX3-Pad23)*%
X229760000Y-77780000D03*
%TO.N,unconnected-(U5-32_OUT1B-Pad24)*%
X229760000Y-80320000D03*
%TO.N,Net-(J2-Pin_1)*%
X245000000Y-80320000D03*
%TO.N,Net-(J2-Pin_2)*%
X245000000Y-77780000D03*
%TO.N,Net-(J2-Pin_3)*%
X245000000Y-75240000D03*
%TO.N,Net-(J2-Pin_4)*%
X245000000Y-72700000D03*
%TO.N,Net-(J2-Pin_5)*%
X245000000Y-70160000D03*
%TO.N,Net-(J2-Pin_6)*%
X245000000Y-67620000D03*
%TO.N,Net-(J2-Pin_7)*%
X245000000Y-65080000D03*
%TO.N,Net-(J2-Pin_8)*%
X245000000Y-62540000D03*
%TO.N,Net-(J2-Pin_9)*%
X245000000Y-60000000D03*
%TO.N,unconnected-(U5-GND-Pad34)*%
X245000000Y-57460000D03*
%TO.N,Net-(J2-Pin_10)*%
X245000000Y-54920000D03*
%TO.N,unconnected-(U5-14_A0_TX3_SPDIF_OUT-Pad36)*%
X245000000Y-52380000D03*
%TO.N,unconnected-(U5-15_A1_RX3_SPDIF_IN-Pad37)*%
X245000000Y-49840000D03*
%TO.N,unconnected-(U5-16_A2_RX4_SCL1-Pad38)*%
X245000000Y-47300000D03*
%TO.N,unconnected-(U5-17_A3_TX4_SDA1-Pad39)*%
X245000000Y-44760000D03*
%TO.N,SDA*%
X245000000Y-42220000D03*
%TO.N,SCL*%
X245000000Y-39680000D03*
%TO.N,unconnected-(U5-20_A6_TX5_LRCLK1-Pad42)*%
X245000000Y-37140000D03*
%TO.N,unconnected-(U5-21_A7_RX5_BCLK1-Pad43)*%
X245000000Y-34600000D03*
%TO.N,CTX1*%
X245000000Y-32060000D03*
%TO.N,CRX1*%
X245000000Y-29520000D03*
%TO.N,unconnected-(U5-3V3-Pad46)*%
X245000000Y-26980000D03*
%TO.N,unconnected-(U5-GND-Pad47)*%
X245000000Y-24440000D03*
%TO.N,+5V*%
X245000000Y-21900000D03*
D26*
%TO.N,R+*%
X242561600Y-34870000D03*
D27*
%TO.N,LED*%
X240561600Y-34870000D03*
%TO.N,T-*%
X238561600Y-34870000D03*
%TO.N,T+*%
X238561600Y-36870000D03*
%TO.N,unconnected-(U5-GND-Pad64)*%
X240561600Y-36870000D03*
%TO.N,R-*%
X242561600Y-36870000D03*
%TD*%
D28*
%TO.N,GND*%
%TO.C,J1*%
X241920000Y-114000000D03*
D23*
%TO.N,Net-(J1-Pin_2)*%
X247000000Y-114000000D03*
%TD*%
D12*
%TO.N,N/C*%
%TO.C,H4*%
X256000000Y-116000000D03*
%TD*%
D24*
%TO.N,GND*%
%TO.C,J7*%
X200880000Y-109222500D03*
D14*
%TO.N,Net-(J7-Pin_2)*%
X205960000Y-109222500D03*
%TO.N,Net-(J7-Pin_3)*%
X211040000Y-109222500D03*
%TO.N,+5V*%
X216120000Y-109222500D03*
%TD*%
D29*
%TO.N,GND*%
X214500000Y-91000000D03*
X191000000Y-37000000D03*
X230500000Y-95100000D03*
X186050000Y-58000000D03*
X184500000Y-37000000D03*
X252500000Y-83100000D03*
X194000000Y-66500000D03*
X173000000Y-66000000D03*
X209500000Y-76000000D03*
X173000000Y-58000000D03*
%TO.N,+5V*%
X195200000Y-103900000D03*
X192900000Y-101300000D03*
X186900000Y-101200000D03*
%TO.N,+3.3V*%
X221625000Y-83125000D03*
X215750000Y-70500000D03*
X210000000Y-45250000D03*
X223500000Y-85000000D03*
X219750000Y-81250000D03*
X202000000Y-37250000D03*
X250750000Y-86750000D03*
%TO.N,+21VA*%
X139000000Y-88800000D03*
X131500000Y-31400000D03*
X104800000Y-101300000D03*
X139000000Y-73000000D03*
X139000000Y-40700000D03*
X129900000Y-31400000D03*
X139000000Y-57000000D03*
%TO.N,+5VA*%
X142700000Y-115400000D03*
X120500000Y-113000000D03*
%TO.N,GNDA*%
X141000000Y-105000000D03*
X143750000Y-50250000D03*
X116500000Y-76000000D03*
X107000000Y-109500000D03*
X105000000Y-109500000D03*
X143500000Y-98310001D03*
X116500000Y-60000000D03*
X116500000Y-92000000D03*
X143689999Y-82310001D03*
X101500000Y-92500000D03*
X101500000Y-90500000D03*
X143000000Y-105000000D03*
X143809999Y-66309999D03*
%TO.N,R+*%
X222000000Y-55000000D03*
X222500000Y-46000000D03*
%TO.N,T+*%
X219250000Y-46000000D03*
X218500000Y-58750000D03*
%TO.N,R-*%
X218000000Y-48000000D03*
X217000000Y-61250000D03*
%TO.N,T-*%
X220250000Y-56750000D03*
X221000000Y-47750000D03*
X213600000Y-37100000D03*
%TO.N,SDA*%
X251000000Y-89750000D03*
X212750000Y-72500000D03*
%TO.N,SCL*%
X214250000Y-74750000D03*
X253250000Y-89750000D03*
%TO.N,CRX1*%
X198750000Y-64750000D03*
X220500000Y-93750000D03*
X259000000Y-90500000D03*
X190500000Y-53000000D03*
X258500000Y-39750000D03*
%TO.N,CTX1*%
X200250000Y-64000000D03*
X257750000Y-88750000D03*
X195000000Y-53000000D03*
X256500000Y-39500000D03*
X222750000Y-92000000D03*
%TD*%
M02*
